
<svg width="310px" height="226px" viewBox="0 0 310 226" version="1.1" xmlns="http://www.w3.org/2000/svg" xmlns:xlink="http://www.w3.org/1999/xlink">
    <g id="Page-1" stroke="none" stroke-width="1" fill="none" fill-rule="evenodd">
        <g id="artificial_intelligence" transform="translate(-25.000000, -22.000000)">
            <ellipse id="Oval" fill="#DEE3F3" fill-rule="nonzero" opacity="0.5" cx="179.476692" cy="234.130398" rx="76.8" ry="12.9"></ellipse>
            <g id="Group" opacity="0.45">
                <path d="M161.030463,99.890304 C161.0313,100.034511 161.041477,100.178513 161.060931,100.321404 C161.041453,100.178515 161.031275,100.034512 161.030463,99.890304 Z" id="Path" fill="#6C63FF" fill-rule="nonzero"></path>
                <path d="M199.705197,90.624177 C199.711026,90.662673 199.718274,90.700677 199.722771,90.739575 C199.718274,90.70062 199.711026,90.662697 199.705197,90.624177 Z" id="Path" fill="#6C63FF" fill-rule="nonzero"></path>
                <path d="M199.624764,90.242094 C199.635729,90.282129 199.646238,90.322347 199.655781,90.362979 C199.646238,90.322302 199.635774,90.282198 199.624764,90.242094 Z" id="Path" fill="#6C63FF" fill-rule="nonzero"></path>
                <path d="M199.664958,100.615416 C199.650183,100.681605 199.633158,100.746897 199.614531,100.811526 C199.633206,100.746876 199.650183,100.68165 199.664958,100.615416 Z" id="Path" fill="#6C63FF" fill-rule="nonzero"></path>
                <path d="M199.719009,100.298928 C199.710384,100.369293 199.700109,100.439151 199.687119,100.508091 C199.700106,100.439151 199.710384,100.369338 199.719009,100.298928 Z" id="Path" fill="#6C63FF" fill-rule="nonzero"></path>
                <path d="M162.818859,102.835287 C162.561281,102.700362 162.322434,102.532364 162.108381,102.335559 C162.322358,102.532459 162.561218,102.700465 162.818859,102.835287 L162.818859,102.835287 Z" id="Path" fill="#6C63FF" fill-rule="nonzero"></path>
                <path d="M162.082365,102.311883 C161.981788,102.217652 161.887132,102.117295 161.798937,102.011385 C161.887108,102.117316 161.981766,102.217674 162.082365,102.311883 Z" id="Path" fill="#6C63FF" fill-rule="nonzero"></path>
                <path d="M219.154227,165.73056 C219.115236,165.599098 219.068066,165.470202 219.012993,165.344625 C219.068051,165.470208 219.11522,165.599103 219.154227,165.73056 L219.154227,165.73056 Z" id="Path" fill="#6C63FF" fill-rule="nonzero"></path>
                <path d="M217.502109,163.730316 C217.633274,163.79877 217.759735,163.87588 217.880655,163.961136 C217.759764,163.875837 217.633299,163.798724 217.502109,163.730316 Z" id="Path" fill="#6C63FF" fill-rule="nonzero"></path>
                <path d="M218.245437,164.25996 C218.448238,164.450923 218.62634,164.66652 218.775588,164.901723 C218.626373,164.666496 218.448268,164.450896 218.245437,164.25996 L218.245437,164.25996 Z" id="Path" fill="#6C63FF" fill-rule="nonzero"></path>
                <path d="M217.892172,163.969755 C218.00226,164.048498 218.107483,164.133831 218.207262,164.225286 C218.107519,164.133789 218.002294,164.048454 217.892172,163.969755 Z" id="Path" fill="#6C63FF" fill-rule="nonzero"></path>
                <path d="M218.984406,165.285294 C218.934604,165.177835 218.879065,165.073129 218.818029,164.971629 C218.879087,165.073117 218.934626,165.177824 218.984406,165.285294 Z" id="Path" fill="#6C63FF" fill-rule="nonzero"></path>
                <path d="M219.245637,166.140216 C219.22771,166.029633 219.204171,165.920034 219.175113,165.811842 C219.204174,165.920033 219.227712,166.029633 219.245637,166.140216 Z" id="Path" fill="#6C63FF" fill-rule="nonzero"></path>
                <path d="M319.339137,147.943047 L300.243381,147.943047 C301.138413,147.32329 301.67234,146.30378 301.672023,145.21512 L301.672023,136.448409 C301.672041,135.56729 301.322032,134.722252 300.698994,134.099199 C300.075956,133.476146 299.230927,133.126116 298.349808,133.126113 L276.370308,133.126113 C277.747547,132.686509 278.682522,131.406879 278.682795,129.961182 L278.682795,121.194489 C278.68313,120.105821 278.149192,119.086301 277.254138,118.466562 L298.34982,118.466562 C299.23094,118.466552 300.075968,118.116517 300.699004,117.493461 C301.322041,116.870406 301.672051,116.025368 301.672035,115.144248 L301.672035,106.377522 C301.672053,105.496402 301.322044,104.651365 300.699006,104.028311 C300.075968,103.405258 299.23094,103.055227 298.34982,103.055223 L274.866759,103.055223 C276.244005,102.615628 277.178983,101.335992 277.179246,99.890292 L277.179246,91.123599 C277.179577,90.0349316 276.64564,89.0154138 275.750589,88.395672 L298.349811,88.395672 C299.230932,88.3956648 300.075961,88.0456309 300.698999,87.4225748 C301.322036,86.7995188 301.672045,85.9544792 301.672026,85.073358 L301.672026,76.306632 C301.67204,75.4255153 301.322029,74.5804818 300.698992,73.9574321 C300.075954,73.3343823 299.230928,72.9843542 298.349811,72.984351 L286.51923,72.984351 C287.896469,72.5447474 288.831444,71.2651168 288.831717,69.81942 L288.831717,61.052712 C288.831727,60.1715766 288.481701,59.3265275 287.858644,58.7034707 C287.235587,58.0804139 286.390538,57.730398 285.509403,57.730398 L253.437771,57.730398 C252.556634,57.730398 251.711582,58.0804085 251.088524,58.7034661 C250.465466,59.3265237 250.115441,60.1715751 250.115454,61.052712 C250.115464,60.1715759 249.765439,59.3265258 249.142381,58.7034688 C248.519323,58.0804117 247.674273,57.730398 246.793137,57.730398 L214.721508,57.730398 C213.429111,57.730398 212.254524,58.4815527 211.711008,59.654106 C211.753401,59.8671135 211.774856,60.083757 211.775067,60.300942 L211.775067,69.06765 C211.774693,69.5501911 211.668628,70.0267937 211.464327,70.463952 C211.613837,71.2208812 212.022617,71.9019829 212.620263,72.389952 L220.856994,72.389952 C221.624318,72.3889135 222.368134,72.6546736 222.961068,73.141722 L226.551996,73.141722 C225.174801,73.5813576 224.23986,74.8609555 224.239557,76.30662 C224.238902,76.0953072 224.218141,75.8845362 224.177553,75.677157 C224.177655,75.688983 224.179308,75.700407 224.179308,75.712257 L224.179308,84.47895 C224.178251,84.7585662 224.141843,85.0369267 224.070951,85.307409 C224.124246,85.363806 224.171988,85.4252021 224.213517,85.490748 C224.230887,85.3522896 224.239584,85.2128807 224.239557,85.073337 C224.241382,85.2659729 224.260011,85.4580824 224.295231,85.64748 C224.339268,85.7531574 224.364449,85.8657335 224.369631,85.980102 C224.579389,86.7188189 225.038199,87.3622467 225.66825,87.801264 L222.810852,87.801264 C222.836457,87.783459 222.859176,87.762027 222.884265,87.74352 C222.618909,87.750153 222.351696,87.721155 222.086007,87.718098 C221.991166,87.7169473 221.897435,87.6975281 221.809944,87.660903 C221.50081,87.7537836 221.17978,87.8010685 220.856994,87.801264 L201.175368,88.395651 C200.280336,89.0154101 199.746711,90.0349168 199.746711,91.123578 L199.746711,99.890271 C199.746711,101.335971 200.681952,102.615607 202.059198,103.055202 L220.856994,103.212585 C221.187495,103.212471 221.516162,103.2617 221.832126,103.358643 C222.041897,103.37694 222.249679,103.413441 222.453126,103.467735 C222.468762,103.464294 222.484515,103.462959 222.500166,103.459734 C222.317374,103.35944 222.125492,103.276687 221.927091,103.212585 L226.551984,103.212585 C225.174786,103.652227 224.239846,104.931832 224.239545,106.377501 C224.239276,106.184872 224.222326,105.992627 224.188884,105.802923 C224.166917,105.834526 224.142511,105.864361 224.115888,105.892155 C224.157766,106.103847 224.179002,106.319104 224.179296,106.534899 L224.179296,115.30161 C224.179296,115.708347 224.239545,115.610595 224.239545,115.144227 C224.23924,116.232897 224.773187,117.252408 225.668238,117.872154 L237.395958,118.248039 C237.798264,118.248698 238.197074,118.322744 238.572804,118.466541 L241.395159,118.466541 C240.890045,118.819661 240.492641,119.305822 240.247041,119.871078 C240.555275,120.384304 240.718163,120.97168 240.718272,121.570353 L240.718272,130.337055 C240.718372,130.794719 240.623522,131.247426 240.439719,131.666559 C240.855295,132.360223 241.509044,132.879002 242.278989,133.126101 L239.197317,133.126101 C238.66113,133.474432 238.035381,133.659679 237.395982,133.659369 L225.761868,133.659369 C224.813019,134.269545 224.239505,135.320289 224.239569,136.448397 C224.239569,135.277647 223.803435,146.815377 223.803435,146.815377 C223.803435,147.851613 241.90662,148.31892 241.90662,148.31892 C242.366636,148.318877 242.821603,148.414789 243.242454,148.600527 C243.431361,148.560192 243.62456,148.543564 243.817581,148.551027 C243.811581,148.546785 243.806322,148.541607 243.800277,148.537416 L246.657591,148.537416 C245.762537,149.157161 245.228601,150.176684 245.228937,151.265355 C245.228019,151.106776 245.215766,150.948466 245.192271,150.791634 C245.176503,150.827598 245.1603,150.863211 245.14236,150.897453 C245.19914,151.141335 245.228183,151.390852 245.228937,151.641255 L245.228937,160.032078 C245.22893,160.913213 245.578956,161.75826 246.202012,162.381317 C246.825069,163.004373 247.670116,163.354399 248.551251,163.354392 L243.438156,163.354392 C242.965455,163.601438 242.439984,163.730398 241.90662,163.730277 L221.083575,163.730277 C219.983465,164.301159 219.292947,165.437291 219.292797,166.676706 L219.292797,175.443399 C219.292795,176.324532 219.642823,177.169576 220.265878,177.792632 C220.888934,178.415687 221.733978,178.765713 222.615111,178.765713 L254.686737,178.765713 C255.567873,178.765713 256.412922,178.415698 257.035979,177.792641 C257.659036,177.169584 258.009061,176.324535 258.009051,175.443399 C258.009041,176.324535 258.359066,177.169584 258.982123,177.792641 C259.60518,178.415698 260.450229,178.765713 261.331365,178.765713 L293.403006,178.765713 C294.284142,178.765713 295.129191,178.415698 295.752248,177.792641 C296.375305,177.169584 296.72533,176.324535 296.72532,175.443399 L296.72532,166.676697 C296.725333,165.795561 296.375308,164.95051 295.752251,164.327452 C295.129193,163.704395 294.284142,163.35437 293.403006,163.354383 L319.339137,163.354383 C320.220273,163.354393 321.065322,163.004368 321.688379,162.381311 C322.311436,161.758254 322.661451,160.913205 322.661451,160.032069 L322.661451,151.265355 C322.661451,150.384219 322.311441,149.539167 321.688383,148.916111 C321.065325,148.293054 320.220273,147.943031 319.339137,147.943047 Z M239.891637,88.395672 C238.996604,89.0154304 238.462673,90.0349375 238.46298,91.123599 C238.463287,90.0349375 237.929356,89.0154304 237.034323,88.395672 L239.891637,88.395672 Z M236.150493,103.055223 C237.527739,102.615628 238.462717,101.335992 238.46298,99.890292 C238.463243,101.335992 239.398221,102.615628 240.775467,103.055223 L236.150493,103.055223 Z M247.802967,72.984351 C249.180207,72.5447482 250.115182,71.2651171 250.115454,69.81942 C250.115728,71.2651176 251.050704,72.5447484 252.427944,72.984351 L247.802967,72.984351 Z M258.009057,166.676697 C258.00907,165.79556 257.659044,164.950508 257.035986,164.32745 C256.412927,163.704392 255.567874,163.354383 254.686737,163.354383 L261.331365,163.354383 C260.45023,163.354383 259.60518,163.704397 258.982124,164.327454 C258.359068,164.950512 258.009044,165.795562 258.009057,166.676697 L258.009057,166.676697 Z M261.527124,147.943047 C262.422165,147.323296 262.956099,146.303784 262.955781,145.21512 C262.955495,146.303797 263.489459,147.323306 264.384522,147.943047 L261.527124,147.943047 Z M262.955781,136.448409 C262.955498,135.002747 262.020571,133.72314 260.643381,133.283496 L265.268271,133.283496 C263.89106,133.723128 262.9561,135.00273 262.955781,136.448409 L262.955781,136.448409 Z M261.527124,117.872175 C262.422165,117.252424 262.956099,116.232912 262.955781,115.144248 C262.955495,116.232925 263.489459,117.252434 264.384522,117.872175 L261.527124,117.872175 Z M262.955781,106.377522 C262.955494,104.93186 262.020569,103.652255 260.643381,103.212606 L265.268271,103.212606 C263.891062,103.652243 262.956103,104.931844 262.955781,106.377522 L262.955781,106.377522 Z M261.527124,87.801285 C262.422166,87.1815347 262.9561,86.1620224 262.955781,85.073358 C262.955494,86.1620348 263.489458,87.1815446 264.384522,87.801285 L261.527124,87.801285 Z M262.955781,76.306632 C262.955492,74.8609752 262.020566,73.581376 260.643381,73.141734 L265.268271,73.141734 C263.891065,73.5813646 262.956106,74.8609587 262.955781,76.306632 L262.955781,76.306632 Z M285.373851,148.537434 C284.4788,149.157176 283.944863,150.176694 283.945194,151.265361 C283.945525,150.176694 283.411588,149.157176 282.516537,148.537434 L285.373851,148.537434 Z M280.62288,163.354383 C281.504015,163.354383 282.349062,163.004364 282.972119,162.381308 C283.595175,161.758251 283.945201,160.913204 283.945194,160.032069 C283.945187,160.913204 284.295213,161.758251 284.918269,162.381308 C285.541326,163.004364 286.386373,163.354383 287.267508,163.354383 L280.62288,163.354383 Z" id="Shape" fill="#6C63FF" fill-rule="nonzero"></path>
                <g transform="translate(0.079737, 0.078255)"></g>
                <path d="M219.292797,166.676697 C219.291809,166.535196 219.281832,166.3939 219.262926,166.253664 C219.281855,166.393898 219.291833,166.535195 219.292797,166.676697 L219.292797,166.676697 Z" id="Path" fill="#6C63FF" fill-rule="nonzero"></path>
                <path d="M199.746723,99.890304 C199.746723,99.995562 199.740528,100.099329 199.73094,100.202088 C199.740576,100.099329 199.746723,99.995586 199.746723,99.890304 Z" id="Path" fill="#6C63FF" fill-rule="nonzero"></path>
                <path d="M161.068821,100.385718 C161.089001,100.519033 161.117354,100.650982 161.153721,100.780818 C161.117349,100.650983 161.088996,100.519034 161.068821,100.385718 Z" id="Path" fill="#6C63FF" fill-rule="nonzero"></path>
                <path d="M123.889218,119.974344 C123.834019,119.925489 123.786259,119.868827 123.747453,119.806155 C123.69946,119.720236 123.667524,119.62629 123.653211,119.528922 C123.645023,119.75667 123.648445,119.984688 123.663465,120.212088 C123.764221,120.529882 123.816237,120.861109 123.817743,121.194489 C123.819163,120.870507 123.868263,120.548498 123.963465,120.238815 C123.933294,120.163573 123.909839,120.085809 123.893376,120.006432 C123.891156,119.995491 123.891204,119.985201 123.889218,119.974344 Z" id="Path" fill="#6C63FF" fill-rule="nonzero"></path>
                <path d="M169.36062,57.730398 L137.288985,57.730398 C136.407851,57.730398 135.562805,58.0804212 134.93975,58.7034768 C134.316694,59.3265324 133.966667,60.1715783 133.966671,61.052712 C133.966676,60.1715781 133.616649,59.3265317 132.993593,58.703476 C132.370537,58.0804202 131.525491,57.730398 130.644357,57.730398 L98.572737,57.730398 C97.6916033,57.730398 96.8465574,58.0804212 96.2235018,58.7034768 C95.6004462,59.3265324 95.250419,60.1715783 95.250423,61.052712 L95.250423,69.81942 C95.2506965,71.2651168 96.1856707,72.5447474 97.56291,72.984351 L72.696837,72.984351 C71.8157083,72.9843446 70.970666,73.3343666 70.3476109,73.9574155 C69.7245557,74.5804645 69.3745254,75.4255033 69.374523,76.306632 L69.374523,85.073355 C69.3742167,86.1620242 69.9081626,87.1815355 70.803213,87.801282 L48.203994,87.801282 C47.3228601,87.8012772 46.4778137,88.1513042 45.854758,88.77436 C45.2317022,89.3974157 44.88168,90.2424621 44.88168,91.123596 L44.88168,99.890289 C44.88168,100.771422 45.2317064,101.616466 45.8547615,102.239522 C46.4778166,102.862577 47.3228611,103.212605 48.203994,103.212603 L71.686962,103.212603 C70.3097652,103.652247 69.3748265,104.93185 69.374526,106.377519 L69.374526,115.144245 C69.3742202,116.232914 69.908166,117.252425 70.803216,117.872172 L49.707537,117.872172 C48.8264031,117.872167 47.9813567,118.222194 47.358301,118.84525 C46.7352452,119.468306 46.3852182,120.313352 46.385223,121.194486 L46.385223,129.961179 C46.3852206,130.842312 46.7352483,131.687358 47.3583034,132.310413 C47.9813586,132.933469 48.8264035,133.283498 49.707537,133.283496 L71.686965,133.283496 C70.3097657,133.723134 69.3748251,135.00274 69.374529,136.448409 L69.374529,145.21512 C69.3745274,146.096252 69.7245546,146.941295 70.3476084,147.56435 C70.9706621,148.187405 71.8157051,148.537434 72.696837,148.537434 L91.792542,148.537434 C90.8975081,149.157191 90.3635763,150.176699 90.363885,151.265361 L90.363885,160.032069 C90.3638883,161.866931 91.851337,163.35438 93.686199,163.354383 L67.750068,163.354383 C66.8689341,163.354378 66.0238877,163.704405 65.400832,164.327461 C64.7777762,164.950517 64.4277492,165.795563 64.427754,166.676697 L64.427754,175.44339 C64.4277524,176.324523 64.7777804,177.169567 65.4008355,177.792623 C66.0238906,178.415678 66.8689351,178.765704 67.750068,178.765704 L99.8217,178.765704 C100.702833,178.765704 101.547877,178.415678 102.170933,177.792623 C102.793988,177.169567 103.144016,176.324523 103.144014,175.44339 C103.144012,176.324525 103.494042,177.16957 104.117099,177.792626 C104.740156,178.415681 105.585202,178.765704 106.466337,178.765704 L138.53796,178.765704 C139.419093,178.765704 140.264137,178.415678 140.887193,177.792623 C141.510248,177.169567 141.860276,176.324523 141.860274,175.44339 L141.860274,166.676697 C141.860124,165.437282 141.169606,164.30115 140.069496,163.730268 L133.154235,163.730268 C132.620871,163.730398 132.095399,163.60143 131.622699,163.354383 L125.757837,163.354383 C127.5927,163.354381 129.080151,161.866932 129.080154,160.032069 C129.080154,161.477682 129.831924,151.641246 129.831924,151.641246 C129.831919,150.760112 130.181946,149.915066 130.805002,149.29201 C131.428058,148.668954 132.273104,148.318927 133.154238,148.318932 L145.378338,147.943047 C145.726938,147.698904 146.02574,147.390475 146.258709,147.034311 C146.085607,146.627646 145.995934,146.19036 145.995009,145.748388 L145.995009,136.981695 C145.99438,136.331506 146.185541,135.695574 146.544564,135.153495 C146.283395,134.540726 145.844565,134.020296 145.284714,133.659378 L127.891827,133.659378 C127.252428,133.659687 126.626679,133.47444 126.090492,133.12611 L121.505256,133.12611 C122.882492,132.686505 123.817463,131.406876 123.817737,129.961182 L123.699975,121.258482 C123.699975,120.866277 123.679062,120.519339 123.663459,120.212082 C123.444675,119.504673 122.996225,118.890429 122.38908,118.466556 L125.246394,118.466556 C125.224863,118.481538 125.205837,118.499628 125.184672,118.515096 C126.804354,118.42224 145.307025,117.336912 146.811252,116.126196 C146.77288,115.896412 146.765459,115.662523 146.789187,115.430769 C146.762248,115.263744 146.748075,115.094909 146.746791,114.925731 L146.746791,106.159035 C146.746791,106.050228 146.752839,105.94284 146.763078,105.836703 C146.558924,104.605769 145.683064,103.592609 144.494589,103.212603 L148.537569,103.212603 C149.010269,102.965555 149.53574,102.836588 150.069105,102.836718 L159.239445,102.836718 C160.339746,102.266008 161.030399,101.129794 161.030445,99.890289 L161.030445,91.123599 C161.030752,90.0349375 160.496821,89.0154304 159.601788,88.395672 L150.069093,87.801285 C148.453689,87.801285 147.385032,87.209589 148.235721,87.801285 L145.378323,87.801285 C146.267286,87.1852895 146.800034,86.1745158 146.805777,85.093002 C146.767183,84.8905873 146.747432,84.6850312 146.746779,84.478971 L146.746779,75.712278 C146.746779,75.705078 146.747781,75.698148 146.747883,75.690978 C146.521173,74.492279 145.656379,73.5139101 144.494583,73.141746 L147.965007,73.141746 C148.557946,72.654695 149.301769,72.3889348 150.069099,72.389976 L171.461841,72.389976 C172.235002,71.7605766 172.682923,70.8163881 172.682923,69.819432 L172.682923,61.052712 C172.682923,60.1715804 172.3329,59.3265363 171.709847,58.7034811 C171.086794,58.0804258 170.241752,57.730398 169.36062,57.730398 Z M85.026597,88.395672 C84.1315643,89.0154304 83.5976329,90.0349375 83.59794,91.123599 C83.5982471,90.0349375 83.0643157,89.0154304 82.169283,88.395672 L85.026597,88.395672 Z M83.59794,99.890292 C83.598203,101.335992 84.5331813,102.615628 85.910427,103.055223 L81.285453,103.055223 C82.6626975,102.615627 83.5976745,101.335991 83.597937,99.890292 L83.59794,99.890292 Z M86.53014,118.466562 C85.6351034,119.086317 85.1011707,120.105826 85.101483,121.194489 C85.1017953,120.105826 84.5678626,119.086317 83.672826,118.466562 L86.53014,118.466562 Z M82.788996,133.126113 C84.1662353,132.686509 85.1012095,131.406879 85.101483,129.961182 C85.1017565,131.406879 86.0367307,132.686509 87.41397,133.126113 L82.788996,133.126113 Z M123.74286,88.395672 C122.847827,89.0154304 122.313896,90.0349375 122.314203,91.123599 C122.314509,90.0349378 121.780578,89.0154311 120.885546,88.395672 L123.74286,88.395672 Z M103.144014,166.676697 C103.144018,165.795563 102.793991,164.950517 102.170935,164.327462 C101.54788,163.704406 100.702834,163.354383 99.8217,163.354383 L106.466337,163.354383 C105.585202,163.354383 104.740154,163.704403 104.117096,164.327459 C103.494038,164.950515 103.14401,165.795562 103.144014,166.676697 Z M106.662078,147.943047 C107.557133,147.323302 108.091085,146.303792 108.090786,145.21512 C108.09048,146.303789 108.624426,147.3233 109.519476,147.943047 L106.662078,147.943047 Z M108.090786,136.448409 C108.090484,135.002736 107.155536,133.723131 105.778332,133.283496 L110.403237,133.283496 C109.026032,133.723129 108.091084,135.002736 108.090786,136.448409 L108.090786,136.448409 Z M106.662078,117.872175 C107.557133,117.25243 108.091085,116.23292 108.090786,115.144248 C108.09048,116.232917 108.624426,117.252428 109.519476,117.872175 L106.662078,117.872175 Z M108.090786,106.377522 C108.090479,104.93185 107.155534,103.652246 105.778332,103.212606 L110.403237,103.212606 C109.026034,103.652244 108.091089,104.931849 108.090786,106.377522 L108.090786,106.377522 Z M106.662078,87.801285 C107.557133,87.1815408 108.091086,86.1620299 108.090786,85.073358 C108.09048,86.1620272 108.624426,87.1815385 109.519476,87.801285 L106.662078,87.801285 Z M108.090786,76.306632 C108.090476,74.860965 107.15553,73.5813683 105.778332,73.141734 L110.403237,73.141734 C109.026037,73.5813653 108.091091,74.8609642 108.090786,76.306632 L108.090786,76.306632 Z M120.001713,103.055232 C121.37896,102.615638 122.31394,101.336002 122.314203,99.890301 C122.314465,101.336002 123.249444,102.615638 124.62669,103.055232 L120.001713,103.055232 Z M131.654184,72.98436 C133.031424,72.5447572 133.966399,71.2651261 133.966671,69.819429 C133.966944,71.2651258 134.901919,72.5447564 136.279158,72.98436 L131.654184,72.98436 Z" id="Shape" fill="#6C63FF" fill-rule="nonzero"></path>
                <path d="M162.122607,88.666155 C162.13839,88.65186 162.153807,88.637271 162.169776,88.623276 C162.153762,88.637262 162.13839,88.65183 162.122607,88.666155 Z" id="Path" fill="#6C63FF" fill-rule="nonzero"></path>
                <path d="M161.90181,88.886253 C161.885475,88.904172 161.868957,88.921767 161.852988,88.940007 C161.868957,88.921755 161.88552,88.904148 161.90181,88.886253 Z" id="Path" fill="#6C63FF" fill-rule="nonzero"></path>
                <path d="M161.623152,89.232222 C161.630724,89.221326 161.639214,89.211255 161.646876,89.20047 C161.639166,89.211255 161.630724,89.221347 161.623152,89.232222 Z" id="Path" fill="#6C63FF" fill-rule="nonzero"></path>
                <path d="M161.173437,100.848417 C161.211934,100.977729 161.258333,101.104555 161.312373,101.228181 C161.258333,101.104555 161.211934,100.977729 161.173437,100.848417 Z" id="Path" fill="#6C63FF" fill-rule="nonzero"></path>
                <path d="M161.527668,101.637357 C161.602212,101.756465 161.684234,101.870725 161.773242,101.97945 C161.684224,101.870733 161.602201,101.756472 161.527668,101.637357 L161.527668,101.637357 Z" id="Path" fill="#6C63FF" fill-rule="nonzero"></path>
                <path d="M161.32908,101.263215 C161.386709,101.390858 161.452394,101.514707 161.525739,101.634015 C161.452381,101.514715 161.386695,101.390864 161.32908,101.263215 Z" id="Path" fill="#6C63FF" fill-rule="nonzero"></path>
                <path d="M161.121405,90.362979 C161.130951,90.322347 161.141457,90.282129 161.152425,90.242094 C161.141412,90.282198 161.130951,90.322302 161.121405,90.362979 Z" id="Path" fill="#6C63FF" fill-rule="nonzero"></path>
                <path d="M161.233638,89.988555 C161.245662,89.955495 161.256858,89.922045 161.269887,89.889468 C161.256858,89.922075 161.245752,89.955456 161.233638,89.988555 Z" id="Path" fill="#6C63FF" fill-rule="nonzero"></path>
                <path d="M161.054415,90.739575 C161.058915,90.700665 161.06616,90.662673 161.071989,90.624177 C161.06616,90.662697 161.058912,90.70062 161.054415,90.739575 Z" id="Path" fill="#6C63FF" fill-rule="nonzero"></path>
                <path d="M161.416626,89.570805 C161.418645,89.566974 161.420205,89.562891 161.422272,89.559057 C161.420205,89.562891 161.418645,89.566974 161.416626,89.570805 Z" id="Path" fill="#6C63FF" fill-rule="nonzero"></path>
                <rect id="Rectangle" fill="#000000" fill-rule="nonzero" opacity="0.1" transform="translate(114.984423, 65.436070) rotate(-180.000000) translate(-114.984423, -65.436070) " x="95.626293" y="57.730407" width="38.71626" height="15.411327" rx="2.651583"></rect>
                <rect id="Rectangle" fill="#000000" fill-rule="nonzero" opacity="0.1" transform="translate(230.757321, 65.436070) rotate(-180.000000) translate(-230.757321, -65.436070) " x="211.399191" y="57.730407" width="38.71626" height="15.411327" rx="2.651583"></rect>
                <rect id="Rectangle" fill="#000000" fill-rule="nonzero" opacity="0.1" transform="translate(282.253707, 80.471515) rotate(-180.000000) translate(-282.253707, -80.471515) " x="262.895577" y="72.765852" width="38.71626" height="15.411327" rx="2.651583"></rect>
                <rect id="Rectangle" fill="#000000" fill-rule="nonzero" opacity="0.1" transform="translate(219.104853, 95.506954) rotate(-180.000000) translate(-219.104853, -95.506954) " x="199.746723" y="87.801291" width="38.71626" height="15.411327" rx="2.651583"></rect>
                <rect id="Rectangle" fill="#000000" fill-rule="nonzero" opacity="0.1" transform="translate(282.253707, 110.918284) rotate(-180.000000) translate(-282.253707, -110.918284) " x="262.895577" y="103.212621" width="38.71626" height="15.411327" rx="2.651583"></rect>
                <rect id="Rectangle" fill="#000000" fill-rule="nonzero" opacity="0.1" transform="translate(282.253707, 140.989165) rotate(-180.000000) translate(-282.253707, -140.989165) " x="262.895577" y="133.283502" width="38.71626" height="15.411327" rx="2.651583"></rect>
                <path d="M281.526288,148.318932 L247.647837,148.318932 C246.573451,148.319345 245.628125,149.028456 245.327064,150.059799 C245.336025,150.196358 245.326814,150.333503 245.299671,150.467637 C245.282216,150.546336 245.25923,150.623705 245.230884,150.699168 C245.230683,150.712182 245.228931,150.724776 245.228931,150.737838 L245.228931,161.311362 C245.228931,162.647284 246.311909,163.730262 247.647831,163.730262 L281.526288,163.730262 C282.86221,163.730262 283.945188,162.647284 283.945188,161.311362 L283.945188,150.737838 C283.945188,150.096305 283.690343,149.481047 283.236711,149.027414 C282.783079,148.57378 282.167821,148.318932 281.526288,148.318932 L281.526288,148.318932 Z" id="Path" fill="#000000" fill-rule="nonzero" opacity="0.1"></path>
                <rect id="Rectangle" fill="#000000" fill-rule="nonzero" opacity="0.1" transform="translate(238.650927, 171.060046) rotate(-180.000000) translate(-238.650927, -171.060046) " x="219.292797" y="163.354383" width="38.71626" height="15.411327" rx="2.651583"></rect>
                <rect id="Rectangle" fill="#000000" fill-rule="nonzero" opacity="0.1" transform="translate(127.388664, 80.471515) rotate(-180.000000) translate(-127.388664, -80.471515) " x="108.030534" y="72.765852" width="38.71626" height="15.411327" rx="2.651583"></rect>
                <rect id="Rectangle" fill="#000000" fill-rule="nonzero" opacity="0.1" transform="translate(103.331955, 95.506954) rotate(-180.000000) translate(-103.331955, -95.506954) " x="83.973825" y="87.801291" width="38.71626" height="15.411327" rx="2.651583"></rect>
                <rect id="Rectangle" fill="#000000" fill-rule="nonzero" opacity="0.1" transform="translate(88.672401, 110.918284) rotate(-180.000000) translate(-88.672401, -110.918284) " x="69.314271" y="103.212621" width="38.71626" height="15.411327" rx="2.651583"></rect>
                <rect id="Rectangle" fill="#000000" fill-rule="nonzero" opacity="0.1" transform="translate(104.459613, 125.953723) rotate(-180.000000) translate(-104.459613, -125.953723) " x="85.101483" y="118.24806" width="38.71626" height="15.411327" rx="2.651583"></rect>
                <rect id="Rectangle" fill="#000000" fill-rule="nonzero" opacity="0.1" transform="translate(88.672401, 140.989166) rotate(-180.000000) translate(-88.672401, -140.989166) " x="69.314271" y="133.283502" width="38.71626" height="15.411327" rx="2.651583"></rect>
                <rect id="Rectangle" fill="#6C63FF" fill-rule="nonzero" transform="translate(71.157225, 156.041272) rotate(-180.000000) translate(-71.157225, -156.041272) " x="51.799095" y="148.335609" width="38.71626" height="15.411327" rx="2.651583"></rect>
                <rect id="Rectangle" fill="#6C63FF" fill-rule="nonzero" transform="translate(297.212487, 125.937058) rotate(-180.000000) translate(-297.212487, -125.937058) " x="277.854357" y="118.231395" width="38.71626" height="15.411327" rx="2.651583"></rect>
                <rect id="Rectangle" fill="#6C63FF" fill-rule="nonzero" transform="translate(295.570443, 95.559172) rotate(-180.000000) translate(-295.570443, -95.559172) " x="276.212313" y="87.853509" width="38.71626" height="15.411327" rx="2.651583"></rect>
                <rect id="Rectangle" fill="#6C63FF" fill-rule="nonzero" transform="translate(315.001344, 170.819701) rotate(-180.000000) translate(-315.001344, -170.819701) " x="295.643214" y="163.114038" width="38.71626" height="15.411327" rx="2.651583"></rect>
                <rect id="Rectangle" fill="#6C63FF" fill-rule="nonzero" transform="translate(45.158133, 171.093376) rotate(-180.000000) translate(-45.158133, -171.093376) " x="25.800003" y="163.387713" width="38.71626" height="15.411327" rx="2.651583"></rect>
                <rect id="Rectangle" fill="#6C63FF" fill-rule="nonzero" transform="translate(50.357949, 140.715490) rotate(-180.000000) translate(-50.357949, -140.715490) " x="30.999819" y="133.009827" width="38.71626" height="15.411327" rx="2.651583"></rect>
                <rect id="Rectangle" fill="#6C63FF" fill-rule="nonzero" transform="translate(50.357949, 110.884954) rotate(-180.000000) translate(-50.357949, -110.884954) " x="30.999819" y="103.179291" width="38.71626" height="15.411327" rx="2.651583"></rect>
                <rect id="Rectangle" fill="#6C63FF" fill-rule="nonzero" transform="translate(51.726321, 80.507065) rotate(-180.000000) translate(-51.726321, -80.507065) " x="32.368191" y="72.801402" width="38.71626" height="15.411327" rx="2.651583"></rect>
                <rect id="Rectangle" fill="#000000" fill-rule="nonzero" opacity="0.1" transform="translate(51.726321, 80.507065) rotate(-180.000000) translate(-51.726321, -80.507065) " x="32.368191" y="72.801402" width="38.71626" height="15.411327" rx="2.651583"></rect>
                <rect id="Rectangle" fill="#6C63FF" fill-rule="nonzero" transform="translate(76.357044, 65.454961) rotate(-180.000000) translate(-76.357044, -65.454961) " x="56.998914" y="57.749298" width="38.71626" height="15.411327" rx="2.651583"></rect>
                <rect id="Rectangle" fill="#000000" fill-rule="nonzero" opacity="0.1" transform="translate(110.097903, 156.024608) rotate(-180.000000) translate(-110.097903, -156.024608) " x="90.739773" y="148.318944" width="38.71626" height="15.411327" rx="2.651583"></rect>
                <rect id="Rectangle" fill="#000000" fill-rule="nonzero" opacity="0.1" transform="translate(83.785881, 171.060046) rotate(-180.000000) translate(-83.785881, -171.060046) " x="64.427751" y="163.354383" width="38.71626" height="15.411327" rx="2.651583"></rect>
            </g>
            <circle id="Oval" fill="#6C63FF" fill-rule="nonzero" opacity="0.5" cx="268.900584" cy="30.876105" r="8.676105"></circle>
            <path d="M101.381739,46.606155 L99.317517,46.606155 C99.8347398,46.6076455 100.313312,46.3325661 100.572355,45.8848847 C100.831398,45.4372034 100.831398,44.8852066 100.572355,44.4375253 C100.313312,43.9898439 99.8347398,43.7147645 99.317517,43.716249 L82.597335,43.716249 C82.0801122,43.7147645 81.6015396,43.9898439 81.3424969,44.4375253 C81.0834543,44.8852066 81.0834543,45.4372034 81.3424969,45.8848847 C81.6015396,46.3325661 82.0801122,46.6076455 82.597335,46.606155 L84.661554,46.606155 C84.1446217,46.6051016 83.6665053,46.8802769 83.4077346,47.3277787 C83.1489639,47.7752804 83.1489639,48.3269296 83.4077346,48.7744313 C83.6665053,49.2219331 84.1446217,49.4971084 84.661554,49.496055 L81.771654,49.496055 C80.9752558,49.4983501 80.3308621,50.1446035 80.3308621,50.941005 C80.3308621,51.7374065 80.9752558,52.3836599 81.771654,52.385955 L98.491839,52.385955 C99.2882372,52.3836599 99.9326309,51.7374065 99.9326309,50.941005 C99.9326309,50.1446035 99.2882372,49.4983501 98.491839,49.496055 L101.381739,49.496055 C102.178613,49.4944312 102.823748,48.8479809 102.823748,48.051105 C102.823748,47.2542291 102.178613,46.6077788 101.381739,46.606155 L101.381739,46.606155 Z" id="Path" fill="#DEE3F3" fill-rule="nonzero" opacity="0.5"></path>
            <path d="M267.800886,29.833485 L266.229888,29.833485 C266.837235,29.833485 267.329587,29.3411328 267.329587,28.7337855 C267.329587,28.1264382 266.837235,27.634086 266.229888,27.634086 L253.504788,27.634086 C252.897441,27.634086 252.405088,28.1264382 252.405088,28.7337855 C252.405088,29.3411328 252.897441,29.833485 253.504788,29.833485 L255.075789,29.833485 C254.468442,29.833485 253.976089,30.3258372 253.976089,30.9331845 C253.976089,31.5405318 254.468442,32.032884 255.075789,32.032884 L252.87639,32.032884 C252.483505,32.032884 252.120465,32.2424855 251.924022,32.5827337 C251.72758,32.922982 251.72758,33.342185 251.924022,33.6824333 C252.120465,34.0226815 252.483505,34.232283 252.87639,34.232283 L265.60149,34.232283 C266.208837,34.232283 266.701189,33.7399308 266.701189,33.1325835 C266.701189,32.5252362 266.208837,32.032884 265.60149,32.032884 L267.800889,32.032884 C268.408236,32.032884 268.900588,31.5405318 268.900588,30.9331845 C268.900588,30.3258372 268.408236,29.833485 267.800889,29.833485 L267.800886,29.833485 Z" id="Path" fill="#DEE3F3" fill-rule="nonzero" opacity="0.5"></path>
            <path d="M140.981739,26.206155 L138.917517,26.206155 C139.43474,26.2076455 139.913312,25.9325661 140.172355,25.4848847 C140.431398,25.0372034 140.431398,24.4852066 140.172355,24.0375253 C139.913312,23.5898439 139.43474,23.3147645 138.917517,23.316249 L122.197335,23.316249 C121.680112,23.3147645 121.20154,23.5898439 120.942497,24.0375253 C120.683454,24.4852066 120.683454,25.0372034 120.942497,25.4848847 C121.20154,25.9325661 121.680112,26.2076455 122.197335,26.206155 L124.261554,26.206155 C123.744622,26.2051016 123.266505,26.4802769 123.007735,26.9277787 C122.748964,27.3752804 122.748964,27.9269296 123.007735,28.3744313 C123.266505,28.8219331 123.744622,29.0971084 124.261554,29.096055 L121.371654,29.096055 C120.575256,29.0983501 119.930862,29.7446035 119.930862,30.541005 C119.930862,31.3374065 120.575256,31.9836599 121.371654,31.985955 L138.091839,31.985955 C138.888237,31.9836599 139.532631,31.3374065 139.532631,30.541005 C139.532631,29.7446035 138.888237,29.0983501 138.091839,29.096055 L140.981739,29.096055 C141.778613,29.0944312 142.423748,28.4479809 142.423748,27.651105 C142.423748,26.8542291 141.778613,26.2077788 140.981739,26.206155 L140.981739,26.206155 Z" id="Path" fill="#DEE3F3" fill-rule="nonzero" opacity="0.5"></path>
            <rect id="Rectangle" fill="#6C63FF" fill-rule="nonzero" x="139.171521" y="101.622462" width="69.602832" height="32.279574" rx="3.89091"></rect>
            <rect id="Rectangle" fill="#000000" fill-rule="nonzero" opacity="0.1" x="144.719574" y="128.947824" width="58.506729" height="1"></rect>
            <rect id="Rectangle" fill="#000000" fill-rule="nonzero" opacity="0.3" x="144.719574" y="106.666146" width="58.506729" height="22.192209"></rect>
            <circle id="Oval" fill="#000000" fill-rule="nonzero" opacity="0.1" cx="158.337519" cy="118.225389" r="8.069895"></circle>
            <circle id="Oval" fill="#000000" fill-rule="nonzero" opacity="0.1" cx="189.608358" cy="118.225389" r="8.069895"></circle>
            <rect id="Rectangle" fill="#6C63FF" fill-rule="nonzero" x="167.920128" y="133.901127" width="12.104214" height="7.062912"></rect>
            <rect id="Rectangle" fill="#6C63FF" fill-rule="nonzero" x="148.75452" y="138.94572" width="50.436837" height="40.349469"></rect>
            <rect id="Rectangle" fill="#6C63FF" fill-rule="nonzero" x="147.745785" y="187.365081" width="52.45431" height="5.043684"></rect>
            <polygon id="Path" fill="#6C63FF" fill-rule="nonzero" points="156.3201 204.5136 156.3201 210.5661 156.3201 219.6447 156.3201 224.6883 156.3201 227.7144 165.3987 227.7144 165.3987 224.6883 165.3987 219.6447 165.3987 210.5661 165.3987 204.5136 165.3987 197.4525 156.3201 197.4525"></polygon>
            <polygon id="Path" fill="#6C63FF" fill-rule="nonzero" points="183.5559 197.4525 183.5559 204.5136 183.5559 210.5661 183.5559 219.6447 183.5559 224.6883 183.5559 227.7144 192.6345 227.7144 192.6345 224.6883 192.6345 219.6447 192.6345 210.5661 192.6345 204.5136 192.6345 197.4525"></polygon>
            <path d="M141.884619,148.024632 L141.884619,157.354632 C139.392788,157.789857 137.070957,158.909085 135.178335,160.587366 C133.423242,162.212791 132.058439,164.214064 131.186037,166.441455 C130.018926,169.26894 129.451575,172.409055 129.220005,175.37778 C128.934448,179.381967 129.121771,183.405855 129.778098,187.366194 L119.690874,187.366194 C119.262459,181.789977 119.399094,177.005715 119.954856,172.89765 C120.577782,168.26625 121.731012,164.496267 123.192225,161.430258 C126.114648,155.300583 130.271349,151.97523 133.92321,150.168978 C138.260544,148.024632 141.884619,148.024632 141.884619,148.024632 Z" id="Path" fill="#6C63FF" fill-rule="nonzero"></path>
            <rect id="Rectangle" fill="#000000" fill-rule="nonzero" opacity="0.3" x="156.320046" y="197.452449" width="9.07863" height="7.061157"></rect>
            <rect id="Rectangle" fill="#000000" fill-rule="nonzero" opacity="0.3" x="156.320046" y="210.566025" width="9.07863" height="9.07863"></rect>
            <rect id="Rectangle" fill="#000000" fill-rule="nonzero" opacity="0.3" x="156.320046" y="224.688339" width="9.07863" height="3.026211"></rect>
            <rect id="Rectangle" fill="#000000" fill-rule="nonzero" opacity="0.3" x="183.555939" y="197.452449" width="9.07863" height="7.061157"></rect>
            <rect id="Rectangle" fill="#000000" fill-rule="nonzero" opacity="0.3" x="183.555939" y="210.566025" width="9.07863" height="9.07863"></rect>
            <rect id="Rectangle" fill="#000000" fill-rule="nonzero" opacity="0.3" x="183.555939" y="224.688339" width="9.07863" height="3.026211"></rect>
            <path d="M141.884619,148.024632 L141.884619,157.354632 C139.392788,157.789857 137.070957,158.909085 135.178335,160.587366 L133.92321,150.168993 C138.260544,148.024632 141.884619,148.024632 141.884619,148.024632 Z" id="Path" fill="#000000" fill-rule="nonzero" opacity="0.3"></path>
            <path d="M131.186037,166.441455 C130.018926,169.26894 129.451575,172.409055 129.220005,175.37778 L119.954853,172.89765 C120.577779,168.26625 121.731009,164.496267 123.192222,161.430258 L131.186037,166.441455 Z" id="Path" fill="#000000" fill-rule="nonzero" opacity="0.3"></path>
            <path d="M206.061261,148.024632 L206.061261,157.354632 C208.553092,157.789857 210.874923,158.909085 212.767545,160.587366 C214.522636,162.212791 215.887438,164.214064 216.759837,166.441455 C217.926951,169.26894 218.494302,172.409055 218.725872,175.37778 C219.011427,179.381967 218.824105,183.405855 218.167779,187.366194 L228.255006,187.366194 C228.683406,181.789977 228.546786,177.005715 227.991024,172.89765 C227.368098,168.26625 226.214865,164.496267 224.753655,161.430258 C221.831232,155.300583 217.674531,151.97523 214.02267,150.168978 C209.685336,148.024632 206.061261,148.024632 206.061261,148.024632 Z" id="Path" fill="#6C63FF" fill-rule="nonzero"></path>
            <path d="M206.061261,148.024632 L206.061261,157.354632 C208.553092,157.789857 210.874923,158.909085 212.767545,160.587366 L214.02267,150.168993 C209.685336,148.024632 206.061261,148.024632 206.061261,148.024632 Z" id="Path" fill="#000000" fill-rule="nonzero" opacity="0.3"></path>
            <path d="M216.759837,166.441455 C217.926951,169.26894 218.494302,172.409055 218.725872,175.37778 L227.991024,172.89765 C227.368098,168.26625 226.214865,164.496267 224.753655,161.430258 L216.759837,166.441455 Z" id="Path" fill="#000000" fill-rule="nonzero" opacity="0.3"></path>
            <rect id="Rectangle" fill="#000000" fill-rule="nonzero" opacity="0.1" x="167.920128" y="133.901127" width="12.104214" height="1"></rect>
            <path d="M200.087637,146.135004 L200.087637,163.028103 C199.484206,162.376808 199.149207,161.521523 199.149776,160.633653 L199.149776,148.527135 C199.149222,147.639958 199.484259,146.785403 200.087637,146.135004 L200.087637,146.135004 Z" id="Path" fill="#000000" fill-rule="nonzero" opacity="0.1"></path>
            <path d="M148.933635,147.248859 L148.933635,159.894954 C148.873375,160.694526 148.541649,161.449489 147.993459,162.034668 L147.993459,145.109148 C148.541649,145.694326 148.873374,146.449288 148.933635,147.248859 Z" id="Path" fill="#000000" fill-rule="nonzero" opacity="0.1"></path>
            <rect id="Rectangle" fill="#000000" fill-rule="nonzero" opacity="0.1" x="151.27713" y="179.295957" width="45.392526" height="1"></rect>
            <rect id="Rectangle" fill="#000000" fill-rule="nonzero" opacity="0.1" x="150.267486" y="192.409815" width="22.191441" height="1"></rect>
            <rect id="Rectangle" fill="#000000" fill-rule="nonzero" opacity="0.1" x="174.478215" y="192.409815" width="22.191441" height="1"></rect>
            <rect id="Rectangle" fill="#6C63FF" fill-rule="nonzero" x="152.742978" y="71.749821" width="3.473562" height="29.872641"></rect>
            <rect id="Rectangle" fill="#6C63FF" fill-rule="nonzero" x="192.573168" y="71.749821" width="3.473562" height="29.872641"></rect>
            <circle id="Oval" fill="#000000" fill-rule="nonzero" opacity="0.1" cx="154.363974" cy="71.981391" r="3.936705"></circle>
            <circle id="Oval" fill="#6C63FF" fill-rule="nonzero" cx="154.363974" cy="71.749821" r="3.936705"></circle>
            <circle id="Oval" fill="#000000" fill-rule="nonzero" opacity="0.1" cx="194.425734" cy="71.981391" r="3.936705"></circle>
            <circle id="Oval" fill="#6C63FF" fill-rule="nonzero" cx="194.425734" cy="71.749821" r="3.936705"></circle>
            <path d="M71.256693,163.263732 C71.256693,163.263732 82.776693,185.877066 73.390026,198.250398 C64.003359,210.62373 74.243358,244.330398 74.243358,244.330398" id="Path" stroke="#FC6681" stroke-width="0.6"></path>
            <path d="M74.670027,156.223731 C74.670027,160.5831 71.470026,164.117064 71.470026,164.117064 C71.470026,164.117064 68.270037,160.5831 68.270037,156.223731 C68.270037,151.864362 71.470038,148.330398 71.470038,148.330398 C71.470038,148.330398 74.670027,151.864365 74.670027,156.223731 Z" id="Path" fill="#FC6681" fill-rule="nonzero"></path>
            <path d="M77.230026,163.263732 C77.230026,163.263732 65.710026,185.877066 75.096693,198.250398 C84.48336,210.62373 74.243358,244.330398 74.243358,244.330398" id="Path" stroke="#FFD037" stroke-width="0.6"></path>
            <path d="M73.816692,156.223731 C73.816692,160.5831 77.016693,164.117064 77.016693,164.117064 C77.016693,164.117064 80.216691,160.5831 80.216691,156.223731 C80.216691,151.864362 77.016693,148.330398 77.016693,148.330398 C77.016693,148.330398 73.816692,151.864365 73.816692,156.223731 Z" id="Path" fill="#FFD037" fill-rule="nonzero"></path>
            <path d="M81.923358,163.263732 C81.923358,163.263732 93.443358,185.877066 84.056691,198.250398 C74.670024,210.62373 84.910026,244.330398 84.910026,244.330398" id="Path" stroke="#FC6681" stroke-width="0.6"></path>
            <path d="M85.336692,156.223731 C85.336692,160.5831 82.136691,164.117064 82.136691,164.117064 C82.136691,164.117064 78.936693,160.5831 78.936693,156.223731 C78.936693,151.864362 82.136691,148.330398 82.136691,148.330398 C82.136691,148.330398 85.336692,151.864365 85.336692,156.223731 Z" id="Path" fill="#FC6681" fill-rule="nonzero"></path>
            <path d="M83.542764,174.342297 C80.520405,177.483855 75.764229,177.812055 75.764229,177.812055 C75.764229,177.812055 75.908262,173.046747 78.930621,169.90518 C81.95298,166.763613 86.709156,166.435437 86.709156,166.435437 C86.709156,166.435437 86.56512,171.20073 83.542764,174.342297 Z" id="Path" fill="#FC6681" fill-rule="nonzero"></path>
            <path d="M83.842764,189.942297 C80.820405,193.083855 76.064229,193.412055 76.064229,193.412055 C76.064229,193.412055 76.208262,188.646747 79.230621,185.50518 C82.25298,182.363613 87.009156,182.035437 87.009156,182.035437 C87.009156,182.035437 86.86512,186.80073 83.842764,189.942297 Z" id="Path" fill="#FC6681" fill-rule="nonzero"></path>
            <path d="M67.453059,198.525834 C70.31103,201.817659 70.211502,206.584104 70.211502,206.584104 C70.211502,206.584104 65.478294,206.01345 62.620326,202.721628 C59.762358,199.429806 59.861883,194.663358 59.861883,194.663358 C59.861883,194.663358 64.595091,195.234012 67.453059,198.525834 Z" id="Path" fill="#FC6681" fill-rule="nonzero"></path>
            <path d="M70.104471,165.256344 C73.73826,167.664591 74.916237,172.284255 74.916237,172.284255 C74.916237,172.284255 70.202691,172.999371 66.568902,170.591121 C62.935113,168.182871 61.757124,163.563213 61.757124,163.563213 C61.757124,163.563213 66.470682,162.848094 70.104471,165.256344 Z" id="Path" fill="#FC6681" fill-rule="nonzero"></path>
            <path d="M87.896691,163.263732 C87.896691,163.263732 76.376691,185.877066 85.763358,198.250398 C95.150025,210.62373 84.910026,244.330398 84.910026,244.330398" id="Path" stroke="#FFD037" stroke-width="0.6"></path>
            <path d="M84.48336,156.223731 C84.48336,160.5831 87.683358,164.117064 87.683358,164.117064 C87.683358,164.117064 90.883359,160.5831 90.883359,156.223731 C90.883359,151.864362 87.683358,148.330398 87.683358,148.330398 C87.683358,148.330398 84.48336,151.864365 84.48336,156.223731 Z" id="Path" fill="#FFD037" fill-rule="nonzero"></path>
            <path d="M85.404051,174.677679 C82.344246,177.782784 82.143093,182.546022 82.143093,182.546022 C82.143093,182.546022 86.902863,182.274891 89.962665,179.169786 C93.022467,176.064681 93.223626,171.301455 93.223626,171.301455 C93.223626,171.301455 88.463856,171.572571 85.404051,174.677679 Z" id="Path" fill="#FFD037" fill-rule="nonzero"></path>
            <path d="M91.404051,196.277679 C88.344246,199.382784 88.143093,204.146022 88.143093,204.146022 C88.143093,204.146022 92.902863,203.874891 95.962665,200.769786 C99.022467,197.664681 99.223626,192.901455 99.223626,192.901455 C99.223626,192.901455 94.463856,193.172571 91.404051,196.277679 Z" id="Path" fill="#FFD037" fill-rule="nonzero"></path>
            <path d="M82.576692,191.530398 C82.576692,191.530398 89.511336,180.59982 99.244014,180.365109" id="Path" stroke="#FFD037" stroke-width="0.6"></path>
            <path d="M77.176692,184.930398 C77.176692,184.930398 70.242048,173.99982 60.50937,173.765109" id="Path" stroke="#FC6681" stroke-width="0.6"></path>
            <path d="M76.276692,200.530398 C76.276692,200.530398 83.211336,189.59982 92.944014,189.365109" id="Path" stroke="#FFD037" stroke-width="0.6"></path>
            <circle id="Oval" fill="#FFD037" fill-rule="nonzero" cx="98.926692" cy="180.280398" r="1.8"></circle>
            <circle id="Oval" fill="#FC6681" fill-rule="nonzero" cx="60.676692" cy="173.830398" r="1.8"></circle>
            <path d="M81.376692,204.130398 C81.376692,204.130398 74.442048,193.19982 64.70937,192.965109" id="Path" stroke="#FC6681" stroke-width="0.6"></path>
            <circle id="Oval" fill="#FC6681" fill-rule="nonzero" cx="64.876692" cy="193.030398" r="1.8"></circle>
            <circle id="Oval" fill="#FFD037" fill-rule="nonzero" cx="93.076692" cy="189.430398" r="1.8"></circle>
            <path d="M119.707782,231.200427 C119.707782,231.200427 102.996837,227.858238 98.540586,223.401987 C94.084335,218.945736 74.031201,211.147287 71.803086,216.717609 C69.574971,222.287931 41.723385,241.226994 60.662454,244.569183 C79.601523,247.911372 105.224973,249.025434 110.795289,246.797307 C116.365605,244.56918 119.707782,231.200427 119.707782,231.200427 Z" id="Path" fill="#A8A8A8" fill-rule="nonzero"></path>
            <path d="M60.662442,242.499702 C79.601508,245.84193 105.224946,246.955977 110.795268,244.727841 C115.037364,243.031002 117.985086,234.878286 119.150667,231.084249 C119.503407,231.159276 119.707767,231.200412 119.707767,231.200412 C119.707767,231.200412 116.365581,244.569153 110.795259,246.797292 C105.224937,249.025431 79.601499,247.911381 60.662433,244.569153 C55.195473,243.604404 53.632059,241.338708 54.220998,238.471446 C54.688437,240.342213 56.593305,241.781634 60.662442,242.499702 Z" id="Path" fill="#000000" fill-rule="nonzero" opacity="0.2"></path>
            <path d="M300.194877,167.256183 C300.194877,167.256183 304.198932,172.492254 298.346853,180.397683 C292.494774,188.303112 287.669382,194.97654 289.620072,199.904607 C289.620072,199.904607 298.449522,185.223081 305.636283,185.017743 C312.823044,184.812405 308.100315,176.085633 300.194877,167.256183 Z" id="Path" fill="#FC6681" fill-rule="nonzero"></path>
            <path d="M300.194877,167.256183 C300.544024,167.76202 300.819492,168.314922 301.013013,168.898296 C308.024994,177.136878 311.760621,184.825167 305.020275,185.017749 C298.74186,185.197131 291.210225,196.423944 289.406517,199.25922 C289.46562,199.478162 289.536917,199.693629 289.620072,199.904613 C289.620072,199.904613 298.449522,185.223087 305.636283,185.017749 C312.823044,184.812411 308.100315,176.085633 300.194877,167.256183 Z" id="Path" fill="#000000" fill-rule="nonzero" opacity="0.1"></path>
            <path d="M307.638309,173.929605 C307.638309,175.772418 307.431462,177.266316 307.176309,177.266316 C306.921156,177.266316 306.714309,175.772418 306.714309,173.929605 C306.714309,172.086792 306.972489,172.95426 307.227648,172.95426 C307.482807,172.95426 307.638309,172.086792 307.638309,173.929605 Z" id="Path" fill="#FFD037" fill-rule="nonzero"></path>
            <path d="M310.192569,176.12973 C308.574501,177.011667 307.163802,177.545001 307.041687,177.320958 C306.919572,177.096915 308.132286,176.200347 309.750354,175.318407 C311.368422,174.436467 310.73031,175.078317 310.852425,175.30236 C310.97454,175.526403 311.810637,175.24779 310.192569,176.12973 Z" id="Path" fill="#FFD037" fill-rule="nonzero"></path>
            <path d="M279.045267,167.256183 C279.045267,167.256183 275.041215,172.492254 280.893291,180.397683 C286.745367,188.303112 291.570765,194.97654 289.620072,199.904607 C289.620072,199.904607 280.790625,185.223081 273.603864,185.017743 C266.417103,184.812405 271.139832,176.085633 279.045267,167.256183 Z" id="Path" fill="#FC6681" fill-rule="nonzero"></path>
            <path d="M279.045267,167.256183 C278.696122,167.762021 278.420655,168.314923 278.227134,168.898296 C271.215153,177.136878 267.479526,184.825167 274.219872,185.017749 C280.498287,185.197131 288.029922,196.423944 289.83363,199.25922 C289.774526,199.478162 289.703228,199.693629 289.620072,199.904613 C289.620072,199.904613 280.790637,185.223087 273.603864,185.017755 C266.417091,184.812423 271.139832,176.085633 279.045267,167.256183 Z" id="Path" fill="#000000" fill-rule="nonzero" opacity="0.1"></path>
            <path d="M271.601838,173.929605 C271.601838,175.772418 271.808685,177.266316 272.063838,177.266316 C272.318991,177.266316 272.525838,175.772418 272.525838,173.929605 C272.525838,172.086792 272.267655,172.95426 272.012496,172.95426 C271.757337,172.95426 271.601838,172.086792 271.601838,173.929605 Z" id="Path" fill="#FFD037" fill-rule="nonzero"></path>
            <path d="M269.047575,176.12973 C270.665646,177.011667 272.076345,177.545001 272.198457,177.320958 C272.320569,177.096915 271.107861,176.200347 269.489793,175.318407 C267.871725,174.436467 268.509837,175.078317 268.387722,175.30236 C268.265607,175.526403 267.429507,175.24779 269.047575,176.12973 Z" id="Path" fill="#FFD037" fill-rule="nonzero"></path>
            <path d="M272.876937,199.219455 C272.876937,199.219455 284.071761,198.874662 287.445597,196.472199 C290.819433,194.069736 304.666053,191.201058 305.50302,195.054099 C306.339987,198.90714 322.326759,214.217298 309.687861,214.319247 C297.048963,214.421196 280.32069,212.350533 276.953337,210.299355 C273.585984,208.248177 272.876937,199.219455 272.876937,199.219455 Z" id="Path" fill="#A8A8A8" fill-rule="nonzero"></path>
            <path d="M309.913437,212.977983 C297.274536,213.079959 280.546263,211.009296 277.178916,208.958106 C274.614516,207.396006 273.592608,201.790875 273.250692,199.204881 C273.013902,199.215063 272.876964,199.219449 272.876964,199.219449 C272.876964,199.219449 273.58602,208.24815 276.953364,210.299349 C280.320708,212.350548 297.048984,214.421202 309.687885,214.319229 C313.336233,214.289805 314.596437,212.991777 314.527242,211.069281 C314.020392,212.230794 312.628941,212.956089 309.913437,212.977983 Z" id="Path" fill="#000000" fill-rule="nonzero" opacity="0.2"></path>
        </g>
    </g>
</svg>