
<svg width="238px" height="220px" viewBox="0 0 238 220" version="1.1" xmlns="http://www.w3.org/2000/svg" xmlns:xlink="http://www.w3.org/1999/xlink">
    <g id="Page-1" stroke="none" stroke-width="1" fill="none" fill-rule="evenodd">
        <g id="contract" fill-rule="nonzero">
            <path d="M14.373996,17.501979 C6.43919854,17.5110041 0.00902508935,23.9411775 5.68434189e-14,31.875975 L5.68434189e-14,197.4729 C0.00910281513,205.407636 6.43925982,211.837713 14.373996,211.846716 L135.851394,211.846716 C143.786068,211.837633 150.216127,205.407574 150.22521,197.4729 L150.22521,31.875963 C150.2162,23.9412315 143.786125,17.5110818 135.851394,17.501979 L14.373996,17.501979 Z" id="Path" fill="#3F3D56"></path>
            <rect id="Rectangle" fill="#FFFFFF" x="7.474797" y="27.711447" width="135.275613" height="173.925789"></rect>
            <rect id="Rectangle" fill="#6C63FF" x="25.159077" y="58.886823" width="99.907056" height="6.563238"></rect>
            <rect id="Rectangle" fill="#6C63FF" x="25.159077" y="76.38879" width="99.907056" height="6.563238"></rect>
            <rect id="Rectangle" fill="#6C63FF" x="25.159077" y="93.890757" width="99.907056" height="6.563238"></rect>
            <rect id="Rectangle" fill="#6C63FF" x="25.159077" y="111.392721" width="99.907056" height="6.563238"></rect>
            <rect id="Rectangle" fill="#6C63FF" x="25.159077" y="128.894688" width="99.907056" height="6.563238"></rect>
            <rect id="Rectangle" fill="#6C63FF" x="25.159077" y="146.396655" width="99.907056" height="6.563238"></rect>
            <rect id="Rectangle" fill="#6C63FF" x="25.159077" y="163.898622" width="99.907056" height="6.563238"></rect>
            <rect id="Rectangle" fill="#E6E6E6" transform="translate(88.593618, 89.434084) rotate(-10.370530) translate(-88.593618, -89.434084) " x="38.237427" y="24.6904103" width="100.712382" height="129.487347"></rect>
            <rect id="Rectangle" fill="#6C63FF" transform="translate(81.556809, 50.982137) rotate(-10.370530) translate(-81.556809, -50.982137) " x="44.3665232" y="48.5389786" width="74.380572" height="4.886316"></rect>
            <rect id="Rectangle" fill="#6C63FF" transform="translate(83.902410, 63.799453) rotate(-10.370530) translate(-83.902410, -63.799453) " x="46.7121244" y="61.3562952" width="74.380572" height="4.886316"></rect>
            <rect id="Rectangle" fill="#6C63FF" transform="translate(86.248014, 76.616769) rotate(-10.370530) translate(-86.248014, -76.616769) " x="49.0577281" y="74.1736113" width="74.380572" height="4.886316"></rect>
            <rect id="Rectangle" fill="#6C63FF" transform="translate(88.593615, 89.434083) rotate(-10.370530) translate(-88.593615, -89.434083) " x="51.4033288" y="86.9909249" width="74.380572" height="4.886316"></rect>
            <rect id="Rectangle" fill="#6C63FF" transform="translate(90.938172, 102.251355) rotate(-10.370392) translate(-90.938172, -102.251355) " x="53.7480609" y="99.8082084" width="74.3802223" height="4.88629302"></rect>
            <rect id="Rectangle" fill="#6C63FF" transform="translate(93.284826, 115.068712) rotate(-10.370530) translate(-93.284826, -115.068712) " x="56.0945397" y="112.625554" width="74.380572" height="4.886316"></rect>
            <rect id="Rectangle" fill="#6C63FF" transform="translate(95.630427, 127.886028) rotate(-10.370530) translate(-95.630427, -127.886028) " x="58.4401409" y="125.44287" width="74.380572" height="4.886316"></rect>
            <rect id="Rectangle" fill="#E6E6E6" transform="translate(185.875750, 176.603687) rotate(-10.370530) translate(-185.875750, -176.603687) " x="171.627256" y="158.284195" width="28.496988" height="36.638985"></rect>
            <rect id="Rectangle" fill="#FFFFFF" transform="translate(183.884654, 165.723552) rotate(-10.370530) translate(-183.884654, -165.723552) " x="173.361508" y="165.03225" width="21.046293" height="1.382604"></rect>
            <rect id="Rectangle" fill="#FFFFFF" transform="translate(184.548352, 169.350263) rotate(-10.370530) translate(-184.548352, -169.350263) " x="174.025206" y="168.658961" width="21.046293" height="1.382604"></rect>
            <rect id="Rectangle" fill="#FFFFFF" transform="translate(185.212053, 172.976974) rotate(-10.370530) translate(-185.212053, -172.976974) " x="174.688907" y="172.285672" width="21.046293" height="1.382604"></rect>
            <rect id="Rectangle" fill="#FFFFFF" transform="translate(185.875752, 176.603685) rotate(-10.370530) translate(-185.875752, -176.603685) " x="175.352605" y="175.912383" width="21.046293" height="1.382604"></rect>
            <rect id="Rectangle" fill="#FFFFFF" transform="translate(186.539447, 180.230403) rotate(-10.370530) translate(-186.539447, -180.230403) " x="176.016301" y="179.539101" width="21.046293" height="1.382604"></rect>
            <rect id="Rectangle" fill="#FFFFFF" transform="translate(187.203148, 183.857114) rotate(-10.370530) translate(-187.203148, -183.857114) " x="176.680002" y="183.165812" width="21.046293" height="1.382604"></rect>
            <rect id="Rectangle" fill="#FFFFFF" transform="translate(187.866846, 187.483825) rotate(-10.370530) translate(-187.866846, -187.483825) " x="177.3437" y="186.792523" width="21.046293" height="1.382604"></rect>
            <path d="M100.159719,9.115608 L88.239081,9.115608 L88.239081,6.675204 C88.239081,2.98859063 85.2504904,0 81.563877,0 L68.661333,0 C64.9747225,0 61.9861363,2.98859346 61.986138,6.675204 L61.986138,9.115608 L50.065494,9.115608 C48.2951201,9.115608 46.5972562,9.8188865 45.345413,11.0707302 C44.0935699,12.3225738 43.390293,14.0204381 43.390293,15.790812 L43.390293,34.274679 L106.83492,34.274679 L106.83492,15.790812 C106.83492,14.0204381 106.131643,12.3225738 104.8798,11.0707302 C103.627957,9.8188865 101.930093,9.115608 100.159719,9.115608 Z" id="Path" fill="#3F3D56"></path>
            <path d="M70.833486,188.989479 C72.804426,187.640637 74.830104,186.237825 77.170632,185.624703 C79.306077,185.065308 81.758139,185.213289 83.447163,186.776889 C84.810231,188.03874 85.385739,189.978189 84.375825,191.638311 C83.9375833,192.404254 83.1927137,192.946227 82.329087,193.127535 C81.4905918,193.238159 80.6539112,192.911286 80.112471,192.261552 C79.582941,191.676417 79.266123,190.811583 79.547505,190.040295 C79.843386,189.22926 80.634894,188.733255 81.412272,188.456451 C82.3170688,188.169834 83.2490179,187.977315 84.193323,187.881951 L88.061046,187.352469 L103.891719,185.185293 L121.521333,182.771847 C121.811261,182.689824 121.981466,182.390053 121.903335,182.099052 C121.816773,181.812717 121.520782,181.644658 121.23054,181.71705 L86.151204,186.519303 C84.882354,186.693003 83.595609,186.81738 82.33995,187.072587 C81.3514986,187.232491 80.4142652,187.621775 79.603398,188.209227 C77.922984,189.539646 78.043026,191.892801 79.589415,193.284627 C81.154857,194.693583 83.424561,194.451027 84.798288,192.894864 C86.227129,191.274676 86.3746111,188.891566 85.156443,187.107564 C83.656854,184.846389 80.92431,183.977682 78.313386,184.298379 C75.293832,184.669263 72.733893,186.366537 70.281387,188.044947 C69.703956,188.440119 70.250487,189.388455 70.833486,188.989473 L70.833486,188.989479 Z" id="Path" fill="#3F3D56"></path>
            <path d="M193.92186,148.450956 L194.286486,152.097201 C194.286486,152.097201 192.098739,160.118934 196.838856,160.118934 C201.578973,160.118934 197.932728,152.097201 197.932728,152.097201 L198.297354,149.180205 L193.92186,148.450956 Z" id="Path" fill="#A0616A"></path>
            <path d="M227.040534,136.303059 L225.367485,139.563279 C225.367485,139.563279 219.17571,145.112724 223.156671,147.685779 C227.137632,150.258834 228.429771,141.54255 228.429771,141.54255 L230.31942,139.290654 L227.040534,136.303059 Z" id="Path" fill="#A0616A"></path>
            <path d="M199.755849,151.732575 L204.860589,186.371883 L207.412959,211.166337 C207.412959,211.166337 209.600706,216.6357 216.893193,211.895586 L215.799318,197.675238 L215.070069,184.913388 C215.070069,184.913388 214.340823,172.516161 213.611574,170.328414 C212.882325,168.140667 213.976197,160.848183 213.976197,160.848183 L216.893193,148.815582 L199.755849,151.732575 Z" id="Path" fill="#2F2E41"></path>
            <path d="M208.142208,210.437079 L205.225215,213.718698 C205.225215,213.718698 200.849715,212.2602 199.755849,215.177193 C198.661983,218.094186 208.142208,218.823438 208.142208,218.823438 C208.142208,218.823438 217.987065,219.552687 217.987065,218.823438 C217.987065,218.094189 217.723275,212.516907 216.396672,212.206242 C215.070069,211.895577 208.142208,210.437079 208.142208,210.437079 Z" id="Path" fill="#2F2E41"></path>
            <path d="M213.611574,149.909454 L218.716314,186.371883 L221.268684,211.166337 C221.268684,211.166337 223.456428,216.6357 230.748915,211.895586 L229.655043,197.675238 L228.925794,184.913388 C228.925794,184.913388 228.196545,172.516161 227.467296,170.328414 C226.738047,168.140667 227.831922,160.848183 227.831922,160.848183 L227.102673,147.357084 L213.611574,149.909454 Z" id="Path" fill="#2F2E41"></path>
            <path d="M221.997933,210.437079 L219.080937,213.718698 C219.080937,213.718698 214.705437,212.2602 213.611574,215.177193 C212.517711,218.094186 221.997933,218.823438 221.997933,218.823438 C221.997933,218.823438 231.842787,219.552687 231.842787,218.823438 C231.842787,218.094189 231.578997,212.516907 230.252397,212.206242 C228.925797,211.895577 221.997933,210.437079 221.997933,210.437079 Z" id="Path" fill="#2F2E41"></path>
            <circle id="Oval" fill="#A0616A" cx="202.672845" cy="84.641703" r="7.65711"></circle>
            <polygon id="Path" fill="#A0616A" points="208.3245 88.1055 211.6062 93.5751 203.2197 97.2213 202.1259 90.6579"></polygon>
            <path d="M212.517699,93.028065 C212.517699,93.028065 204.860589,92.298816 201.943599,97.03893 L194.746665,102.508599 C193.560363,103.410188 192.948684,104.878721 193.144188,106.355865 L199.391238,153.555696 L208.506846,153.191073 L223.456446,150.274077 L227.831946,149.180205 L225.644199,129.855105 C225.644199,129.855105 223.091829,122.197995 226.008822,117.093255 L224.550327,99.226665 L214.340838,95.215809 L212.517699,93.028065 Z" id="Path" fill="#575A89"></path>
            <path d="M195.380358,103.966794 L194.833422,103.055232 C194.833422,103.055232 194.104173,103.055232 194.104173,104.51373 C194.104173,105.972228 192.827988,137.51223 192.827988,137.51223 L192.463365,149.544834 L199.391226,150.27408 L201.943596,127.667376 L200.849724,112.717776 L195.380358,103.966794 Z" id="Path" fill="#575A89"></path>
            <path d="M219.445563,98.497428 L224.550303,99.226677 C226.539395,101.309633 228.254805,103.63769 229.655043,106.154538 C231.842787,110.165406 238.406025,117.822516 236.947527,123.656505 C235.489029,129.490494 231.113538,140.064597 231.113538,140.064597 L224.185674,137.147604 C224.185674,137.147604 229.65504,124.385754 229.290414,123.291882 C228.925788,122.19801 224.5503,115.634769 224.5503,115.634769 L219.445563,98.497428 Z" id="Path" fill="#575A89"></path>
            <path d="M197.385792,80.448525 C197.385792,80.448525 191.187192,80.083902 195.198045,76.073025 C195.198045,76.073025 198.479664,74.614527 199.938162,75.343776 C199.938162,75.343776 202.125909,73.885278 202.125909,74.614527 C202.125909,74.614527 209.783019,72.426783 210.876891,80.083893 C211.970763,87.741003 210.147642,91.387245 210.147642,91.387245 L205.042902,91.022622 C205.042902,91.022622 206.136774,84.824007 202.125909,85.553256 C202.125909,85.553256 198.84429,86.647131 198.479664,85.553256 C198.115038,84.459381 197.385792,80.448525 197.385792,80.448525 Z" id="Path" fill="#2F2E41"></path>
            <polygon id="Path" fill="#000000" opacity="0.2" points="200.3028 149.727 203.5845 127.8498 201.3966 114.3585 202.1259 129.0327 199.9383 149.727"></polygon>
        </g>
    </g>
</svg>