
<svg width="287px" height="214px" viewBox="0 0 287 214" version="1.1" xmlns="http://www.w3.org/2000/svg" xmlns:xlink="http://www.w3.org/1999/xlink">
    <g id="Page-1" stroke="none" stroke-width="1" fill="none" fill-rule="evenodd">
        <g id="creative_thinking" fill-rule="nonzero">
            <ellipse id="Oval" fill="#3F3D56" cx="141.3" cy="200.157" rx="141.3" ry="13.8"></ellipse>
            <ellipse id="Oval" fill="#000000" opacity="0.1" cx="99.3" cy="198.207" rx="66.6" ry="10.05"></ellipse>
            <path d="M66.111,78.2219924 C34.833,78.2219924 9.48,103.578 9.48,134.853 C9.48,166.128 34.845,191.484004 66.111,191.484004 C69.9645486,191.485444 73.8082777,191.095442 77.583,190.32 C72.1945619,181.461356 69.3524548,171.28873 69.369,160.92 C69.369,133.578 88.749,110.76 114.525,105.456 C104.257934,88.5383407 85.9003846,78.2117927 66.111,78.2219924 Z" id="Path" fill="#6C63FF"></path>
            <path d="M15.195,136.482 C15.195,105.207 40.551,79.854 71.826,79.854 C74.8705862,79.854356 77.9102707,80.0981327 80.916,80.583 C76.0886095,79.2825113 71.1104952,78.6258239 66.111,78.6299802 C34.833,78.6299802 9.48,103.986 9.48,135.261 C9.48,163.461 30.087,186.834 57.063,191.166 C32.3567366,184.488261 15.1962036,162.074805 15.195,136.482 Z" id="Path" fill="#000000" opacity="0.1"></path>
            <path d="M114.255,105.045 C131.17381,94.7786703 141.501571,76.4209863 141.492007,56.631 C141.492007,25.356 116.139,0 84.861,0 C53.583,0 28.2329959,25.356 28.2329959,56.631 C28.2315392,60.4855418 28.6215401,64.3302674 29.397,68.106 C38.2544016,62.7143541 48.4276661,59.8710305 58.797,59.889 C86.133,59.88 108.951,79.272 114.255,105.045 Z" id="Path" fill="#6C63FF"></path>
            <path d="M136.611,56.631 C136.624488,74.6174532 128.080363,91.5375172 113.598,102.204 C113.841,103.143 114.066,104.088 114.264,105.045 C131.18281,94.7786703 141.510571,76.4209863 141.501007,56.631 C141.501007,25.356 116.148,1.13686838e-13 84.87,1.13686838e-13 C84.051,1.13686838e-13 83.238,0.021 82.428,0.057 C112.56,1.338 136.611,26.175 136.611,56.631 Z" id="Path" fill="#000000" opacity="0.1"></path>
            <path d="M111.783,130.512 C110.855486,130.985662 109.973736,131.544037 109.149,132.18 C108.320233,132.82149 107.685699,133.680344 107.316,134.661 C106.803,133.596 106.524,132.438 106.182,131.307 C105.526976,129.254982 104.753682,127.242614 103.866,125.28 C105.327712,124.72198 106.594591,123.749141 107.511,122.481 C109.311,124.266 111.144,126.126 112.035,128.481 C112.188,128.889 112.635,129.324 112.74,129.681 C112.881,130.212 112.173,130.296 111.783,130.512 Z" id="Path" fill="#FFBFC5"></path>
            <path d="M62.211,188.316 C62.211,201.702 71.868,203.121 83.784,203.121 C95.7,203.121 105.354,201.702 105.354,188.316 C105.354,174.93 95.697,169.845 83.784,169.845 C71.871,169.845 62.211,174.933 62.211,188.316 Z" id="Path" fill="#3F3D56"></path>
            <path d="M128.64,173.991 C130.597315,174.608369 132.422462,175.585036 134.022,176.871 C134.142133,176.945971 134.229066,177.064028 134.265,177.201 C134.307,177.501 133.893,177.636 133.593,177.723 C132.693,177.978 132.144,178.809 131.493,179.457 C130.842,180.105 129.798,180.618 129.039,180.099 C128.83964,179.946123 128.66552,179.762891 128.523,179.556 L125.319,175.38 C126.405239,174.771716 127.547506,174.2694 128.73,173.88" id="Path" fill="#F1F1F1"></path>
            <path d="M134.403,174.861 C134.829,175.293 135.003,175.917 135.429,176.361 C135.708385,176.628611 136.028338,176.85035 136.377,177.018 L138.831,178.368 C139.211748,178.593687 139.613662,178.781582 140.031,178.929 C140.492702,179.060599 140.962774,179.160827 141.438,179.229 C142.118783,179.360532 142.784269,179.561585 143.424,179.829 C143.904,180.027 144.441,180.366 144.438013,180.885 C144.417189,181.140104 144.311578,181.380899 144.138,181.569 C143.172,182.787 141.459,183.069 139.911,183.222 C136.563,183.576 133.137,183.84 129.864,183.051 C129.224613,182.933284 128.620373,182.671686 128.097,182.286 C127.11,181.467 126.897,179.976 127.281,178.749 C127.385223,178.277457 127.663844,177.86274 128.061,177.588 C128.58,177.288 129.225,177.429 129.822,177.384 C130.450675,177.295264 131.05949,177.099429 131.622,176.805 C131.997,176.637 132.426,176.418 132.522,175.974 C132.618,175.53 132.111,175.146 132.222,174.774 C132.432,173.937 134.013,174.462 134.403,174.861 Z" id="Path" fill="#575A89"></path>
            <path d="M134.403,174.861 C134.829,175.293 135.003,175.917 135.429,176.361 C135.708385,176.628611 136.028338,176.85035 136.377,177.018 L138.831,178.368 C139.211748,178.593687 139.613662,178.781582 140.031,178.929 C140.492702,179.060599 140.962774,179.160827 141.438,179.229 C142.118783,179.360532 142.784269,179.561585 143.424,179.829 C143.904,180.027 144.441,180.366 144.438013,180.885 C144.417189,181.140104 144.311578,181.380899 144.138,181.569 C143.172,182.787 141.459,183.069 139.911,183.222 C136.563,183.576 133.137,183.84 129.864,183.051 C129.224613,182.933284 128.620373,182.671686 128.097,182.286 C127.11,181.467 126.897,179.976 127.281,178.749 C127.385223,178.277457 127.663844,177.86274 128.061,177.588 C128.58,177.288 129.225,177.429 129.822,177.384 C130.450675,177.295264 131.05949,177.099429 131.622,176.805 C131.997,176.637 132.426,176.418 132.522,175.974 C132.618,175.53 132.111,175.146 132.222,174.774 C132.432,173.937 134.013,174.462 134.403,174.861 Z" id="Path" fill="#000000" opacity="0.1"></path>
            <path d="M140.094,188.259 L141.126,188.94 C141.441226,189.108453 141.700739,189.364839 141.873,189.678 C142.098,190.203 141.795,190.797 141.459,191.259 C140.450762,192.638075 139.074084,193.704896 137.487,194.337 C136.936873,194.566017 136.355317,194.710647 135.762,194.766 C135.62714,194.788194 135.488748,194.771546 135.363,194.718 C135.048,194.55 135.093,194.103 135.09,193.746 C135.09,192.717 134.301,191.88 133.59,191.121 C132.879,190.362 132.177,189.432 132.339,188.421 C132.4874,187.820192 132.79885,187.272041 133.239,186.837 C133.625426,186.349365 134.080097,185.919953 134.589,185.562 C135.318,185.085 135.573,185.343 136.257,185.778 C137.543,186.596 138.822,187.423 140.094,188.259 Z" id="Path" fill="#F1F1F1"></path>
            <path d="M136.746,193.281 C137.314412,193.42469 137.917273,193.28874 138.369,192.915 C138.812536,192.543122 139.171542,192.080813 139.422,191.559 C139.67394,191.097219 139.892499,190.617994 140.076,190.125 C140.292,189.546 140.49,188.907 141,188.556 C141.6,188.13 142.482,188.298 143.1,188.709 C143.718,189.12 144.186,189.729 144.717,190.257 C145.968,191.505 147.615,192.294 149.307,192.81 C150.999,193.326 152.754,193.584 154.491,193.917 C154.839524,193.963578 155.176867,194.0723 155.487,194.238 C156.189,194.667 156.426,195.624 156.228,196.422 C156.03,197.22 155.511,197.88 154.944,198.48 C154.471569,199.039723 153.885641,199.492718 153.225,199.809 C152.667646,200.012175 152.081032,200.123622 151.488,200.139 C148.61054,200.333233 145.720133,200.106852 142.908,199.467 C141.875895,199.184977 140.825333,198.975467 139.764,198.84 C139.119,198.783 138.465,198.801 137.82,198.756 C136.531382,198.667253 135.271205,198.335413 134.106,197.778 C133.822763,197.673344 133.584335,197.474124 133.431,197.214 C133.346347,196.975317 133.328709,196.718002 133.38,196.47 L133.809,192.708 C133.848,192.381 133.956,191.973 134.283,191.922 C134.61,191.871 134.817,192.192 135.012,192.438 C135.790347,193.368367 137.099381,193.654602 138.195,193.134" id="Path" fill="#575A89"></path>
            <path d="M111.834,145.839 C113.721,145.626 115.911,145.59 117.189,146.997 C117.972,147.861 118.209,149.07 118.479,150.201 C118.902394,152.103886 119.59113,153.937823 120.525,155.649 C121.125,156.711 121.854,157.704 122.325,158.832 C122.796,159.96 122.973,161.232 123.249,162.459 C124.354386,167.271026 127.054667,171.567793 130.911,174.651 C130.23,176.502 128.259,177.561 126.342,178.035 C125.879413,178.188206 125.382299,178.203839 124.911,178.08 C124.553975,177.925514 124.236922,177.691572 123.984,177.396 C123.088284,176.427814 122.253672,175.404838 121.485,174.333 C118.722,170.643 115.92,166.878 114.414,162.525 C113.886,160.995 113.358,159.225 111.873,158.574 C111.027,158.208 110.058,158.322 109.149,158.478 C107.117726,158.82141 105.118751,159.334199 103.173,160.011 C101.097,160.734 98.721,161.622 96.822,160.518 C95.685,159.855 95.022,158.586 94.761,157.296 C94.5,156.006 94.632,154.674 94.761,153.366 C94.7736773,152.776602 94.9149717,152.19709 95.175,151.668 C95.4380028,151.272025 95.7752128,150.93074 96.168,150.663 C97.8644986,149.378049 99.7512206,148.365859 101.76,147.663 C103.677,146.985 105.741,146.763 107.742,146.424 C109.1,146.188 110.464,145.993 111.834,145.839 Z" id="Path" fill="#575A89"></path>
            <path d="M111.834,145.839 C113.721,145.626 115.911,145.59 117.189,146.997 C117.972,147.861 118.209,149.07 118.479,150.201 C118.902394,152.103886 119.59113,153.937823 120.525,155.649 C121.125,156.711 121.854,157.704 122.325,158.832 C122.796,159.96 122.973,161.232 123.249,162.459 C124.354386,167.271026 127.054667,171.567793 130.911,174.651 C130.23,176.502 128.259,177.561 126.342,178.035 C125.879413,178.188206 125.382299,178.203839 124.911,178.08 C124.553975,177.925514 124.236922,177.691572 123.984,177.396 C123.088284,176.427814 122.253672,175.404838 121.485,174.333 C118.722,170.643 115.92,166.878 114.414,162.525 C113.886,160.995 113.358,159.225 111.873,158.574 C111.027,158.208 110.058,158.322 109.149,158.478 C107.117726,158.82141 105.118751,159.334199 103.173,160.011 C101.097,160.734 98.721,161.622 96.822,160.518 C95.685,159.855 95.022,158.586 94.761,157.296 C94.5,156.006 94.632,154.674 94.761,153.366 C94.7736773,152.776602 94.9149717,152.19709 95.175,151.668 C95.4380028,151.272025 95.7752128,150.93074 96.168,150.663 C97.8644986,149.378049 99.7512206,148.365859 101.76,147.663 C103.677,146.985 105.741,146.763 107.742,146.424 C109.1,146.188 110.464,145.993 111.834,145.839 Z" id="Path" fill="#000000" opacity="0.1"></path>
            <path d="M122.64,159.453 C123.521076,159.893443 124.330273,160.464939 125.04,161.148 C125.805,161.964 126.27,163.017 126.666,164.067 C126.821476,164.424905 126.916759,164.806036 126.948,165.195 C126.977283,165.588662 126.823433,165.973839 126.531,166.239 C126.182454,166.467687 125.767459,166.573283 125.352,166.539 C124.806,166.539 124.257,166.539 123.711,166.497 C123.378401,166.494466 123.049037,166.431439 122.739,166.311 C122.455159,166.166112 122.19921,165.972119 121.983,165.738 C121.020834,164.844582 120.23253,163.780625 119.658,162.6 C119.262,161.727 118.608,159.711 119.232,158.802 C119.856,157.893 121.962,159.066 122.64,159.453 Z" id="Path" fill="#FFBFC5"></path>
            <path d="M96.171,159.141 C98.964,160.041 101.937,160.137 104.856,160.41 C109.765742,160.869481 114.61583,161.828442 119.331,163.272 C120.297,163.572 121.284,163.896 122.061,164.541 C122.692453,165.124854 123.22712,165.805339 123.645,166.557 C124.411963,167.725185 125.106276,168.939482 125.724,170.193 C126.255,171.327 126.66,172.515 127.152,173.664 C128.809635,177.512831 131.430871,180.869707 134.763,183.411 C135.363,183.876 136.05,184.38 136.206,185.127 C136.276944,185.60895 136.198415,186.101065 135.981,186.537 C135.261,188.214 133.767,189.435 132.198,190.368 C131.526,190.77 130.782,191.175 130.452,191.889 C128.07,190.905 126.297,188.805 124.824,186.693 C123.351,184.581 122.04,182.304 120.15,180.552 C119.319,179.778 118.374,179.106 117.717,178.176 C116.718,176.76 116.448,174.822 115.104,173.73 C113.76,172.638 111.804,172.779 110.067,172.95 C101.167394,173.817724 92.1999026,173.717135 83.322,172.65 C81.477,172.431 79.581,172.149 77.982,171.198 C76.383,170.247 75.138,168.471 75.363,166.626 C75.576,164.898 77.013,163.53 78.618,162.855 C80.223,162.18 81.993,162.057 83.718,161.862 C88.011,161.388 92.109,160.608 96.171,159.141 Z" id="Path" fill="#575A89"></path>
            <path d="M70.644,162.726 C70.863,161.262 71.43,159.876 71.787,158.439 C71.9652128,157.534582 72.1915343,156.640312 72.465,155.76 C72.465,155.733 72.486,155.709 72.495,155.685 C72.6782566,155.670162 72.8453914,155.574499 72.951,155.424 C73.0002161,155.296016 73.0136972,155.157057 72.99,155.022 C72.9794667,154.879194 72.9794667,154.735806 72.99,154.593 C73.5747732,153.613136 74.2137664,152.666665 74.904,151.758 C76.104,150.045 77.16,148.224 78.204,146.406 C79.062,144.906 79.92,143.424 80.628,141.858 C81.162,140.685 81.609,139.458 82.197,138.324 C84.297,134.244 88.053,131.235 92.097,129.075 C95.979,127.002 100.176,125.607 104.256,123.957 C104.359783,124.061244 104.455085,124.1736 104.541,124.293 C106.746,127.308 106.983,131.268 107.892,134.892 C108.258,136.356 108.747,137.814 108.747,139.32 C108.747,141.546 107.682,143.616 106.623,145.575 C105.63,147.42 104.607,149.265 103.29,150.894 C102.666,151.668 101.979,152.394 101.352,153.159 C98.778,156.312 97.293,160.191 95.847,163.998 C95.013,166.203 93.645,168.156 92.727,170.328 C92.373,171.162 92.169,172.059 91.725,172.851 C91.281,173.643 90.51,174.333 89.604,174.351 C89.3388918,174.342814 89.0758491,174.301493 88.821,174.228 C85.542,173.385 82.797,171.228 80.073,169.206 C79.584,168.846 79.095,168.492 78.573,168.168 C78.051,167.844 77.523,167.547 76.989,167.268 L75.771,166.599 C74.445,165.873 73.113,165.144 71.73,164.529 C71.3125515,164.365986 70.9108799,164.165151 70.53,163.929 C70.5340381,163.525504 70.5721739,163.123072 70.644,162.726 Z" id="Path" fill="#3F3D56"></path>
            <circle id="Oval" fill="#FFBFC5" cx="113.508" cy="122.706" r="7.554"></circle>
            <path d="M118.593,119.172 C118.969703,119.823037 119.711497,120.171201 120.453,120.045 C121.182232,119.898688 121.814249,119.44787 122.19,118.806 C122.557565,118.168987 122.776991,117.457392 122.832,116.724 C122.895,116.151 122.886,115.524 122.517,115.077 C122.236549,114.802589 121.913329,114.575625 121.56,114.405 C121.071087,114.105075 120.659925,113.693913 120.36,113.205 C120.15,112.854 119.997,112.473 119.808,112.113 C119.121,110.808 117.783,109.746 116.31,109.794 C115.602,109.818 114.927,110.094 114.228,110.208 C111.885,110.619 109.341,109.38 107.166,110.346 C106.631961,110.606085 106.135478,110.937074 105.69,111.33 C105.078,111.836 104.49,112.368 103.926,112.926 C103.436256,113.343016 103.065693,113.882299 102.852,114.489 C102.552,115.599 103.257,116.838 102.81,117.894 C102.658312,118.196591 102.476384,118.483051 102.267,118.749 C101.775,119.472 102.309,122.295 102.267,123.168 C102.205997,123.591852 102.313714,124.02272 102.567,124.368 C102.924,124.767 103.521,124.8 104.067,124.806 L105.048,124.806 C105.194519,124.816783 105.341791,124.801548 105.483,124.761 C105.675849,124.676389 105.845595,124.546764 105.978,124.383 C106.794,123.522 106.968,120.711 108.153,120.723 C108.333721,120.710951 108.513539,120.75722 108.666,120.855 C108.879,121.011 108.942,121.302 109.095,121.518 C109.451652,121.940161 110.042626,122.07907 110.55,121.86 C111.039041,121.632853 111.464583,121.28871 111.789,120.858 C112.111397,120.427741 112.502666,120.053704 112.947,119.751 C113.58,119.382 114.294,119.223 114.909,118.806 C115.422,118.458 115.713,117.954 116.175,117.57 C116.637,117.186 117.027,117.24 117.519,117.495 C118.23,117.888 118.26,118.512 118.593,119.172 Z" id="Path" fill="#3F3D56"></path>
            <path d="M101.139,132.48 C102.902454,132.2284 104.699783,132.371859 106.401,132.9 C106.969051,133.030954 107.481965,133.336185 107.868,133.773 C108.08893,134.102685 108.232506,134.478033 108.288,134.871 C108.634851,136.67811 108.411555,138.548347 107.649,140.223 C107.54044,140.39205 107.508813,140.599262 107.562,140.793 C107.639584,140.913151 107.741849,141.015416 107.862,141.093 C108.075908,141.299902 108.19135,141.588259 108.179318,141.885614 C108.167286,142.182969 108.028925,142.461057 107.799,142.65 C107.658,142.752 107.472,142.842 107.445,143.013 C107.418,143.184 107.592,143.349 107.73,143.481 C108.138915,143.881461 108.315357,144.462815 108.198,145.023 C108.123643,145.244114 108.07237,145.47233 108.045,145.704 C108.074917,145.988497 108.159463,146.264546 108.294,146.517 C108.523261,147.087482 108.600781,147.707638 108.519,148.317 C108.446313,148.604737 108.439136,148.90512 108.498,149.196 C108.58226,149.38819 108.695585,149.566272 108.834,149.724 C109.377,150.456 109.494,151.68 108.708,152.124 C109.398348,152.479394 109.787413,153.233433 109.677,154.002 C110.148,153.753 110.718,154.074 111.111,154.434 C111.504,154.794 111.903,155.238 112.434,155.265 C112.806,155.283 113.199,155.091 113.535,155.244 C114.051,155.475 114.033,156.312 114.54,156.561 C114.984,156.783 115.605,156.423 115.983,156.744 C116.115,156.855 116.181,157.026 116.31,157.143 C116.595,157.407 117.045,157.296 117.435,157.278 C118.356,157.242 119.205,157.878 119.682,158.652 C120.159,159.426 120.33,160.371 120.453,161.283 C120.554304,161.784082 120.544061,162.301321 120.423,162.798 C120.292749,163.302685 119.873449,163.680645 119.358,163.758 C114.723,164.058 110.148,162.945 105.633,161.847 C104.307,161.523 102.96,161.145 101.853,160.347 C100.848,159.618 100.11,158.592 99.39,157.584 C98.061,155.721 96.723,153.846 95.772,151.767 C94.548,149.094 94.002,146.166 93.468,143.271 C93.2838212,142.495359 93.218077,141.696314 93.273,140.901 C93.4346406,139.971279 93.7903678,139.08605 94.317,138.303 C94.9522385,137.265893 95.6536939,136.270828 96.417,135.324 C97.578,133.893 99.315,132.741 101.139,132.48 Z" id="Path" fill="#000000" opacity="0.1"></path>
            <path d="M101.442,132.18 C103.206635,131.928212 105.005199,132.072712 106.707,132.603 C107.275281,132.731617 107.788586,133.036031 108.174,133.473 C108.393656,133.803344 108.537118,134.178393 108.594,134.571 C108.939452,136.378159 108.716206,138.24797 107.955,139.923 C107.84644,140.09205 107.814813,140.299262 107.868,140.493 C107.945584,140.613151 108.047849,140.715416 108.168,140.793 C108.381908,140.999902 108.49735,141.288259 108.485318,141.585614 C108.473286,141.882969 108.334925,142.161057 108.105,142.35 C107.964,142.452 107.778,142.542 107.751,142.713 C107.724,142.884 107.898,143.049 108.051,143.181 C108.459915,143.581461 108.636357,144.162815 108.519,144.723 C108.444643,144.944114 108.39337,145.17233 108.366,145.404 C108.394834,145.688322 108.478367,145.964388 108.612,146.217 C108.843487,146.786898 108.922082,147.407383 108.84,148.017 C108.650344,148.506512 108.774726,149.062085 109.155,149.424 C109.698,150.156 109.815,151.38 109.029,151.842 C109.719545,152.195658 110.108942,152.949134 109.998,153.717 C110.469,153.468 111.039,153.789 111.432,154.149 C111.825,154.509 112.224,154.953 112.755,154.98 C113.127,154.998 113.517,154.806 113.856,154.959 C114.372,155.193 114.354,156.027 114.861,156.279 C115.305,156.498 115.926,156.138 116.304,156.459 C116.436,156.57 116.502,156.741 116.631,156.858 C116.916,157.122 117.366,157.011 117.756,156.993 C118.677,156.957 119.526,157.593 120.003,158.367 C120.437275,159.182024 120.699686,160.077492 120.774,160.998 C120.870088,161.494504 120.859863,162.005735 120.744,162.498 C120.613749,163.002685 120.194449,163.380645 119.679,163.458 C115.044,163.758 110.469,162.645 105.954,161.547 C104.628,161.223 103.278,160.845 102.174,160.047 C101.169,159.321 100.431,158.292 99.711,157.284 C98.382,155.424 97.044,153.549 96.093,151.47 C94.869,148.794 94.323,145.866 93.789,142.974 C93.6047924,142.197346 93.5390497,141.397307 93.594,140.601 C93.7470272,139.672323 94.0935152,138.786173 94.611,138 C95.2445181,136.962718 95.946054,135.968541 96.711,135.024 C97.884,133.587 99.621,132.438 101.442,132.18 Z" id="Path" fill="#3F3D56"></path>
            <path d="M272.754,79.233 C274.96401,78.8121774 276.756284,77.1966423 277.403469,75.0420227 C278.050654,72.8874032 277.445227,70.5516681 275.832886,68.9827224 C274.220545,67.4137767 271.869165,66.8722852 269.733,67.578 C272.083316,70.9850035 273.153372,75.1132719 272.754,79.233 Z" id="Path" fill="#F1F1F1"></path>
            <path d="M282.111,76.794 C284.32101,76.3731774 286.113284,74.7576423 286.760469,72.6030227 C287.407654,70.4484032 286.802227,68.1126681 285.189886,66.5437224 C283.577545,64.9747767 281.226165,64.4332852 279.09,65.139 C281.440316,68.5460035 282.510372,72.6742719 282.111,76.794 L282.111,76.794 Z" id="Path" fill="#F1F1F1"></path>
            <path d="M272.754,79.233 C269.631366,79.8276015 266.583066,77.8972824 265.785487,74.8202283 C264.987908,71.7431741 266.714705,68.57514 269.733,67.578 C265.561541,61.53737 258.064614,58.7405457 250.956,60.573 C258.19846,70.2488011 261.529701,82.2980382 260.286,94.32 C267.127361,92.3004648 272.059475,86.3323222 272.754,79.233 L272.754,79.233 Z" id="Path" fill="#F1F1F1"></path>
            <path d="M164.811,84.219 C157.909857,85.6961529 152.56918,91.1704652 151.263,98.106 C154.265349,98.0418199 156.857794,100.195579 157.345006,103.158828 C157.832219,106.122076 156.065844,108.992505 153.201,109.893 C157.2946,117.211861 166.006194,120.596067 173.967,117.96 C166.788696,108.260633 163.520386,96.2165031 164.811,84.219 L164.811,84.219 Z" id="Path" fill="#F1F1F1"></path>
            <path d="M151.269,98.106 C148.903021,98.1484222 146.780066,99.5694622 145.839022,101.740658 C144.897978,103.911854 145.312446,106.432669 146.899127,108.188261 C148.485807,109.943852 150.951992,110.610353 153.207,109.893 C151.203591,106.31114 150.517902,102.140752 151.269,98.106 L151.269,98.106 Z" id="Path" fill="#F1F1F1"></path>
            <path d="M140.232,100.716 C137.866021,100.758422 135.743066,102.179462 134.802022,104.350658 C133.860978,106.521854 134.275446,109.042669 135.862127,110.798261 C137.448807,112.553852 139.914992,113.220353 142.17,112.503 C140.16829,108.920546 139.482702,104.750771 140.232,100.716 L140.232,100.716 Z" id="Path" fill="#F1F1F1"></path>
            <path d="M232.638,45.78 L222.915,57.693 C223.38181,58.4246158 223.792005,59.1908484 224.142,59.985 L234.846,46.872 C234.111,46.473 233.382,46.107 232.638,45.78 Z" id="Path" fill="#F1F1F1"></path>
            <path d="M260.286,94.32 C254.226958,96.0810864 247.689008,94.4456558 243.172737,90.0392155 C238.656466,85.6327752 236.860602,79.1370617 238.472015,73.0365068 C240.083427,66.9359518 244.852808,62.1743947 250.956,60.573 C247.076202,55.415457 242.203534,51.0864633 236.625,47.841 L239.259,49.992 L225.639,66.678 C225.844799,75.8314682 218.963281,83.5977547 209.851592,84.4952223 C200.739902,85.3926899 192.475423,79.118228 190.891427,70.100507 C189.307432,61.082786 194.938899,52.3674505 203.811,50.106 L202.716,49.206 L209.016,41.493 C185.897009,43.1922306 167.295689,61.1711919 164.811,84.219 C173.914685,82.2480195 182.967462,87.7513357 185.408353,96.7404343 C187.849245,105.729533 182.823274,115.055779 173.973,117.96 C185.763707,133.873568 206.117897,140.911399 225.220004,135.679581 C244.322112,130.447764 258.249559,114.020643 260.286,94.32 L260.286,94.32 Z M208.311,126.057 C202.822973,121.579515 200.572653,114.236913 202.609431,107.453267 C204.646209,100.669621 210.568943,95.780965 217.615687,95.067023 C224.662431,94.3530811 231.445335,97.9544639 234.801329,104.19174 C238.157324,110.429016 237.425449,118.07376 232.947,123.561 C226.832772,131.052485 215.803559,132.169912 208.311,126.057 L208.311,126.057 Z" id="Shape" fill="#F1F1F1"></path>
            <path d="M218.853,41.781 C217.903,41.655 216.949,41.555 215.991,41.481 L209.367,49.599 C210.296582,49.6613069 211.219596,49.7987557 212.127,50.01 L218.853,41.781 Z" id="Path" fill="#F1F1F1"></path>
            <path d="M219.294,53.58 L227.355,43.704 C226.527,43.434 225.695,43.188 224.859,42.966 L217.338,52.179 C217.989839,52.5814199 218.615129,53.0253356 219.21,53.508 L219.294,53.58 Z" id="Path" fill="#F1F1F1"></path>
        </g>
    </g>
</svg>