
<svg width="280px" height="189px" viewBox="0 0 280 189" version="1.1" xmlns="http://www.w3.org/2000/svg" xmlns:xlink="http://www.w3.org/1999/xlink">
    <g id="Page-1" stroke="none" stroke-width="1" fill="none" fill-rule="evenodd">
        <g id="digital_currency">
            <circle id="Oval" fill="#F2F2F2" fill-rule="nonzero" cx="181.044567" cy="33.19773" r="9.6"></circle>
            <rect id="Rectangle" fill="#F2F2F2" fill-rule="nonzero" transform="translate(108.996374, 94.145460) rotate(31.459060) translate(-108.996374, -94.145460) " x="12.696374" y="42.6954602" width="192.6" height="102.9"></rect>
            <path d="M203.394567,128.357733 C201.894567,124.907733 199.584567,121.877733 194.964567,119.327733 C192.576712,117.977665 190.01191,116.967901 187.344567,116.327733 C189.139189,115.493897 190.789799,114.379989 192.234567,113.027733 C194.358444,111.129134 195.968251,108.724743 196.914567,106.037733 C197.785648,103.307133 198.141692,100.43843 197.964567,97.577733 C197.634567,92.537733 196.644567,87.647733 194.004567,84.137733 C191.364567,80.627733 187.644567,77.927733 182.724567,76.037733 C178.944567,74.597733 175.074567,73.697733 169.074567,73.367733 L169.074567,54.197733 L157.074567,61.697733 L157.074567,73.397733 L147.474567,73.397733 L147.474567,61.097733 L135.174567,54.197733 L135.174567,73.397733 L109.044567,73.397733 L117.444567,87.797733 C120.039567,87.800733 121.797567,88.040733 122.694567,88.487733 C123.531916,88.8461065 124.220458,89.481683 124.644567,90.287733 C125.034567,91.037733 125.214567,92.807733 125.214567,95.537733 L125.214567,147.497733 C125.214567,150.197733 125.034567,151.937733 124.644567,152.717733 C124.254567,153.497733 124.044567,154.187733 123.114567,154.607748 C122.184567,155.027763 122.154567,154.997748 119.574567,154.997748 L119.544567,154.997748 L109.044567,169.397748 L135.144567,169.397748 L135.144567,188.597748 L147.444567,188.597748 L147.444567,169.397748 L157.044567,169.397748 L157.044567,188.597748 L169.044567,188.597748 L169.044567,169.277748 C176.844567,168.887748 182.394567,167.867748 186.864567,166.187748 C192.654567,164.027748 197.094567,160.877748 200.274567,156.737748 C203.454567,152.597748 204.744567,146.267748 205.014567,141.377748 C205.224561,137.027724 204.744567,131.417718 203.394567,128.357733 Z M147.444567,89.597733 L147.447567,89.597733 L147.447567,89.198733 L155.835567,89.198733 C160.554582,89.198733 176.280567,87.626733 176.541567,100.469733 C176.805567,113.312733 155.835567,112.787733 155.835567,112.787733 L147.447567,112.787733 L147.447567,111.797733 L147.444567,111.797733 L147.444567,89.597733 Z M147.444567,126.197733 L157.044567,126.197733 C158.994567,126.197733 165.702567,126.494733 168.144567,126.605733 C169.140179,126.641919 170.125788,126.817632 171.072567,127.127733 C171.417567,127.244733 171.744567,127.376733 172.098567,127.523733 C173.578266,128.001874 174.974119,128.708404 176.235567,129.617733 C177.057964,130.160862 177.781397,130.840665 178.374567,131.627733 C178.63153,131.982898 178.867918,132.352505 179.082567,132.734733 C179.65054,133.695905 180.072167,134.736323 180.333567,135.821733 C180.619491,136.870056 180.767736,137.951139 180.774567,139.037733 C180.774567,141.374733 180.342567,143.309733 179.277567,144.947733 C177.834567,147.365733 175.467567,149.078733 172.803567,150.287733 C165.915567,153.419733 157.044567,153.197733 157.044567,153.197733 L147.444567,153.197733 L147.444567,126.197733 Z" id="Shape" fill="#3F3D56" fill-rule="nonzero"></path>
            <path d="M183.642438,33.601659 C183.551448,33.3768279 183.384116,33.1912668 183.169857,33.077595 C183.036512,32.9994552 182.89266,32.9408244 182.742684,32.90349 C182.843752,32.8547846 182.936315,32.7901162 183.016815,32.71197 C183.136602,32.6006349 183.22677,32.4612147 183.279174,32.306301 C183.328049,32.1474877 183.347987,31.9811837 183.338037,31.815318 C183.337181,31.539849 183.260364,31.2699529 183.116037,31.035318 C182.955009,30.8209049 182.7354,30.6576446 182.483685,30.565218 C182.239284,30.470421 181.980502,30.4180172 181.718475,30.410262 L181.718475,29.297718 L181.045761,29.732985 L181.045761,30.412005 L180.507591,30.412005 L180.507591,29.698164 L179.818059,29.297718 L179.818059,30.412005 L178.353213,30.412005 L178.824126,31.247718 C178.92393,31.2408763 179.024079,31.2545031 179.118426,31.287762 C179.16579,31.3089823 179.204394,31.3458751 179.22774,31.392228 C179.256433,31.4910801 179.267255,31.5942597 179.259696,31.696914 L179.259696,34.712451 C179.26702,34.8145278 179.2562,34.9170948 179.22774,35.015397 C179.205879,35.060664 179.194104,35.100708 179.14197,35.125086 C179.089836,35.149464 179.088153,35.147718 178.94352,35.147718 L178.941837,35.147718 L178.353213,35.983434 L179.816364,35.983434 L179.816364,37.097718 L180.505896,37.097718 L180.505896,35.983434 L181.044066,35.983434 L181.044066,37.097718 L181.716789,37.097718 L181.716789,35.976468 C182.057222,35.9704123 182.394488,35.9098685 182.715771,35.797137 C183.013973,35.6905929 183.275031,35.5001406 183.467526,35.248701 C183.63533,34.9811665 183.727184,34.6730188 183.733248,34.357272 C183.750975,34.1019261 183.720161,33.8455337 183.642438,33.601659 Z M180.505911,31.352205 L180.506079,31.352205 L180.506079,31.329048 L180.976305,31.329048 C181.240851,31.329048 182.122443,31.237815 182.137074,31.983168 C182.151873,32.728521 180.976305,32.698053 180.976305,32.698053 L180.506079,32.698053 L180.506079,32.640597 L180.505911,32.640597 L180.505911,31.352205 Z M180.505911,33.47631 L181.044081,33.47631 C181.153398,33.47631 181.529445,33.493548 181.666341,33.499989 C181.722233,33.5021052 181.777522,33.5123113 181.830486,33.530289 C181.849824,33.537081 181.868157,33.54474 181.888002,33.553272 C181.971278,33.5811925 182.049567,33.6222168 182.11992,33.674799 C182.166258,33.7065499 182.206815,33.7460045 182.23983,33.791451 C182.290805,33.8653045 182.32801,33.9477642 182.349651,34.034853 C182.365693,34.0957828 182.373999,34.1584899 182.374374,34.221495 C182.379922,34.3415131 182.350787,34.4605896 182.290452,34.564488 C182.204091,34.7025382 182.077399,34.8107196 181.927524,34.874388 C181.647285,34.9891469 181.346889,35.0465779 181.044081,35.043288 L180.505911,35.043288 L180.505911,33.47631 Z" id="Shape" fill="#6C63FF" fill-rule="nonzero" opacity="0.3"></path>
            <circle id="Oval" fill="#FF6584" fill-rule="nonzero" cx="239.439144" cy="139.218969" r="3.518802"></circle>
            <path d="M267.178827,177.523185 L267.178827,137.458308" id="Path" stroke="#3F3D56" stroke-width="0.6" fill="#3F3D56" fill-rule="nonzero"></path>
            <circle id="Oval" fill="#3F3D56" fill-rule="nonzero" cx="267.178827" cy="137.458308" r="5.66574"></circle>
            <path d="M256.020384,159.890916 C247.836498,172.44129 250.078884,188.40375 250.078884,188.40375 C250.078884,188.40375 265.589976,184.01805 273.773862,171.467664 C281.957748,158.917278 279.715362,142.95483 279.715362,142.95483 C279.715362,142.95483 264.20427,147.340545 256.020384,159.890916 Z" id="Path" fill="#3F3D56" fill-rule="nonzero"></path>
            <path d="M250.035351,188.257794 C250.035351,188.257794 249.836121,188.226012 249.469446,188.151822 C249.176961,188.092485 248.774274,188.007702 248.282559,187.891122 C243.886821,186.854706 232.200159,183.351261 224.559546,174.140124 C214.996584,162.606075 215.399271,146.491881 215.399271,146.491881 C215.399271,146.491881 230.021376,148.867791 239.656392,159.225546 C240.073928,159.670626 240.480156,160.131958 240.875076,160.609542 C249.196044,170.645142 249.971757,184.148178 250.03323,187.486314 C250.041702,187.986513 250.035351,188.257794 250.035351,188.257794 Z" id="Path" fill="#6C63FF" fill-rule="nonzero"></path>
            <path d="M244.137393,159.890916 C252.321279,172.44129 250.078893,188.40375 250.078893,188.40375 C250.078893,188.40375 234.567798,184.01805 226.383912,171.467664 C218.200026,158.917278 220.442412,142.95483 220.442412,142.95483 C220.442412,142.95483 235.953507,147.340545 244.137393,159.890916 Z" id="Path" stroke="#3F3D56" stroke-width="0.6"></path>
            <path d="M250.03323,187.486326 C249.817041,187.747026 249.626298,187.969554 249.469446,188.151822 C249.121866,188.548158 248.924748,188.755875 248.924748,188.755875 C248.924748,188.755875 248.685261,188.454903 248.282559,187.891134 C246.071973,184.809456 238.96122,173.851893 239.510148,161.194524 C239.539824,160.531134 239.588572,159.874812 239.656392,159.225558 C240.073928,159.670638 240.480156,160.13197 240.875076,160.609554 C249.196044,170.645163 249.971757,184.148205 250.03323,187.486326 Z" id="Path" fill="#000000" fill-rule="nonzero" opacity="0.1"></path>
            <path d="M262.167789,162.10986 C261.520917,177.078807 250.409145,188.75601 250.409145,188.75601 C250.409145,188.75601 240.346167,176.163753 240.993045,161.194806 C241.639923,146.225859 252.751689,134.548656 252.751689,134.548656 C252.751689,134.548656 262.814673,147.140913 262.167789,162.10986 Z" id="Path" fill="#6C63FF" fill-rule="nonzero"></path>
            <path d="M250.409157,188.332119 L252.852096,135.159195" id="Path" stroke="#3F3D56" stroke-width="0.6"></path>
            <path d="M17.241513,188.390355 L271.047621,188.390355" id="Path" stroke="#3F3D56" stroke-width="0.6"></path>
            <circle id="Oval" fill="#6C63FF" fill-rule="nonzero" cx="71.146668" cy="110.725317" r="12.818934"></circle>
            <circle id="Oval" fill="#6C63FF" fill-rule="nonzero" cx="49.357782" cy="140.894547" r="12.818934"></circle>
            <circle id="Oval" fill="#6C63FF" fill-rule="nonzero" cx="22.540689" cy="164.98803" r="12.818934"></circle>
            <path d="M22.529295,188.170563 L22.529295,164.917512" id="Path" stroke="#3F3D56" stroke-width="0.6" fill="#3F3D56" fill-rule="nonzero"></path>
            <circle id="Oval" fill="#3F3D56" fill-rule="nonzero" cx="22.529295" cy="164.917512" r="3.288309"></circle>
            <path d="M22.529289,179.248848 C22.529289,179.248848 22.059531,169.14534 12.429489,170.319738" id="Path" fill="#3F3D56" fill-rule="nonzero"></path>
            <path d="M71.154711,188.333688 L71.154711,110.772408" id="Path" stroke="#3F3D56" stroke-width="0.6" fill="#3F3D56" fill-rule="nonzero"></path>
            <circle id="Oval" fill="#3F3D56" fill-rule="nonzero" cx="71.154711" cy="110.735664" r="3.288309"></circle>
            <circle id="Oval" fill="#3F3D56" fill-rule="nonzero" cx="61.054899" cy="166.851645" r="3.288309"></circle>
            <path d="M71.154711,127.532505 C71.154711,127.532505 70.684953,117.428997 61.054911,118.603392" id="Path" fill="#3F3D56" fill-rule="nonzero"></path>
            <path d="M71.154711,156.174819 C71.154711,156.174819 70.684953,146.071311 61.054911,147.245706" id="Path" fill="#3F3D56" fill-rule="nonzero"></path>
            <path d="M71.154711,187.429797 C71.154711,187.429797 73.268625,167.791161 61.054911,166.851645" id="Path" stroke="#3F3D56" stroke-width="0.6"></path>
            <circle id="Oval" fill="#3F3D56" fill-rule="nonzero" cx="81.255963" cy="166.851645" r="3.288309"></circle>
            <path d="M71.156151,187.429797 C71.156151,187.429797 69.042237,167.791161 81.255951,166.851645" id="Path" stroke="#3F3D56" stroke-width="0.6"></path>
            <circle id="Oval" fill="#3F3D56" fill-rule="nonzero" cx="81.456258" cy="136.006083" r="3.288309"></circle>
            <path d="M71.356446,155.536692 C71.356446,155.536692 69.242532,136.945599 81.456246,136.006092" id="Path" stroke="#3F3D56" stroke-width="0.6"></path>
            <path d="M49.369479,188.224326 L49.369479,140.880189" id="Path" stroke="#3F3D56" stroke-width="0.6" fill="#3F3D56" fill-rule="nonzero"></path>
            <circle id="Oval" fill="#3F3D56" fill-rule="nonzero" cx="49.369479" cy="140.880189" r="3.288309"></circle>
            <path d="M49.369479,154.272009 C49.369479,154.272009 48.899718,144.168498 39.269679,145.342896" id="Path" fill="#3F3D56" fill-rule="nonzero"></path>
            <path d="M49.369479,187.320438 C49.369479,187.320438 51.483393,167.89131 39.269679,166.951794" id="Path" stroke="#3F3D56" stroke-width="0.6"></path>
            <circle id="Oval" fill="#3F3D56" fill-rule="nonzero" cx="39.269667" cy="166.951794" r="3.288309"></circle>
            <circle id="Oval" fill="#F2F2F2" fill-rule="nonzero" cx="229.944567" cy="110.89773" r="5.4"></circle>
            <path d="M172.803576,150.287727 C165.915576,153.419727 157.044576,153.197727 157.044576,153.197727 L147.444576,153.197727 L147.444576,151.364727 C151.356576,150.272727 156.765576,149.597727 162.744576,149.597727 C166.109792,149.585974 169.471486,149.81657 172.803576,150.287727 Z" id="Path" fill="#000000" fill-rule="nonzero" opacity="0.1"></path>
            <path d="M184.344567,155.59773 C184.344567,158.91273 174.672567,161.59773 162.744567,161.59773 C150.816567,161.59773 141.144567,158.91273 141.144567,155.59773 C141.144567,153.94473 143.550567,152.44773 147.444567,151.36473 L147.444567,153.19773 L157.044567,153.19773 C157.044567,153.19773 165.915567,153.41973 172.803567,150.28773 C179.664576,151.289736 184.344567,153.29073 184.344567,155.59773 Z" id="Path" fill="#000000" fill-rule="nonzero" opacity="0.1"></path>
            <rect id="Rectangle" fill="#2F2E41" fill-rule="nonzero" x="156.312966" y="118.238643" width="9.190491" height="9.206877"></rect>
            <path d="M159.730641,124.74951 C159.730641,124.74951 160.49136,127.41201 159.160101,127.60221 C158.333964,127.730976 157.551093,128.057174 156.877944,128.553111 L159.35028,131.786163 L163.914594,131.786163 L166.767294,128.933463 C166.767294,128.933463 162.963699,126.080763 163.724418,124.369152 C164.485137,122.657541 159.730641,124.74951 159.730641,124.74951 Z" id="Path" fill="#FFB9B9" fill-rule="nonzero"></path>
            <path d="M159.730641,124.74951 C159.730641,124.74951 160.49136,127.41201 159.160101,127.60221 C158.333964,127.730976 157.551093,128.057174 156.877944,128.553111 L159.35028,131.786163 L163.914594,131.786163 L166.767294,128.933463 C166.767294,128.933463 162.963699,126.080763 163.724418,124.369152 C164.485137,122.657541 159.730641,124.74951 159.730641,124.74951 Z" id="Path" fill="#000000" fill-rule="nonzero" opacity="0.1"></path>
            <polygon id="Path" fill="#FFB9B9" fill-rule="nonzero" points="160.8717 157.8408 165.246 159.3621 168.2886 159.5523 168.0984 156.8898 161.8227 155.0337"></polygon>
            <path d="M166.481997,157.270233 C166.481997,157.270233 166.481997,159.932733 166.862376,159.932733 C167.242734,159.932733 172.377576,159.362193 173.899026,159.932733 C175.420476,160.503273 177.702618,158.411295 176.561526,157.270233 C175.420434,156.129171 173.559171,154.417533 172.397826,154.797897 C171.236481,155.178261 166.481997,156.129153 166.481997,156.129153 L166.481997,157.270233 Z" id="Path" fill="#2F2E41" fill-rule="nonzero"></path>
            <path d="M152.503812,154.797897 C152.503812,154.797897 150.221658,159.362208 151.743093,159.742569 C153.264528,160.12293 154.976148,159.552387 155.166327,159.362208 C155.356506,159.172029 158.019027,158.41131 158.399382,158.791671 C158.779743,159.172032 158.779743,157.270233 158.779743,157.270233 L152.503812,154.797897 Z" id="Path" fill="#2F2E41" fill-rule="nonzero"></path>
            <path d="M154.405611,148.521969 C154.405611,148.521969 150.792195,153.466638 153.45471,154.797897 C156.117225,156.129156 168.859263,156.129153 169.810161,154.797897 C170.761059,153.466641 171.14142,149.282697 169.810161,148.902327 C168.478902,148.521969 154.405611,148.521969 154.405611,148.521969 Z" id="Path" fill="#2F2E41" fill-rule="nonzero"></path>
            <path d="M154.405611,148.521969 C154.405611,148.521969 150.792195,153.466638 153.45471,154.797897 C156.117225,156.129156 168.859263,156.129153 169.810161,154.797897 C170.761059,153.466641 171.14142,149.282697 169.810161,148.902327 C168.478902,148.521969 154.405611,148.521969 154.405611,148.521969 Z" id="Path" fill="#000000" fill-rule="nonzero" opacity="0.2"></path>
            <circle id="Oval" fill="#FFB9B9" fill-rule="nonzero" cx="161.252079" cy="121.706637" r="4.374132"></circle>
            <path d="M154.405611,128.553105 L158.209203,127.792386 C158.209203,127.792386 159.160101,130.835259 162.202977,130.264722 C165.245853,129.694185 166.006569,127.792386 166.006569,127.792386 C166.006569,127.792386 168.288726,128.743284 168.478905,128.743284 C168.669084,128.743284 171.14142,129.694182 171.14142,130.264722 C171.14142,130.835262 168.28872,136.54065 168.28872,136.54065 L168.669078,146.810352 L154.595778,146.429991 L155.546676,136.350471 L154.405611,128.553105 Z" id="Path" fill="#6C63FF" fill-rule="nonzero"></path>
            <path d="M152.313633,133.497774 C152.313633,133.497774 151.172556,143.577297 151.933275,144.338016 C152.693994,145.098735 155.736867,147.190716 155.736867,147.190716 L155.736867,144.908559 L154.215429,142.055859 L155.736867,135.39957 L152.313633,133.497774 Z" id="Path" fill="#FFB9B9" fill-rule="nonzero"></path>
            <path d="M171.997227,133.212504 C171.997227,133.212504 171.331599,143.577297 171.331599,143.957655 C171.331599,144.338013 169.619982,145.669272 169.049442,145.669272 C168.478902,145.669272 168.098544,144.718374 168.098544,144.718374 L169.429803,143.196936 L168.478905,135.39957 L171.997227,133.212504 Z" id="Path" fill="#FFB9B9" fill-rule="nonzero"></path>
            <path d="M170.190522,147.76125 C170.190522,147.76125 178.748607,143.006757 178.938786,147.76125 C179.128965,152.515743 174.564654,154.417536 174.564654,154.417536 C174.564654,154.417536 162.773514,157.953237 162.298065,156.660837 C161.822616,155.368437 160.871718,153.276459 161.632437,153.08628 C162.393156,152.896101 163.344054,152.51574 163.724412,152.896101 C164.10477,153.276462 168.859263,150.043401 168.859263,150.043401 L170.190522,147.76125 Z" id="Path" fill="#2F2E41" fill-rule="nonzero"></path>
            <path d="M174.184293,147.19071 C174.184293,147.19071 172.472676,147.951429 171.902139,148.521969 C171.331602,149.092509 168.859263,150.043404 168.859263,150.043404" id="Path" stroke="#000000" stroke-width="0.6" opacity="0.2"></path>
            <path d="M155.546688,128.933463 L154.405611,128.553105 C154.405611,128.553105 150.221658,132.927237 151.552911,134.068305 C152.884164,135.209373 153.644889,135.589743 154.025247,135.970101 C154.405605,136.350459 156.307404,136.540641 156.307404,136.540641 L155.546688,128.933463 Z" id="Path" fill="#6C63FF" fill-rule="nonzero"></path>
            <path d="M169.429803,129.884361 L171.14142,130.264722 C171.14142,130.264722 172.472676,133.117422 172.853037,133.497774 C173.233398,133.878126 172.282497,133.687953 171.71196,134.448672 C171.141423,135.209391 170.57088,136.54065 169.429803,136.54065 C168.288726,136.54065 166.767303,134.638854 166.767303,134.638854 L169.429803,129.884361 Z" id="Path" fill="#6C63FF" fill-rule="nonzero"></path>
            <path d="M154.785969,149.472867 C154.785969,149.472867 147.559143,144.338016 145.086807,148.141608 C142.614471,151.9452 155.736867,157.080054 157.638663,157.84077 C159.540459,158.601486 161.252076,159.362208 161.252076,159.362208 C161.252076,159.362208 162.963693,155.178255 162.963693,154.417536 C162.963693,153.656817 161.632437,153.65682 161.252076,153.65682 C160.871715,153.65682 159.160101,153.276459 158.779743,152.705919 C158.399385,152.135379 154.785969,149.472867 154.785969,149.472867 Z" id="Path" fill="#2F2E41" fill-rule="nonzero"></path>
            <path d="M150.792189,148.141605 C150.792189,148.141605 152.693988,149.663043 154.405605,150.043401 C156.117222,150.423759 156.687759,151.37466 156.687759,151.37466" id="Path" stroke="#000000" stroke-width="0.6" opacity="0.2"></path>
            <path d="M153.47409,140.990928 L153.626019,149.043228 C153.636463,149.596848 154.091511,150.0384 154.645194,150.032243 L169.630041,149.863809 C170.159808,149.857858 170.594559,149.442822 170.625072,148.913901 L171.079914,141.029985 C171.095894,140.75302 170.99702,140.481712 170.806583,140.279972 C170.616146,140.078232 170.350984,139.963896 170.073558,139.963896 L154.48194,139.963896 C154.2113,139.963896 153.952027,140.072724 153.762468,140.265891 C153.572909,140.459058 153.468987,140.720336 153.47409,140.990928 L153.47409,140.990928 Z" id="Path" fill="#575A89" fill-rule="nonzero"></path>
            <path d="M151.740762,128.601024 C152.148894,127.700424 152.697357,126.855252 152.958714,125.901669 C153.271974,124.75872 153.149982,123.549414 153.112713,122.364891 C153.053197,121.31729 153.142457,120.266541 153.377829,119.243991 C153.616859,118.216557 154.15344,117.282375 154.920492,116.558229 C156.913509,114.779061 160.56102,114.651303 162.994635,115.391961 C163.954035,115.683951 164.976051,116.239992 165.213942,117.214224 C165.249855,117.361305 165.265962,117.512865 165.306063,117.658854 C165.505308,118.384209 166.247361,118.843176 166.515099,119.546133 C166.861392,120.455361 166.327431,121.444122 166.257633,122.414553 C166.176147,123.547521 166.733094,124.617864 167.282058,125.612295 C167.608401,126.20346 167.947716,126.833196 167.915325,127.507671 C167.888256,127.876567 167.776096,128.234177 167.587641,128.552457 C166.876644,129.725432 165.612276,130.450201 164.240796,130.470957 C163.802229,130.506077 163.36371,130.402548 162.987159,130.174989 C162.393243,129.766032 162.219294,128.942535 162.34302,128.232135 C162.466746,127.521735 162.827355,126.87921 163.109898,126.215784 C163.196598,126.012204 163.27485,125.805165 163.346976,125.59605 C165.15587,124.586298 165.974841,122.420675 165.286756,120.466644 C164.598672,118.512613 162.603471,117.337961 160.561004,117.684411 C158.518537,118.030861 157.022289,119.797744 157.017052,121.869379 C157.011814,123.941014 158.499109,125.71544 160.539798,126.072213 C160.752856,127.145532 160.656029,128.257322 160.260633,129.27765 C159.901081,130.107792 159.449596,130.895008 158.914635,131.62455 C158.695842,131.998549 158.404258,132.324866 158.057136,132.584196 C157.828314,132.719659 157.582722,132.824544 157.326636,132.896169 C156.252432,133.241643 155.121249,133.519626 154.003614,133.364211 C152.885979,133.208796 151.779114,132.534711 151.398273,131.472516 C151.064589,130.54179 151.33263,129.501615 151.740762,128.601024 Z" id="Path" fill="#2F2E41" fill-rule="nonzero"></path>
            <ellipse id="Oval" fill="#2F2E41" fill-rule="nonzero" cx="161.040162" cy="119.250591" rx="4.642068" ry="2.630505"></ellipse>
            <path d="M231.963276,111.211605 C231.892571,111.036898 231.762544,110.892706 231.596052,110.804376 C231.492435,110.743654 231.380652,110.698091 231.264111,110.669076 C231.342647,110.63123 231.414574,110.58098 231.477126,110.520255 C231.570209,110.433741 231.640276,110.325402 231.680997,110.205024 C231.718977,110.081617 231.734469,109.952389 231.726735,109.823502 C231.726072,109.609446 231.666384,109.399721 231.554235,109.217394 C231.429105,109.050784 231.258456,108.923924 231.062859,108.852105 C230.872944,108.778442 230.671853,108.737721 230.468241,108.731694 L230.468241,107.867175 L229.9455,108.205407 L229.9455,108.733047 L229.5273,108.733047 L229.5273,108.178347 L228.9915,107.867175 L228.9915,108.733044 L227.853231,108.733044 L228.21915,109.382445 C228.296707,109.377128 228.374532,109.387718 228.447849,109.413564 C228.484654,109.430051 228.514653,109.458719 228.532794,109.494738 C228.55509,109.571553 228.563499,109.651731 228.557625,109.731501 L228.557625,112.074759 C228.563316,112.15408 228.554909,112.233781 228.532794,112.310169 C228.515805,112.345344 228.506658,112.376469 228.466146,112.395402 C228.425634,112.414335 228.424326,112.412991 228.311946,112.412991 L228.310638,112.412991 L227.853231,113.062392 L228.990189,113.062392 L228.990189,113.928264 L229.525989,113.928264 L229.525989,113.062392 L229.944189,113.062392 L229.944189,113.928264 L230.466927,113.928264 L230.466927,113.05698 C230.731465,113.052277 230.993541,113.005231 231.243198,112.91763 C231.474921,112.834838 231.67778,112.686844 231.827361,112.491459 C231.957755,112.283567 232.029131,112.044115 232.033842,111.798759 C232.047617,111.600341 232.023673,111.401109 231.963276,111.211605 L231.963276,111.211605 Z M229.525989,109.463631 L229.52613,109.463631 L229.52613,109.445631 L229.89153,109.445631 C230.097099,109.445631 230.782149,109.374738 230.793519,109.953924 C230.805021,110.53311 229.89153,110.509434 229.89153,110.509434 L229.52613,110.509434 L229.52613,110.464788 L229.525989,110.464788 L229.525989,109.463631 Z M229.525992,111.114195 L229.944198,111.114195 C230.029143,111.114195 230.321355,111.12759 230.427732,111.132594 C230.471162,111.134238 230.514124,111.142168 230.55528,111.156135 C230.57031,111.161412 230.584554,111.167364 230.59998,111.173994 C230.664692,111.195688 230.725528,111.227567 230.780196,111.268428 C230.816203,111.293101 230.847718,111.323759 230.873373,111.359073 C230.912985,111.416461 230.941896,111.480537 230.958711,111.548211 C230.971172,111.595559 230.977622,111.644287 230.977911,111.693246 C230.982222,111.786507 230.959581,111.879037 230.912697,111.959772 C230.845592,112.06705 230.747143,112.151117 230.630679,112.200591 C230.412917,112.289763 230.179491,112.334386 229.944192,112.331823 L229.525992,112.331823 L229.525992,111.114195 Z" id="Shape" fill="#6C63FF" fill-rule="nonzero" opacity="0.3"></path>
            <circle id="Oval" fill="#F2F2F2" fill-rule="nonzero" cx="19.344567" cy="129.79773" r="5.4"></circle>
            <path d="M21.363276,130.111605 C21.2925713,129.936898 21.1625442,129.792706 20.996052,129.704376 C20.8924349,129.643654 20.7806521,129.598091 20.664111,129.569076 C20.7426421,129.531229 20.8145634,129.480978 20.877111,129.420255 C20.9701942,129.333741 21.0402606,129.225402 21.080982,129.105024 C21.118962,128.981617 21.1344543,128.852389 21.12672,128.723502 C21.1260571,128.509446 21.0663685,128.299721 20.95422,128.117394 C20.8290904,127.950784 20.6584411,127.823924 20.462844,127.752105 C20.2729288,127.678442 20.0718377,127.637721 19.868226,127.631694 L19.868226,126.767175 L19.345485,127.105407 L19.345485,127.633047 L18.927285,127.633047 L18.927285,127.078347 L18.391485,126.767175 L18.391485,127.633044 L17.253216,127.633044 L17.619135,128.282445 C17.696692,128.277128 17.7745174,128.287718 17.847834,128.313564 C17.8846393,128.330051 17.9146384,128.358719 17.932779,128.394738 C17.9550748,128.471553 17.9634836,128.551731 17.95761,128.631501 L17.95761,130.974759 C17.9633007,131.05408 17.9548938,131.133781 17.932779,131.210169 C17.91579,131.245344 17.906643,131.276469 17.866131,131.295402 C17.825619,131.314335 17.824311,131.312991 17.711931,131.312991 L17.710623,131.312991 L17.253216,131.962392 L18.390189,131.962392 L18.390189,132.828264 L18.925989,132.828264 L18.925989,131.962392 L19.344189,131.962392 L19.344189,132.828264 L19.866927,132.828264 L19.866927,131.95698 C20.1314647,131.952277 20.3935415,131.905231 20.643198,131.81763 C20.8749207,131.734838 21.0777798,131.586844 21.227361,131.391459 C21.3577553,131.183567 21.4291313,130.944115 21.433842,130.698759 C21.447617,130.500341 21.4236728,130.301109 21.363276,130.111605 Z M18.925989,128.363631 L18.92613,128.363631 L18.92613,128.345631 L19.29153,128.345631 C19.497099,128.345631 20.182149,128.274738 20.193519,128.853924 C20.205021,129.43311 19.29153,129.409434 19.29153,129.409434 L18.92613,129.409434 L18.92613,129.364788 L18.925989,129.364788 L18.925989,128.363631 Z M18.925992,130.014195 L19.344198,130.014195 C19.429143,130.014195 19.721355,130.02759 19.827732,130.032594 C19.871162,130.034238 19.9141245,130.042168 19.95528,130.056135 C19.97031,130.061412 19.984554,130.067364 19.99998,130.073994 C20.0646916,130.095688 20.125528,130.127567 20.180196,130.168428 C20.2162032,130.193101 20.2477179,130.223759 20.273373,130.259073 C20.3129849,130.316461 20.3418958,130.380537 20.358711,130.448211 C20.3711717,130.495559 20.3776224,130.544287 20.377911,130.593246 C20.3822217,130.686507 20.3595814,130.779037 20.312697,130.859772 C20.245592,130.96705 20.1471431,131.051117 20.030679,131.100591 C19.8129166,131.189763 19.5794907,131.234386 19.344192,131.231823 L18.925992,131.231823 L18.925992,130.014195 Z" id="Shape" fill="#6C63FF" fill-rule="nonzero" opacity="0.3"></path>
        </g>
    </g>
</svg>