<svg xmlns="http://www.w3.org/2000/svg" xmlns:xlink="http://www.w3.org/1999/xlink" width="568.805" height="416.9" viewBox="0 0 568.805 416.9">
  <defs>
    <linearGradient id="linear-gradient" x1="0.5" x2="0.5" y2="1" gradientUnits="objectBoundingBox">
      <stop offset="0" stop-color="#78e07b"/>
      <stop offset="1" stop-color="#059451"/>
    </linearGradient>
    <linearGradient id="linear-gradient-2" x1="0.5" y1="0" x2="0.5" y2="1" xlink:href="#linear-gradient"/>
    <linearGradient id="linear-gradient-3" x1="0.5" y1="0" x2="0.5" y2="0.999" xlink:href="#linear-gradient"/>
    <radialGradient id="radial-gradient" cx="0.544" cy="0.636" r="0.695" gradientTransform="matrix(-1.124, 0, 0, 1, 1.161, 0)" gradientUnits="objectBoundingBox">
      <stop offset="0" stop-color="#ffc8af"/>
      <stop offset="1" stop-color="#ffbb9c"/>
    </radialGradient>
    <radialGradient id="radial-gradient-2" cx="0.5" cy="0.5" r="0.873" gradientTransform="matrix(-0.443, 0, 0, 1, 0.721, 0)" xlink:href="#radial-gradient"/>
    <radialGradient id="radial-gradient-3" cx="-0.093" cy="-0.026" r="1.496" gradientTransform="matrix(-0.861, 0, 0, 1, -0.091, 0)" xlink:href="#radial-gradient"/>
    <linearGradient id="linear-gradient-4" x1="0.352" y1="2.102" x2="0.648" y2="-1.102" gradientUnits="objectBoundingBox">
      <stop offset="0" stop-color="#ec827d"/>
      <stop offset="1" stop-color="#ff5a7d"/>
    </linearGradient>
    <linearGradient id="linear-gradient-5" x1="0.36" y1="3.292" x2="0.633" y2="-2.659" xlink:href="#linear-gradient-4"/>
    <linearGradient id="linear-gradient-6" x1="1.054" y1="0.085" x2="-0.054" y2="0.914" xlink:href="#linear-gradient-4"/>
  </defs>
  <g id="Group_949" data-name="Group 949" transform="translate(-1193 -188.1)">
    <g id="Group_947" data-name="Group 947">
      <g id="Group_813" data-name="Group 813" transform="translate(77 -1090.9)">
        <g id="freepik--Device--inject-2" transform="translate(940.096 1279.79)">
          <path id="Path_21200" data-name="Path 21200" d="M318.3,416.11l-117-.07c-14.07,0-25.47-12-25.46-26.79V81.08c0-14.79,11.42-26.78,25.5-26.77l117,.07c14.07,0,25.47,12,25.46,26.78l-.05,308.18C343.79,404.13,332.38,416.12,318.3,416.11Z" transform="translate(0.064)" fill="#263238"/>
          <path id="Path_21201" data-name="Path 21201" d="M318.26,65.28H295.59a5.8,5.8,0,0,0-5.51,6V75.6a5.79,5.79,0,0,1-5.51,6H240.36a5.8,5.8,0,0,1-5.5-6.06V71.28a5.8,5.8,0,0,0-5.51-6H201.53c-9.86,0-17.85,8.39-17.86,18.75v300.8c0,10.35,8,18.75,17.83,18.76l116.74.07c9.85,0,17.85-8.39,17.85-18.75L336.1,84C336.1,73.68,328.12,65.29,318.26,65.28Z" fill="#fff"/>
          <path id="Path_21209" data-name="Path 21209" d="M314.07,314.53a.73.73,0,1,1-.73-.73A.73.73,0,0,1,314.07,314.53Z" fill="#fff"/>
          <path id="Path_21250" data-name="Path 21250" d="M199.06,106.14h10.58a.63.63,0,0,0,0-1.25H199.06a.63.63,0,0,0,0,1.25Z" fill="#263238"/>
          <path id="Path_21251" data-name="Path 21251" d="M199.06,110.14h14.78a.63.63,0,0,0,0-1.25H199.06a.63.63,0,0,0,0,1.25Z" fill="#263238"/>
          <path id="Path_21252" data-name="Path 21252" d="M199.06,114.15h10.58a.63.63,0,0,0,0-1.25H199.06a.63.63,0,0,0,0,1.25Z" fill="#263238"/>
          <rect id="Rectangle_1579" data-name="Rectangle 1579" width="53" height="3" rx="1.5" transform="translate(232.904 394.11)" fill="#263238"/>
        </g>
        <g id="Asset_1" data-name="Asset 1" transform="translate(1213.936 1284)">
          <g id="Layer_2" data-name="Layer 2" transform="translate(0 -5)">
            <g id="OBJECTS">
              <path id="Path_16784" data-name="Path 16784" d="M60.087,318.3s.758,2.229,1.56,5.092a51.184,51.184,0,0,1,1.839,8.581l-1.36.1a49.265,49.265,0,0,0-1.783-8.313c-.4-1.393-.78-2.652-1.114-3.566s-.479-1.46-.479-1.46l1.293-.435Z" transform="translate(341.892 44.078)" fill="#112b46"/>
              <path id="Path_16785" data-name="Path 16785" d="M52.714,319.325l-.067.635c-.123,1.259-.368,4.156-.368,7.321,0,1.471.056,3.009.2,4.457l-1.36.134c-.145-1.5-.2-3.076-.2-4.58a78.925,78.925,0,0,1,.446-8.112l1.348.156Z" transform="translate(361.389 44.179)" fill="#112b46"/>
              <path id="Path_16786" data-name="Path 16786" d="M47.308,327.455h0a5.373,5.373,0,0,0-.579.847,3.343,3.343,0,0,0-.479,1.627H44.89a4.792,4.792,0,0,1,.713-2.4,6.887,6.887,0,0,1,.7-1Z" transform="translate(373.515 45.02)" fill="#112b46"/>
              <path id="Path_16787" data-name="Path 16787" d="M95.915,324.473s6.954-8.815-3.733-27.134-32.728-22.722-33.765-20.348,11.144,6.953,14.576,21.028,3.845,21.875,8.09,26.12S91.112,330.067,95.915,324.473Z" transform="translate(307.68 39.287)" fill="url(#linear-gradient)"/>
              <path id="Path_16788" data-name="Path 16788" d="M-.013,322.878s.769-9.918,18.721-15.434,34.957,4.836,34.222,7-11.467-2.229-22.12,4.948-15.6,11.946-20.95,12.158S-.236,329.419-.013,322.878Z" transform="translate(417.916 42.654)" fill="url(#linear-gradient-2)"/>
              <path id="Path_16789" data-name="Path 16789" d="M19.384,320.81S7.416,307.95,21.3,287.379s44.507-22.008,45.51-19.156-11.979,8.235-17.027,24.393-7.8,24.293-13.071,28.973S24.566,327.719,19.384,320.81Z" transform="translate(387.721 38.226)" fill="url(#linear-gradient-3)"/>
              <path id="Path_16790" data-name="Path 16790" d="M84.238,321.062h.178a.68.68,0,0,0,.479-.836c-.312-1.114-7.8-27.547-21.529-37.643a.687.687,0,0,0-.8,1.114c13.372,9.817,20.95,36.64,21.028,36.907A.68.68,0,0,0,84.238,321.062Z" transform="translate(316.527 39.98)" fill="#e6e7e8"/>
              <path id="Path_16791" data-name="Path 16791" d="M23.514,319.141a.758.758,0,0,0,.68-.5,3.233,3.233,0,0,0,.078-.735c.624-9.294,4.58-40.117,29.463-46.647a.68.68,0,0,0,.49-.825.691.691,0,0,0-.836-.49c-25.753,6.753-29.831,38.345-30.5,47.872v.49a.646.646,0,0,0,.446.813Z" transform="translate(391.124 38.546)" fill="#e6e7e8"/>
              <g id="Group_672" data-name="Group 672" transform="translate(422.28 353.222)">
                <path id="Path_16792" data-name="Path 16792" d="M12.878,326.906c.312,0,.613-.279,1.6-1.17,11.143-10.107,21.908-14.888,31.971-14.23a.68.68,0,0,0,.724-.635.7.7,0,0,0-.635-.724c-10.453-.691-21.529,4.223-32.974,14.576-.4.368-.8.735-.969.858a.669.669,0,0,0,0,1.27A.7.7,0,0,0,12.878,326.906Z" transform="translate(-12.14 -310.083)" fill="#e6e7e8"/>
              </g>
              <path id="Path_16793" data-name="Path 16793" d="M37.569,370.621H72.548a1.872,1.872,0,0,0,1.839-1.46l9.16-39.582H26.57l9.16,39.582A1.883,1.883,0,0,0,37.569,370.621Z" transform="translate(357.691 45.368)" fill="#bee1f4"/>
              <path id="Path_16794" data-name="Path 16794" d="M80.883,341.1H29.233L26.57,329.58H83.547Z" transform="translate(357.691 45.368)" fill="#7aabbc"/>
              <path id="Path_16795" data-name="Path 16795" d="M83.012,331.92H27.1l-.535-2.34H83.547Z" transform="translate(357.691 45.368)" fill="#bee1f4"/>
              <rect id="Rectangle_854" data-name="Rectangle 854" width="159.843" height="87.02" transform="translate(104.169 51.709)" fill="#0a2033"/>
              <path id="Path_16796" data-name="Path 16796" d="M188.96,43.914a1.694,1.694,0,1,0,1.694-1.694A1.694,1.694,0,0,0,188.96,43.914Z" transform="translate(-56.922 12.509)" fill="#f9fbfc"/>
              <path id="Path_16797" data-name="Path 16797" d="M195.24,43.914a1.694,1.694,0,1,0,1.683-1.694,1.694,1.694,0,0,0-1.683,1.694Z" transform="translate(-70.2 12.509)" fill="#fbd15b"/>
              <path id="Path_16798" data-name="Path 16798" d="M201.11,44.074a1.694,1.694,0,1,0,1.683-1.694,1.694,1.694,0,0,0-1.683,1.694Z" transform="translate(-82.611 12.527)" fill="#ff8578"/>
              <rect id="Rectangle_855" data-name="Rectangle 855" width="87.944" height="1.114" transform="translate(111.39 69.472)" fill="#fbd15b"/>
              <rect id="Rectangle_856" data-name="Rectangle 856" width="124.851" height="1.114" transform="translate(115.48 75.456)" fill="#fbd15b"/>
              <rect id="Rectangle_857" data-name="Rectangle 857" width="96.435" height="1.114" transform="translate(122.589 81.429)" fill="#fbd15b"/>
              <rect id="Rectangle_858" data-name="Rectangle 858" width="100.692" height="1.114" transform="translate(129.564 87.413)" fill="#fbd15b"/>
              <rect id="Rectangle_859" data-name="Rectangle 859" width="68.02" height="1.114" transform="translate(139.036 93.386)" fill="#fbd15b"/>
              <rect id="Rectangle_860" data-name="Rectangle 860" width="39.604" height="1.114" transform="translate(111.39 124.409)" fill="#ff8578"/>
              <rect id="Rectangle_861" data-name="Rectangle 861" width="96.435" height="1.114" transform="translate(115.479 118.425)" fill="#ff8578"/>
              <rect id="Rectangle_862" data-name="Rectangle 862" width="124.851" height="1.114" transform="translate(122.589 112.452)" fill="#ff8578"/>
              <rect id="Rectangle_863" data-name="Rectangle 863" width="68.02" height="1.114" transform="translate(129.565 106.468)" fill="#ff8578"/>
              <rect id="Rectangle_864" data-name="Rectangle 864" width="82.227" height="1.114" transform="translate(139.037 100.495)" fill="#ff8578"/>
              <rect id="Rectangle_865" data-name="Rectangle 865" width="1.415" height="1.415" transform="translate(107.183 68.402)" fill="#f9fbfc"/>
              <path id="Path_16799" data-name="Path 16799" d="M192.73,106.027h1.415v-2.9H192.73Zm0-7.243h1.415v-2.9H192.73Zm0-7.243h1.415v-2.9H192.73Zm0-7.243h1.415V81.4H192.73Zm0-7.243h1.415v-2.9H192.73Zm0-7.243h1.415v-2.9H192.73Zm0-7.243h1.415v-2.9H192.73Z" transform="translate(-85.547 14.504)" fill="#f9fbfc"/>
              <rect id="Rectangle_866" data-name="Rectangle 866" width="1.415" height="1.426" transform="translate(107.183 124.888)" fill="#f9fbfc"/>
              <path id="Path_16800" data-name="Path 16800" d="M254.349,212.84h76.522v-4.346H256.935l-35.6-65.045-3.811,2.084Z" transform="translate(-102.419 24.085)" fill="#1d262d"/>
              <path id="Path_16801" data-name="Path 16801" d="M133.259,84.341a36.986,36.986,0,0,0,5.093,13.049c4.079,6.3,13.272,15.6,15.813,16.336,1.025.312,4.669-1.337,8.647-3.421,1.3-.68,2.641-1.415,3.945-2.128,4.58-2.541,8.614-4.992,8.614-4.992l6.084-8.558a70.2,70.2,0,0,0-13.606-30.555c-6.742-8.826-21.808-3.521-27.29.713S132.067,75.682,133.259,84.341Z" transform="translate(141.183 14.461)" fill="url(#radial-gradient)"/>
              <path id="Path_16802" data-name="Path 16802" d="M147.719,82.7c.178,5.572-3.488,7.633-4.212,8.58s4.145,6.062,6.374,3.755S147.719,82.7,147.719,82.7Z" transform="translate(160.499 17.138)" fill="#efa78b"/>
              <path id="Path_16803" data-name="Path 16803" d="M254.659,333.35l-2.719,13.06,17.919,3.087,4.134-14.955Z" transform="translate(-83.896 45.799)" fill="#ffc8af"/>
              <path id="Path_16804" data-name="Path 16804" d="M252.79,350.48l-1.17,6.541,56.832,10.141,1.114-6.474s-50.4-9.572-55.885-10.029Z" transform="translate(-119.113 47.758)" fill="#f9fbfc"/>
              <path id="Path_16805" data-name="Path 16805" d="M274.761,343.992a.813.813,0,0,1-.167-.446l-3.521,1.359,4.012,5.572a.992.992,0,0,1-.223,1.382.969.969,0,0,1-1.36-.223l-4.168-5.761a.468.468,0,0,1-.111-.279c-7.633,2.886-15.6,5.828-17.662,6.229,5.483.5,55.885,10.029,55.885,10.029l-1.794-15.044a1.114,1.114,0,0,0-1.326-.936c-13.372,2.608-17.974-3.2-19.245-5.449a1.114,1.114,0,0,0-1.348-.479l-2.452.958,3.978,5.494a.981.981,0,0,1-.234,1.371,1.025,1.025,0,0,1-.747.189,1.114,1.114,0,0,1-.635-.412l-4.145-5.761a.246.246,0,0,1-.067-.156l-3.064,1.181,4.145,5.761a.992.992,0,0,1-.969,1.549.925.925,0,0,1-.613-.412Z" transform="translate(-116.924 46.546)" fill="#0091ff"/>
              <path id="Path_16806" data-name="Path 16806" d="M284.692,351.121a.969.969,0,0,0,1.359.223.992.992,0,0,0,.223-1.382l-4.012-5.572-1.85.691a.468.468,0,0,0,.111.279Z" transform="translate(-128.092 47.062)" fill="#f9fbfc"/>
              <path id="Path_16807" data-name="Path 16807" d="M277.34,342.55l-1.772.691a.814.814,0,0,0,.167.446l4.168,5.761a.925.925,0,0,0,.613.412.992.992,0,0,0,.97-1.549Z" transform="translate(-117.899 46.851)" fill="#f9fbfc"/>
              <path id="Path_16808" data-name="Path 16808" d="M275.519,347.482a1.114,1.114,0,0,0,.635.412,1.025,1.025,0,0,0,.747-.189.981.981,0,0,0,.234-1.371l-3.978-5.494-1.85.724a.245.245,0,0,0,.067.156Z" transform="translate(-108.801 46.656)" fill="#f9fbfc"/>
              <path id="Path_16809" data-name="Path 16809" d="M198.961,263.273c11.645.591,27.2,1.415,47.516,2.229,56.832,2.173,45.265-52.865,45.265-52.865l-54.325-.713s-80.757-1.2-97.773,9.661S97.811,347.095,97.811,347.095l27.056,7.555s21.919-47.126,34.723-72.221c5.26-10.319,9.06-17.908,9.383-18.732C169.665,261.758,177.989,262.159,198.961,263.273Z" transform="translate(69.141 31.91)" fill="#243c55"/>
              <path id="Path_16810" data-name="Path 16810" d="M99.425,211.82h1.727l54.325.713s6.486,30.867-14.13,45.454c-20.515-4.959-32.74-25.786-43.515-44.463Z" transform="translate(205.383 31.903)" fill="#0a2033"/>
              <path id="Path_16811" data-name="Path 16811" d="M181.94,277.161l4.457,67.975,4.892.111v-2.8H210.7v3.343l5.349.134,5.26-87.833c-20.972-1.114-29.3-1.46-29.987.39C191,259.208,187.2,266.842,181.94,277.161Z" transform="translate(46.791 37.089)" fill="#0a2033"/>
              <path id="Path_16812" data-name="Path 16812" d="M191.46,336.24v12.38h19.379v-11.9Z" transform="translate(46.654 46.13)" fill="#ffc8af"/>
              <path id="Path_16813" data-name="Path 16813" d="M191.46,333.7v2.83l19.379.479V333.7Z" transform="translate(46.654 45.839)" fill="#0a2033"/>
              <path id="Path_16814" data-name="Path 16814" d="M186.51,358.3v6.686h57.757V358.41s-51.26-.579-56.832-.1Z" transform="translate(18.742 48.632)" fill="#f9fbfc"/>
              <path id="Path_16815" data-name="Path 16815" d="M207.975,348.25a.814.814,0,0,1-.234-.412l-3.243,1.95,4.937,4.781a1.014,1.014,0,0,1,0,1.4,1.036,1.036,0,0,1-.713.29.97.97,0,0,1-.669-.279l-5.115-4.937a.446.446,0,0,1-.156-.256c-7.009,4.19-14.375,8.491-16.292,9.249,5.483-.479,56.832.1,56.832.1l-4.457-14.487a1.114,1.114,0,0,0-1.471-.691c-12.681,4.914-18.264,0-19.9-1.984a1.114,1.114,0,0,0-1.4-.234l-2.229,1.371,4.87,4.714a.958.958,0,0,1,0,1.382,1.036,1.036,0,0,1-.713.323.992.992,0,0,1-.691-.3l-5.093-4.937a.423.423,0,0,1-.1-.134l-2.8,1.694,5.093,4.937a.958.958,0,0,1,0,1.382.947.947,0,0,1-.713.312.891.891,0,0,1-.669-.29Z" transform="translate(19.709 46.856)" fill="#0091ff"/>
              <path id="Path_16816" data-name="Path 16816" d="M221.875,355.246a.969.969,0,0,0,.669.279,1.036,1.036,0,0,0,.713-.29,1.014,1.014,0,0,0,0-1.4l-4.937-4.781-1.694,1a.446.446,0,0,0,.156.256Z" transform="translate(5.909 47.595)" fill="#f9fbfc"/>
              <path id="Path_16817" data-name="Path 16817" d="M213.762,346.41l-1.616.992a.814.814,0,0,0,.234.412l5.115,4.937a.891.891,0,0,0,.669.29.947.947,0,0,0,.713-.312.958.958,0,0,0,0-1.382Z" transform="translate(15.271 47.293)" fill="#f9fbfc"/>
              <path id="Path_16818" data-name="Path 16818" d="M213.447,350.068a.992.992,0,0,0,.691.3,1.036,1.036,0,0,0,.713-.323.958.958,0,0,0,0-1.382l-4.87-4.714-1.7,1.047a.423.423,0,0,0,.1.134Z" transform="translate(23.609 47.012)" fill="#f9fbfc"/>
              <path id="Path_16819" data-name="Path 16819" d="M142.46,203.109h32.049s48.34-7.8,57.746-13.584c3.5-2.151,9.505-8.736,15.69-16.169l-21.83-18.186c-3.822,6.062-7.3,11-8.692,11.545-3.8,1.426-39.827,21.529-44.006,21.529S149.347,187.9,142.46,203.109Z" transform="translate(64.152 25.425)" fill="#efa78b"/>
              <path id="Path_16820" data-name="Path 16820" d="M123.06,157.753,146.372,176.4c10.564-12.659,21.618-27.859,21.618-27.859L134.928,128.59S126.448,148.793,123.06,157.753Z" transform="translate(165.724 22.385)" fill="#0a7fd8"/>
              <path id="Path_16821" data-name="Path 16821" d="M108.607,114.645l23.936-9.405s28.505,3.343,30.466,71.987c.379,13.25.256,86.529-3.789,88.4-16.1,7.5-57.578-41.643-57.578-41.643-.825-1.527.345-17.362,0-18.944a16.567,16.567,0,0,0,2.474-1.114c4.246-2.5,12.146-12.993,19.925-24.337L99.447,160.423c-.969,1.549-1.95,3.042-2.886,4.457C95.87,128.3,108.607,114.645,108.607,114.645Z" transform="translate(200.124 19.715)" fill="#0091ff"/>
              <path id="Path_16822" data-name="Path 16822" d="M112.208,201.684a16.568,16.568,0,0,0,2.474-1.114c4.246-2.5,12.146-12.993,19.925-24.337l-12.068-9.405,12.068-17.9L156.37,134.7v9.806s-9.316,25.34-20.4,45.209c-6.017,10.787-15.98,16.091-23.836,18.676A60.511,60.511,0,0,0,112.208,201.684Z" transform="translate(189.524 23.084)" fill="#0a7fd8"/>
              <path id="Path_16823" data-name="Path 16823" d="M162.951,195.543s50.525-20.638,53.957-21.384c1.114-.234,4.8-5.36,9.372-12.258.958-1.493,3.644-5.572,4.613-7.121l24.594,19.189c-7.8,11.344-15.679,21.841-19.925,24.337a16.574,16.574,0,0,1-2.474,1.114v0c-14.687,5.494-67.541,8.034-68.566,8.38-1.906,1.471-6.363,1.56-10.375.457a15.01,15.01,0,0,1-4.992-2.3c-3.533-2.652-8.8,1.114-11.144,2.886-1.549,1.114-5.159,1.114-6.352-.067C134.334,193.537,162.951,195.543,162.951,195.543Z" transform="translate(68.644 25.38)" fill="url(#radial-gradient-2)"/>
              <path id="Path_16824" data-name="Path 16824" d="M124.03,105.231l.713,1.449,1.538,3.109.279.568,2.92,5.917,23.9-9.405L143.375,90.99l-15.846,11.667Z" transform="translate(179.251 18.086)" fill="url(#radial-gradient-3)"/>
              <path id="Path_16825" data-name="Path 16825" d="M163.154,147.132,138.237,185.41l-28.494-16.348s7.8-29.842,15.289-46.257c4.68-10.2,18.142-15.255,31.2-7.143C167.667,122.806,167.321,139.5,163.154,147.132Z" transform="translate(182.741 20.447)" fill="#0091ff"/>
              <path id="Path_16826" data-name="Path 16826" d="M172.952,84.727c.914-4.157,4.714-7.979,8.146-2.429a10.954,10.954,0,0,1,1.3,4.636c.613,5.795,7.344,8.335,12.38,8.725a9.839,9.839,0,0,0,2.429-.089s-1.281-9.528-4.1-21.017-9.227-23.19-18.476-18.431c0,0-8.5-3.967-13.684,2.619,0,0-8.781-3.154-13.372,3.911,0,0-12.336,2.329-14.643,10.029-2.92,9.739,10.709,12.113,15.267,9.349s7.99-7.99,11.144-7.89,2.429,4.914,2.9,7.89,5.093-.078,7.054,3.911,2.942,6.24,4.112,5.572S172.952,84.727,172.952,84.727Z" transform="translate(125.95 13.963)" fill="#243c55"/>
              <path id="Path_16827" data-name="Path 16827" d="M148.891,82.95c-.357-1.493.579-3.61,1.883-3.7,1.672-.111,2.44,1.928,2.563,3.722s-.379,4.457-2.229,3.878c-1.393-.479.167-2.151-.334-3.064S148.891,84.544,148.891,82.95Z" transform="translate(151.66 16.743)" fill="#efa78b"/>
              <path id="Path_16828" data-name="Path 16828" d="M144.02,105.677l1.538,3.109a11.355,11.355,0,0,0,4.825-9.026S148.934,102.858,144.02,105.677Z" transform="translate(159.975 19.089)" fill="#efa78b"/>
              <path id="Path_16829" data-name="Path 16829" d="M96.182,154.877v.747c0,.435-.167,1.192-.345,2.362-1.293,8.67-5.928,38.378-10.252,65.947s-8.324,52.976-8.324,52.976l-8.58-1.348s.3-1.883.813-5.171C71.3,258.868,75.834,230.062,79.9,204.02c2.039-13.027,3.967-25.363,5.382-34.545.7-4.569,1.282-8.335,1.683-10.987.2-1.326.357-2.374.468-3.087a4.743,4.743,0,0,1,.111-.813v-.167h0l2.574.279-2.585-.223v-.056l2.574.279-2.585-.223,4.023.345H87.513v-.345l4.023.345h4.647Z" transform="translate(298.13 25.339)" fill="#112b46"/>
              <path id="Path_16830" data-name="Path 16830" d="M1.805,102.843H8.7a1.816,1.816,0,0,0,1.816-1.816V0H0V101.038a1.816,1.816,0,0,0,1.805,1.805Z" transform="translate(307.003 313.971)" fill="#0a2033"/>
              <path id="Path_16831" data-name="Path 16831" d="M1.805,25.218H8.7A1.816,1.816,0,0,0,10.519,23.4V0H0V23.4a1.816,1.816,0,0,0,1.805,1.816Z" transform="translate(307.003 391.597)" fill="#0a2033"/>
              <path id="Path_16832" data-name="Path 16832" d="M7.065,8.736H50.814a7.065,7.065,0,0,0,7.065-7.065V0H0V1.672A7.065,7.065,0,0,0,7.065,8.736Z" transform="translate(283.323 315.476)" fill="#112b46"/>
              <rect id="Rectangle_867" data-name="Rectangle 867" width="128.25" height="20.504" rx="7.4" transform="translate(248.132 295.183)" fill="url(#linear-gradient-4)"/>
              <path id="Path_16833" data-name="Path 16833" d="M105.625,362.251a6.162,6.162,0,1,1-6.151-6.151,6.162,6.162,0,0,1,6.151,6.151Z" transform="translate(261.252 48.401)" fill="#0a2033"/>
              <ellipse id="Ellipse_20" data-name="Ellipse 20" cx="6.162" cy="6.162" rx="6.162" ry="6.162" transform="translate(257.649 404.49)" fill="#0a2033"/>
              <rect id="Rectangle_868" data-name="Rectangle 868" width="21.173" height="18.498" transform="translate(301.677 383.718)" fill="#112b46"/>
              <path id="Path_16834" data-name="Path 16834" d="M.056,8.7H109.262v-2.3A6.408,6.408,0,0,0,102.854,0H6.408A6.408,6.408,0,0,0,0,6.408V8.7Z" transform="translate(257.593 397.87)" fill="url(#linear-gradient-5)"/>
              <path id="Path_16835" data-name="Path 16835" d="M88.742,162.3,84.1,196.663a8.947,8.947,0,0,1-17.74-2.34l4.636-34.366a8.956,8.956,0,0,1,17.752,2.4" transform="translate(308.167 25.085)" fill="url(#linear-gradient-6)"/>
              <rect id="Rectangle_869" data-name="Rectangle 869" width="9.416" height="168.478" transform="translate(81.905 247.166)" fill="#bc8867"/>
              <rect id="Rectangle_870" data-name="Rectangle 870" width="9.416" height="168.478" transform="translate(223.75 247.166)" fill="#bc8867"/>
              <rect id="Rectangle_871" data-name="Rectangle 871" width="167.754" height="11.768" transform="translate(72.466 236.658)" fill="#f9fbfc"/>
              <rect id="Rectangle_872" data-name="Rectangle 872" width="48.508" height="37.579" rx="4" transform="translate(244.098)" fill="#ff8578"/>
              <text id="_" data-name="&lt;/&gt;" transform="matrix(-1, 0, 0, 1, 283.715, 23.643)" fill="#f9fbfc" font-size="16" font-family="SegoeUI-Semibold, Segoe UI" font-weight="600"><tspan x="0" y="0">&lt;/&gt;</tspan></text>
              <rect id="Rectangle_873" data-name="Rectangle 873" width="54.726" height="39.679" rx="5" transform="translate(325.814 40.078)" fill="#fbd15b"/>
              <path id="Path_16836" data-name="Path 16836" d="M115.948,41.592a8.982,8.982,0,0,1-12.013,13.082l-5.75,5.739a.624.624,0,0,1-.88,0l-1.6-1.6a.624.624,0,0,1,0-.88l5.739-5.75a8.982,8.982,0,0,1,14.487-10.564ZM104.425,51.621a6.287,6.287,0,1,0,0,.045Z" transform="translate(245.339 10.44)" fill="#f9fbfc"/>
              <rect id="Rectangle_874" data-name="Rectangle 874" width="42" height="36.065" rx="4" transform="translate(74.193 28.392)" fill="#0091ff"/>
              <text id="_2" data-name="{ }" transform="matrix(-1, 0, 0, 1, 104.169, 51.423)" fill="#f1f2f2" font-size="19" font-family="SegoeUI-Semibold, Segoe UI" font-weight="600"><tspan x="0" y="0">{ }</tspan></text>
            </g>
          </g>
        </g>
        <g id="Group_811" data-name="Group 811" transform="translate(-12.955 148)">
          <path id="Path_21255" data-name="Path 21255" d="M409.724,187.956v79.2a5.883,5.883,0,0,1-5.865,5.874H353.984a5.892,5.892,0,0,1-5.874-5.874v-79.2a5.874,5.874,0,0,1,5.874-5.856h49.875A5.865,5.865,0,0,1,409.724,187.956Z" transform="translate(799.453 1220.882)" fill="#f7fbfe"/>
          <path id="Path_21256" data-name="Path 21256" d="M348.11,263.82h61.614V275.5a5.883,5.883,0,0,1-5.865,5.874H353.984a5.892,5.892,0,0,1-5.874-5.874Z" transform="translate(799.453 1212.56)" fill="#c7e7ff" opacity="0.7"/>
          <path id="Path_21257" data-name="Path 21257" d="M380.118,200.2a20.254,20.254,0,1,0,14.348,5.923A20.254,20.254,0,0,0,380.118,200.2Zm0,35.873a15.529,15.529,0,1,1,11.063-4.549A15.619,15.619,0,0,1,380.118,236.073Z" transform="translate(798.253 1219.038)" fill="#e5ecf0"/>
          <path id="Path_21258" data-name="Path 21258" d="M401.263,220.463A20.236,20.236,0,0,1,368.3,236.208l2.91-3.593a15.619,15.619,0,1,0,9.808-27.771V200.2a20.254,20.254,0,0,1,20.245,20.263Z" transform="translate(797.398 1219.038)" fill="#d6e0e5"/>
          <rect id="Rectangle_1331" data-name="Rectangle 1331" width="13.23" height="1.94" rx="0.97" transform="translate(1171.751 1441.657)" fill="#e5ecf0"/>
          <rect id="Rectangle_1332" data-name="Rectangle 1332" width="20.451" height="1.94" rx="0.97" transform="translate(1168.141 1436.681)" fill="#e5ecf0"/>
        </g>
        <g id="Group_812" data-name="Group 812" transform="translate(56.045 148)">
          <path id="Path_21255-2" data-name="Path 21255" d="M409.724,187.956v79.2a5.883,5.883,0,0,1-5.865,5.874H353.984a5.892,5.892,0,0,1-5.874-5.874v-79.2a5.874,5.874,0,0,1,5.874-5.856h49.875A5.865,5.865,0,0,1,409.724,187.956Z" transform="translate(799.453 1220.882)" fill="#f7fbfe"/>
          <path id="Path_21256-2" data-name="Path 21256" d="M348.11,263.82h61.614V275.5a5.883,5.883,0,0,1-5.865,5.874H353.984a5.892,5.892,0,0,1-5.874-5.874Z" transform="translate(799.453 1212.56)" fill="#c7e7ff" opacity="0.7"/>
          <path id="Path_21257-2" data-name="Path 21257" d="M380.118,200.2a20.254,20.254,0,1,0,14.348,5.923A20.254,20.254,0,0,0,380.118,200.2Zm0,35.873a15.529,15.529,0,1,1,11.063-4.549A15.619,15.619,0,0,1,380.118,236.073Z" transform="translate(798.253 1219.038)" fill="#e5ecf0"/>
          <path id="Path_21258-2" data-name="Path 21258" d="M401.263,220.463A20.236,20.236,0,0,1,368.3,236.208l2.91-3.593a15.619,15.619,0,1,0,9.808-27.771V200.2a20.254,20.254,0,0,1,20.245,20.263Z" transform="translate(797.398 1219.038)" fill="#d6e0e5"/>
          <rect id="Rectangle_1331-2" data-name="Rectangle 1331" width="13.23" height="1.94" rx="0.97" transform="translate(1171.751 1441.657)" fill="#e5ecf0"/>
          <rect id="Rectangle_1332-2" data-name="Rectangle 1332" width="20.451" height="1.94" rx="0.97" transform="translate(1168.141 1436.681)" fill="#e5ecf0"/>
        </g>
        <path id="Path_21259" data-name="Path 21259" d="M384.083,282.341H256.317l-3.207-5.376V156.157c0-2.964,1.436-5.367,3.207-5.367H384.083c1.772,0,3.21,2.4,3.213,5.367V276.965C387.3,279.934,385.858,282.341,384.083,282.341Z" transform="translate(877.927 1258.009)" fill="#f7fbfe"/>
      </g>
    </g>
    <path id="Icon_awesome-apple" data-name="Icon awesome-apple" d="M55.819,44.023c-.035-6.477,2.894-11.365,8.824-14.965C61.325,24.31,56.313,21.7,49.7,21.186c-6.265-.494-13.112,3.653-15.618,3.653-2.647,0-8.718-3.477-13.483-3.477C10.746,21.521.281,29.216.281,44.87A43.986,43.986,0,0,0,2.823,59.2c2.259,6.477,10.412,22.36,18.919,22.1,4.447-.106,7.589-3.159,13.377-3.159,5.612,0,8.524,3.159,13.483,3.159,8.577-.124,15.954-14.56,18.107-21.054C55.2,54.823,55.819,44.358,55.819,44.023ZM45.83,15.045A16.622,16.622,0,0,0,50.066,2.25,18.713,18.713,0,0,0,38.083,8.409,16.882,16.882,0,0,0,33.565,21.1c4.606.353,8.806-2.012,12.265-6.053Z" transform="translate(1242.25 335.776)" fill="#0091ff"/>
  </g>
</svg>
