<!DOCTYPE svg PUBLIC "-//W3C//DTD SVG 1.1//EN" "http://www.w3.org/Graphics/SVG/1.1/DTD/svg11.dtd">
<!-- Uploaded to: SVG Repo, www.svgrepo.com, Transformed by: SVG Repo Mixer Tools -->
<svg height="800px" width="800px" version="1.1" id="Layer_1" xmlns="http://www.w3.org/2000/svg" xmlns:xlink="http://www.w3.org/1999/xlink" viewBox="0 0 504 504" xml:space="preserve" fill="#000000">
<g id="SVGRepo_bgCarrier" stroke-width="0"/>
<g id="SVGRepo_tracerCarrier" stroke-linecap="round" stroke-linejoin="round"/>
<g id="SVGRepo_iconCarrier"> <path style="fill:#54B265;" d="M196,11.2v96h-30.8l56,65.6L252,212l86.8-104.4H300v-96H196V11.2z"/> <g> <path style="fill:#E9B526;" d="M169.2,243.2H148c13.2-8,21.2-16,21.2-24H148c-15.2,8-37.2,12-61.6,12c-24.4,0-46.4-4-61.6-12H3.6 c0,8,8,16,21.2,24H3.6c0,8,8,16,21.2,24H3.6c0,8,8,16,21.2,24H3.6c0,8,8,16,21.2,24H3.6c0,8,8,16,21.2,24H3.6c0,8,8,16,21.2,24H3.6 c0,8,8,16,21.2,20H3.6c0,8,8,16,21.2,24H3.6c0,8,8,16,21.2,24H3.6c0,8,8,16,21.2,24H3.6c0,20,37.2,35.6,82.8,35.6 s82.8-15.6,82.8-35.6H148c13.2-8,21.2-16,21.2-24H148c13.2-8,21.2-16,21.2-24H148c13.2-8,21.2-16,21.2-24H148 c13.2-4,21.2-12,21.2-20H148c13.2-8,21.2-16,21.2-24H148c13.2-8,21.2-16,21.2-24H148c13.2-8,21.2-16,21.2-24H148 c13.2-8,21.2-16,21.2-24H148C161.2,259.2,169.2,251.2,169.2,243.2z"/> <path style="fill:#E9B526;" d="M334.8,315.2h-21.2c13.2-8,21.2-16,21.2-24h-21.2c-15.2,8-37.2,12-61.6,12c-24.4,0-46.4-4-61.6-12 h-21.2c0,8,8,16,21.2,24h-21.2c0,8,8,16,21.2,24h-21.2c0,8,8,16,21.2,24h-21.2c0,8,8,16,21.2,20h-21.2c0,8,8,16,21.2,24h-21.2 c0,8,8,16,21.2,24h-21.2c0,8,8,16,21.2,24h-21.2c0,20,37.2,35.6,82.8,35.6s82.8-15.6,82.8-35.6h-21.2c13.2-8,21.2-16,21.2-24h-21.2 c13.2-8,21.2-16,21.2-24h-21.2c13.2-8,21.2-16,21.2-24h-21.2c13.2-4,21.2-12,21.2-20h-21.2c13.2-8,21.2-16,21.2-24h-21.2 C326.8,331.2,334.8,323.2,334.8,315.2z"/> <path style="fill:#E9B526;" d="M500,383.2h-21.2c13.2-4,21.2-12,21.2-20h-21.2c-15.2,8-37.2,12-61.6,12s-46.4-4-61.6-12h-21.2 c0,8,8,16,21.2,20h-21.2c0,8,8,16,21.2,24h-21.2c0,8,8,16,21.2,24h-21.2c0,8,8,16,21.2,24h-21.2c0,20,37.2,35.6,82.8,35.6 s82.8-15.6,82.8-35.6h-21.2c13.2-8,21.2-16,21.2-24h-21.2c13.2-8,21.2-16,21.2-24h-21.2C492,399.2,500,391.2,500,383.2z"/> </g> <g> <path style="fill:#F0C960;" d="M252,231.2c-45.6,0-82.8,16-82.8,35.6c0,9.2,8,16,21.2,23.6c15.2,8,37.2,12,61.6,12 c24.4,0,46.4-4,61.6-12c13.2-8,21.2-14.8,21.2-24C334.8,247.2,297.6,231.2,252,231.2z"/> <path style="fill:#F0C960;" d="M86.8,160C41.2,160,4,176,4,195.6c0,9.2,8,16,21.2,24c15.2,8,37.2,12,61.6,12c24.4,0,46.4-4,61.6-12 c13.2-8,21.2-14.8,21.2-24C169.2,176,132.4,160,86.8,160z"/> <path style="fill:#F0C960;" d="M417.2,302c-45.6,0-82.8,16-82.8,35.6c0,9.2,8,16,21.2,24c15.2,8,37.2,12,61.6,12s46.4-4,61.6-12 c13.2-8,21.2-14.8,21.2-24C500,318,463.2,302,417.2,302z"/> </g> <path d="M86.8,306C38,306,0,288.8,0,266.4c0-2.4,1.6-4,4-4s4,1.6,4,4C8,281.6,39.6,298,86.8,298s78.8-16.4,78.8-31.6 c0-2.4,1.6-4,4-4s4,1.6,4,4C173.2,288.8,135.2,306,86.8,306z"/> <path d="M86.8,329.6C38,329.6,0,312.4,0,290c0-2.4,1.6-4,4-4s4,1.6,4,4c0,15.2,31.6,31.6,78.8,31.6s78.8-16.4,78.8-31.6 c0-2.4,1.6-4,4-4s4,1.6,4,4C173.2,312.4,135.2,329.6,86.8,329.6z"/> <path d="M86.8,353.2C38,353.2,0,336,0,313.6c0-2.4,1.6-4,4-4s4,1.6,4,4c0,15.2,31.6,31.6,78.8,31.6s78.8-16.4,78.8-31.6 c0-2.4,1.6-4,4-4s4,1.6,4,4C173.2,336,135.2,353.2,86.8,353.2z"/> <path d="M86.8,258.8C38,258.8,0,241.6,0,219.2c0-2.4,1.6-4,4-4s4,1.6,4,4c0,15.2,31.6,31.6,78.8,31.6s78.8-16.4,78.8-31.6 c0-2.4,1.6-4,4-4s4,1.6,4,4C173.2,241.2,135.2,258.8,86.8,258.8z"/> <path d="M86.8,282.4C38,282.4,0,265.2,0,242.8c0-2.4,1.6-4,4-4s4,1.6,4,4c0,15.2,31.6,31.6,78.8,31.6s78.8-16.4,78.8-31.6 c0-2.4,1.6-4,4-4s4,1.6,4,4C173.2,264.8,135.2,282.4,86.8,282.4z"/> <path d="M86.8,376.8C38,376.8,0,359.6,0,337.2c0-2.4,1.6-4,4-4s4,1.6,4,4c0,15.2,31.6,31.6,78.8,31.6s78.8-16.4,78.8-31.6 c0-2.4,1.6-4,4-4s4,1.6,4,4C173.2,359.6,135.2,376.8,86.8,376.8z"/> <path d="M86.8,400.8C38,400.8,0,383.6,0,361.2c0-2.4,1.6-4,4-4s4,1.6,4,4c0,15.2,31.6,31.6,78.8,31.6s78.8-16.4,78.8-31.6 c0-2.4,1.6-4,4-4s4,1.6,4,4C173.2,383.2,135.2,400.8,86.8,400.8z"/> <path d="M86.8,424.4C38,424.4,0,407.2,0,384.8c0-2.4,1.6-4,4-4s4,1.6,4,4c0,15.2,31.6,31.6,78.8,31.6s78.8-16.4,78.8-31.6 c0-2.4,1.6-4,4-4s4,1.6,4,4C173.2,406.8,135.2,424.4,86.8,424.4z"/> <path d="M86.8,448C38,448,0,430.8,0,408.4c0-2.4,1.6-4,4-4s4,1.6,4,4C8,423.6,39.6,440,86.8,440s78.8-16.4,78.8-31.6 c0-2.4,1.6-4,4-4s4,1.6,4,4C173.2,430.4,135.2,448,86.8,448z"/> <path d="M86.8,471.6C38,471.6,0,454.4,0,432c0-2.4,1.6-4,4-4s4,1.6,4,4c0,15.2,31.6,31.6,78.8,31.6s78.8-16.4,78.8-31.6 c0-2.4,1.6-4,4-4s4,1.6,4,4C173.2,454,135.2,471.6,86.8,471.6z"/> <path d="M86.8,495.2C38,495.2,0,478,0,455.6c0-2.4,1.6-4,4-4s4,1.6,4,4c0,15.2,31.6,31.6,78.8,31.6s78.8-16.4,78.8-31.6 c0-2.4,1.6-4,4-4s4,1.6,4,4C173.2,478,135.2,495.2,86.8,495.2z"/> <path d="M252,329.6c-48.8,0-86.8-17.2-86.8-39.6c0-2.4,1.6-4,4-4s4,1.6,4,4c0,15.2,31.6,31.6,78.8,31.6s78.8-16.4,78.8-31.6 c0-2.4,1.6-4,4-4s4,1.6,4,4C338.8,312.4,300.4,329.6,252,329.6z"/> <path d="M252,353.2c-48.8,0-86.8-17.2-86.8-39.6c0-2.4,1.6-4,4-4s4,1.6,4,4c0,15.2,31.6,31.6,78.8,31.6s78.8-16.4,78.8-31.6 c0-2.4,1.6-4,4-4s4,1.6,4,4C338.8,336,300.4,353.2,252,353.2z"/> <path d="M252,376.8c-48.8,0-86.8-17.2-86.8-39.6c0-2.4,1.6-4,4-4s4,1.6,4,4c0,15.2,31.6,31.6,78.8,31.6s78.8-16.4,78.8-31.6 c0-2.4,1.6-4,4-4s4,1.6,4,4C338.8,359.6,300.4,376.8,252,376.8z"/> <path d="M252,400.8c-48.8,0-86.8-17.2-86.8-39.6c0-2.4,1.6-4,4-4s4,1.6,4,4c0,15.2,31.6,31.6,78.8,31.6s78.8-16.4,78.8-31.6 c0-2.4,1.6-4,4-4s4,1.6,4,4C338.8,383.2,300.4,400.8,252,400.8z"/> <path d="M252,424.4c-48.8,0-86.8-17.2-86.8-39.6c0-2.4,1.6-4,4-4s4,1.6,4,4c0,15.2,31.6,31.6,78.8,31.6s78.8-16.4,78.8-31.6 c0-2.4,1.6-4,4-4s4,1.6,4,4C338.8,406.8,300.4,424.4,252,424.4z"/> <path d="M252,448c-48.8,0-86.8-17.2-86.8-39.6c0-2.4,1.6-4,4-4s4,1.6,4,4c0,15.2,31.6,31.6,78.8,31.6s78.8-16.4,78.8-31.6 c0-2.4,1.6-4,4-4s4,1.6,4,4C338.8,430.4,300.4,448,252,448z"/> <path d="M252,471.6c-48.8,0-86.8-17.2-86.8-39.6c0-2.4,1.6-4,4-4s4,1.6,4,4c0,15.2,31.6,31.6,78.8,31.6s78.8-16.4,78.8-31.6 c0-2.4,1.6-4,4-4s4,1.6,4,4C338.8,454,300.4,471.6,252,471.6z"/> <path d="M252,495.2c-48.8,0-86.8-17.2-86.8-39.6c0-2.4,1.6-4,4-4s4,1.6,4,4c0,15.2,31.6,31.6,78.8,31.6s78.8-16.4,78.8-31.6 c0-2.4,1.6-4,4-4s4,1.6,4,4C338.8,478,300.4,495.2,252,495.2z"/> <path d="M417.2,400.8c-48.8,0-86.8-17.2-86.8-39.6c0-2.4,1.6-4,4-4s4,1.6,4,4c0,15.2,31.6,31.6,78.8,31.6s78.8-16.4,78.8-31.6 c0-2.4,1.6-4,4-4s4,1.6,4,4C504,383.2,466,400.8,417.2,400.8z"/> <path d="M417.2,424.4c-48.8,0-86.8-17.2-86.8-39.6c0-2.4,1.6-4,4-4s4,1.6,4,4c0,15.2,31.6,31.6,78.8,31.6S496,400,496,384.8 c0-2.4,1.6-4,4-4s4,1.6,4,4C504,406.8,466,424.4,417.2,424.4z"/> <path d="M417.2,448c-48.8,0-86.8-17.2-86.8-39.6c0-2.4,1.6-4,4-4s4,1.6,4,4c0,15.2,31.6,31.6,78.8,31.6s78.8-16.4,78.8-31.6 c0-2.4,1.6-4,4-4s4,1.6,4,4C504,430.4,466,448,417.2,448z"/> <path d="M417.2,471.6c-48.8,0-86.8-17.2-86.8-39.6c0-2.4,1.6-4,4-4s4,1.6,4,4c0,15.2,31.6,31.6,78.8,31.6S496,447.2,496,432 c0-2.4,1.6-4,4-4s4,1.6,4,4C504,454,466,471.6,417.2,471.6z"/> <path d="M417.2,495.2c-48.8,0-86.8-17.2-86.8-39.6c0-2.4,1.6-4,4-4s4,1.6,4,4c0,15.2,31.6,31.6,78.8,31.6s78.8-16.4,78.8-31.6 c0-2.4,1.6-4,4-4s4,1.6,4,4C504,478,466,495.2,417.2,495.2z"/> <path d="M252,306c-48.8,0-86.8-17.2-86.8-39.6c0-22,38-39.6,86.8-39.6s86.8,17.2,86.8,39.6C338.8,288.8,300.4,306,252,306z M252,235.2c-47.2,0-78.8,16.4-78.8,31.6s31.6,31.6,78.8,31.6s78.8-16.4,78.8-31.6C330.8,251.2,299.2,235.2,252,235.2z"/> <path d="M86.8,235.2C38,235.2,0,218,0,195.6c0-22,38-39.6,86.8-39.6s86.8,17.2,86.8,39.6C173.2,217.6,135.2,235.2,86.8,235.2z M86.8,164C39.6,164,8,180.4,8,195.6s31.6,31.6,78.8,31.6s78.8-16.4,78.8-31.6S133.6,164,86.8,164z"/> <path d="M417.2,376.8c-48.8,0-86.8-17.2-86.8-39.6s38-39.6,86.8-39.6s86.8,17.2,86.8,39.6S466,376.8,417.2,376.8z M417.2,306 c-47.2,0-78.8,16.4-78.8,31.6s31.6,31.6,78.8,31.6s78.8-16.4,78.8-31.6C496,322.4,464.4,306,417.2,306z"/> <path d="M252,217.2L252,217.2c-1.2,0-2.4-0.4-3.2-1.6L218,176l-56-64.4c-1.2-1.2-1.2-2.8-0.8-4.4c0.8-1.6,2-2.4,3.6-2.4h24.8v-92 c0-2.4,1.6-4,4-4h104c2.4,0,4,1.6,4,4v92h36.8c1.6,0,2.8,0.8,3.6,2.4s0.4,3.2-0.4,4.4l-86.8,104C254.4,216.8,253.2,217.2,252,217.2z M174,113.2l50,58l28,36l78-93.6h-32.4c-2.4,0-4-1.6-4-4v-92h-96v92c0,2.4-1.6,4-4,4H174V113.2z"/> </g>
</svg>