
<svg width="216px" height="124px" viewBox="0 0 216 124" version="1.1" xmlns="http://www.w3.org/2000/svg" xmlns:xlink="http://www.w3.org/1999/xlink">
    <g id="Page-1" stroke="none" stroke-width="1" fill="none" fill-rule="evenodd">
        <g id="mainsourcecode" fill-rule="nonzero">
            <circle id="Oval" fill="#F2F2F2" cx="46.6502691" cy="98.6135397" r="11.1969913"></circle>
            <circle id="Oval" fill="#6C63FF" cx="48.4709193" cy="96.974955" r="11.1969913"></circle>
            <rect id="Rectangle" fill="#3F3D56" x="57.4883889" y="84.5856723" width="138.536907" height="1"></rect>
            <path d="M129.236837,3.52526013 L80.064783,3.52526013 L80.064783,2.51178165 L57.768264,2.51178165 L57.768264,3.52526013 L8.39351079,3.52526013 C7.51136886,3.52525914 6.66535686,3.87568806 6.04158816,4.49945643 C5.41781943,5.1232248 5.06739051,5.96923659 5.06739051,6.85137852 L5.06739051,74.1830424 C5.06739051,76.0200105 6.55654257,77.5091739 8.39351079,77.5091739 L129.236837,77.5091739 C131.073805,77.5091739 132.562957,76.0200105 132.562957,74.1830424 L132.562957,6.85137852 C132.562957,5.96923659 132.212529,5.1232248 131.58876,4.49945643 C130.964991,3.87568806 130.118979,3.52525914 129.236837,3.52526013 L129.236837,3.52526013 Z" id="Path" fill="#3F3D56"></path>
            <rect id="Rectangle" fill="#6C63FF" x="9.5266962" y="9.40343418" width="118.576956" height="66.8895645"></rect>
            <circle id="Oval" fill="#6C63FF" cx="68.7138267" cy="6.36300063" r="1.21617342"></circle>
            <polygon id="Path" fill="#000000" opacity="0.1" points="94.192686 76.293063 9.526734 76.293063 9.526734 9.403506"></polygon>
            <circle id="Oval" fill="#F2F2F2" cx="28.0804387" cy="59.8896414" r="11.3979852"></circle>
            <rect id="Rectangle" fill="#3F3D56" x="96.3810642" y="45.4775106" width="11.0763828" height="2.31446754"></rect>
            <rect id="Rectangle" fill="#3F3D56" x="82.9902117" y="27.4577234" width="37.8580854" height="1"></rect>
            <rect id="Rectangle" fill="#3F3D56" x="82.9902117" y="30.5987862" width="37.8580854" height="1"></rect>
            <rect id="Rectangle" fill="#3F3D56" x="82.9902117" y="33.739851" width="37.8580854" height="1"></rect>
            <rect id="Rectangle" fill="#3F3D56" x="82.9902117" y="36.8809137" width="37.8580854" height="1"></rect>
            <rect id="Rectangle" fill="#3F3D56" x="82.9902117" y="40.0219785" width="37.8580854" height="1"></rect>
            <rect id="Rectangle" fill="#F2F2F2" x="116.219362" y="10.7604882" width="4.62893697" height="4.62893697"></rect>
            <path d="M122.997446,17.5385744 L117.376586,17.5385744 L117.376586,11.9177144 L122.997446,11.9177144 L122.997446,17.5385744 Z M117.62098,17.2941974 L122.753062,17.2941974 L122.753062,12.1621084 L117.62098,12.1621084 L117.62098,17.2941974 Z" id="Shape" fill="#3F3D56"></path>
            <path d="M135.89234,75.0768216 L124.32,75.0768216 L124.32,74.2430424 C124.320002,74.1991962 124.302585,74.1571455 124.271581,74.1261417 C124.240577,74.0951379 124.198526,74.0777223 124.15468,74.0777223 L120.187022,74.0777223 C120.143176,74.0777223 120.101125,74.0951379 120.070121,74.1261417 C120.039118,74.1571455 120.0217,74.1991962 120.021702,74.2430424 L120.021702,75.0768216 L117.541914,75.0768216 L117.541914,74.2430424 C117.541916,74.1991965 117.5245,74.1571458 117.493496,74.1261417 C117.462492,74.0951379 117.420442,74.0777223 117.376596,74.0777223 L113.408936,74.0777223 C113.36509,74.0777223 113.32304,74.0951385 113.292037,74.1261423 C113.261033,74.1571461 113.243616,74.1991965 113.243617,74.2430424 L113.243617,75.0768216 L110.76383,75.0768216 L110.76383,74.2430424 C110.763831,74.1991965 110.746414,74.1571461 110.715411,74.1261423 C110.684407,74.0951385 110.642357,74.0777223 110.598511,74.0777223 L106.630859,74.0777223 C106.587013,74.0777223 106.544962,74.0951379 106.513958,74.1261417 C106.482955,74.1571455 106.465537,74.1991962 106.465539,74.2430424 L106.465539,75.0768216 L103.985746,75.0768216 L103.985746,74.2430424 C103.985747,74.1991962 103.96833,74.1571455 103.937326,74.1261417 C103.906322,74.0951379 103.864271,74.0777223 103.820425,74.0777223 L99.8527653,74.0777223 C99.8089197,74.0777223 99.7668693,74.0951385 99.7358658,74.1261423 C99.7048626,74.1571461 99.6874455,74.1991965 99.687447,74.2430424 L99.687447,75.0768216 L97.2076593,75.0768216 L97.2076593,74.2430424 C97.2076608,74.1991965 97.190244,74.1571461 97.1592405,74.1261423 C97.128237,74.0951385 97.0861869,74.0777223 97.042341,74.0777223 L93.0746811,74.0777223 C93.0308352,74.0777223 92.9887845,74.0951379 92.957781,74.1261417 C92.9267775,74.1571458 92.9093607,74.1991965 92.9093628,74.2430424 L92.9093628,75.0768216 L90.4295751,75.0768216 L90.4295751,74.2430424 C90.4295766,74.1991962 90.4121595,74.1571455 90.3811554,74.1261417 C90.3501516,74.0951379 90.3081009,74.0777223 90.264255,74.0777223 L86.2965969,74.0777223 C86.2527507,74.0777223 86.2107,74.0951379 86.1796962,74.1261417 C86.1486921,74.1571455 86.131275,74.1991962 86.1312765,74.2430424 L86.1312765,75.0768216 L83.6514831,75.0768216 L83.6514831,74.2430424 C83.6514846,74.1991965 83.6340678,74.1571461 83.6030643,74.1261423 C83.5720608,74.0951385 83.5300107,74.0777223 83.4861648,74.0777223 L52.4061696,74.0777223 C52.3623237,74.0777223 52.3202736,74.0951385 52.2892701,74.1261423 C52.2582666,74.1571461 52.2408498,74.1991965 52.2408513,74.2430424 L52.2408513,75.0768216 L49.7610636,75.0768216 L49.7610636,74.2430424 C49.7610651,74.1991965 49.743648,74.1571461 49.7126445,74.1261423 C49.681641,74.0951385 49.6395909,74.0777223 49.595745,74.0777223 L45.6280851,74.0777223 C45.5842392,74.0777223 45.5421888,74.0951379 45.511185,74.1261417 C45.4801815,74.1571458 45.462765,74.1991965 45.4627668,74.2430424 L45.4627668,75.0768216 L42.9829791,75.0768216 L42.9829791,74.2430424 C42.9829806,74.1991962 42.9655635,74.1571455 42.9345597,74.1261417 C42.9035559,74.0951379 42.8615049,74.0777223 42.817659,74.0777223 L38.85,74.0777223 C38.8061547,74.0777223 38.764104,74.0951379 38.7331002,74.1261417 C38.7020964,74.1571455 38.684679,74.1991962 38.6846805,74.2430424 L38.6846805,75.0768216 L36.2048928,75.0768216 L36.2048928,74.2430424 C36.2048949,74.1991965 36.1874781,74.1571458 36.1564746,74.1261417 C36.1254711,74.0951379 36.0834204,74.0777223 36.0395745,74.0777223 L32.0719146,74.0777223 C32.028069,74.0777223 31.9860186,74.0951385 31.9550151,74.1261423 C31.9240116,74.1571461 31.9065948,74.1991965 31.9065963,74.2430424 L31.9065963,75.0768216 L29.4268162,75.0768216 L29.4268162,74.2430424 C29.4268177,74.1991965 29.4094008,74.1571461 29.3783973,74.1261423 C29.3473939,74.0951385 29.3053436,74.0777223 29.2614979,74.0777223 L25.2938303,74.0777223 C25.2499842,74.0777223 25.2079335,74.0951379 25.1769296,74.1261417 C25.1459257,74.1571455 25.1285086,74.1991962 25.1285101,74.2430424 L25.1285101,75.0768216 L22.6487243,75.0768216 L22.6487243,74.2430424 C22.6487258,74.1991962 22.6313087,74.1571455 22.6003048,74.1261417 C22.5693009,74.0951379 22.5272502,74.0777223 22.4834041,74.0777223 L18.5157441,74.0777223 C18.4718983,74.0777223 18.4298481,74.0951385 18.3988446,74.1261423 C18.3678412,74.1571461 18.3504243,74.1991965 18.3504258,74.2430424 L18.3504258,75.0768216 L15.8706381,75.0768216 L15.8706381,74.2430424 C15.8706396,74.1991965 15.8532227,74.1571461 15.8222192,74.1261423 C15.7912158,74.0951385 15.7491655,74.0777223 15.7053198,74.0777223 L11.7376598,74.0777223 C11.6938138,74.0777223 11.6517633,74.0951379 11.6207598,74.1261417 C11.5897562,74.1571458 11.5723395,74.1991965 11.5723415,74.2430424 L11.5723415,75.0768216 L3.96765999,75.0768216 C1.77638275,75.0768237 0,76.8532044 0,79.0444815 L0,80.838564 C0,83.0298378 1.77638631,84.8062128 3.96765999,84.8062128 L135.89234,84.8062128 C138.083614,84.8062128 139.86,83.0298381 139.86,80.838564 L139.86,79.0444815 C139.86,76.8532038 138.083618,75.0768225 135.89234,75.0768216 L135.89234,75.0768216 Z" id="Path" fill="#3F3D56"></path>
            <path d="M30.8393889,67.0086723 C22.9063708,67.0086723 16.4753889,60.5776905 16.4753889,52.6446723 C16.4753889,44.7116541 22.9063708,38.2806723 30.8393889,38.2806723 C38.7724071,38.2806723 45.2033889,44.7116541 45.2033889,52.6446723 C45.1944168,60.5739711 38.7686877,66.9997005 30.8393889,67.0086723 Z M30.8393889,38.6586723 C23.1151344,38.6586723 16.8533889,44.9204178 16.8533889,52.6446723 C16.8533889,60.3689268 23.1151344,66.6306723 30.8393889,66.6306723 C38.5636434,66.6306723 44.8253889,60.3689268 44.8253889,52.6446723 C44.8166556,44.9240382 38.560023,38.6674059 30.8393889,38.6586723 Z" id="Shape" fill="#3F3D56"></path>
            <rect id="Rectangle" fill="#3F3D56" x="110.786389" y="6.15067236" width="48.1949073" height="1"></rect>
            <rect id="Rectangle" fill="#3F3D56" x="76.7663889" y="105.942672" width="138.536907" height="1"></rect>
            <rect id="Rectangle" fill="#3F3D56" x="36.4149342" y="123.330672" width="48.1949073" height="1"></rect>
            <rect id="Rectangle" fill="#6C63FF" x="89.019" y="103.95" width="5.292" height="5.292"></rect>
            <path d="M97.524,106.218 L91.098,106.218 L91.098,99.792 L97.524,99.792 L97.524,106.218 Z M91.3773912,105.938609 L97.2446088,105.938609 L97.2446088,100.071391 L91.3773912,100.071391 L91.3773912,105.938609 Z" id="Shape" fill="#3F3D56"></path>
            <rect id="Rectangle" fill="#6C63FF" x="150.444" y="4.158" width="5.292" height="5.292"></rect>
            <path d="M158.949,6.426 L152.523,6.426 L152.523,-1.42108547e-14 L158.949,-1.42108547e-14 L158.949,6.426 Z M152.802391,6.14660886 L158.669609,6.14660886 L158.669609,0.27939114 L152.802391,0.27939114 L152.802391,6.14660886 Z" id="Shape" fill="#3F3D56"></path>
            <rect id="Rectangle" fill="#6C63FF" x="203.742" y="103.95" width="5.292" height="5.292"></rect>
            <path d="M212.247,106.218 L205.821,106.218 L205.821,99.792 L212.247,99.792 L212.247,106.218 Z M206.100391,105.938609 L211.967609,105.938609 L211.967609,100.071391 L206.100391,100.071391 L206.100391,105.938609 Z" id="Shape" fill="#3F3D56"></path>
            <path d="M199.805393,43.8401037 L199.35583,43.8401037 L199.35583,31.5245613 C199.355831,29.6341208 198.604856,27.8211077 197.268112,26.484366 C195.931367,25.1476242 194.118353,24.3966586 192.227912,24.3966586 L166.135808,24.3966586 C164.245367,24.3966586 162.432351,25.1476221 161.095606,26.4843641 C159.75886,27.8211061 159.007887,29.63412 159.007887,31.5245613 L159.007887,99.0885438 C159.007887,100.978985 159.75886,102.791999 161.095605,104.128742 C162.432351,105.465484 164.245367,106.216448 166.135808,106.216448 L192.227916,106.216448 C194.118357,106.216448 195.931372,105.465482 197.268116,104.12874 C198.604861,102.791998 199.355836,100.978984 199.355833,99.0885438 L199.355833,52.6065075 L199.805393,52.6065075 L199.805393,43.8401037 Z" id="Path" fill="#3F3D56"></path>
            <path d="M197.837912,31.9434966 L197.837912,99.4089366 C197.83841,102.348853 195.455558,104.733067 192.515642,104.733067 L166.297592,104.733067 C163.357683,104.733067 160.974842,102.348846 160.975352,99.4089366 L160.975352,31.9434966 C160.975352,29.0042344 163.35833,26.6212567 166.297592,26.6212567 L169.478462,26.6212567 C169.160577,27.4010028 169.251692,28.2878286 169.721489,28.9866462 C170.191285,29.6854638 170.978118,30.1045767 171.820172,30.1045266 L186.768182,30.1045266 C187.610239,30.1045848 188.397077,29.6854731 188.866874,28.9866523 C189.336671,28.2878315 189.427779,27.4010011 189.109883,26.6212567 L192.515663,26.6212567 C195.454925,26.6212567 197.837912,29.0042341 197.837912,31.9434966 Z" id="Path" fill="#6C63FF"></path>
            <rect id="Rectangle" fill="#3F3D56" x="175.501559" y="71.1051435" width="7.81015473" height="2.31446754"></rect>
            <rect id="Rectangle" fill="#3F3D56" x="166.059431" y="53.0853561" width="26.6944129" height="1"></rect>
            <rect id="Rectangle" fill="#3F3D56" x="166.059431" y="56.2264209" width="26.6944129" height="1"></rect>
            <rect id="Rectangle" fill="#3F3D56" x="166.059431" y="59.3674836" width="26.6944129" height="1"></rect>
            <rect id="Rectangle" fill="#3F3D56" x="166.059431" y="62.5085484" width="26.6944129" height="1"></rect>
            <rect id="Rectangle" fill="#3F3D56" x="166.059431" y="65.6496111" width="26.6944129" height="1"></rect>
            <rect id="Rectangle" fill="#F2F2F2" x="175.710185" y="39.91278" width="4.62893697" height="4.62893697"></rect>
            <path d="M177.482208,41.0703141 L177.482208,46.6911741 L183.103068,46.6911741 L183.103068,41.0703141 L177.482208,41.0703141 Z M182.859258,46.4473641 L177.726018,46.4473641 L177.726018,41.3141241 L182.859258,41.3141241 L182.859258,46.4473641 Z" id="Shape" fill="#3F3D56"></path>
            <path d="M197.837912,92.2042623 L197.837912,99.4089423 C197.83841,102.348858 195.455558,104.732543 192.515642,104.733072 L166.297592,104.733072 C163.357683,104.732539 160.974842,102.348851 160.975352,99.4089423 L160.975352,63.0812523 L183.063782,80.5316223 L183.441782,80.8302423 L187.550642,84.0753723 L187.934312,84.3796623 L197.837912,92.2042623 Z" id="Path" fill="#000000" opacity="0.1"></path>
            <circle id="Oval" fill="#F2F2F2" cx="177.138638" cy="94.2556059" r="8.29101987"></circle>
            <path d="M60.5123889,123.708672 C51.4311708,123.708672 44.0693889,116.34689 44.0693889,107.265672 C44.0693889,98.1844542 51.4311708,90.8226723 60.5123889,90.8226723 C69.593607,90.8226723 76.9553889,98.1844542 76.9553889,107.265672 C76.9451211,116.342634 69.5893506,123.698405 60.5123889,123.708672 L60.5123889,123.708672 Z M60.5123889,91.2006723 C51.6399345,91.2006723 44.4473889,98.3932179 44.4473889,107.265672 C44.4473889,116.138127 51.6399345,123.330672 60.5123889,123.330672 C69.3848433,123.330672 76.5773889,116.138127 76.5773889,107.265672 C76.5673596,98.3973753 69.3806859,91.2107016 60.5123889,91.2006723 Z" id="Shape" fill="#3F3D56"></path>
            <path d="M179.582389,100.650672 C173.841389,100.650672 169.187389,95.9966724 169.187389,90.2556723 C169.187389,84.5146725 173.841389,79.8606723 179.582389,79.8606723 C185.323389,79.8606723 189.977389,84.5146725 189.977389,90.2556723 C189.970907,95.9939853 185.320702,100.644191 179.582389,100.650672 Z M179.582389,80.2386723 C174.050152,80.2386723 169.565389,84.7234359 169.565389,90.2556723 C169.565389,95.7879087 174.050152,100.272672 179.582389,100.272672 C185.114625,100.272672 189.599389,95.7879087 189.599389,90.2556723 C189.593178,84.7260108 185.112051,80.2448832 179.582389,80.2386723 Z" id="Shape" fill="#3F3D56"></path>
        </g>
    </g>
</svg>