
<svg width="212px" height="140px" viewBox="0 0 212 140" version="1.1" xmlns="http://www.w3.org/2000/svg" xmlns:xlink="http://www.w3.org/1999/xlink">
    <g id="Page-1" stroke="none" stroke-width="1" fill="none" fill-rule="evenodd">
        <g id="mainmobile" fill-rule="nonzero">
            <path d="M154.32,139.524134 C148.4838,138.61048 142.87237,137.833346 137.485709,137.192734 L139.56,133.044134 C138.84,132.804134 135.72,135.204134 135.72,135.204134 L138.36,123.204134 C134.76,123.684134 133.08,135.924134 133.08,135.924134 L129,131.844134 L131.008404,136.463446 C114.524897,134.731445 100.301177,134.190931 88.3446096,134.314901 L90.12,130.764134 C89.4,130.524134 86.28,132.924134 86.28,132.924134 L88.92,120.924134 C85.32,121.404134 83.64,133.644134 83.64,133.644134 L79.56,129.564134 L81.687216,134.456741 C73.4970525,134.69471 65.3244978,135.352844 57.2017968,136.428547 C58.973364,130.90956 65.16,125.60413 65.16,125.60413 C60.4030656,127.084061 57.9282864,129.495106 56.647368,131.730034 C56.3882652,120.391523 58.1325684,109.096277 61.8,98.3641344 C61.8,98.3641344 52.2,119.964134 53.64,134.364134 L53.8227096,136.922074 C45.4708584,138.224978 41.28,139.524134 41.28,139.524134 L154.32,139.524134 Z" id="Path" fill="#3F3D56"></path>
            <path d="M176.321366,109.796707 C174.730786,109.796707 173.441366,108.507287 173.441366,106.916707 C173.441366,105.326127 174.730786,104.036707 176.321366,104.036707 C177.911947,104.036707 179.201366,105.326127 179.201366,106.916707 C179.199548,108.506533 177.911193,109.794889 176.321366,109.796707 L176.321366,109.796707 Z M176.321366,104.516707 C174.995883,104.516707 173.921366,105.591224 173.921366,106.916707 C173.921366,108.242191 174.995883,109.316707 176.321366,109.316707 C177.64685,109.316707 178.721366,108.242191 178.721366,106.916707 C178.719893,105.591835 177.646239,104.51818 176.321366,104.516707 Z" id="Shape" fill="#3F3D56"></path>
            <path d="M199.32,139.146276 L194.582124,139.146276 L194.582124,134.4084 L199.32,134.4084 L199.32,139.146276 Z M194.946576,138.781824 L198.955548,138.781824 L198.955548,134.772864 L194.946576,134.772864 L194.946576,138.781824 Z" id="Shape" fill="#3F3D56"></path>
            <path d="M38.9145288,139.405507 L35.6829048,135.940817 L39.1476,132.709183 L42.3792216,136.173874 L38.9145288,139.405507 Z M36.198,135.958733 L38.9324496,138.890395 L41.8641096,136.155946 L39.1296672,133.224283 L36.198,135.958733 Z" id="Shape" fill="#3F3D56"></path>
            <rect id="Rectangle" fill="#3F3D56" x="5.2013664" y="138.878777" width="205.878634" height="1"></rect>
            <path d="M132.834,32.1024024 L132.834,47.8656024 C132.83319,48.1688022 132.5876,48.4143927 132.2844,48.4152024 L131.893226,48.4152024 L131.893226,130.531202 C131.892961,135.263075 128.057082,139.099202 123.32521,139.099202 L72.0156216,139.099202 C69.7435323,139.099202 67.564599,138.196143 65.958213,136.58931 C64.351827,134.982476 63.4495908,132.803292 63.4500072,130.531202 L63.4500072,51.2952024 L63.1668072,51.2952024 C62.9528826,51.2955222 62.7790119,51.1227249 62.7780072,50.9088024 L62.7780072,41.9376024 C62.7779886,41.8344807 62.8189455,41.735577 62.8918638,41.662659 C62.9647818,41.5897407 63.0636855,41.5487838 63.1668072,41.5488024 L63.4500072,41.5488024 L63.4500072,38.1696024 L63.1644,38.1696024 C62.939817,38.1687384 62.7588135,37.9861866 62.7588135,37.7616024 L62.7588135,28.9128024 C62.7588135,28.6890378 62.9406354,28.5077801 63.1644,28.5072024 L63.45,28.5072024 L63.45,23.8944024 L63.1596,23.8944024 C63.064083,23.89453 62.9724414,23.8566425 62.9049006,23.7891017 C62.8373598,23.721561 62.7994725,23.6299194 62.7996,23.5344024 L62.7996,18.7056024 C62.7991494,18.5062043 62.9602032,18.3440767 63.1596,18.3432024 L63.45,18.3432024 L63.45,8.5656024 C63.4501803,3.8350212 67.2850332,2.39999998e-06 72.0156144,2.39999998e-06 L123.3252,2.39999998e-06 C128.05625,2.39999998e-06 131.891903,3.83455245 131.893217,8.5656024 L131.893217,31.5528024 L132.2844,31.5528024 C132.587603,31.5536055 132.833197,31.7991999 132.834,32.1024024 Z" id="Path" fill="#3F3D56"></path>
            <rect id="Rectangle" fill="#E6E8EC" x="91.1948736" y="4.393632" width="9.5576232" height="1.9407408" rx="0.6100536"></rect>
            <circle id="Oval" fill="#E6E8EC" cx="103.298414" cy="5.364" r="1.100796"></circle>
            <path d="M127.790405,10.2601248 L127.790405,131.241725 C127.791957,132.83383 127.093323,134.346075 125.88,135.376925 C124.896557,136.215145 123.646597,136.675337 122.3544,136.675337 L73.2384,136.675337 C72.3645024,136.67666 71.503236,136.466696 70.728,136.063325 C70.5458739,135.970059 70.3695522,135.865869 70.2,135.751325 C68.7010293,134.739982 67.8024,133.049964 67.8024,131.241725 L67.8024,10.2601248 C67.8024,8.81838846 68.3750358,7.4356836 69.3944973,6.41622204 C70.4139588,5.39676048 71.7966636,4.8241245 73.2384,4.8241245 L80.5896,4.8241245 L80.5896,5.7673248 C80.5896198,8.2393431 82.5935817,10.2433049 85.0656,10.2433248 L110.0448,10.2433248 C112.516822,10.2433129 114.520788,8.2393464 114.5208,5.7673248 L114.5208,4.8241245 L122.3544,4.8241245 C123.796261,4.8241245 125.179201,5.39622531 126.19875,6.41577468 C127.218299,7.43532408 127.790405,8.81826432 127.790405,10.2601248 Z" id="Path" fill="#6C63FF"></path>
            <path d="M127.790405,113.923325 L127.790405,131.241725 C127.791957,132.83383 127.093323,134.346075 125.88,135.376925 C124.896557,136.215145 123.646597,136.675337 122.3544,136.675337 L73.2384,136.675337 C72.3645024,136.67666 71.503236,136.466696 70.728,136.063325 C70.5458739,135.970059 70.3695522,135.865869 70.2,135.751325 C68.7010293,134.739982 67.8024,133.049964 67.8024,131.241725 L67.8024,113.930525 C84.8585187,98.5988886 110.730601,98.5957833 127.790405,113.923325 Z" id="Path" fill="#FFFFFF" opacity="0.3"></path>
            <path d="M124.8696,136.058534 C124.093953,136.465929 123.230524,136.677667 122.3544,136.675372 L73.2384,136.675372 C72.3645024,136.67667 71.503236,136.466705 70.728,136.063334 C75.2748627,125.127977 85.9542267,118.001983 97.7971989,118.000933 C109.640171,117.999883 120.320798,125.123984 124.8696,136.058534 L124.8696,136.058534 Z" id="Path" fill="#FFFFFF" opacity="0.3"></path>
            <path d="M114.18,136.348826 C113.710638,136.59535 113.188157,136.723478 112.657994,136.72209 L82.9366968,136.72209 C82.4078808,136.722873 81.8867091,136.595816 81.4175976,136.351723 C84.1690191,129.734476 90.6313629,125.422367 97.7978325,125.421733 C104.964302,125.4211 111.427408,129.732065 114.18,136.348826 L114.18,136.348826 Z" id="Path" fill="#FFFFFF" opacity="0.3"></path>
            <path d="M110.291016,51.6601152 C105.364102,51.6601152 99.9570696,50.721912 95.735976,47.5560912 C89.859024,43.1484336 82.6183584,43.3836288 77.5791792,44.35734 C74.2319448,45.0095187 70.9830669,46.0916874 67.9133208,47.57694 L67.6913664,47.1513144 C70.7985939,45.6467439 74.0872368,44.5500441 77.4755856,43.888464 C82.6137888,42.8940096 90.0028128,42.6563544 96.024024,47.1721752 C107.303906,55.6320576 127.501874,48.0338544 127.704374,47.9563944 L127.876406,48.4045176 C124.088759,49.7545794 120.171325,50.7082344 116.186952,51.2501832 C114.232839,51.5167791 112.26322,51.6537225 110.291016,51.6601152 Z" id="Path" fill="#FFFFFF"></path>
            <path d="M67.8,47.3641344 C67.8,47.3641344 84.36,43.3531848 95.88,48.8448936 C107.4,54.3366024 127.8,48.8041344 127.8,48.8041344" id="Path" fill="#FFFFFF" opacity="0.3"></path>
            <path d="M83.4338664,53.5947624 C81.4334019,53.5857924 79.4383248,53.3865753 77.4755856,52.9998024 C74.0872368,52.3382202 70.7985939,51.2415189 67.6913664,49.7369472 L67.9133208,49.3113216 C70.9830663,50.7965757 74.2319445,51.8787441 77.5791792,52.5309216 C82.6181256,53.5045152 89.8589064,53.739828 95.735976,49.3321728 C101.751914,44.8202184 110.178516,44.832876 116.186952,45.6380712 C120.171325,46.1800197 124.088759,47.1336741 127.876406,48.4837344 L127.704374,48.93186 C127.501642,48.8541648 107.304134,41.255844 96.024024,49.7160792 C92.07552,52.6775352 87.5383584,53.5947624 83.4338664,53.5947624 Z" id="Path" fill="#FFFFFF" opacity="0.3"></path>
            <path d="M83.51544,51.6621072 C75.2032128,51.6621072 67.8216888,48.6800352 67.71096,48.6344496 L67.8937728,48.1905432 C68.0580696,48.2582784 84.4749816,54.886404 95.7577944,48.2060136 C107.235725,41.4092544 127.655177,47.4761736 127.860022,47.5382784 L127.720802,47.9976528 C127.51807,47.9362464 107.298538,41.9301528 96.0022488,48.6189816 C92.1472272,50.9016672 87.7125,51.6621072 83.51544,51.6621072 Z" id="Path" fill="#FFFFFF" opacity="0.3"></path>
            <path d="M67.8024,48.0433752 C67.8024,48.0433752 84.36,53.535084 95.88,48.0433752 C107.4,42.5516664 127.7904,47.5244736 127.7904,47.5244736" id="Path" fill="#FFFFFF" opacity="0.3"></path>
            <path d="M132.064591,62.7359928 L132.064591,69.73266 C132.064591,69.73266 132.624326,77.5689312 135.702859,81.4870656 C135.702859,81.4870656 140.740459,88.6236672 141.440129,87.0844008 L140.578421,82.016748 L137.661929,79.248132 L136.12266,70.5722616 L135.702859,62.7359928 L132.064591,62.7359928 Z" id="Path" fill="#FFB8B8"></path>
            <polygon id="Path" fill="#FFB8B8" points="162.98976 125.98584 162.98976 131.16336 158.79192 132.70272 158.79192 126.68544"></polygon>
            <polygon id="Path" fill="#FFB8B8" points="154.45392 125.42616 157.25256 131.72304 153.33456 133.40232 152.4948 127.24536"></polygon>
            <path d="M161.450604,77.1491304 C161.450604,77.1491304 167.047939,127.665082 164.948938,127.805016 C162.849936,127.94495 158.79187,130.603685 158.79187,128.78455 C158.79187,126.965414 155.5734,103.316674 155.5734,103.316674 L152.494867,91.1424672 L152.494867,107.934475 L155.713334,126.965417 C155.713334,126.965417 152.634799,131.023483 150.395866,128.644618 L145.63813,110.033477 C145.63813,110.033477 139.34112,81.766932 139.620996,79.5279984 C139.620996,79.5279984 154.034134,67.21386 161.450604,77.1491304 Z" id="Path" fill="#2F2E41"></path>
            <path d="M160.331136,131.443284 C160.331136,131.443284 161.450604,129.064404 163.969404,130.603685 L166.068406,133.122485 C166.068406,133.122485 171.48,137.604134 167.64,138.564134 C163.682086,139.553614 161.31067,138.500952 161.31067,138.500952 C161.31067,138.500952 160.611002,138.081154 160.05127,138.081154 C159.491537,138.081154 158.232134,137.10162 158.232134,136.821751 C158.232134,136.541882 158.651935,131.583218 158.651935,131.583218 C158.976344,131.425187 159.364285,131.480607 159.631469,131.72315 C160.05127,132.142951 160.331136,131.443284 160.331136,131.443284 Z" id="Path" fill="#2F2E41"></path>
            <path d="M152.075066,130.603685 C152.075066,130.603685 154.733801,128.504683 155.993201,130.883551 C155.993201,130.883551 156.786161,131.163418 156.879446,130.883551 C156.972732,130.603685 157.672406,130.46375 157.672406,132.003017 C157.672406,133.542283 158.432273,137.381486 157.732606,137.521418 C157.032938,137.66135 156.333274,138.081154 156.473206,138.640886 C156.613138,139.200619 155.713339,139.279553 152.494872,139.139621 C149.276405,138.999689 149.13647,137.740286 149.13647,137.740286 C149.13647,137.740286 149.13647,135.921154 149.97607,134.94162 C150.815669,133.962086 152.075066,130.603685 152.075066,130.603685 Z" id="Path" fill="#2F2E41"></path>
            <path d="M146.897532,38.9473152 C146.897532,38.9473152 146.197865,44.124852 150.675732,45.9439848 C155.153599,47.7631176 140.740452,53.780256 139.341127,50.28192 C137.941802,46.783584 139.620996,45.6641184 139.620996,45.6641184 C139.620996,45.6641184 141.020328,44.264784 139.760928,40.486584 L146.897532,38.9473152 Z" id="Path" fill="#FFB8B8"></path>
            <circle id="Oval" fill="#FFB8B8" cx="142.419662" cy="36.4285152" r="6.157068"></circle>
            <path d="M149.556266,47.6231856 C149.556266,47.6231856 145.358263,49.8621192 141.300197,48.1829208 C137.24213,46.5037224 137.38206,53.780256 137.38206,53.780256 L139.481062,59.2376568 L154.034134,57.8383224 L153.0546,49.4423208 L149.556266,47.6231856 Z" id="Path" fill="#F2F2F2"></path>
            <path d="M147.470566,42.835104 C148.980447,43.1554668 150.262779,44.1449235 150.955606,45.5241864 L157.672409,47.6231856 L159.35161,50.0020536 L157.392542,67.21386 C157.392542,67.21386 161.03081,70.7121936 161.03081,72.6712632 C161.03081,74.6303328 165.508678,81.3471312 163.269744,80.507532 C161.03081,79.6679328 156.972742,76.7293296 156.972742,76.7293296 C156.972742,76.7293296 146.757605,77.1491304 143.539138,79.9477992 C140.32067,82.746468 139.061268,81.9068664 139.061268,81.9068664 C139.061268,81.9068664 135.702866,67.3537944 135.562934,65.1148584 C135.423002,62.8759224 131.504866,49.4423208 131.504866,49.4423208 L138.501535,45.5241864 L140.283626,43.5021648 L145.218338,51.401388 L149.696198,45.9439872 C149.696198,45.9439872 147.483864,44.2040904 147.470566,42.835104 Z" id="Path" fill="#3F3D56"></path>
            <path d="M161.450604,60.7769232 L162.290203,65.2547928 C162.290203,65.2547928 166.068406,79.248132 165.50867,84.0058656 C165.50867,84.0058656 165.928471,94.6408032 163.549603,93.3814032 C161.170735,92.1220032 162.430138,84.4256664 162.430138,84.4256664 L159.071736,70.5722616 L157.252601,62.456124 L161.450604,60.7769232 Z" id="Path" fill="#FFB8B8"></path>
            <path d="M157.952268,49.1624544 L159.351602,50.0020536 C159.351602,50.0020536 164.669071,61.056792 163.409671,61.8963912 C162.150271,62.7359904 156.69288,64.5551256 156.69288,64.5551256 L157.952268,49.1624544 Z" id="Path" fill="#3F3D56"></path>
            <polygon id="Path" fill="#3F3D56" points="134.8632 49.4424 131.57472 49.37232 130.80528 50.70168 131.78472 64.27536 136.82232 65.39472"></polygon>
            <path d="M147.433459,31.2212304 L148.543241,30.8176728 C148.543241,30.8176728 146.222801,28.4972304 142.994333,28.6990176 L143.902358,27.7910064 C143.902358,27.7910064 141.682795,26.9839056 139.665019,29.1025608 C138.604315,30.2162928 137.377063,31.5254232 136.612001,33.0001464 L135.423502,33.0001464 L135.919536,33.9922176 L134.183414,34.9842864 L135.965374,34.8060864 C135.796567,35.6625825 135.854671,36.5483328 136.133918,37.3754376 L136.537462,38.4851976 C136.537462,38.4851976 138.151702,35.2567608 138.151702,34.8532032 L138.151702,35.8620912 C138.151702,35.8620912 139.261483,34.9540944 139.261483,34.3487664 L139.866814,35.054988 L140.169478,33.9452064 L143.902366,35.054988 L143.297035,34.1469936 L145.617478,34.44966 L144.709452,33.3398784 C144.709452,33.3398784 147.332558,34.6514304 147.433466,35.761212 C147.534374,36.8709936 148.226906,38.317608 148.226906,38.317608 L149.066506,37.3380744 C149.066506,37.3380744 150.359232,32.7345552 147.433459,31.2212304 Z" id="Path" fill="#2F2E41"></path>
            <ellipse id="Oval" fill="#FFB8B8" cx="147.597199" cy="36.4984824" rx="1" ry="1.2594"></ellipse>
            <path d="M9.99216,131.283931 C12.9749808,136.815691 19.3056,139.190374 19.3056,139.190374 C19.3056,139.190374 20.8001088,132.59627 17.817288,127.064498 C14.8344672,121.532726 8.503848,119.158058 8.503848,119.158058 C8.503848,119.158058 7.0093416,125.752162 9.99216,131.283931 Z" id="Path" fill="#3F3D56"></path>
            <path d="M12.0423672,129.464018 C17.4275856,132.703944 19.5016056,139.13933 19.5016056,139.13933 C19.5016056,139.13933 12.8444568,140.32176 7.4592384,137.081832 C2.07402,133.841904 0,127.40652 0,127.40652 C0,127.40652 6.6571464,126.224093 12.0423672,129.464018 Z" id="Path" fill="#6C63FF"></path>
            <path d="M67.8024,47.3641344 C67.8024,47.3641344 84.36,38.7241344 95.88,47.3641344 C107.4,56.0041344 127.7904,48.1805112 127.7904,48.1805112" id="Path" fill="#FFFFFF" opacity="0.3"></path>
            <circle id="Oval" fill="#FFFFFF" cx="97.86" cy="132.642067" r="2.64"></circle>
        </g>
    </g>
</svg>