
<svg width="713px" height="392px" viewBox="0 0 713 392" version="1.1" xmlns="http://www.w3.org/2000/svg" xmlns:xlink="http://www.w3.org/1999/xlink">
    <g id="Page-1" stroke="none" stroke-width="1" fill="none" fill-rule="evenodd">
        <g id="mainworkers" fill-rule="nonzero">
            <rect id="Rectangle" fill="#E6E6E6" x="146.37796" y="0.319088" width="562.86052" height="360.480912"></rect>
            <rect id="Rectangle" fill="#FFFFFF" x="196.149608" y="48.725776" width="203.2" height="208.8"></rect>
            <rect id="Rectangle" fill="#FFFFFF" x="475.349608" y="52.774992" width="203.2" height="253.6"></rect>
            <ellipse id="Oval" fill="#E6E6E6" cx="675.841392" cy="381.80928" rx="36.4" ry="5.2"></ellipse>
            <ellipse id="Oval" fill="#E6E6E6" cx="311.919688" cy="381.925776" rx="36.4" ry="5.2"></ellipse>
            <ellipse id="Oval" fill="#E6E6E6" cx="83.539984" cy="376.725776" rx="83.539984" ry="4"></ellipse>
            <rect id="Rectangle" fill="#6C63FF" x="146.137624" y="0" width="562.86052" height="23.912376"></rect>
            <circle id="Oval" fill="#E6E6E6" cx="163.907384" cy="12.225272" r="4.431976"></circle>
            <circle id="Oval" fill="#E6E6E6" cx="180.730048" cy="12.225272" r="4.431976"></circle>
            <circle id="Oval" fill="#E6E6E6" cx="197.552712" cy="12.225272" r="4.431976"></circle>
            <path d="M633.749608,120.798944 L632.518696,120.798944 L632.518696,87.078496 C632.518702,81.9023898 630.462503,76.9382821 626.80244,73.2782253 C623.142377,69.6181686 618.178266,67.561992 613.00216,67.561992 L541.560872,67.561992 C536.384766,67.561992 531.420655,69.6181686 527.760592,73.2782253 C524.100529,76.9382821 522.044336,81.9023898 522.044336,87.078496 L522.044336,272.071496 C522.044336,277.247602 524.100529,282.21171 527.760592,285.871767 C531.420655,289.531823 536.384766,291.588 541.560872,291.588 L613.00216,291.588 C618.178266,291.588 623.142377,289.531823 626.80244,285.871767 C630.462503,282.21171 632.518702,277.247602 632.518696,272.071496 L632.518696,144.801728 L633.749608,144.801728 L633.749608,120.798944 Z" id="Path" fill="#3F3D56"></path>
            <path d="M612.989664,72.639512 L603.664208,72.639512 C604.535086,74.7746297 604.285977,77.2031763 602.999774,79.1170309 C601.713572,81.0308855 599.559056,82.1789066 597.25316,82.17908 L556.325328,82.17908 C554.019438,82.1788934 551.864932,81.0308683 550.578736,79.1170172 C549.292539,77.203166 549.043428,74.7746272 549.914296,72.639512 L541.20428,72.639512 C537.338832,72.639512 533.631702,74.1750468 530.898415,76.908328 C528.165127,79.6416092 526.629576,83.3487364 526.629576,87.214184 L526.629576,271.935784 C526.629576,275.801234 528.165121,279.508366 530.898409,282.24165 C533.631697,284.974935 537.33883,286.510472 541.20428,286.510472 L612.989664,286.510472 C616.855115,286.510472 620.562249,284.974935 623.295538,282.241651 C626.028827,279.508366 627.564376,275.801235 627.564376,271.935784 L627.564376,87.214184 C627.564376,79.1648048 621.039043,72.639512 612.989664,72.639512 L612.989664,72.639512 Z" id="Path" fill="#FFFFFF"></path>
            <rect id="Rectangle" fill="#E6E6E6" x="227.272184" y="180.620488" width="141.23552" height="6.442136"></rect>
            <rect id="Rectangle" fill="#6C63FF" x="227.272184" y="201.420488" width="141.23552" height="6.442136"></rect>
            <rect id="Rectangle" fill="#E6E6E6" x="227.272184" y="222.220488" width="141.23552" height="6.442136"></rect>
            <rect id="Rectangle" fill="#E6E6E6" x="536.671472" y="194.676448" width="82.451008" height="6.442136"></rect>
            <rect id="Rectangle" fill="#E6E6E6" x="536.671472" y="214.676448" width="82.451008" height="6.442136"></rect>
            <rect id="Rectangle" fill="#E6E6E6" x="536.671472" y="234.676448" width="82.451008" height="6.442136"></rect>
            <rect id="Rectangle" fill="#3F3D56" transform="translate(620.872188, 327.841556) rotate(90.000000) translate(-620.872188, -327.841556) " x="614.001272" y="320.97064" width="13.741832" height="13.741832"></rect>
            <rect id="Rectangle" fill="#6C63FF" transform="translate(598.732564, 327.841556) rotate(90.000000) translate(-598.732564, -327.841556) " x="591.861648" y="320.97064" width="13.741832" height="13.741832"></rect>
            <rect id="Rectangle" fill="#3F3D56" transform="translate(576.592940, 327.841556) rotate(90.000000) translate(-576.592940, -327.841556) " x="569.722024" y="320.97064" width="13.741832" height="13.741832"></rect>
            <rect id="Rectangle" fill="#3F3D56" transform="translate(554.453316, 327.841556) rotate(90.000000) translate(-554.453316, -327.841556) " x="547.5824" y="320.97064" width="13.741832" height="13.741832"></rect>
            <rect id="Rectangle" fill="#3F3D56" transform="translate(532.313700, 327.841556) rotate(90.000000) translate(-532.313700, -327.841556) " x="525.442784" y="320.97064" width="13.741832" height="13.741832"></rect>
            <rect id="Rectangle" fill="#6C63FF" x="554.19392" y="111.19224" width="45.806112" height="45.806112"></rect>
            <path d="M279.684232,220.474312 L279.09132,221.660128 L277.3126,212.766528 C277.3126,212.766528 274.940968,203.280008 279.684232,203.280008 C284.427496,203.280008 283.241672,212.766528 283.241672,212.766528 L283.241672,219.288512 L279.684232,220.474312 Z" id="Path" fill="#A0616A"></path>
            <path d="M357.477136,219.260104 L358.07004,220.44592 L359.848768,211.55232 C359.848768,211.55232 362.2204,202.0658 357.477136,202.0658 C352.733872,202.0658 353.919688,211.55232 353.919688,211.55232 L353.919688,218.074312 L357.477136,219.260104 Z" id="Path" fill="#A0616A"></path>
            <polygon id="Path" fill="#2F2E41" points="305.772 287.152 298.6576 331.0272 302.2144 373.716 310.5152 370.1592 309.3296 338.1416 317.6304 312.6464 319.4088 342.8848 315.852 374.3088 326.524 375.4952 334.232 310.868 333.6392 288.9304"></polygon>
            <path d="M305.772168,368.38012 L301.621816,374.902104 L301.621816,389.475112 C301.621816,390.342145 302.250983,391.081057 303.106896,391.219472 C305.141136,391.55324 308.683192,391.790384 309.922528,389.724824 C311.701248,386.760288 310.515432,380.238296 310.515432,380.238296 C310.515432,380.238296 312.887064,375.49504 311.701248,371.937592 C310.515432,368.380144 309.329616,367.78724 309.329616,367.78724 L305.772168,368.38012 Z" id="Path" fill="#2F2E41"></path>
            <path d="M323.559408,374.3092 L324.745224,376.08792 C324.745224,376.08792 326.523944,377.866648 325.338128,379.052464 C324.46783,379.974111 323.674624,380.965616 322.966496,382.017 C322.966496,382.017 316.444512,383.79572 316.444512,381.424088 L316.444512,373.716288 L323.559408,374.3092 Z" id="Path" fill="#2F2E41"></path>
            <circle id="Oval" fill="#A0616A" cx="321.422616" cy="231.036048" r="7.859416"></circle>
            <polygon id="Path" fill="#A0616A" points="316.148 233.4936 315.5552 244.7592 326.2272 245.352 325.6344 234.0864"></polygon>
            <path d="M327.70976,245.648208 L326.026688,241.536552 C326.026688,241.536552 318.223232,238.533312 315.851608,241.497848 L314.665792,245.055296 L305.179264,242.683664 L299.843096,254.541824 L304.58636,288.337568 C304.58636,288.337568 317.037416,304.34608 333.63884,288.930472 L338.382104,256.913456 L334.824696,244.462392 L327.70976,245.648208 Z" id="Path" fill="#575A89"></path>
            <polygon id="Path" fill="#575A89" points="333.6392 246.8344 334.8248 244.4624 346.6832 237.3472 353.92 215.9256 359.52 218.3256 353.2048 243.8696 336.0104 259.8776"></polygon>
            <polygon id="Path" fill="#575A89" points="306.3648 243.8696 305.1792 242.684 292.728 234.976 283.8344 217.1888 276.72 219.56 284.4272 241.4976 303.4008 256.9136"></polygon>
            <path d="M327.255832,219.000288 L328.540864,218.357768 L326.61332,217.715256 L326.61332,217.072712 C326.61332,217.072712 316.9756,213.217624 315.690576,219.642768 C312.285128,224.218838 312.285128,230.48705 315.690576,235.06312 L315.690576,236.990656 L325.970808,238.275688 L327.255832,234.4206 C327.255832,234.4206 333.680984,222.855376 327.255832,219.000288 Z" id="Path" fill="#2F2E41"></path>
            <path d="M92.071824,287.847736 L89.787488,288.989904 C89.787488,288.989904 80.650144,293.177848 83.3152,295.462184 C85.980256,297.74652 93.213992,293.177848 93.213992,293.177848 L94.73688,291.274232 L92.071824,287.847736 Z" id="Path" fill="#FFB8B8"></path>
            <polygon id="Path" fill="#2F2E41" points="158.9064 287.2792 151.8456 334.6768 141.1848 367.7992 135.4744 365.1344 140.804 319.8288 125.5752 306.884 126.7176 287.848"></polygon>
            <path d="M134.712744,366.276576 C134.712744,366.276576 141.185032,362.850072 141.565752,367.799464 L140.804304,372.748856 C140.804304,372.748856 143.08864,381.50548 135.474192,379.601864 C127.859744,377.698248 133.189856,371.987416 133.189856,371.987416 L134.712744,366.276576 Z" id="Path" fill="#2F2E41"></path>
            <path d="M130.5248,302.695912 L125.575408,306.883856 C125.575408,306.883856 125.575408,332.772992 129.001904,336.580216 C132.4284,340.38744 154.129592,359.804296 154.89104,360.565736 C155.652488,361.327176 159.078992,352.951288 159.078992,352.951288 L138.519968,328.965768 L140.042864,314.117584 L130.5248,302.695912 Z" id="Path" fill="#2F2E41"></path>
            <path d="M156.794656,351.80912 C156.794656,351.80912 162.886216,350.666952 162.886216,354.854896 C162.962038,358.165775 163.21622,361.470163 163.647656,364.753688 C163.647656,364.753688 165.170552,378.078976 160.221152,376.17536 C155.271752,374.271744 153.368152,360.946464 153.368152,360.946464 C153.82862,359.838901 154.628381,358.905844 155.652488,358.2814 C157.175376,357.51996 156.794656,351.80912 156.794656,351.80912 Z" id="Path" fill="#2F2E41"></path>
            <polygon id="Path" fill="#FFB8B8" points="137.7584 230.7392 138.9008 244.8264 135.8552 250.156 127.4792 242.1608 126.7176 231.5008"></polygon>
            <circle id="Oval" fill="#FFB8B8" cx="130.90552" cy="226.17068" r="9.137344"></circle>
            <polygon id="Path" fill="#D0CDE1" points="134.7128 244.4456 138.52 233.4048 145.3728 241.0192 157.9368 289.3704 148.4184 295.0816 144.2312 288.9896 143.4696 296.9848 124.8136 293.1776 123.2912 242.1608 127.096 236.8016"></polygon>
            <polygon id="Path" fill="#2F2E41" points="129.3824 298.508 127.0984 236.8312 122.1488 240.6384 113.0112 246.7296 119.1032 268.4312 121.0064 291.2744"></polygon>
            <polygon id="Path" fill="#2F2E41" points="115.6768 247.1104 113.0112 246.7296 105.3968 269.192 90.168 288.2288 95.8792 294.32 113.392 277.1872 119.8648 263.1008"></polygon>
            <path d="M157.254616,288.1962 L156.735152,290.696784 C156.735152,290.696784 154.358504,300.463128 157.802952,299.787472 C161.2474,299.111816 162.145432,290.603408 162.145432,290.603408 L161.5954,288.228456 L157.254616,288.1962 Z" id="Path" fill="#FFB8B8"></path>
            <polygon id="Path" fill="#2F2E41" points="137.9248 232.7864 156.7944 240.2576 154.5104 263.1008 159.0792 288.2288 154.5104 293.1776 137.6176 236.0224"></polygon>
            <path d="M131.383896,210.824392 L134.065992,209.483352 L134.065992,210.824392 L135.854048,209.930368 L135.854048,212.16544 C135.854048,212.16544 142.559272,217.0826 141.218224,222.893792 C139.877176,228.704984 139.877176,229.152 139.877176,229.152 C139.877176,229.152 138.1818,218.100704 131.476584,219.88876 C124.771368,221.676816 124.231664,221.999768 122.443608,226.916928 L121.95852,229.026104 C121.95852,229.026104 114.39736,211.718424 131.383896,210.824392 Z" id="Path" fill="#2F2E41"></path>
            <polygon id="Path" fill="#2F2E41" points="154.1296 240.2576 157.1752 240.2576 162.1248 266.908 162.1248 290.132 156.0336 288.9896 151.084 253.9632"></polygon>
            <rect id="Rectangle" fill="#6C63FF" x="2.828008" y="296.617272" width="112.256768" height="78.008944"></rect>
            <path d="M58.956392,311.838528 C45.8212933,311.838528 35.173192,322.486629 35.173192,335.621728 C35.173192,348.756827 45.8212933,359.404928 58.956392,359.404928 C72.0914907,359.404928 82.739592,348.756827 82.739592,335.621728 C82.7011835,322.502572 72.0755484,311.876937 58.956392,311.838528 Z M58.956392,318.973488 C62.896926,318.973488 66.09136,322.167922 66.09136,326.108456 C66.09136,330.04899 62.896926,333.243424 58.956392,333.243424 C55.015858,333.243424 51.821424,330.04899 51.821424,326.108456 C51.8345592,322.173376 55.0213116,318.986623 58.956392,318.973488 Z M58.956392,353.321936 C53.2340397,353.295837 47.8936535,350.445922 44.686456,345.706736 C44.8008,340.950088 54.199744,338.331648 58.956392,338.331648 C63.71304,338.331648 73.111976,340.950088 73.226312,345.706736 C70.0156564,350.442075 64.677466,353.29082 58.956384,353.321936 L58.956392,353.321936 Z" id="Shape" fill="#FFFFFF"></path>
            <rect id="Rectangle" fill="#E6E6E6" x="227.349608" y="72.725776" width="140.8" height="80.8"></rect>
            <path d="M646.561736,232.98684 L647.21412,228.778936 C647.21412,228.778936 651.016608,220.134808 648.010968,219.668816 C645.005328,219.202824 642.498296,227.432224 642.498296,227.432224 L643.598032,236.220816 L646.561736,232.98684 Z" id="Path" fill="#FFB8B8"></path>
            <polygon id="Path" fill="#575A89" points="677.336 256.8408 650.4712 251.4448 647.3496 231.8776 639.4416 231.2672 639.828 256.5656 663.1696 268.8032"></polygon>
            <polygon id="Path" fill="#000000" opacity="0.2" points="677.336 256.8408 650.4712 251.4448 647.3496 231.8776 639.4416 231.2672 639.828 256.5656 663.1696 268.8032"></polygon>
            <rect id="Rectangle" fill="#6C63FF" transform="translate(645.476040, 224.590388) rotate(-180.000000) translate(-645.476040, -224.590388) " x="604.250536" y="221.36932" width="82.451008" height="6.442136"></rect>
            <path d="M641.312968,231.544264 L641.31832,227.286096 C641.31832,227.286096 643.763016,218.164496 640.721472,218.160687 C637.679928,218.15688 636.452608,226.671672 636.452608,226.671672 L638.875152,235.191064 L641.312968,231.544264 Z" id="Path" fill="#FFB8B8"></path>
            <path d="M676.282536,243.739824 L679.968504,242.841336 C682.816809,242.844913 685.516083,241.56887 687.32109,239.365508 C689.126097,237.162145 689.845913,234.264521 689.281808,231.472632 L689.281808,231.472632 C689.285942,228.183065 687.98313,225.026589 685.659977,222.697593 C683.336824,220.368596 680.183631,219.057859 676.894064,219.053718 L676.894064,219.053718 C673.604488,219.04958 670.447998,220.352383 668.118988,222.675536 C665.789979,224.998689 664.479231,228.151888 664.475096,231.441464 L664.475096,231.441464 C663.504805,234.817982 664.405072,238.455716 666.838161,240.989965 C669.271249,243.524214 672.869314,244.57184 676.282536,243.739824 Z" id="Path" fill="#2F2E41"></path>
            <polygon id="Path" fill="#2F2E41" points="654.6032 305.1664 657.604 338.0192 663.0376 370.2664 672.1624 370.2776 670.9856 338.644 666.1672 300.3144"></polygon>
            <path d="M664.256816,368.442944 L658.169136,372.08516 C658.169136,372.08516 648.434656,373.289552 650.255768,376.333392 C652.07688,379.377232 673.37,377.579048 673.371531,376.362424 C673.373056,375.1458 672.773128,368.453624 671.556536,368.452112 L664.256816,368.442944 Z" id="Path" fill="#2F2E41"></path>
            <path d="M681.537808,302.328312 C681.537808,302.328312 681.366656,307.025072 677.09932,314.31944 L677.67936,336.827656 L699.54336,364.8374 L691.626936,371.518872 L664.89952,341.069776 L658.25392,304.5628 L666.780952,296.05716 L681.537808,302.328312 Z" id="Path" fill="#2F2E41"></path>
            <path d="M697.718424,364.835112 C697.718424,364.835112 705.016616,366.060904 703.796176,369.10092 C702.575736,372.140936 699.516616,386.12824 691.61088,384.293376 C691.61088,384.293376 687.961024,384.288792 689.180696,381.857088 C689.913825,380.394487 690.727953,378.97391 691.619288,377.601976 L691.629216,369.693976 L697.718424,364.835112 Z" id="Path" fill="#2F2E41"></path>
            <circle id="Oval" fill="#FFB8B8" cx="672.332176" cy="235.233088" r="9.124648"></circle>
            <polygon id="Path" fill="#FFB8B8" points="676.5824 241.3216 676.5696 251.6624 666.8368 251.6504 668.0664 241.3112"></polygon>
            <path d="M664.408104,247.997656 L667.35732,247.273176 L676.574296,248.012936 C676.574296,248.012936 681.434656,252.885528 680.824824,254.101376 C680.214992,255.317224 677.136024,285.120576 677.136024,285.120576 L682.584072,306.41828 L663.11664,307.610448 L653.385216,306.381608 L655.25828,268.0604 C655.25828,268.0604 651.013104,257.713792 656.491704,254.67912 C659.586087,253.055787 662.28801,250.775356 664.408104,247.997656 L664.408104,247.997656 Z" id="Path" fill="#575A89"></path>
            <polygon id="Path" fill="#575A89" points="675.3544 250.4448 647.9824 249.1936 641.9232 230.3288 634.0144 230.9264 638.2408 255.8728 663.1712 264.4208"></polygon>
            <circle id="Oval" fill="#2F2E41" cx="689.945928" cy="222.623496" r="5.887064"></circle>
            <path d="M684.51404,219.458768 C684.515419,217.695376 685.307566,216.025555 686.672417,214.908981 C688.037267,213.792408 689.830931,213.346796 691.55964,213.694816 C689.503653,212.723336 687.071934,213.023431 685.313813,214.465605 C683.555692,215.907778 682.785884,218.233871 683.336574,220.440133 C683.887264,222.646395 685.659876,224.337892 687.889496,224.784712 C685.827475,223.813342 684.512255,221.73813 684.51404,219.458768 L684.51404,219.458768 Z" id="Path" fill="#2F2E41"></path>
            <path d="M679.463592,222.797512 L671.52696,221.33616 L665.423344,225.161632 C662.359046,227.082104 660.693365,230.610923 661.15832,234.19728 L667.27132,232.647832 L668.640168,229.215472 L670.270464,231.887664 L676.884176,243.45096 L683.580176,239.809512 L687.846752,233.123456 L679.463592,222.797512 Z" id="Path" fill="#2F2E41"></path>
            <rect id="Rectangle" fill="#FFFFFF" transform="translate(297.749620, 113.125802) rotate(-60.150050) translate(-297.749620, -113.125802) " x="296.949788" y="31.9573343" width="1.599664" height="162.336936"></rect>
            <rect id="Rectangle" fill="#FFFFFF" transform="translate(297.749608, 113.125808) rotate(-29.845530) translate(-297.749608, -113.125808) " x="216.58114" y="112.325976" width="162.336936" height="1.599664"></rect>
            <rect id="Rectangle" fill="#FFFFFF" transform="translate(577.349611, 133.925768) rotate(-45.000000) translate(-577.349611, -133.925768) " x="576.549695" y="101.6817" width="1.599832" height="64.488136"></rect>
            <rect id="Rectangle" fill="#FFFFFF" transform="translate(577.349611, 133.925768) rotate(-45.000000) translate(-577.349611, -133.925768) " x="545.105543" y="133.125852" width="64.488136" height="1.599832"></rect>
        </g>
    </g>
</svg>