
<svg width="528px" height="512px" viewBox="0 0 528 512" version="1.1" xmlns="http://www.w3.org/2000/svg" xmlns:xlink="http://www.w3.org/1999/xlink">
    <g id="Page-1" stroke="none" stroke-width="1" fill="none" fill-rule="evenodd">
        <g id="workers" fill-rule="nonzero">
            <rect id="Rectangle" fill="#3F3D56" x="0" y="476" width="528" height="2"></rect>
            <path d="M330.644877,223 C330.644877,223 307.762257,245.229227 319.203567,250.281324 C330.644877,255.333421 338,232.093777 338,232.093777 L330.644877,223 Z" id="Path" fill="#FFB8B8"></path>
            <path d="M332.100002,215 L327,225 C327,225 335.5,225 337.199998,240 L344,230 L332.100002,215 Z" id="Path" fill="#CFCCE0"></path>
            <polygon id="Path" fill="#FFB8B8" points="445.117344 447 446 477.810955 435.411563 485 431 481.919171 431.882084 447"></polygon>
            <path d="M383.357147,439 L385,471.727274 L362,484 L363.642885,466.613639 C363.642885,466.613639 370.214313,453.318182 368.571454,439 L383.357147,439 Z" id="Path" fill="#FFB8B8"></path>
            <path d="M420.008544,193 C420.008544,193 433.410255,235.820309 435.923069,262.328122 C438.435883,288.835936 442.623927,359.18356 442.623927,359.18356 L451,449.921873 L427.547007,454 L417.495725,362.242178 L394.880342,271.503892 L389.854699,362.242165 L385.666665,444.824197 L363.888892,445.843726 L362.21365,360.203108 L353,251.113276 L358.025644,199.117184 L420.008544,193 Z" id="Path" fill="#2F2E41"></path>
            <path d="M434.351976,478.644344 C434.351976,478.644344 435.726414,461.210901 445.933037,470.965631 L447.759785,469.302268 L456.139666,492.138448 C456.139666,492.138448 466.195525,509.784588 448.597776,511.860599 C431,513.93661 432.676005,492.138448 432.676005,492.138448 L431,482.796379 L431.837986,476.678666 L434.351976,478.644344 Z" id="Path" fill="#2F2E41"></path>
            <path d="M384.293101,459 C388.494876,461.973664 391.062322,467.535153 390.99885,473.525693 C390.99885,483.901186 390.160628,484.938732 390.160628,484.938732 L377.587374,489.088925 C377.587374,489.088925 369.205187,488.051372 364.175877,494.276672 C359.146567,500.501972 334,504.652165 334,496.351805 C334,488.051446 354.955468,474.563239 354.955468,474.563239 C354.955468,474.563239 361.17862,461.554391 365.611012,462.871069 C370.043404,464.187746 371.719842,466.262846 371.719842,467.300393 C371.719842,468.33794 369.205187,475.600786 369.205187,475.600786 C369.205187,475.600786 383.454879,471.450626 384.293101,459 Z" id="Path" fill="#2F2E41"></path>
            <ellipse id="Oval" fill="#FFB8B8" cx="382" cy="41.5" rx="21" ry="25.5"></ellipse>
            <path d="M397.627219,48 L407,73.7352922 L381.437864,118 C381.437864,118 379.733693,69.6176427 374.621296,61.3823506 C369.508898,53.1470584 397.627219,48 397.627219,48 Z" id="Path" fill="#FFB8B8"></path>
            <polygon id="Path" fill="#CFCCE0" points="387.518321 100.814342 391.777941 87.5358561 395.184865 88.5569727 399.444485 84.4711828 405.407292 62 413.92598 69.1498015 425 202.957105 356 205 365.370282 112.049934 373.888971 85.4929611 380.03777 75.7456985 384.110845 90.5998676"></polygon>
            <path d="M407,157.606312 L409.58718,65 C409.58718,65 414.6094,65.4688896 416.300379,68.5401355 C417.991359,71.6113814 445.892507,77.7538797 445.892507,77.7538797 L440.819568,172.962555 C440.819568,172.962555 461.956799,248.719988 454.347399,252.815 C446.737999,256.910013 433.210163,255.886246 433.210163,255.886246 L407,157.606312 Z" id="Path" fill="#575A89"></path>
            <path d="M364.058762,147.237933 L373,85 L353.101651,101.298456 L358.158777,146.217058 L353.944503,176.843376 C353.944503,176.843376 337.930259,261.5762 342.987397,264.638831 C348.044535,267.701461 353.944509,264.638831 353.944509,264.638831 L364.058768,178.885132 L364.058762,147.237933 Z" id="Path" fill="#575A89"></path>
            <path d="M360.225098,99 L354.261619,101.044479 L351.705839,141.93339 L347.446212,177.711171 L327,221.666662 C327,221.666662 337.223106,213.488886 341.482733,237 L364,189.960228 L360.225098,99 Z" id="Path" fill="#575A89"></path>
            <path d="M425.644873,214 C425.644873,214 402.762259,236.229227 414.203566,241.281324 C425.644873,246.333421 433,223.09377 433,223.09377 L425.644873,214 Z" id="Path" fill="#FFB8B8"></path>
            <polygon id="Path" fill="#CFCCE0" points="440 224.633423 432.285873 236 422 214.299866 426.285503 205"></polygon>
            <path d="M438.185185,81.0784262 L445,77 C445,77 450.111111,85.1568591 450.96296,92.2941132 C451.81481,99.4313674 456.074074,108.607831 456.074074,113.705869 C456.074074,118.803907 468,166.72547 468,166.72547 L440.740739,233 C440.740739,233 434.777776,208.529416 422,206.4902 L443.296298,170.803883 L431.370372,145.313707 L438.185185,81.0784262 Z" id="Path" fill="#575A89"></path>
            <path d="M401.381356,17.0655626 L405.349864,15.1424564 C405.349864,15.1424564 397.052127,4.08464183 385.507297,5.04623455 L388.754345,0.71921915 C388.754345,0.71921915 380.817335,-3.12694047 373.601881,6.96928135 C369.808853,12.2766315 365.420285,18.5151738 362.68448,25.5428019 L358.434484,25.5428019 L360.208269,30.2703907 L354,34.9979861 L360.372176,34.1488124 C359.992471,36.7376946 359.934188,39.3806865 360.199254,41.990401 C360.472615,44.6009102 361.573177,46.9807549 363.268669,48.6276749 L363.268669,48.6276749 C363.268669,48.6276749 368.19034,36.2964663 368.19034,34.3733601 L368.19034,39.1811124 C368.19034,39.1811124 372.158843,34.8541565 372.158843,31.9695301 L374.323461,35.3349528 L375.405767,30.0463909 L388.75434,35.3349528 L386.589723,31.0079968 L394.887487,32.4503133 L391.640438,27.1617514 C391.640438,27.1617514 401.020504,33.4118136 401.381356,38.7003623 C401.742089,43.9888318 404.487673,49 404.487673,49 C404.487673,49 411.84376,24.2771449 401.381356,17.0655626 Z" id="Path" fill="#2F2E41"></path>
            <ellipse id="Oval" fill="#FFB8B8" cx="399.5" cy="38.5" rx="2.5" ry="3.5"></ellipse>
            <polygon id="Path" fill="#6C63FF" points="97 211 25 211 25 187 62.5827679 187"></polygon>
            <path d="M25,207 L25,279 L261,279 L261,207 L25,207 Z M117.044024,266.919461 L40.3739453,266.919461 L40.3739453,256.771809 L117.044024,256.771809 L117.044024,266.919461 Z M245.62606,248.073816 L40.3739398,248.073816 L40.3739398,237.926171 L245.62606,237.926171 L245.62606,248.073816 Z M245.62606,229.228178 L40.3739398,229.228178 L40.3739398,219.080533 L245.62606,219.080533 L245.62606,229.228178 Z" id="Shape" fill="#3F3D56"></path>
            <polygon id="Path" fill="#6C63FF" points="97 93 25 93 25 69 62.5827679 69"></polygon>
            <path d="M25,92 L25,164 L261,164 L261,92 L25,92 Z M117.044024,151.919467 L40.3739453,151.919467 L40.3739453,141.771816 L117.044024,141.771816 L117.044024,151.919467 Z M161.368896,133.073829 L40.3739453,133.073829 L40.3739453,122.926177 L161.368896,122.926177 L161.368896,133.073829 Z M245.626087,114.228191 L40.3739671,114.228191 L40.3739671,104.080539 L245.626087,104.080539 L245.626087,114.228191 Z" id="Shape" fill="#3F3D56"></path>
            <polygon id="Path" fill="#6C63FF" points="97 325 25 325 25 301 62.5827679 301"></polygon>
            <path d="M25,321 L25,393 L261,393 L261,321 L25,321 Z M161.368869,380.919462 L40.3739453,380.919462 L40.3739453,370.771811 L161.368869,370.771811 L161.368869,380.919462 Z M161.368869,362.073825 L40.3739453,362.073825 L40.3739453,351.926188 L161.368869,351.926188 L161.368869,362.073825 Z M245.62606,343.228189 L40.3739398,343.228189 L40.3739398,333.080538 L245.62606,333.080538 L245.62606,343.228189 Z" id="Shape" fill="#3F3D56"></path>
            <polygon id="Path" fill="#3F3D56" points="329 147 295 147 295 106 318.071745 106 318.071745 106.976063 295.809971 106.976063 295.809971 146.023937 328.190582 146.023937 328.190582 126.5 329 126.5"></polygon>
            <path d="M312.35382,138 C311.591526,135.151642 302.032206,125.469326 307.889918,123.841906 L312.693598,131.94736 L334.778783,104 L337,106.810847 L312.35382,138 Z" id="Path" fill="#6C63FF"></path>
            <polygon id="Path" fill="#3F3D56" points="329 263 295 263 295 222 318.071745 222 318.071745 222.97673 295.809971 222.97673 295.809971 262.023937 328.190582 262.023937 328.190582 242.5 329 242.5"></polygon>
            <path d="M312.35382,253 C311.591526,250.151642 302.032206,240.469326 307.889918,238.841906 L312.693598,246.94736 L334.778783,219 L337,221.810847 L312.35382,253 Z" id="Path" fill="#6C63FF"></path>
            <polygon id="Path" fill="#3F3D56" points="329 379 295 379 295 338 318.071745 338 318.071745 338.976079 295.809971 338.976079 295.809971 378.023921 328.190582 378.023921 328.190582 358.499667 329 358.499667"></polygon>
            <path d="M312.35382,368 C311.591526,365.151642 302.032206,355.469322 307.889918,353.841909 L312.693598,361.947361 L334.778783,334 L337,336.810847 L312.35382,368 Z" id="Path" fill="#6C63FF"></path>
        </g>
    </g>
</svg>