
<svg width="28px" height="28px" viewBox="0 0 28 28" version="1.1" xmlns="http://www.w3.org/2000/svg" xmlns:xlink="http://www.w3.org/1999/xlink">
    <defs>
        <linearGradient x1="13.1240191%" y1="11.6996305%" x2="79.5070766%" y2="78.4532626%" id="linearGradient-1">
            <stop stop-color="#387EB8" offset="0%"></stop>
            <stop stop-color="#366994" offset="100%"></stop>
        </linearGradient>
        <linearGradient x1="19.2647686%" y1="20.315846%" x2="90.5604163%" y2="88.7730019%" id="linearGradient-2">
            <stop stop-color="#FFE052" offset="0%"></stop>
            <stop stop-color="#FFC331" offset="100%"></stop>
        </linearGradient>
    </defs>
    <g id="Page-1" stroke="none" stroke-width="1" fill="none" fill-rule="evenodd">
        <g id="python" fill-rule="nonzero">
            <path d="M13.703125,0 C6.695192,0 7.1328125,3.0390625 7.1328125,3.0390625 L7.140625,6.1875 L13.828125,6.1875 L13.828125,7.1328125 L4.484375,7.1328125 C4.484375,7.1328125 0,6.6242435 0,13.6953125 C0,20.76638 3.9140625,20.515625 3.9140625,20.515625 L6.25,20.515625 L6.25,17.234375 C6.25,17.234375 6.124087,13.3203125 10.1015625,13.3203125 C14.0790375,13.3203125 16.734375,13.3203125 16.734375,13.3203125 C16.734375,13.3203125 20.4609375,13.3805525 20.4609375,9.71875 C20.4609375,6.0569485 20.4609375,3.6640625 20.4609375,3.6640625 C20.4609375,3.664062 21.0267325,0 13.703125,0 Z M10.015625,2.1171875 C10.6809822,2.1171875 11.21875,2.65495525 11.21875,3.3203125 C11.21875,3.98566975 10.6809822,4.5234375 10.015625,4.5234375 C9.35026775,4.5234375 8.8125,3.98566975 8.8125,3.3203125 C8.8125,2.65495525 9.35026775,2.1171875 10.015625,2.1171875 Z" id="path8615" fill="url(#linearGradient-1)"></path>
            <path d="M13.90215,27.461525 C20.910085,27.461525 20.4724625,24.4224625 20.4724625,24.4224625 L20.46465,21.274025 L13.77715,21.274025 L13.77715,20.3287125 L23.1209,20.3287125 C23.1209,20.3287125 27.605275,20.83728 27.605275,13.76621 C27.605275,6.69514325 23.6912125,6.94589825 23.6912125,6.94589825 L21.355275,6.94589825 L21.355275,10.2271475 C21.355275,10.2271475 21.48119,14.14121 17.5037125,14.14121 C13.526237,14.14121 10.8708995,14.14121 10.8708995,14.14121 C10.8708995,14.14121 7.144337,14.08097 7.144337,17.742775 C7.144337,21.404575 7.144337,23.7974625 7.144337,23.7974625 C7.144337,23.7974625 6.578542,27.461525 13.90215,27.461525 Z M17.58965,25.3443375 C16.9242925,25.3443375 16.386525,24.80657 16.386525,24.1412125 C16.386525,23.475855 16.9242925,22.9380875 17.58965,22.9380875 C18.2550075,22.9380875 18.792775,23.475855 18.792775,24.1412125 C18.792775,24.80657 18.2550075,25.3443375 17.58965,25.3443375 Z" id="path8620" fill="url(#linearGradient-2)"></path>
        </g>
    </g>
</svg>