<?xml version="1.0" encoding="utf-8"?>
<svg xmlns="http://www.w3.org/2000/svg" xmlns:xlink="http://www.w3.org/1999/xlink" width="847.771" height="424.131" viewBox="0 0 847.771 424.131">
  <defs>
    <linearGradient id="linear-gradient" y1="0.5" x2="1" y2="0.5" gradientUnits="objectBoundingBox">
      <stop offset="0" stop-color="#37355e" stop-opacity="0.8"/>
      <stop offset="1" stop-color="#d1d1e6"/>
    </linearGradient>
  </defs>
  <g id="Group_7887" data-name="Group 7887" transform="translate(-799.694 -3416.922)">
    <path id="Path_6206" data-name="Path 6206" d="M273.388,725.553c.039.029,757.879-.093,757.879-.093,24.95-53.219,24.906-79.219,27.746-109.723C1074.689,447.134,947.7,421.213,910.5,414.183c-113.911-21.527-62.066-128.039-358.9-108.055-27.205,1.832-91.351,16.618-113.457,26.2-15.505,6.714-73.923,36.755-91.062,87.573-5.413,16.039-6.712,34.146-1.254,54.244,19.318,71.118-31.045,67.03-67.847,100.922C228.857,620.3,233.992,694.267,273.388,725.553Z" transform="translate(587.118 3113.278)" fill="#e9e9e9"/>
    <g id="Group_7870" data-name="Group 7870" transform="translate(989.015 3434.085)">
      <g id="Group_7858" data-name="Group 7858" transform="translate(-65 6)">
        <rect id="Rectangle_3536" data-name="Rectangle 3536" width="136.061" height="207.548" transform="translate(183.046 248.462) rotate(180)" fill="#a9c8dc"/>
        <g id="Group_7855" data-name="Group 7855">
          <rect id="Rectangle_3537" data-name="Rectangle 3537" width="57.51" height="92.316" transform="translate(183.046 141.544) rotate(180)" fill="#fff"/>
          <rect id="Rectangle_3538" data-name="Rectangle 3538" width="57.51" height="92.316" transform="translate(119.248 141.544) rotate(180)" fill="#fff"/>
          <rect id="Rectangle_3539" data-name="Rectangle 3539" width="57.51" height="92.316" transform="translate(183.046 240.149) rotate(180)" fill="#fff"/>
          <rect id="Rectangle_3540" data-name="Rectangle 3540" width="57.51" height="92.316" transform="translate(119.248 240.149) rotate(180)" fill="#fff"/>
        </g>
        <g id="Group_7856" data-name="Group 7856">
          <path id="Path_6390" data-name="Path 6390" d="M99.473,40.915H46.985V337.845h30.38L56.159,186.753Z" fill="#bfd5e3"/>
          <path id="Path_6391" data-name="Path 6391" d="M90.38,48.941,82.059,83.452,73.59,117.926,56.641,186.872l.012-.174,7.84,72.053,3.914,36.027,3.756,36.045-4.246-35.99L63.83,258.824l-8.164-72.017-.01-.088.022-.086,17.272-68.866L81.59,83.336Z" fill="#ebebeb"/>
          <path id="Path_6392" data-name="Path 6392" d="M50.109,55.032l.243,29.779.14,29.778.117,59.557L50.493,233.7l-.14,29.779-.245,29.779-.245-29.779-.14-29.779-.115-59.557.117-59.557.14-29.778Z" fill="#ebebeb"/>
          <path id="Path_6393" data-name="Path 6393" d="M59.916,60.612l-1.63,31.652L56.52,123.908,52.96,187.2v-.041c.353,11.752.575,23.506.869,35.259l.831,35.261.831,35.26.667,35.264-1.172-35.251-1.009-35.256L52.97,222.436c-.32-11.752-.711-23.5-.971-35.257v-.04l3.876-63.269,1.951-31.633Z" fill="#ebebeb"/>
          <path id="Path_6394" data-name="Path 6394" d="M66.749,323.631l-3.436-34.164-3.327-34.174c-2.131-22.79-4.346-45.573-6.4-68.371l-.006-.066.012-.062,9.731-53.211,4.937-26.593L73.27,80.411l-4.595,26.655-4.669,26.641-9.478,53.256.005-.129c2.175,22.787,4.19,45.588,6.289,68.382l3.018,34.2Z" fill="#ebebeb"/>
          <rect id="Rectangle_3541" data-name="Rectangle 3541" width="11.853" height="6.919" transform="translate(58.839 191.182) rotate(180)" fill="#dbdbdb"/>
        </g>
        <g id="Group_7857" data-name="Group 7857">
          <path id="Path_6395" data-name="Path 6395" d="M130.558,40.915h52.488V337.845h-30.38l21.206-151.093Z" fill="#bfd5e3"/>
          <path id="Path_6396" data-name="Path 6396" d="M139.651,48.941l8.79,34.395,8.641,34.431,17.272,68.866.022.086-.01.088L166.2,258.824l-4.088,36.008-4.246,35.99,3.756-36.045,3.914-36.027,7.84-72.053.012.174-16.949-68.946-8.469-34.474Z" fill="#ebebeb"/>
          <path id="Path_6397" data-name="Path 6397" d="M179.923,55.032l.243,29.779.14,29.778.117,59.557-.115,59.557-.14,29.779-.245,29.779-.245-29.779-.14-29.779-.115-59.557.117-59.557.14-29.778Z" fill="#ebebeb"/>
          <path id="Path_6398" data-name="Path 6398" d="M170.116,60.612,172.2,92.237l1.951,31.633,3.877,63.269v.04c-.26,11.754-.651,23.505-.97,35.257l-1.009,35.255-1.008,35.256L173.872,328.2l.667-35.264.831-35.26.832-35.261c.293-11.753.516-23.507.869-35.259v.041l-3.559-63.287-1.767-31.644Z" fill="#ebebeb"/>
          <path id="Path_6399" data-name="Path 6399" d="M163.283,323.631l2.909-34.213,3.018-34.2c2.1-22.794,4.113-45.6,6.288-68.382l.006.129-9.479-53.256-4.669-26.641-4.594-26.655,5.011,26.579,4.936,26.593,9.732,53.211.011.062-.006.066c-2.054,22.8-4.27,45.581-6.4,68.371l-3.327,34.174Z" fill="#ebebeb"/>
          <rect id="Rectangle_3542" data-name="Rectangle 3542" width="11.853" height="6.919" transform="translate(171.193 184.263)" fill="#dbdbdb"/>
        </g>
      </g>
      <g id="Group_7869" data-name="Group 7869" transform="translate(65 -1)">
        <g id="Group_7861" data-name="Group 7861">
          <path id="Path_6400" data-name="Path 6400" d="M336.849,269.178V406.445h82.979V269.178Zm75.445,86.608H344.383V320.052h67.911Zm0-44.242H344.383V275.81h67.911Z" fill="#a9c8dc"/>
          <rect id="Rectangle_3543" data-name="Rectangle 3543" width="33.184" height="137.263" transform="translate(419.831 269.178)" fill="#9abcd2"/>
          <rect id="Rectangle_3544" data-name="Rectangle 3544" width="16.138" height="35.732" transform="translate(344.384 275.807)" fill="#dbdbdb"/>
          <g id="Group_7860" data-name="Group 7860">
            <path id="Path_6401" data-name="Path 6401" d="M412.8,398.328H344.308V363.26H412.8Zm-67.487-1H411.8V364.26H345.308Z" fill="#f8f8f8"/>
            <g id="Group_7859" data-name="Group 7859">
              <rect id="Rectangle_3545" data-name="Rectangle 3545" width="13.405" height="6.783" transform="translate(369.019 373.344)" fill="#f8f8f8"/>
              <path id="Path_6402" data-name="Path 6402" d="M386.887,380.115H372.481v-6.76h14.406Zm-13.406-1h12.406v-4.76H373.481Z" fill="#f8f8f8"/>
            </g>
          </g>
          <rect id="Rectangle_3546" data-name="Rectangle 3546" width="16.138" height="35.732" transform="translate(344.384 320.056)" fill="#dbdbdb"/>
        </g>
        <g id="Group_7879" data-name="Group 7879" transform="translate(-240.083 29.252)">
          <g id="Group_7877" data-name="Group 7877" transform="translate(58.343 235.662)">
            <g id="Group_7874" data-name="Group 7874">
              <g id="Group_7871" data-name="Group 7871" transform="translate(12.496)">
                <path id="Path_6413" data-name="Path 6413" d="M107.255,309.017a55.566,55.566,0,0,0-1.785,10.1c.091.169.073.793-.027.623-.02.555-.865.454-.865-.093.008-.357.017-.714.035-1.06-1.974-2.45-4.839-4-7.155-6.132a13.391,13.391,0,0,1-3.921-6.24c-1.921-6.621-.12-13.636-2.431-20.24-1.991-5.694-5.565-10.643-8.588-15.8-3.19-5.455-5.545-11.189-5.781-17.578-.188-4.893.4-11.413,4.123-15.078,3.95-3.89,8.846-.975,11.872,2.494,8.769,10.064,12.827,22.783,14.467,35.788.9,7.2,1.844,14.439,1.626,21.7A58.432,58.432,0,0,1,107.255,309.017Z" transform="translate(-76.706 -235.662)" fill="#ffcbcd"/>
                <path id="Path_6414" data-name="Path 6414" d="M109.857,330.048a123.929,123.929,0,0,0-.241-20.391c.012-.025.033-.041.034-.074.11-5.512.549-11,.332-16.519a98.105,98.105,0,0,0-2.427-17.72c-.015-.067-.12-.052-.107.018a115.48,115.48,0,0,1,1.918,17.328q.168,4.671-.074,9.342c-.054,1.012-.147,2.032-.215,3.053v-.009a109.054,109.054,0,0,0-16.4-43.4c-.114-.179-.432.013-.32.2A113.342,113.342,0,0,1,105.7,294.052c-4.217-7.812-10.586-14.237-15.312-21.745-.026-.041-.094,0-.072.044,4.245,8.358,11.259,14.948,15.729,23.183.776,3.356,1.411,6.744,1.883,10.153a113.664,113.664,0,0,1,1.017,14.1,162.2,162.2,0,0,1-7.336-14.471c-.056-.135-.25-.043-.2.092,1.788,5.275,4.191,10.956,7.555,15.455.018,3.338-.08,6.679-.277,10.013-.525,8.9-2.045,17.685-2.748,26.559a.2.2,0,0,0,.407.044A204.012,204.012,0,0,0,109.857,330.048Z" transform="translate(-81.054 -243.951)" fill="#ff6b6b"/>
                <path id="Path_6415" data-name="Path 6415" d="M105.091,261.28c-.027-.065-.122-.021-.1.044,1.626,4.5,2.544,9.052,3.719,13.661a.17.17,0,0,0,.335-.055A49.03,49.03,0,0,0,105.091,261.28Z" transform="translate(-85.741 -243.836)" fill="#ff6b6b"/>
              </g>
              <g id="Group_7872" data-name="Group 7872" transform="translate(37.683 31.23)">
                <path id="Path_6416" data-name="Path 6416" d="M150.741,286.611A67.763,67.763,0,0,1,147,294.294c-2.928,5.317-5.982,10.189-6.535,16.38a38.043,38.043,0,0,1-1.177,8.205,24.618,24.618,0,0,1-3.27,6.423c-3.173,4.623-7.14,8.606-10.081,13.4a56.444,56.444,0,0,0-6.7,16.151c-.073.311-.563.227-.491-.083a.293.293,0,0,0,.019-.071.1.1,0,0,1-.029-.065c-.466-13.275.593-26.655,4.643-39.372a136.182,136.182,0,0,1,6.434-16.378,38.719,38.719,0,0,1,8.68-12.49c2.471-2.225,7.83-6.443,11.347-4.211C151.532,283.26,151.406,284.954,150.741,286.611Z" transform="translate(-115.289 -281.553)" fill="#ffcbcd"/>
                <path id="Path_6417" data-name="Path 6417" d="M135.827,322.027a108.77,108.77,0,0,1-7.715,11.09c-1.285,1.678-2.589,3.343-3.871,5.022-.606.794-1.286,1.585-1.843,2.437.351-1.4.693-2.794,1.049-4.189a164.322,164.322,0,0,1,5.911-19.923,134.442,134.442,0,0,1,9.218-18.069c.089-.154-.159-.265-.249-.116-2.805,4.613-5.652,9.221-8.01,14.084a73.955,73.955,0,0,0-3.4,8.356,128.633,128.633,0,0,1,4.526-17.855c.018-.052-.058-.091-.08-.037a61.094,61.094,0,0,0-4.7,18.573.055.055,0,0,0,.009.03c-.575,1.724-1.1,3.465-1.6,5.218-2.091,7.427-3.927,14.932-5.63,22.463a80.352,80.352,0,0,1,1.281-14.763c.021-.112-.148-.139-.174-.029a46.815,46.815,0,0,0-1.282,15.562q-.966,4.3-1.882,8.6c-1.3,6.119-2.908,12.347-3.671,18.561a.125.125,0,0,0,.246.042c.911-3.35,1.46-6.822,2.2-10.213s1.516-6.8,2.308-10.19c1.153-4.939,2.361-9.865,3.591-14.785a26.479,26.479,0,0,1,3.6-4.92c1.307-1.66,2.614-3.321,3.886-5.009a74.759,74.759,0,0,0,6.387-9.885C135.984,322.008,135.869,321.957,135.827,322.027Z" transform="translate(-113.717 -286.874)" fill="#ff6b6b"/>
                <path id="Path_6418" data-name="Path 6418" d="M143.492,324.855a69.222,69.222,0,0,0-7.55,12c-.027.054.057.111.091.058,2.541-3.982,5.039-7.994,7.576-11.979C143.652,324.862,143.54,324.794,143.492,324.855Z" transform="translate(-120.816 -295.379)" fill="#ff6b6b"/>
              </g>
              <g id="Group_7873" data-name="Group 7873" transform="translate(0 33.945)">
                <path id="Path_6419" data-name="Path 6419" d="M62.191,300.472c1.72,2.964,3.684,6.521,2.945,10.079-.468,2.252-2.116,4.08-2.414,6.377-.666,5.071,4.387,8.422,8.044,10.818,9.115,5.98,21.617,11.313,23.275,23.527.063.432.811.324.757-.1a.268.268,0,0,0-.018-.081c.018-.027.045-.036.045-.072a46.8,46.8,0,0,0-.171-18.654c-1.36-6.3-4.108-11.953-7.35-17.483-5.485-9.359-11.295-18.942-19.59-26.112-2.3-1.982-7-5.548-8.827-1.072C57.111,292.051,60.083,296.861,62.191,300.472Z" transform="translate(-58.343 -285.543)" fill="#ffcbcd"/>
                <path id="Path_6420" data-name="Path 6420" d="M76.2,330.55c6.044,6.543,15.652,10.21,20.855,17.539a73.386,73.386,0,0,0-16.028-30.107.235.235,0,0,1,.333-.333,59.336,59.336,0,0,1,13.1,18.97,84.829,84.829,0,0,0-5.64-14.424c-.086-.177.165-.33.267-.156a55.007,55.007,0,0,1,6.079,16.214c6.854,16.594,7.49,36.057,6.053,53.548-.02.249-.4.257-.394,0,.393-13.784.171-27.809-3.132-41.271-.069-.281-.146-.558-.217-.838C91.814,341.8,82.247,338.146,76.1,330.654,76.036,330.582,76.134,330.479,76.2,330.55Z" transform="translate(-64.009 -295.778)" fill="#ff6b6b"/>
                <path id="Path_6421" data-name="Path 6421" d="M74.093,328.363c3.173,2.911,6.3,5.888,9.474,8.8.032.029-.01.086-.047.061a46.379,46.379,0,0,1-9.616-8.669A.134.134,0,0,1,74.093,328.363Z" transform="translate(-63.304 -299.21)" fill="#ff6b6b"/>
                <path id="Path_6422" data-name="Path 6422" d="M73.377,309.828a99.665,99.665,0,0,0,9.492,13.057.056.056,0,0,1-.08.08,46,46,0,0,1-9.582-13.038A.1.1,0,0,1,73.377,309.828Z" transform="translate(-63.088 -293.286)" fill="#ff6b6b"/>
              </g>
            </g>
            <g id="Group_7876" data-name="Group 7876" transform="translate(24.573 100.772)">
              <g id="Group_7875" data-name="Group 7875" transform="translate(0 4.142)">
                <path id="Path_6423" data-name="Path 6423" d="M94.452,427.218h27.79L118.5,389.828H98.732Z" transform="translate(-94.452 -389.828)" fill="#455a64"/>
                <path id="Path_6424" data-name="Path 6424" d="M99.716,395.906H120.79l-.61-6.078H100.412Z" transform="translate(-96.134 -389.828)" fill="#263238"/>
              </g>
              <rect id="Rectangle_3547" data-name="Rectangle 3547" width="26.049" height="5.97" transform="translate(26.92 5.97) rotate(180)" fill="#455a64"/>
            </g>
          </g>
        </g>
      </g>
    </g>
    <g id="Group_7853" data-name="Group 7853" transform="translate(1036.988 3386.844)">
      <g id="Group_7834" data-name="Group 7834" transform="translate(-10 -31)">
        <circle id="Ellipse_1347" data-name="Ellipse 1347" cx="31.185" cy="31.185" r="31.185" transform="matrix(0.474, -0.88, 0.88, 0.474, 280.967, 161.023)" fill="#41415b"/>
        <circle id="Ellipse_1348" data-name="Ellipse 1348" cx="27.594" cy="27.594" r="27.594" transform="translate(295.615 120.758)" fill="#f4f4f4"/>
        <path id="Path_6353" data-name="Path 6353" d="M327.953,174.349a27.589,27.589,0,0,1-32.05-21.517c.032.192.057.384.092.577a27.594,27.594,0,0,0,54.26-10.082c-.035-.192-.081-.38-.121-.571A27.588,27.588,0,0,1,327.953,174.349Z" style="mix-blend-mode: soft-light;isolation: isolate"/>
        <path id="Path_6354" data-name="Path 6354" d="M318.614,123.618a27.592,27.592,0,0,1,31.918,20.9c-.056-.4-.117-.8-.192-1.2a27.594,27.594,0,0,0-54.26,10.082c.074.4.162.8.253,1.192A27.592,27.592,0,0,1,318.614,123.618Z" style="mix-blend-mode: soft-light;isolation: isolate"/>
        <g id="Group_7830" data-name="Group 7830">
          <path id="Path_6355" data-name="Path 6355" d="M320.287,132.185h0a.944.944,0,0,1-1.094-.759l-.952-5.267a.943.943,0,0,1,.758-1.093h0a.944.944,0,0,1,1.094.758l.952,5.268A.943.943,0,0,1,320.287,132.185Z" fill="#dd3e4b"/>
          <path id="Path_6356" data-name="Path 6356" d="M327.488,172.01h0a.944.944,0,0,1-1.094-.759l-.952-5.267a.944.944,0,0,1,.758-1.094h0a.944.944,0,0,1,1.094.759l.952,5.267A.944.944,0,0,1,327.488,172.01Z" fill="#dd3e4b"/>
        </g>
        <g id="Group_7831" data-name="Group 7831">
          <path id="Path_6357" data-name="Path 6357" d="M341.646,145.21h0a.943.943,0,0,1,.758-1.093l5.268-.953a.943.943,0,0,1,1.093.759h0a.943.943,0,0,1-.758,1.093l-5.268.953A.944.944,0,0,1,341.646,145.21Z" fill="#dd3e4b"/>
          <path id="Path_6358" data-name="Path 6358" d="M297.814,153.136h0a.944.944,0,0,1,.758-1.094l5.268-.952a.943.943,0,0,1,1.093.758h0a.944.944,0,0,1-.758,1.094l-5.268.952A.943.943,0,0,1,297.814,153.136Z" fill="#dd3e4b"/>
        </g>
        <g id="Group_7832" data-name="Group 7832">
          <path id="Path_6359" data-name="Path 6359" d="M333.994,133.189h0a.943.943,0,0,1-.236-1.309l3.051-4.4a.943.943,0,0,1,1.309-.237h0a.943.943,0,0,1,.237,1.309l-3.051,4.4A.944.944,0,0,1,333.994,133.189Z" fill="#dd3e4b"/>
          <path id="Path_6360" data-name="Path 6360" d="M308.605,169.788h0a.944.944,0,0,1-.237-1.31l3.051-4.4a.944.944,0,0,1,1.31-.237h0a.944.944,0,0,1,.237,1.31l-3.052,4.4A.943.943,0,0,1,308.605,169.788Z" fill="#dd3e4b"/>
        </g>
        <g id="Group_7833" data-name="Group 7833">
          <path id="Path_6361" data-name="Path 6361" d="M338.592,159.289h0a.943.943,0,0,1,1.309-.237l4.4,3.051a.944.944,0,0,1,.237,1.31h0a.943.943,0,0,1-1.309.236l-4.4-3.051A.943.943,0,0,1,338.592,159.289Z" fill="#dd3e4b"/>
          <path id="Path_6362" data-name="Path 6362" d="M301.993,133.9h0a.945.945,0,0,1,1.31-.237l4.4,3.051a.945.945,0,0,1,.237,1.31h0a.945.945,0,0,1-1.31.237l-4.4-3.051A.945.945,0,0,1,301.993,133.9Z" fill="#dd3e4b"/>
        </g>
        <path id="Path_6363" data-name="Path 6363" d="M324.551,149.022h0a1.82,1.82,0,0,1-1.463,2.109L312.728,153a1.82,1.82,0,0,1-2.11-1.463h0a1.822,1.822,0,0,1,1.464-2.11l10.36-1.873A1.82,1.82,0,0,1,324.551,149.022Z" opacity="0.5" style="mix-blend-mode: soft-light;isolation: isolate"/>
        <path id="Path_6364" data-name="Path 6364" d="M328.186,147.887h0a1.822,1.822,0,0,1-1.464,2.11l-15.47,2.8a1.821,1.821,0,0,1-2.11-1.464h0a1.821,1.821,0,0,1,1.464-2.109l15.47-2.8A1.82,1.82,0,0,1,328.186,147.887Z" fill="#c93a4c"/>
        <path id="Path_6365" data-name="Path 6365" d="M322.588,150.27h0a1.456,1.456,0,0,1-.231-2.04l9.456-11.862a1.456,1.456,0,0,1,2.04-.23h0a1.456,1.456,0,0,1,.231,2.04l-9.456,11.862A1.457,1.457,0,0,1,322.588,150.27Z" opacity="0.5" style="mix-blend-mode: soft-light;isolation: isolate"/>
        <path id="Path_6366" data-name="Path 6366" d="M320.2,152.7h0a1.456,1.456,0,0,1-.23-2.04l12.043-15.108a1.457,1.457,0,0,1,2.04-.23h0a1.456,1.456,0,0,1,.23,2.04l-12.043,15.107A1.456,1.456,0,0,1,320.2,152.7Z" fill="#dd3e4b"/>
        <path id="Path_6367" data-name="Path 6367" d="M326.367,148.518a2.661,2.661,0,1,1-3.092-2.146A2.661,2.661,0,0,1,326.367,148.518Z" opacity="0.5" style="mix-blend-mode: soft-light;isolation: isolate"/>
        <path id="Path_6368" data-name="Path 6368" d="M326.244,148.238a2.661,2.661,0,1,1-3.092-2.145A2.661,2.661,0,0,1,326.244,148.238Z" fill="#233354"/>
        <path id="Path_6369" data-name="Path 6369" d="M325.145,148.437a1.545,1.545,0,1,1-1.795-1.245A1.544,1.544,0,0,1,325.145,148.437Z" fill="#fff"/>
      </g>
      <g id="Group_7836" data-name="Group 7836">
        <path id="Path_6370" data-name="Path 6370" d="M304.334,155.066V406.7a18.415,18.415,0,0,1-18.41,18.42H181.694a18.424,18.424,0,0,1-18.42-18.42V155.066a18.445,18.445,0,0,1,18.42-18.42h104.23A18.415,18.415,0,0,1,304.334,155.066Z" fill="#484867"/>
        <rect id="Rectangle_3518" data-name="Rectangle 3518" width="127.687" height="275.859" rx="14.007" transform="translate(169.965 143.31)" fill="#fdfdfd"/>
        <path id="Rectangle_3519" data-name="Rectangle 3519" d="M0,0H54.5a0,0,0,0,1,0,0V8.006a3.758,3.758,0,0,1-3.758,3.758H3.758A3.758,3.758,0,0,1,0,8.006V0A0,0,0,0,1,0,0Z" transform="translate(206.559 140.249)" fill="#484867"/>
        <g id="Group_7835" data-name="Group 7835">
          <path id="Path_6371" data-name="Path 6371" d="M242.182,148.352H219.854a1.621,1.621,0,0,1-1.621-1.621h0a1.621,1.621,0,0,1,1.621-1.62h22.328a1.62,1.62,0,0,1,1.62,1.62h0A1.62,1.62,0,0,1,242.182,148.352Z" fill="#d1d1e6" opacity="0.5"/>
          <path id="Path_6372" data-name="Path 6372" d="M249.384,146.731a1.62,1.62,0,1,1-1.62-1.62A1.62,1.62,0,0,1,249.384,146.731Z" fill="#d1d1e6" opacity="0.5"/>
        </g>
      </g>
      <g id="Group_7843" data-name="Group 7843" transform="translate(0 -17)">
        <g id="Group_7840" data-name="Group 7840">
          <g id="Group_7837" data-name="Group 7837">
            <path id="Path_6373" data-name="Path 6373" d="M169.757,85.133c-.316-.6-.611-1.211-.876-1.818l.458-.2c.261.6.55,1.2.86,1.785Z" fill="#484867"/>
          </g>
          <g id="Group_7838" data-name="Group 7838">
            <path id="Path_6374" data-name="Path 6374" d="M375.911,136.01l-2.385-3.16.4-.3,2.385,3.16Zm-4.769-6.32-2.385-3.16.4-.3,2.385,3.161Zm-4.77-6.319-2.385-3.162.4-.3,2.383,3.16Zm-4.776-6.314q-1.2-1.569-2.428-3.12l.391-.312q1.233,1.553,2.433,3.128Zm-4.931-6.177c-.9-1.064-1.756-2.032-2.612-2.96l.367-.339c.861.933,1.721,1.907,2.626,2.976Zm-119.085-.634c-.205,0-.411,0-.616-.005l.008-.5a37.888,37.888,0,0,0,3.929-.142l.043.5C239.806,110.2,238.674,110.246,237.58,110.246Zm-4.59-.307a28.915,28.915,0,0,1-3.907-.812l.137-.481a28.338,28.338,0,0,0,3.839.8Zm11.9-.371-.088-.493c1.268-.228,2.561-.515,3.842-.855l.129.484C247.478,109.047,246.171,109.337,244.889,109.568Zm-19.555-1.818a24.275,24.275,0,0,1-2.626-1.406q-.435-.27-.853-.563l.287-.409c.271.19.547.373.828.546a23.66,23.66,0,0,0,2.573,1.378Zm27.242-.208-.164-.472q.4-.14.8-.284c.936-.34,1.906-.717,2.886-1.12l.189.462c-.984.406-1.962.785-2.9,1.128C253.116,107.353,252.847,107.449,252.576,107.542ZM351.3,105.1c-.8-.779-1.618-1.527-2.422-2.224q-.248-.213-.5-.425l.322-.382q.252.213.5.43c.812.7,1.633,1.457,2.443,2.242Zm-91.376-.556-.209-.454c1.105-.508,2.271-1.067,3.565-1.706l.221.448C262.2,103.469,261.034,104.029,259.925,104.539Zm-51.13-.447q-.9,0-1.8-.02l.011-.5q1.971.043,3.947-.007l.011.5Q209.877,104.09,208.795,104.092Zm6.131-.2-.031-.5c1.241-.078,2.513-.178,3.887-.306a21.024,21.024,0,0,1-2.373-3.113l.424-.266a20.493,20.493,0,0,0,2.374,3.1l-.367.34h0l.04.43C217.481,103.706,216.188,103.809,214.926,103.888Zm-11.9-.012c-1.346-.1-2.675-.25-3.95-.432l.071-.5c1.264.18,2.583.324,3.919.429Zm19.8-.717-.058-.5q1.751-.2,3.492-.434l.431-.057.066.5-.432.058Q224.576,102.951,222.823,103.159Zm-27.661-.417q-.606-.13-1.209-.278c-.886-.215-1.774-.46-2.641-.728l.147-.477c.858.265,1.736.507,2.612.719q.6.146,1.2.275Zm35.518-.665-.086-.493c1.42-.248,2.68-.518,3.849-.825l.127.483C233.387,101.553,232.114,101.826,230.68,102.077Zm36.359-1.034-.228-.446,3.523-1.806.229.445Zm-79.474-.651c-1.231-.507-2.445-1.074-3.607-1.685l.233-.442c1.147.6,2.347,1.164,3.564,1.664Zm157.719-.375c-1.052-.764-2.152-1.5-3.269-2.2l.263-.425c1.127.7,2.238,1.445,3.3,2.217Zm-106.926-.023-.189-.463a21.5,21.5,0,0,0,3.474-1.787l.269.421A22,22,0,0,1,238.358,99.994Zm35.735-2.539-.222-.448c1.31-.648,2.48-1.209,3.576-1.714l.209.454C276.565,96.25,275.4,96.809,274.093,97.455Zm-93.564-.774a37.156,37.156,0,0,1-3.2-2.372l.32-.385a36.219,36.219,0,0,0,3.156,2.34Zm34.077-.282a21.017,21.017,0,0,1-1.112-3.842l.491-.092a20.626,20.626,0,0,0,1.086,3.751Zm123.99-.535c-1.149-.6-2.342-1.183-3.548-1.717l.2-.457c1.216.538,2.42,1.121,3.577,1.731Zm-93.591-.255-.367-.34a15.012,15.012,0,0,0,2.252-3.164l.441.235A15.511,15.511,0,0,1,245.005,95.609Zm36.267-1.446-.19-.463.679-.277c.989-.4,2.009-.78,3.032-1.138l.166.472c-1.017.355-2.029.736-3.012,1.13Zm50.12-1.49c-1.218-.446-2.478-.861-3.743-1.234l.14-.479c1.277.376,2.547.794,3.775,1.244ZM174.419,91.586a30.554,30.554,0,0,1-2.55-3.066l.4-.294a30.064,30.064,0,0,0,2.508,3.017Zm114.3-.024-.139-.48c1.267-.364,2.561-.7,3.847-.992l.111.488C291.259,90.87,289.974,91.2,288.717,91.562Zm35.116-1.119c-1.265-.289-2.566-.546-3.869-.762l.082-.494c1.312.219,2.624.477,3.9.769ZM296.4,89.8l-.084-.494c1.3-.224,2.627-.414,3.932-.566l.059.5C299.013,89.391,297.7,89.579,296.4,89.8Zm19.652-.655c-1.3-.138-2.619-.241-3.933-.307l.026-.5c1.322.066,2.654.17,3.96.309Zm-11.818-.257-.031-.5c1.32-.082,2.656-.127,3.971-.135l0,.5C306.874,88.765,305.548,88.81,304.237,88.891Zm-90.564-.311-.5-.014a15.966,15.966,0,0,1,.609-3.965l.48.139A15.5,15.5,0,0,0,213.673,88.58Zm35.023-.018-.49-.1a10.98,10.98,0,0,0,.216-2.144,9.813,9.813,0,0,0-.147-1.7l.493-.086a10.305,10.305,0,0,1,.154,1.785A11.522,11.522,0,0,1,248.7,88.562ZM215.854,81.21l-.421-.27a13.5,13.5,0,0,1,1.526-1.956,14.281,14.281,0,0,1,1.115-1.07l.326.379a14.018,14.018,0,0,0-1.077,1.032A13.056,13.056,0,0,0,215.854,81.21Zm30.966-.123a11.244,11.244,0,0,0-2.722-2.726l.293-.406a11.8,11.8,0,0,1,2.842,2.849Zm-6.129-4.613c-.706-.3-1.462-.579-2.25-.829-.481-.153-.973-.294-1.464-.421l.125-.485c.5.13,1,.274,1.49.429.8.256,1.575.54,2.294.846Zm-19.038-.3-.216-.45a18.137,18.137,0,0,1,3.784-1.316l.113.488A17.668,17.668,0,0,0,221.653,76.176Zm11.469-1.662a25.387,25.387,0,0,0-3.915-.135l-.021-.5a25.65,25.65,0,0,1,3.991.137Z" fill="#484867"/>
          </g>
          <g id="Group_7839" data-name="Group 7839">
            <rect id="Rectangle_3520" data-name="Rectangle 3520" width="0.5" height="2" transform="matrix(0.798, -0.602, 0.602, 0.798, 378.355, 139.249)" fill="#484867"/>
          </g>
        </g>
        <g id="Group_7842" data-name="Group 7842">
          <g id="Group_7841" data-name="Group 7841">
            <path id="Path_6375" data-name="Path 6375" d="M174.826,75.776l-.537,16L121.774,66.157Z" fill="#ea9918"/>
            <path id="Path_6376" data-name="Path 6376" d="M188.463,66.694l-13.638,9.082-53.051-9.619Z" fill="#ffce43"/>
            <path id="Path_6377" data-name="Path 6377" d="M170,78.706,121.774,66.157l33.868,22.156Z" fill="#ffce43"/>
            <path id="Path_6378" data-name="Path 6378" d="M174.289,91.779,170,78.706l-9.509,6.368Z" fill="#ffbb4d"/>
          </g>
        </g>
      </g>
      <g id="Group_7852" data-name="Group 7852" transform="translate(91.83 46.803)">
        <path id="Path_6385" data-name="Path 6385" d="M163.274,182.221V151.477a14.066,14.066,0,0,1,6.287-11.731,24.615,24.615,0,0,1-6.287,42.475Z" transform="translate(-11.775 -3.357)" opacity="0.5" style="mix-blend-mode: soft-light;isolation: isolate"/>
        <g id="Group_7851" data-name="Group 7851" transform="translate(113.012 125.417)">
          <circle id="Ellipse_1349" data-name="Ellipse 1349" cx="24.62" cy="24.62" r="24.62" transform="translate(0 48.568) rotate(-80.529)" fill="#0aad60"/>
          <circle id="Ellipse_1350" data-name="Ellipse 1350" cx="21.785" cy="21.785" r="21.785" transform="translate(0.252 17.701) rotate(-23.863)" fill="#0aad60"/>
          <path id="Path_6386" data-name="Path 6386" d="M150.21,179.966a21.781,21.781,0,0,1-27.444-13.252c.046.147.087.294.136.441a21.785,21.785,0,1,0,41.288-13.917c-.049-.147-.106-.289-.159-.433A21.78,21.78,0,0,1,150.21,179.966Z" transform="translate(-115.297 -131.833)" fill="#fff" opacity="0.44" style="mix-blend-mode: soft-light;isolation: isolate"/>
          <path id="Path_6387" data-name="Path 6387" d="M137.005,136.933a21.782,21.782,0,0,1,27.272,12.781c-.089-.306-.181-.613-.284-.919a21.785,21.785,0,0,0-41.288,13.917c.1.306.215.606.331.9A21.782,21.782,0,0,1,137.005,136.933Z" transform="translate(-115.014 -128.95)" opacity="0.5" style="mix-blend-mode: soft-light;isolation: isolate"/>
          <g id="Group_7850" data-name="Group 7850" transform="translate(16.653 15.404)">
            <g id="Group_7848" data-name="Group 7848" transform="translate(0.503 1.231)" opacity="0.5" style="mix-blend-mode: soft-light;isolation: isolate">
              <path id="Path_6388" data-name="Path 6388" d="M146.716,171.212l-11.3-9.476,2.208-2.633,8.263,6.93,11.724-18.892,2.919,1.811Z" transform="translate(-135.417 -147.142)"/>
            </g>
            <g id="Group_7849" data-name="Group 7849">
              <path id="Path_6389" data-name="Path 6389" d="M146.059,169.6l-11.3-9.476,2.208-2.633,8.262,6.93,11.724-18.892,2.919,1.811Z" transform="translate(-134.76 -145.533)" fill="#fff"/>
            </g>
          </g>
        </g>
      </g>
      <g id="Group_7854" data-name="Group 7854" transform="translate(-0.41 3.139)">
        <rect id="Rectangle_3529" data-name="Rectangle 3529" width="94.771" height="15.078" transform="translate(186.422 239.017)" opacity="0.2" fill="url(#linear-gradient)"/>
        <rect id="Rectangle_3530" data-name="Rectangle 3530" width="94.771" height="7.539" transform="translate(186.422 259.515)" opacity="0.2" fill="url(#linear-gradient)"/>
        <rect id="Rectangle_3531" data-name="Rectangle 3531" width="94.771" height="7.539" transform="translate(186.422 273.814)" opacity="0.2" fill="url(#linear-gradient)"/>
        <rect id="Rectangle_3535" data-name="Rectangle 3535" width="94.771" height="12.047" transform="translate(186.422 384.726)" opacity="0.2" fill="url(#linear-gradient)"/>
      </g>
    </g>
    <g id="Group_7780" data-name="Group 7780" transform="translate(1258.876 3696.822)">
      <g id="Group_7777" data-name="Group 7777" transform="translate(47.727 68.622)">
        <path id="Path_6207" data-name="Path 6207" d="M1834.814,1536.538h.1a1.091,1.091,0,0,0,1.091-1.116l-1.653-71.656-4.87-.568,4.153,72.23A1.178,1.178,0,0,0,1834.814,1536.538Z" transform="translate(-1829.485 -1463.198)" fill="#b0d4ff"/>
      </g>
      <g id="Group_7778" data-name="Group 7778" transform="translate(76.106 68.622)">
        <path id="Path_6208" data-name="Path 6208" d="M1929.233,1536.538h.1a1.09,1.09,0,0,0,1.09-1.116l-1.653-71.656-4.87-.568,4.153,72.23A1.178,1.178,0,0,0,1929.233,1536.538Z" transform="translate(-1923.904 -1463.198)" fill="#95c0f4"/>
      </g>
      <g id="Group_7779" data-name="Group 7779" transform="translate(1.931 68.622)">
        <path id="Path_6209" data-name="Path 6209" d="M1678.313,1536.538h-.1a1.091,1.091,0,0,1-1.09-1.116l1.653-71.656,4.87-.568-4.153,72.23A1.178,1.178,0,0,1,1678.313,1536.538Z" transform="translate(-1677.118 -1463.198)" fill="#b0d4ff"/>
      </g>
      <path id="Path_6210" data-name="Path 6210" d="M1797.237,1299.634v-49.1a15.644,15.644,0,0,0-15.644-15.644h-35.377a15.644,15.644,0,0,0-15.644,15.644v50.979Z" transform="translate(-1712.574 -1234.888)" fill="#b0d4ff"/>
      <path id="Rectangle_3483" data-name="Rectangle 3483" d="M7.752,0H73a0,0,0,0,1,0,0V7.752a0,0,0,0,1,0,0H0a0,0,0,0,1,0,0v0A7.752,7.752,0,0,1,7.752,0Z" transform="translate(84.663 72.498) rotate(180)" fill="#95c0f4"/>
      <path id="Rectangle_3484" data-name="Rectangle 3484" d="M3.876,0H54.747a3.876,3.876,0,0,1,3.876,3.876v0a3.876,3.876,0,0,1-3.876,3.876H3.876A3.876,3.876,0,0,1,0,3.876v0A3.876,3.876,0,0,1,3.876,0Z" transform="translate(58.623 72.498) rotate(180)" fill="#cae5ff"/>
    </g>
    <g id="Group_7814" data-name="Group 7814" transform="translate(949.84 3571.768)">
      <path id="Path_6277" data-name="Path 6277" d="M719.179,877.063c-.977-1.885,21.322-8.672,21.675,9.93,0,0,41.772-1.027,21.827-24.309-6.9-8.06-6.194-14.725-5.988-20.928s-4.3-24.236-19.762-22.42a11.513,11.513,0,0,0-9.1.974C716.337,826.27,690.594,883.923,719.179,877.063Z" transform="translate(-687.032 -818.823)" fill="#163560"/>
      <path id="Path_6278" data-name="Path 6278" d="M976.677,1070.337s2.719-4.139,4.91-4.22,6.25-1.217,5.925-.406-2.841.893-3.084,1.38,3.734,1.218,4.87,1.3,3.815,0,3.734.568-4.827,2.922-8.176,2.6a22.715,22.715,0,0,0-7.488.974Z" transform="translate(-876.239 -991.302)" fill="#ffb27d"/>
      <path id="Path_6279" data-name="Path 6279" d="M845.847,1009.318a40.753,40.753,0,0,0,4.159,6.289c3.231,4.047,8.213,8.722,14.468,9.645a15.529,15.529,0,0,0,8.595-1.4l.01,0c7.6-3.372,13.309-11.128,13.309-11.128a6.245,6.245,0,0,0-.852-6.129s-15.34,3.45-16.8,2.72-9.983-25.281-12.011-28.366-8.946-4.687-8.946-4.687Z" transform="translate(-784.732 -928.943)" fill="#d8d8d8"/>
      <path id="Path_6280" data-name="Path 6280" d="M858.56,1088.243c3.231,4.047,8.213,8.722,14.468,9.645a15.528,15.528,0,0,0,8.595-1.4c-.3.039-7.884.976-10.908-4.434-3.085-5.52-6.421-14.285-11-11.364C857.734,1081.956,857.822,1085.089,858.56,1088.243Z" transform="translate(-793.286 -1001.578)" fill="#cbcaca"/>
      <path id="Path_6281" data-name="Path 6281" d="M646.4,1632.434s-4.681,4.271-3.767,7.307,5.137,5.058,5.708,8.768,2.854,5.733,4.909,5.733h9.8s1.513-2.61-2.141-3.4-5.031-5.146-4.8-9.193a71.347,71.347,0,0,0-.343-9.442l-7.763-1.8Z" transform="translate(-642.513 -1386.475)" fill="#233862"/>
      <path id="Path_6282" data-name="Path 6282" d="M785.738,1643.176s-1.684,18.1.371,19.108l26.3-.054s0-3.035-4.224-3.709-11.645-3.148-12.9-8.656S785.738,1643.176,785.738,1643.176Z" transform="translate(-742.235 -1395.404)" fill="#233862"/>
      <path id="Path_6283" data-name="Path 6283" d="M724.621,1007.5c5.412-12.137,8.723-15.62,8.091-19.387-.47-2.8,1.433-52.274,1.433-52.274.642-.2,1.929-.377,2.633-.533a6.6,6.6,0,0,0,4.822-4.193,33.657,33.657,0,0,0,1.636-11.162l.693.136,11.656,2.308s-.265,3.668-.273,7.124c0,.029,0,.057,0,.086a6.705,6.705,0,0,0,4.838,6.483c1.472.425,2.753.788,2.753.788a106.894,106.894,0,0,1,5.1,24.773c.818,12.553-7.783,18.007.065,43.093C776.079,1030.367,721.632,1014.211,724.621,1007.5Z" transform="translate(-699.859 -889.557)" fill="#ffb27d"/>
      <path id="Path_6284" data-name="Path 6284" d="M800.794,922.716s-.265,3.668-.273,7.124c-6.523-.184-9.97-6.134-11.383-9.432Z" transform="translate(-745.068 -889.875)" fill="#e8945b"/>
      <path id="Path_6285" data-name="Path 6285" d="M798.825,878.376s-15.433.255-15.443-9.359-2.01-16.054,7.843-16.623,11.771,3.1,12.556,6.3S802.839,878.062,798.825,878.376Z" transform="translate(-740.92 -842.263)" fill="#ffb27d"/>
      <path id="Path_6286" data-name="Path 6286" d="M786.707,847.2s-4.226,11.278-10.71,12.945-9.3-.07-9.3-.07a18.364,18.364,0,0,0,6.007-10.849S783.519,841.833,786.707,847.2Z" transform="translate(-729.373 -837.305)" fill="#163560"/>
      <path id="Path_6287" data-name="Path 6287" d="M829.781,850.515s3.133,1.171,4.423,3.456a15.539,15.539,0,0,1,2.086,8.825s3.184-7.666-.394-12C832.1,846.2,829.781,850.515,829.781,850.515Z" transform="translate(-773.495 -839.703)" fill="#163560"/>
      <path id="Path_6288" data-name="Path 6288" d="M823.994,917.879a3.878,3.878,0,0,0,3.2,1.3,2.837,2.837,0,0,0,2.378-1.57A10.366,10.366,0,0,0,823.994,917.879Z" transform="translate(-769.447 -887.729)" fill="#ebf3fa"/>
      <path id="Path_6289" data-name="Path 6289" d="M719.537,994.7a104.745,104.745,0,0,0,0,12.156c.261,4.4,4.707,10.282,5.337,11.738,1.583,3.652,3.367,4.246,3.367,4.246l13.808,3.384,4.855,1.188,15.31-4.573s6.974-19.465,4.173-30.421a84.207,84.207,0,0,0-7.078-18.566s-12.493,12.233-28.761-1.037Z" transform="translate(-696.264 -926.53)" fill="#d8d8d8"/>
      <path id="Path_6290" data-name="Path 6290" d="M733.389,1081.689c.261,4.395.665,8.488,1.3,9.944,1.582,3.652,3.367,4.246,3.367,4.246l13.808,3.384,6-1.763s-20.02-3.034-17.8-20.258Z" transform="translate(-706.075 -999.571)" fill="#f2ccaa"/>
      <path id="Path_6291" data-name="Path 6291" d="M799.581,1149.077s7.582,23.6,8.069,31.635-14.493,114.146-15.1,117.848c-.568,3.49-4.9,5.715-4.9,5.715a6.557,6.557,0,0,1-4.838.372c-3.947-1.115-5.195-2.449-5.195-2.449s-5.9-75.677-2.249-102.71a428.19,428.19,0,0,0,3.695-50.411Z" transform="translate(-734.604 -1049.814)" fill="#b23c3c"/>
      <path id="Path_6292" data-name="Path 6292" d="M688.127,1146.736s-11.565,15.518-12.644,26.009-1.691,47.338-3.989,57.564-10.737,29.907-10.737,61.8a6.362,6.362,0,0,0,3.586,2.8,29.523,29.523,0,0,0,3.154.872,4.958,4.958,0,0,0,5.545-2.632c5.706-11.489,23.882-48.542,24.813-56.233.659-5.443,6.4-41.468,18.917-62.606,3.005-5.075-1.845-25.257-1.845-25.257Z" transform="translate(-655.274 -1048.177)" fill="#ee5a5a"/>
      <path id="Path_6294" data-name="Path 6294" d="M781.338,1136.956s-3.044,2.408-9.091,2.53c-7.223.146-25.12-1.841-25.12-1.841a14.8,14.8,0,0,0-.763,4.568s21.858,5.514,34.523.805A8,8,0,0,0,781.338,1136.956Z" transform="translate(-715.15 -1041.336)" fill="#233862"/>
      <g id="Group_7813" data-name="Group 7813" transform="translate(55.535 96.913)">
        <path id="Path_6295" data-name="Path 6295" d="M827.28,1144.99a3.321,3.321,0,1,1,3.3,3.73A3.537,3.537,0,0,1,827.28,1144.99Zm1.093,0a2.239,2.239,0,1,0,2.2-2.638A2.453,2.453,0,0,0,828.373,1144.99Z" transform="translate(-827.28 -1141.26)" fill="#fff"/>
      </g>
      <rect id="Rectangle_3514" data-name="Rectangle 3514" width="29.695" height="40.647" transform="matrix(-0.754, -0.657, 0.657, -0.754, 30.841, 119.39)" fill="#b5453c"/>
      <path id="Path_6296" data-name="Path 6296" d="M762.089,1151.4s8.205.96,8.18,2.907-2.044,5.949-3.058,6.127-6.678-5.411-6.678-5.411Z" transform="translate(-725.06 -1051.437)" fill="#ffb27d"/>
      <path id="Path_6297" data-name="Path 6297" d="M693,972.814s-10.955.768-15.154,10.976-12.167,27.348-12.167,30.231,4.451,11.772,28.353,16.882c0,0,2.472-2.6,2.323-4.657,0,0-14.92-12.816-14.88-14.314.076-2.833,2.446-6.573,15.546-19.677C700.586,988.693,693,972.814,693,972.814Z" transform="translate(-658.72 -926.53)" fill="#d8d8d8"/>
    </g>
    <g id="Group_7823" data-name="Group 7823" transform="translate(1068.878 3625.094)">
      <g id="Group_7818" data-name="Group 7818" transform="translate(4.674 71.919)">
        <g id="Group_7815" data-name="Group 7815" transform="translate(30.412 68.623)">
          <path id="Path_6298" data-name="Path 6298" d="M1156.486,1537.175h-.1a1.09,1.09,0,0,1-1.09-1.115l1.653-71.657,4.87-.568-4.153,72.23A1.178,1.178,0,0,1,1156.486,1537.175Z" transform="translate(-1155.292 -1463.835)" fill="#b0d4ff"/>
        </g>
        <g id="Group_7816" data-name="Group 7816" transform="translate(2.032 68.623)">
          <path id="Path_6299" data-name="Path 6299" d="M1062.068,1537.175h-.1a1.091,1.091,0,0,1-1.09-1.115l1.653-71.657,4.87-.568-4.153,72.23A1.178,1.178,0,0,1,1062.068,1537.175Z" transform="translate(-1060.873 -1463.835)" fill="#95c0f4"/>
        </g>
        <g id="Group_7817" data-name="Group 7817" transform="translate(76.208 68.623)">
          <path id="Path_6300" data-name="Path 6300" d="M1312.988,1537.175h.1a1.091,1.091,0,0,0,1.09-1.115l-1.653-71.657-4.87-.568,4.153,72.23A1.178,1.178,0,0,0,1312.988,1537.175Z" transform="translate(-1307.659 -1463.835)" fill="#b0d4ff"/>
        </g>
        <path id="Path_6301" data-name="Path 6301" d="M1054.111,1300.27v-49.1a15.644,15.644,0,0,1,15.644-15.644h35.377a15.644,15.644,0,0,1,15.644,15.644v50.979Z" transform="translate(-1054.111 -1235.523)" fill="#b0d4ff"/>
        <path id="Rectangle_3515" data-name="Rectangle 3515" d="M0,0H73a0,0,0,0,1,0,0V7.752a0,0,0,0,1,0,0H7.752A7.752,7.752,0,0,1,0,0V0A0,0,0,0,1,0,0Z" transform="translate(0 64.747)" fill="#95c0f4"/>
        <rect id="Rectangle_3516" data-name="Rectangle 3516" width="58.623" height="7.752" rx="3.876" transform="translate(26.039 64.747)" fill="#b0d4ff"/>
      </g>
      <g id="Group_7822" data-name="Group 7822">
        <path id="Path_6302" data-name="Path 6302" d="M1229.219,1406.869c-5.068,8.821-11.443,12.226-11.443,12.226h-26.519S1233.085,1400.141,1229.219,1406.869Z" transform="translate(-1145.361 -1282.439)" fill="#4c6474"/>
        <g id="Group_7819" data-name="Group 7819">
          <path id="Path_6303" data-name="Path 6303" d="M1248.324,1586.109a2.451,2.451,0,0,0-.437,2.622.02.02,0,0,0,.007.013c.633,1.748,2.722,3.7,5.149,5.649.31.25.586.478.827.689.063.056.126.111.185.167s.1.088.143.129c2.264,2.087,1.412,2.564,5.478,6.8,4.636,4.824,7.829,4.911,8.737,4.472.768-.375-.793-2.933-2.522-5.809-.084-.139-.166-.279-.252-.42-.231-.382-.459-.77-.688-1.154-2.027-3.461-1.506-5.085-1.026-10.236.39-4.186,6.512-23.385,6.512-23.385l-8.885-1.531s-2.676,15.288-5.624,17.642c-1.576,1.255-3.341,1.271-4.856,2.2q-.161.1-.315.2A11.648,11.648,0,0,0,1248.324,1586.109Z" transform="translate(-1184.834 -1393.431)" fill="#ffb27d"/>
          <path id="Path_6304" data-name="Path 6304" d="M1248.324,1632.286a2.452,2.452,0,0,0-.437,2.622.021.021,0,0,0,.007.013c.775,1.746,2.812,3.688,5.158,5.631.307.255.577.488.818.707.063.056.126.111.185.167s.1.088.143.129c2.264,2.087,1.412,2.564,5.478,6.8,4.636,4.824,7.829,4.911,8.737,4.472.768-.375-.793-2.933-2.522-5.809a19.759,19.759,0,0,1-8.265-6.09c-2.792-3.562-4.654-8.14-6.555-10.792q-.161.1-.315.2A11.656,11.656,0,0,0,1248.324,1632.286Z" transform="translate(-1184.834 -1439.608)" fill="#233862"/>
          <path id="Path_6305" data-name="Path 6305" d="M1471.633,1574.267c.549,2.743,4.458,2.285,8.826,1.218s3.33.2,9.546-.486,8.1-3.006,8.289-3.931c.17-.821-2.9-1.11-6.2-1.489-.414-.046-.831-.1-1.247-.149-3.72-.467-6.444-2.867-9.823-4.838-3.2-1.867-7.977-9.475-7.977-9.475l-8.526.675s4.474,6.8,6.2,9.749c1.018,1.738.964,4.036.837,5.81A10.934,10.934,0,0,0,1471.633,1574.267Z" transform="translate(-1336.495 -1387.138)" fill="#ffb27d"/>
          <path id="Path_6306" data-name="Path 6306" d="M1496.693,1609.14c4.368-1.067,3.33.2,9.546-.486s8.1-3.006,8.289-3.931c.17-.82-2.9-1.11-6.2-1.489l-.031.063a17.523,17.523,0,0,1-8.9,2.767c-4.218.1-8.685-1.106-11.6-1.059a10.93,10.93,0,0,0,.066,2.916C1488.415,1610.665,1492.325,1610.208,1496.693,1609.14Z" transform="translate(-1352.729 -1420.794)" fill="#233862"/>
          <path id="Path_6307" data-name="Path 6307" d="M1311.407,1405.661l-7.97,21.446-10.405,28a16.863,16.863,0,0,1-5.527-.505,23.978,23.978,0,0,1-5.346-2.6s2.889-30.066,8.279-47.325c1.381-4.43,2.929-8.013,4.637-10.03C1303.43,1384.771,1311.407,1405.661,1311.407,1405.661Z" transform="translate(-1208.941 -1273.045)" fill="#3a4a55"/>
          <path id="Path_6308" data-name="Path 6308" d="M1173.124,1314.181c-5.221-1.684-20.113.478-35.073,3.407l-3.132-5.166-32.312-2.524s-10.662,23.645-4.825,38.711a5.464,5.464,0,0,0,5.469,3.682s.471,0,.472,0,19.231-.011,25.476-.011c16.069,0,34.008-11.046,36.328-11.51,3.8-.76,5.318,6.837,9.116,14.813s35.7,35.324,35.7,35.324,4.9.049,6.929-.711a6.827,6.827,0,0,0,2.975-1.878S1184.9,1317.979,1173.124,1314.181Z" transform="translate(-1078.76 -1215.624)" fill="#4c6474"/>
          <path id="Path_6309" data-name="Path 6309" d="M1093.722,998.956c-4.139-2.174-10.437-2.468-11.46-2.605-12.244-1.645-19.613,16.146-20.047,21.537-.8,9.937-6.056,11.452-13.455,17.675-14.836,12.478-10.485,26.977-2.373,32.365,4.867,3.233,13.447,0,13.447,0,.121.085,23.463-13.049,34.969-19.384C1112.052,1046.092,1104.27,1004.495,1093.722,998.956Z" transform="translate(-1038.835 -996.244)" fill="#233862"/>
          <path id="Path_6310" data-name="Path 6310" d="M1156.05,1110.206c.051.033-5.661,1.983-9.48.291-3.593-1.588-6.315-7.5-6.262-7.5,1.634-.075,3.429-1.5,4.811-10.881l.7.25,11.7,4.211s-.848,3.755-1.4,7.33C1155.659,1106.906,1155.411,1109.781,1156.05,1110.206Z" transform="translate(-1109.725 -1063.299)" fill="#ffb27d"/>
          <path id="Path_6311" data-name="Path 6311" d="M1170.334,1097.156s-.848,3.755-1.4,7.33c-6.721-1.21-9.359-7.907-10.306-11.541Z" transform="translate(-1122.542 -1063.88)" fill="#ed975d"/>
          <path id="Path_6312" data-name="Path 6312" d="M1169.349,1053.817s-16.011-2.149-14.519-12.1.43-16.929,10.715-15.978,11.7,5.045,12.008,8.488S1173.552,1054.119,1169.349,1053.817Z" transform="translate(-1119.814 -1016.814)" fill="#ffb27d"/>
          <path id="Path_6313" data-name="Path 6313" d="M1166.28,1026.728s-10.249,8.832-17.221,9.544-9.611-1.526-9.611-1.526a27.223,27.223,0,0,0,6.582-8.918,4.9,4.9,0,0,1,4.041-2.889C1155.049,1022.509,1164.486,1022.313,1166.28,1026.728Z" transform="translate(-1109.124 -1014.768)" fill="#233862"/>
          <path id="Path_6314" data-name="Path 6314" d="M1207.4,1028.946s3.429,3.316,4.508,5.774c1.042,2.373,1.355,8.048.525,10.3,0,0,5.342-10.388,2.318-15.435C1211.546,1024.236,1207.4,1028.946,1207.4,1028.946Z" transform="translate(-1156.654 -1017.777)" fill="#233862"/>
          <path id="Path_6315" data-name="Path 6315" d="M1137.559,1158.234c-.484,32.41-.133,25.637-3.678,28.713-.854.74-3.256,1.182-6.417,1.391-9.938.659-27.407-.978-28.072-2.815-2.292-6.355-.674-8.329-2.586-18.058-.2-1.035-.446-2.155-.736-3.374-1.595-6.682-3.146-8.956,2.511-19.691,5.13-9.724,10.46-17.617,10.939-17.332,13.535,8.035,14.627,1.281,14.627,1.281S1137.8,1142.425,1137.559,1158.234Z" transform="translate(-1077.752 -1087.741)" fill="#fff"/>
          <path id="Path_6316" data-name="Path 6316" d="M1303.438,1456.616l-10.405,28a16.863,16.863,0,0,1-5.527-.505,23.978,23.978,0,0,1-5.346-2.6s2.889-30.066,8.279-47.325Z" transform="translate(-1208.941 -1302.555)" fill="#3a4a55"/>
          <path id="Path_6317" data-name="Path 6317" d="M1192.92,1131.342s13.927,2.361,15.563,8.358,11.26,41.248,11.26,41.248-7.08,1.272-10.351-2-11.381-30.346-11.381-30.346Z" transform="translate(-1146.524 -1090.736)" fill="#fff"/>
          <path id="Path_6318" data-name="Path 6318" d="M1132.611,1250.952c-9.938.659-27.407-.978-28.072-2.814-2.292-6.354-.674-8.329-2.586-18.058l4.793-13.5s-.792,15.03,3.64,18.983,18.148,7.631,20.3,10.934A12.1,12.1,0,0,1,1132.611,1250.952Z" transform="translate(-1082.899 -1150.356)" fill="#ebf3ff"/>
          <path id="Path_6319" data-name="Path 6319" d="M1166.072,1306.367s9.8-2.183,11.386-1.312,5.448,4.039,5.932,5.141-3.522-.837-4.825-1.186c-.844-.227-3.065.545-4.165.912-4.627,1.542-7.463.749-7.463.749Z" transform="translate(-1127.746 -1212.093)" fill="#ffb27d"/>
          <path id="Path_6320" data-name="Path 6320" d="M1070.319,1127.061s-13.165.811-17.722,7.167c-6.415,8.948-19.141,47.08-11.848,52.166,8.214,5.727,37.382,1.5,37.382,1.5s.971-4.537-.38-6.731-23.3-5.74-24.31-6.753,12.662-19.752,12.662-22.791S1070.319,1127.061,1070.319,1127.061Z" transform="translate(-1038.559 -1087.742)" fill="#fff"/>
          <path id="Path_6321" data-name="Path 6321" d="M1205.534,1314.61a18.964,18.964,0,0,0,2.728,2.966,2.008,2.008,0,0,0,1.109.237l-1.384-2.492Z" transform="translate(-1155.347 -1218.92)" fill="#ffb27d"/>
          <path id="Path_6322" data-name="Path 6322" d="M1203.955,1305.531l5.973,2.9a1.065,1.065,0,0,1-.99.382,14.253,14.253,0,0,1-2.59-.712Z" transform="translate(-1154.243 -1212.57)" fill="#ffb27d"/>
        </g>
        <g id="Group_7821" data-name="Group 7821" transform="translate(38.326 67.373)">
          <g id="Group_7820" data-name="Group 7820">
            <path id="Path_6323" data-name="Path 6323" d="M1214.609,1255.741h47.246l14.212-35.342h-47.173Z" transform="translate(-1200.021 -1220.398)" fill="#42495b"/>
            <path id="Path_6324" data-name="Path 6324" d="M1228.46,1333.4h-62.388v1.377h61.834Z" transform="translate(-1166.072 -1299.437)" fill="#292e3a"/>
          </g>
          <path id="Path_6325" data-name="Path 6325" d="M1321.437,1273.957a1.637,1.637,0,0,0-1.6-2.25,3.224,3.224,0,0,0-2.894,2.25,1.637,1.637,0,0,0,1.6,2.25A3.224,3.224,0,0,0,1321.437,1273.957Z" transform="translate(-1271.529 -1256.285)" fill="#fff"/>
        </g>
      </g>
    </g>
    <g id="Group_7826" data-name="Group 7826" transform="translate(1096.677 3728.133)">
      <g id="Group_7824" data-name="Group 7824" transform="translate(264.828 9.466)">
        <path id="Path_6326" data-name="Path 6326" d="M2019.191,1473.239h.138a1.489,1.489,0,0,0,1.442-1.562l-2.187-100.329-6.44-.8,5.492,101.131A1.6,1.6,0,0,0,2019.191,1473.239Z" transform="translate(-2012.144 -1370.553)" fill="#42495b"/>
      </g>
      <g id="Group_7825" data-name="Group 7825" transform="translate(9.182 9.466)">
        <path id="Path_6327" data-name="Path 6327" d="M1163.177,1473.239h-.138a1.488,1.488,0,0,1-1.442-1.562l2.186-100.329,6.44-.8-5.492,101.131A1.6,1.6,0,0,1,1163.177,1473.239Z" transform="translate(-1161.598 -1370.553)" fill="#42495b"/>
      </g>
      <path id="Rectangle_3517" data-name="Rectangle 3517" d="M6.053,0H277.664a6.053,6.053,0,0,1,6.053,6.053v0a6.053,6.053,0,0,1-6.053,6.053H6.053A6.053,6.053,0,0,1,0,6.053v0A6.053,6.053,0,0,1,6.053,0Z" transform="translate(0 0)" fill="#dbdbdb"/>
    </g>
    <g id="Group_7827" data-name="Group 7827" transform="translate(1372.182 3574.816)">
      <path id="Path_6329" data-name="Path 6329" d="M2614.354,1690.1a30.1,30.1,0,0,1,2.06-7.717c1.439-2.877,10.594-1.046,10.594-1.046s1.831,1.57,2.223,8.894Z" transform="translate(-2554.028 -1424.743)" fill="#233862"/>
      <path id="Path_6330" data-name="Path 6330" d="M2442.778,1676c2.151-1.313.927-11.109.927-11.109s-10.024-8.019-11.4-1.88-9.523,8.9-14.16,9.649c-3.2.519-4.191,2.292-4.5,3.339Z" transform="translate(-2413.645 -1410.708)" fill="#233862"/>
      <path id="Path_6331" data-name="Path 6331" d="M2500.182,1300.58a46.252,46.252,0,0,0-.736,5.415c-.932,18.177-15.3,59.738-17.871,60.707-3.977,1.5-10.239-1.689-13.516-2.733a2.81,2.81,0,0,1-1.972-3.192c7.115-32.713,9.731-79.818,10.682-107.706a126.54,126.54,0,0,1,2.892-23.751s35.045-9.35,35.253,2.478C2515.1,1242.264,2503.308,1283.313,2500.182,1300.58Z" transform="translate(-2450.286 -1106.533)" fill="#3a4a55"/>
      <path id="Path_6333" data-name="Path 6333" d="M2553.713,1235.926l18.526,134.274s8.136,1.962,14.463.392c0,0,5.424-71.413,4.972-88.677s3.893-46.2-.992-49.388S2553.713,1235.926,2553.713,1235.926Z" transform="translate(-2511.613 -1110.62)" fill="#4c6474"/>
      <path id="Path_6334" data-name="Path 6334" d="M2561.886,1047.185a2.572,2.572,0,0,1-1.855,2.656c-2.585.75-5.564,1.272-11.311,2.462a109.678,109.678,0,0,1-21.581,2.168c-14.191.091-19.564-4.8-19.564-4.8-.611.011.323-2.959,1.165-17.081.285-4.784.561-10.847.759-18.511.179-6.9.3-15.087.311-24.806.015-11.691,18.111-24.268,18.445-24.268l0,.005c0,1.683,2.653,4.789,6.739,5.058,4.85.317,10.8-2.1,10.8-4.889,0-.029,8.767,14.025,11.881,29C2559.251,1001.715,2558.615,1001.513,2561.886,1047.185Z" transform="translate(-2479.206 -924.117)" fill="#ee5a5a"/>
      <path id="Path_6335" data-name="Path 6335" d="M2505.912,965.007s-16.827-.143-20.877,5.537-12.929,36.233-8.3,46.4,13.3-4.206,18.116-10.433S2505.912,965.007,2505.912,965.007Z" transform="translate(-2456.863 -924.118)" fill="#ee5a5a"/>
      <path id="Path_6336" data-name="Path 6336" d="M2576.147,933.114l.01,1.739s-.474,5.44,6.225,6.234,11.67-1.016,11.489-5.214a60.559,60.559,0,0,1-1.208-9.277,18.917,18.917,0,0,1,.238-3.258l-12.98-.259-3.823.624Z" transform="translate(-2527.27 -894.793)" fill="#ffb27d"/>
      <path id="Path_6337" data-name="Path 6337" d="M2576.1,923.7l.05,9.409a10.978,10.978,0,0,0,4.679,1.032c5.966,0,9.822-4.375,11.837-7.55a18.917,18.917,0,0,1,.238-3.258l-12.98-.259Z" transform="translate(-2527.27 -894.793)" fill="#e2915a"/>
      <path id="Path_6338" data-name="Path 6338" d="M2585.449,869.49c-1.506,8.105-11.965,7.839-16.484,7.329-1.272-.141-2.072-.3-2.072-.3-1.434-.383-2.234-2.642-2.606-5.6-.738-5.856.195-14.452,1.183-16.65,1.489-3.308,4.293-6.886,14.825-4.3S2587.381,859.105,2585.449,869.49Z" transform="translate(-2518.823 -843.033)" fill="#ffb27d"/>
      <path id="Path_6339" data-name="Path 6339" d="M2504.873,1040.764s-6.508,14.372-6.318,18.681a22.462,22.462,0,0,1,6.318.812C2509.961,1061.774,2504.873,1040.764,2504.873,1040.764Z" transform="translate(-2473.031 -977.105)" fill="#b23c3c"/>
      <path id="Path_6340" data-name="Path 6340" d="M2557.843,832.484a34.852,34.852,0,0,0,10.1-2.734c4.438-1.93,10.037.2,11.854,1.153a2.7,2.7,0,0,0-.443-1.094,2.438,2.438,0,0,1,.936,1.387c.084.062.122.1.1.119a3.131,3.131,0,0,1,1.52.1s-.416-.059-.565.208a.247.247,0,0,1-.067.074c6.923,3.345,7.562,14.286,5.334,16.818-2.68,3.046-6.727,9.938-6.727,9.938a12.514,12.514,0,0,1,.149-4.334c.487-2.68-1.827-2.68-4.751-3.9s-.487-4.63-3.046-6.7-11.939-.853-11.818-2.437C2556.941,839.813,2557.843,832.841,2557.843,832.484Z" transform="translate(-2514.429 -828.967)" fill="#233862"/>
      <path id="Path_6341" data-name="Path 6341" d="M2551.119,1128.9c-2.747,11.032-32.458,16.733-39.212,17.891.285-4.784.561-10.847.759-18.511Z" transform="translate(-2482.373 -1038.316)" fill="#b23c3c"/>
      <path id="Path_6342" data-name="Path 6342" d="M2616.392,1115.215c.283,0,6.605-.943,7.737-1.51s6.311-7.926,2.92-9.813-12.5,5.661-12.5,5.661Z" transform="translate(-2554.167 -1021.047)" fill="#ffb27d"/>
      <path id="Path_6343" data-name="Path 6343" d="M2492.209,1118.806s24.45,1.326,40.859-2.187a7.053,7.053,0,0,0-4.743-6.846s-25.574-5.42-31.717-3.911S2492.209,1118.806,2492.209,1118.806Z" transform="translate(-2468.436 -1022.451)" fill="#ee5a5a"/>
      <path id="Path_6344" data-name="Path 6344" d="M2630.963,1001.687c-5.074,6.118-11.708,11.113-19.021,12.283v0a13.627,13.627,0,0,1-1.81-8.166,16.349,16.349,0,0,1,2.663-7.5,16.564,16.564,0,0,0,1.438-2.9c3.993-10.189,3.4-29.826,3.4-29.826s16.958,1.776,22.242,9.324C2643.109,979.53,2638.981,992.014,2630.963,1001.687Z" transform="translate(-2551.039 -924.521)" fill="#ee5a5a"/>
      <path id="Path_6345" data-name="Path 6345" d="M2569.582,927.638c-1.272-.141-2.072-.3-2.072-.3-1.434-.383-2.234-2.642-2.606-5.6a7.082,7.082,0,0,1,4.435,3.625A5.2,5.2,0,0,1,2569.582,927.638Z" transform="translate(-2519.441 -893.851)" fill="#e2915a"/>
      <path id="Path_6346" data-name="Path 6346" d="M2550.673,933.073s-5.857-9.664-1.3-10.084a6.887,6.887,0,0,1,7.042,3.794c.658,1.132-.172,6.24-.172,6.24Z" transform="translate(-2507.363 -894.702)" fill="#ffb27d"/>
      <path id="Path_6347" data-name="Path 6347" d="M2577.028,995.213a12.605,12.605,0,0,1-1,3.356,16.067,16.067,0,0,1-3.729,5.137v0c-15.21-6.865-18.288-30.441-18.8-43.394-.208-5.207,0-8.7,0-8.7,6.862-2.272,8.79,1.676,8.79,1.676s8.1,19.266,12.3,31.856C2576.2,989.962,2577.234,993.8,2577.028,995.213Z" transform="translate(-2511.397 -914.256)" fill="#ee5a5a"/>
      <path id="Path_6348" data-name="Path 6348" d="M2591.536,1013.3c-5.074,6.118-11.708,11.113-19.021,12.283v0c-15.21-6.865-18.288-30.441-18.8-43.394,0,0,7.2,26.1,16.993,35.228a10.685,10.685,0,0,0,5.541,3.031s12.353-3.491,14.944-6.778A1.405,1.405,0,0,1,2591.536,1013.3Z" transform="translate(-2511.611 -936.136)" fill="#b23c3c"/>
    </g>
    <g id="Group_7829" data-name="Group 7829" transform="translate(1223.612 3692.791)">
      <g id="Group_7828" data-name="Group 7828" transform="translate(0 0)">
        <path id="Path_6349" data-name="Path 6349" d="M1614.827,1256.816h-47.246l-14.212-35.342h47.173Z" transform="translate(-1553.369 -1221.474)" fill="#42495b"/>
        <path id="Path_6350" data-name="Path 6350" d="M1598.813,1334.479H1661.2v1.377h-61.834Z" transform="translate(-1585.154 -1300.513)" fill="#292e3a"/>
      </g>
      <path id="Path_6351" data-name="Path 6351" d="M1640.122,1275.032a1.637,1.637,0,0,1,1.6-2.25,3.224,3.224,0,0,1,2.894,2.25,1.637,1.637,0,0,1-1.6,2.249A3.223,3.223,0,0,1,1640.122,1275.032Z" transform="translate(-1613.983 -1257.36)" fill="#fff"/>
    </g>
    <path id="Path_6352" data-name="Path 6352" d="M919.612,1707.178v.3a.94.94,0,0,1-.984.876H143.951a.94.94,0,0,1-.984-.876v-.3a.94.94,0,0,1,.984-.876H918.628A.939.939,0,0,1,919.612,1707.178Z" transform="translate(656.727 2132.698)" fill="#2e3552"/>
    <g id="Group_7878" data-name="Group 7878" transform="translate(1477.264 3636.652)">
      <g id="Group_7877-2" data-name="Group 7877" transform="translate(0 0)">
        <g id="Group_7874-2" data-name="Group 7874">
          <g id="Group_7871-2" data-name="Group 7871" transform="translate(13.222)">
            <path id="Path_6413-2" data-name="Path 6413" d="M77.437,269.168a25.38,25.38,0,0,1,.815,4.613c-.042.077-.034.362.012.285.009.253.4.207.4-.043,0-.163-.008-.326-.016-.484a29.045,29.045,0,0,1,3.268-2.8,6.117,6.117,0,0,0,1.791-2.85c.878-3.024.055-6.228,1.11-9.245.91-2.6,2.542-4.862,3.923-7.218a17.092,17.092,0,0,0,2.641-8.029c.086-2.235-.181-5.213-1.883-6.887-1.8-1.777-4.041-.445-5.423,1.139-4.006,4.6-5.859,10.406-6.608,16.347a64.3,64.3,0,0,0-.743,9.914A26.689,26.689,0,0,0,77.437,269.168Z" transform="translate(-76.706 -235.662)" fill="#ffc9b1"/>
            <path id="Path_6414-2" data-name="Path 6414" d="M90.455,292.869a56.6,56.6,0,0,1,.11-9.314c-.005-.011-.015-.019-.016-.034C90.5,281,90.3,278.5,90.4,275.976a44.81,44.81,0,0,1,1.109-8.094c.007-.031.055-.024.049.008a52.746,52.746,0,0,0-.876,7.915q-.077,2.134.034,4.267c.025.462.067.928.1,1.394v0A49.812,49.812,0,0,1,98.3,261.641c.052-.082.2.006.146.09a51.77,51.77,0,0,0-6.1,14.7c1.926-3.568,4.836-6.5,6.994-9.932.012-.019.043,0,.033.02-1.939,3.817-5.143,6.828-7.185,10.589-.354,1.533-.644,3.08-.86,4.637a51.916,51.916,0,0,0-.465,6.442,74.086,74.086,0,0,0,3.351-6.61c.026-.062.114-.02.094.042a25.794,25.794,0,0,1-3.451,7.059c-.008,1.525.037,3.051.127,4.574.24,4.066.934,8.078,1.255,12.131a.094.094,0,0,1-.186.02A93.185,93.185,0,0,1,90.455,292.869Z" transform="translate(-88.926 -253.543)" fill="#ff6b6b"/>
            <path id="Path_6415-2" data-name="Path 6415" d="M106.8,261.263c.012-.03.056-.01.045.02-.743,2.054-1.162,4.135-1.7,6.24a.078.078,0,0,1-.153-.025A22.394,22.394,0,0,1,106.8,261.263Z" transform="translate(-100.948 -253.295)" fill="#ff6b6b"/>
          </g>
          <g id="Group_7872-2" data-name="Group 7872" transform="translate(0 14.265)">
            <path id="Path_6416-2" data-name="Path 6416" d="M118.847,283.864a30.952,30.952,0,0,0,1.708,3.509c1.337,2.429,2.732,4.654,2.985,7.482a17.376,17.376,0,0,0,.538,3.748,11.245,11.245,0,0,0,1.494,2.934c1.45,2.112,3.261,3.931,4.6,6.122a25.782,25.782,0,0,1,3.059,7.377c.033.142.257.1.224-.038a.134.134,0,0,1-.009-.033.046.046,0,0,0,.013-.03,52.987,52.987,0,0,0-2.121-17.984,62.208,62.208,0,0,0-2.939-7.481,17.686,17.686,0,0,0-3.965-5.705c-1.129-1.016-3.577-2.943-5.183-1.923C118.486,282.333,118.544,283.107,118.847,283.864Z" transform="translate(-118.638 -281.553)" fill="#ffc9b1"/>
            <path id="Path_6417-2" data-name="Path 6417" d="M114.981,309.089a49.686,49.686,0,0,0,3.524,5.066c.587.767,1.182,1.527,1.768,2.294.277.363.587.724.842,1.113-.16-.638-.316-1.276-.479-1.913a75.055,75.055,0,0,0-2.7-9.1,61.408,61.408,0,0,0-4.211-8.254c-.041-.07.072-.121.114-.053,1.281,2.107,2.582,4.212,3.659,6.433a33.78,33.78,0,0,1,1.553,3.817,58.752,58.752,0,0,0-2.067-8.156c-.008-.024.026-.041.037-.017a27.905,27.905,0,0,1,2.146,8.484.025.025,0,0,1,0,.014c.263.787.5,1.583.73,2.384.955,3.392,1.794,6.821,2.572,10.26a36.7,36.7,0,0,0-.585-6.743c-.01-.051.067-.063.08-.013a21.383,21.383,0,0,1,.586,7.108q.441,1.962.859,3.928c.6,2.8,1.328,5.64,1.677,8.478a.057.057,0,0,1-.112.019c-.416-1.53-.667-3.116-1.007-4.665s-.693-3.105-1.054-4.654c-.527-2.256-1.078-4.506-1.64-6.753a12.1,12.1,0,0,0-1.646-2.247c-.6-.758-1.194-1.517-1.775-2.288a34.149,34.149,0,0,1-2.918-4.515C114.91,309.08,114.962,309.056,114.981,309.089Z" transform="translate(-108.678 -293.032)" fill="#ff6b6b"/>
            <path id="Path_6418-2" data-name="Path 6418" d="M136,324.842a31.62,31.62,0,0,1,3.449,5.48c.012.025-.026.051-.042.026-1.161-1.819-2.3-3.652-3.46-5.472C135.922,324.845,135.973,324.814,136,324.842Z" transform="translate(-129.95 -311.378)" fill="#ff6b6b"/>
          </g>
          <g id="Group_7873-2" data-name="Group 7873" transform="translate(16.333 15.505)">
            <path id="Path_6419-2" data-name="Path 6419" d="M73.64,292.362c-.786,1.354-1.683,2.979-1.345,4.6.214,1.029.967,1.864,1.1,2.913.3,2.316-2,3.847-3.674,4.941-4.164,2.732-9.874,5.167-10.631,10.747-.029.2-.37.148-.346-.045a.123.123,0,0,1,.008-.037c-.008-.012-.021-.016-.021-.033a21.376,21.376,0,0,1,.078-8.521,27.126,27.126,0,0,1,3.358-7.986c2.505-4.275,5.159-8.652,8.949-11.927,1.049-.905,3.2-2.534,4.032-.49C75.961,288.515,74.6,290.713,73.64,292.362Z" transform="translate(-58.114 -285.543)" fill="#ffc9b1"/>
            <path id="Path_6420-2" data-name="Path 6420" d="M87.792,323.5c-2.761,2.988-7.15,4.664-9.526,8.011a33.52,33.52,0,0,1,7.321-13.752.108.108,0,0,0-.152-.152,27.1,27.1,0,0,0-5.983,8.665,38.743,38.743,0,0,1,2.576-6.589c.039-.081-.076-.151-.122-.071a25.125,25.125,0,0,0-2.777,7.406c-3.131,7.58-3.421,16.47-2.765,24.459.009.114.183.118.18,0-.18-6.3-.078-12.7,1.431-18.851.032-.128.067-.255.1-.383,2.585-3.6,6.955-5.274,9.765-8.7C87.867,323.519,87.822,323.472,87.792,323.5Z" transform="translate(-76.077 -307.621)" fill="#ff6b6b"/>
            <path id="Path_6421-2" data-name="Path 6421" d="M78.2,328.341c-1.45,1.329-2.876,2.689-4.328,4.018-.015.013,0,.039.021.028a21.184,21.184,0,0,0,4.392-3.96A.061.061,0,0,0,78.2,328.341Z" transform="translate(-65.848 -315.025)" fill="#ff6b6b"/>
            <path id="Path_6422-2" data-name="Path 6422" d="M77.538,309.8a45.525,45.525,0,0,1-4.336,5.964.026.026,0,0,0,.036.036,21.01,21.01,0,0,0,4.377-5.955A.045.045,0,0,0,77.538,309.8Z" transform="translate(-64.955 -302.246)" fill="#ff6b6b"/>
          </g>
        </g>
        <g id="Group_7876-2" data-name="Group 7876" transform="translate(9.698 46.03)">
          <g id="Group_7875-2" data-name="Group 7875" transform="translate(0 1.892)">
            <path id="Path_6423-2" data-name="Path 6423" d="M107.146,406.907H94.452l1.711-17.078h9.028Z" transform="translate(-94.452 -389.828)" fill="#455a64"/>
            <path id="Path_6424-2" data-name="Path 6424" d="M109.343,392.6H99.716l.279-2.776h9.03Z" transform="translate(-98.285 -389.828)" fill="#263238"/>
          </g>
          <rect id="Rectangle_3547-2" data-name="Rectangle 3547" width="11.899" height="2.727" transform="translate(0.398 0)" fill="#455a64"/>
        </g>
      </g>
    </g>
    <g id="Group_7884" data-name="Group 7884" transform="translate(642 3138)">
      <path id="icons8-android-os" d="M12.975.019a.655.655,0,0,0-.265.088.72.72,0,0,0-.177.994l1.524,2.275a8.971,8.971,0,0,0-4.683,5.81H28.9a8.971,8.971,0,0,0-4.683-5.81L25.744,1.1a.72.72,0,0,0-.177-.994.724.724,0,0,0-.994.2L22.894,2.78a10.972,10.972,0,0,0-7.511,0L13.7.306A.71.71,0,0,0,12.975.019ZM15.25,5.652a1.06,1.06,0,1,1-1.06,1.06A1.061,1.061,0,0,1,15.25,5.652Zm7.776,0a1.06,1.06,0,1,1-1.06,1.06A1.059,1.059,0,0,1,23.027,5.652ZM7.121,10.6A2.121,2.121,0,0,0,5,12.721v9.9a2.121,2.121,0,0,0,2.121,2.121,2.073,2.073,0,0,0,.707-.133V10.733A2.073,2.073,0,0,0,7.121,10.6Zm2.121,0V26.153a2.125,2.125,0,0,0,2.121,2.121H26.915a2.125,2.125,0,0,0,2.121-2.121V10.6Zm21.915,0a2.073,2.073,0,0,0-.707.133V24.607a2.094,2.094,0,0,0,2.828-1.988v-9.9A2.121,2.121,0,0,0,31.156,10.6ZM12.069,29.688v2.828a2.828,2.828,0,0,0,5.655,0V29.688Zm8.483,0v2.828a2.828,2.828,0,0,0,5.655,0V29.688Z" transform="translate(853.861 433.339)" fill="#62c962"/>
      <g id="Ellipse_1345" data-name="Ellipse 1345" transform="translate(838 416)" fill="none" stroke="#62c962" stroke-width="1" stroke-dasharray="5">
        <circle cx="35.5" cy="35.5" r="35.5" stroke="none"/>
        <circle cx="35.5" cy="35.5" r="35" fill="none"/>
      </g>
    </g>
    <g id="Group_7885" data-name="Group 7885" transform="translate(105 3032)">
      <g id="Ellipse_1344" data-name="Ellipse 1344" transform="translate(764 487)" fill="none" stroke="#333" stroke-width="1" stroke-dasharray="5">
        <circle cx="35.5" cy="35.5" r="35.5" stroke="none"/>
        <circle cx="35.5" cy="35.5" r="35" fill="none"/>
      </g>
      <path id="icons8-apple-logo" d="M32.875,24.8a23.293,23.293,0,0,1-2.1,3.934c-1.369,2.083-3.3,4.683-5.686,4.7-2.124.019-2.672-1.386-5.556-1.361s-3.482,1.388-5.609,1.366C11.532,33.418,9.705,31.076,8.336,29,4.507,23.164,4.1,16.327,6.468,12.691A8.473,8.473,0,0,1,13.278,8.6c2.534,0,4.127,1.391,6.22,1.391,2.033,0,3.27-1.394,6.2-1.394a8.277,8.277,0,0,1,6.231,3.289A7.133,7.133,0,0,0,32.875,24.8Zm-9.4-18.534A7.106,7.106,0,0,0,25.054,1,7.689,7.689,0,0,0,20.1,3.667,6.61,6.61,0,0,0,18.473,8.8,6.465,6.465,0,0,0,23.473,6.267Z" transform="translate(780.826 504.78)" fill="#333"/>
    </g>
    <g id="Group_7886" data-name="Group 7886" transform="translate(-304 3134)">
      <g id="Ellipse_1346" data-name="Ellipse 1346" transform="translate(1426 440)" fill="none" stroke="#ef0c14" stroke-width="1" stroke-dasharray="5">
        <circle cx="35.5" cy="35.5" r="35.5" stroke="none"/>
        <circle cx="35.5" cy="35.5" r="35" fill="none"/>
      </g>
      <g id="react" transform="translate(1437.116 454.123)">
        <path id="Path_2035" data-name="Path 2035" d="M.754,19.916c0,3.226,3.15,6.237,8.115,7.934-.992,4.992-.178,9.015,2.541,10.583,2.794,1.612,6.957.5,10.908-2.958,3.851,3.314,7.744,4.619,10.46,3.046,2.792-1.616,3.641-5.912,2.622-11.06,5.172-1.71,8.065-4.277,8.065-7.545,0-3.151-3.155-5.876-8.054-7.563,1.1-5.361.168-9.286-2.664-10.919-2.729-1.574-6.667-.2-10.575,3.2-4.066-3.61-7.964-4.712-10.793-3.075-2.727,1.578-3.5,5.675-2.51,10.759C4.071,13.99.754,16.778.754,19.916Z" transform="translate(1.99 1.222)" fill="#f4f4f4"/>
        <path id="Path_2038" data-name="Path 2038" d="M111.67,94.665a3.626,3.626,0,1,1-3.626,3.626,3.626,3.626,0,0,1,3.626-3.626" transform="translate(-87.525 -77.142)" fill="#ff6b6b"/>
        <g id="Ellipse_112" data-name="Ellipse 112" transform="translate(3.884 13.8)" fill="none" stroke="#42495b" stroke-width="1.5">
          <ellipse cx="20" cy="7.5" rx="20" ry="7.5" stroke="none"/>
          <ellipse cx="20" cy="7.5" rx="19.25" ry="6.75" fill="none"/>
        </g>
        <g id="Ellipse_113" data-name="Ellipse 113" transform="matrix(0.485, 0.875, -0.875, 0.485, 21.348, 0.243)" fill="none" stroke="#42495b" stroke-width="1.5">
          <ellipse cx="19.672" cy="7.944" rx="19.672" ry="7.944" stroke="none"/>
          <ellipse cx="19.672" cy="7.944" rx="18.922" ry="7.194" fill="none"/>
        </g>
        <g id="Ellipse_114" data-name="Ellipse 114" transform="translate(40.878 8.53) rotate(121)" fill="none" stroke="#42495b" stroke-width="1.5">
          <ellipse cx="19.672" cy="7.944" rx="19.672" ry="7.944" stroke="none"/>
          <ellipse cx="19.672" cy="7.944" rx="18.922" ry="7.194" fill="none"/>
        </g>
      </g>
    </g>
  </g>
</svg>
