<!DOCTYPE svg PUBLIC "-//W3C//DTD SVG 1.1//EN" "http://www.w3.org/Graphics/SVG/1.1/DTD/svg11.dtd">
<!-- Uploaded to: SVG Repo, www.svgrepo.com, Transformed by: SVG Repo Mixer Tools -->
<svg height="800px" width="800px" version="1.1" id="Layer_1" xmlns="http://www.w3.org/2000/svg" xmlns:xlink="http://www.w3.org/1999/xlink" viewBox="0 0 512 512" xml:space="preserve" fill="#000000">
<g id="SVGRepo_bgCarrier" stroke-width="0"/>
<g id="SVGRepo_tracerCarrier" stroke-linecap="round" stroke-linejoin="round"/>
<g id="SVGRepo_iconCarrier"> <path style="fill:#FFBE35;" d="M426.627,332.822H404.84l-38.204-59.272C399.371,273.55,426.627,300.086,426.627,332.822z"/> <path style="fill:#FFCD60;" d="M366.636,273.55c-32.735,0-60.002,26.537-60.002,59.272h98.206 C404.84,300.086,387.475,273.55,366.636,273.55z"/> <path style="fill:#FFB082;" d="M365.906,175.474v65.394c18.062,0,32.703-14.641,32.703-32.692 C398.608,190.115,383.967,175.474,365.906,175.474z"/> <path style="fill:#FFBE35;" d="M205.366,332.822h-21.787l-38.204-59.272C178.111,273.55,205.366,300.086,205.366,332.822z"/> <path style="fill:#FFCD60;" d="M145.375,273.55c-32.735,0-60.002,26.537-60.002,59.272h98.206 C183.579,300.086,166.215,273.55,145.375,273.55z"/> <path style="fill:#FFB082;" d="M144.645,175.474v65.394c18.062,0,32.703-14.641,32.703-32.692 C177.348,190.115,162.707,175.474,144.645,175.474z"/> <path style="fill:#C20035;" d="M256,276.513l47.888,80.569h32.681C336.569,312.581,300.5,276.513,256,276.513z"/> <path style="fill:#FF0F47;" d="M256,276.513c-44.5,0-80.569,36.069-80.569,80.569h128.458 C303.888,312.581,282.45,276.513,256,276.513z"/> <path style="fill:#FF754F;" d="M256.588,154.929v88.892c24.282-0.305,43.869-20.088,43.869-44.446S280.87,155.234,256.588,154.929z"/> <path style="fill:#FF9269;" d="M256.588,154.929c-0.196-0.011-0.392-0.011-0.588-0.011s-0.392,0-0.588,0.011 c-24.282,0.305-43.869,20.088-43.869,44.446s19.587,44.141,43.869,44.446c0.196,0.011,0.392,0.011,0.588,0.011s0.392,0,0.588-0.011 c12.244-0.61,22.081-20.273,22.081-44.446S268.833,155.539,256.588,154.929z"/> <g> <path style="fill:#FFCD9C;" d="M144.645,175.474c6.024,0,10.915,14.641,10.915,32.703c0,18.051-4.891,32.692-10.915,32.692 c-18.062,0-32.703-14.641-32.703-32.692C111.943,190.115,126.584,175.474,144.645,175.474z"/> <path style="fill:#FFCD9C;" d="M365.906,175.474c6.024,0,10.915,14.641,10.915,32.703c0,18.051-4.891,32.692-10.915,32.692 c-18.062,0-32.703-14.641-32.703-32.692C333.203,190.115,347.844,175.474,365.906,175.474z"/> </g> <path d="M367.352,249.043c22.537,0,40.871-18.335,40.871-40.871s-18.335-40.871-40.871-40.871 c-22.536,0-40.871,18.334-40.871,40.871S344.816,249.043,367.352,249.043z M367.352,183.642c13.527,0,24.53,11.005,24.53,24.53 c0,13.527-11.005,24.53-24.53,24.53c-13.525,0-24.53-11.005-24.53-24.53C342.822,194.647,353.827,183.642,367.352,183.642z"/> <path d="M367.352,265.384c-11.091,0-22.089,2.755-31.807,7.966c-3.976,2.133-5.472,7.085-3.339,11.061 c2.132,3.975,7.082,5.471,11.06,3.339c7.352-3.942,15.682-6.026,24.086-6.026c25.396,0,46.524,18.624,50.448,42.93h-50.448 c-4.513,0-8.17,3.658-8.17,8.17c0,4.512,3.657,8.17,8.17,8.17h59.27c4.513,0,8.17-3.658,8.17-8.17 C434.793,295.636,404.539,265.384,367.352,265.384z"/> <path d="M145.373,324.654H94.2c3.924-24.306,25.052-42.93,50.447-42.93c8.404,0,16.73,2.083,24.083,6.024 c3.976,2.133,8.93,0.638,11.06-3.34c2.133-3.976,0.637-8.928-3.339-11.061c-9.717-5.21-20.714-7.964-31.803-7.964 c-37.188,0-67.44,30.253-67.44,67.44c0,4.512,3.657,8.17,8.17,8.17h59.996c4.513,0,8.17-3.658,8.17-8.17 C153.544,328.311,149.886,324.654,145.373,324.654z"/> <path d="M144.648,249.043c22.537,0,40.871-18.335,40.871-40.871s-18.334-40.871-40.871-40.871s-40.871,18.334-40.871,40.871 S122.112,249.043,144.648,249.043z M144.648,183.642c13.526,0,24.53,11.005,24.53,24.53c0,13.527-11.005,24.53-24.53,24.53 c-13.527,0-24.53-11.005-24.53-24.53C120.117,194.647,131.121,183.642,144.648,183.642z"/> <path d="M256,251.998c29.016,0,52.623-23.606,52.623-52.623S285.016,146.752,256,146.752s-52.623,23.606-52.623,52.623 S226.984,251.998,256,251.998z M256,163.093c20.006,0,36.282,16.276,36.282,36.282S276.007,235.657,256,235.657 c-20.007,0-36.282-16.276-36.282-36.282S235.994,163.093,256,163.093z"/> <path d="M256,268.338c-48.932,0-88.74,39.809-88.74,88.739c0,4.512,3.657,8.17,8.17,8.17h161.139c4.513,0,8.17-3.658,8.17-8.17 C344.739,308.147,304.931,268.338,256,268.338z M184.059,348.907c4.069-36.091,34.781-64.229,71.941-64.229 s67.872,28.138,71.94,64.229H184.059z"/> <path d="M503.83,247.83h-19.837C479.769,128.51,383.49,32.231,264.17,28.009V8.17c0-4.512-3.657-8.17-8.17-8.17 c-4.513,0-8.17,3.658-8.17,8.17v19.838C128.51,32.231,32.231,128.51,28.008,247.83H8.17C3.657,247.83,0,251.488,0,256 s3.657,8.17,8.17,8.17h19.837C32.231,383.49,128.51,479.769,247.83,483.991v19.838c0,4.512,3.657,8.17,8.17,8.17 c4.513,0,8.17-3.658,8.17-8.17v-19.838c119.32-4.222,215.599-100.501,219.822-219.821h19.837c4.513,0,8.17-3.658,8.17-8.17 C512,251.488,508.343,247.83,503.83,247.83z M264.17,467.641v-19.503c0-4.512-3.657-8.17-8.17-8.17c-4.513,0-8.17,3.658-8.17,8.17 v19.503C137.521,463.434,48.565,374.479,44.359,264.17h19.504c4.513,0,8.17-3.658,8.17-8.17s-3.657-8.17-8.17-8.17H44.359 C48.565,137.521,137.521,48.566,247.83,44.36v19.503c0,4.512,3.657,8.17,8.17,8.17c4.513,0,8.17-3.658,8.17-8.17V44.36 c110.309,4.206,199.264,93.161,203.471,203.47h-19.504c-4.513,0-8.17,3.658-8.17,8.17s3.657,8.17,8.17,8.17h19.504 C463.434,374.479,374.479,463.434,264.17,467.641z"/> </g>
</svg>