<svg width="413" height="569" viewBox="0 0 413 569" fill="none" xmlns="http://www.w3.org/2000/svg">
<path d="M136.79 21L137.375 61.3163C137.766 82.6598 150.849 100.05 166.664 100.05H225.634C241.841 100.05 254.923 82.132 254.923 60.525V21" stroke="white" stroke-width="40.8" stroke-linecap="round" stroke-linejoin="round"/>
<path d="M294.368 416.25L255.316 468.95L294.368 521.65" stroke="white" stroke-width="40.8" stroke-miterlimit="10" stroke-linecap="round" stroke-linejoin="round"/>
<path d="M352.947 416.25L392 468.95L352.947 521.65" stroke="white" stroke-width="40.8" stroke-miterlimit="10" stroke-linecap="round" stroke-linejoin="round"/>
<path d="M216.263 548H118.632C50.2895 548 21 495.3 21 416.25V152.75C21 73.7 50.2895 21 118.632 21H274.842C343.184 21 372.474 73.7 372.474 152.75V337.2" stroke="white" stroke-width="40.8" stroke-miterlimit="10" stroke-linecap="round" stroke-linejoin="round"/>
<path d="M171.861 234.941C169.54 236.281 167.098 239.976 166.814 248.038C166.68 251.867 163.466 254.862 159.637 254.727C155.808 254.592 152.813 251.379 152.948 247.55C153.295 237.667 156.421 227.834 164.924 222.925C173.452 218.001 183.562 220.237 192.317 224.907C195.697 226.711 196.976 230.913 195.172 234.294C193.369 237.674 189.166 238.953 185.786 237.149C178.632 233.333 174.19 233.596 171.861 234.941ZM209.06 246.974C212.011 244.529 216.384 244.94 218.829 247.89C223.957 254.08 228.876 261.138 233.341 268.872C242.964 285.538 248.896 302.613 250.496 316.935C251.294 324.084 251.05 330.888 249.38 336.723C247.698 342.602 244.42 347.923 238.924 351.096C232.274 354.936 224.596 354.391 217.568 351.832C210.515 349.265 203.257 344.402 196.337 338.086C193.507 335.502 193.307 331.114 195.89 328.285C198.473 325.455 202.861 325.254 205.691 327.838C211.788 333.403 217.517 337.047 222.315 338.795C227.138 340.55 230.172 340.128 231.987 339.08C233.507 338.203 235.037 336.414 236.041 332.905C237.057 329.353 237.378 324.489 236.707 318.474C235.366 306.467 230.222 291.219 221.325 275.809C217.233 268.722 212.755 262.308 208.144 256.742C205.7 253.792 206.11 249.418 209.06 246.974Z" fill="white"/>
<path d="M261.125 288.902C261.125 286.221 259.146 282.258 252.306 277.982C249.057 275.951 248.07 271.671 250.102 268.422C252.133 265.173 256.413 264.186 259.662 266.217C268.047 271.459 275 279.083 275 288.902C275 298.748 268.009 306.386 259.587 311.633C256.334 313.659 252.055 312.665 250.03 309.413C248.004 306.16 248.998 301.882 252.25 299.856C259.133 295.569 261.125 291.59 261.125 288.902ZM232.104 315.1C232.746 318.877 230.204 322.46 226.426 323.102C218.503 324.448 209.931 325.178 201 325.178C181.756 325.178 164.002 321.78 150.799 316.003C144.208 313.12 138.438 309.507 134.22 305.144C129.969 300.747 127 295.248 127 288.902C127 281.223 131.311 274.845 137.041 270.039C142.791 265.215 150.631 261.36 159.561 258.525C163.213 257.366 167.113 259.387 168.272 263.039C169.432 266.691 167.411 270.591 163.759 271.75C155.891 274.247 149.87 277.387 145.958 280.669C142.026 283.968 140.875 286.806 140.875 288.902C140.875 290.657 141.659 292.877 144.195 295.5C146.764 298.157 150.815 300.866 156.36 303.292C167.43 308.134 183.207 311.303 201 311.303C209.184 311.303 216.978 310.633 224.103 309.422C227.881 308.781 231.463 311.323 232.104 315.1Z" fill="white"/>
<path d="M172.065 339.08C174.386 340.421 178.808 340.688 185.931 336.903C189.315 335.105 193.515 336.39 195.313 339.773C197.111 343.157 195.826 347.357 192.442 349.155C183.71 353.795 173.631 356.006 165.128 351.096C156.6 346.173 153.481 336.299 153.149 326.382C153.02 322.552 156.02 319.345 159.85 319.216C163.679 319.087 166.887 322.087 167.016 325.917C167.287 334.022 169.737 337.736 172.065 339.08ZM163.887 300.848C160.295 299.515 158.463 295.523 159.796 291.931C162.593 284.395 166.245 276.606 170.711 268.872C180.333 252.206 192.153 238.53 203.757 229.984C209.55 225.718 215.563 222.527 221.452 221.056C227.385 219.573 233.632 219.751 239.128 222.924C245.777 226.764 249.145 233.686 250.443 241.051C251.745 248.443 251.165 257.16 249.154 266.312C248.331 270.054 244.631 272.421 240.89 271.599C237.147 270.777 234.78 267.077 235.602 263.334C237.373 255.272 237.664 248.487 236.779 243.459C235.888 238.404 234.005 235.989 232.19 234.941C230.67 234.063 228.356 233.632 224.816 234.517C221.231 235.413 216.858 237.567 211.985 241.156C202.256 248.321 191.623 260.4 182.727 275.809C178.635 282.897 175.319 289.982 172.805 296.758C171.472 300.35 167.479 302.181 163.887 300.848Z" fill="white"/>
<path d="M214.498 287.612C214.498 294.557 208.868 300.187 201.924 300.187C194.979 300.187 189.35 294.557 189.35 287.612C189.35 280.668 194.979 275.038 201.924 275.038C208.868 275.038 214.498 280.668 214.498 287.612Z" fill="white"/>
</svg>
