<svg width="404" height="571" viewBox="0 0 404 571" fill="none" xmlns="http://www.w3.org/2000/svg">
<path d="M142 22V62.9889C142 79.3859 142 87.5846 145.27 93.8474C148.147 99.3563 152.734 103.835 158.38 106.642C164.797 109.833 173.197 109.833 190 109.833H214C230.803 109.833 239.203 109.833 245.62 106.642C251.266 103.835 255.853 99.3563 258.73 93.8474C262 87.5846 262 79.3859 262 62.9889V22M118 549H286C319.603 549 336.406 549 349.24 542.617C360.529 537.005 369.709 528.046 375.46 517.029C382 504.504 382 488.105 382 455.311V115.689C382 82.8948 382 66.4975 375.46 53.9719C369.709 42.9538 360.529 33.996 349.24 28.3823C336.406 22 319.603 22 286 22H118C84.397 22 67.5952 22 54.7606 28.3823C43.4707 33.996 34.2919 42.9538 28.5397 53.9719C22 66.4975 22 82.8945 22 115.689V455.311C22 488.105 22 504.504 28.5397 517.029C34.2919 528.046 43.4707 537.005 54.7606 542.617C67.5952 549 84.3967 549 118 549Z" stroke="white" stroke-width="43" stroke-linecap="round" stroke-linejoin="round"/>
<path d="M172.861 234.941C170.54 236.281 168.098 239.976 167.814 248.038C167.68 251.867 164.466 254.862 160.637 254.727C156.808 254.592 153.813 251.379 153.948 247.55C154.295 237.667 157.421 227.834 165.924 222.925C174.452 218.001 184.562 220.237 193.317 224.907C196.697 226.711 197.976 230.913 196.172 234.294C194.369 237.674 190.166 238.953 186.786 237.149C179.632 233.333 175.19 233.596 172.861 234.941ZM210.06 246.974C213.011 244.529 217.384 244.94 219.829 247.89C224.957 254.08 229.876 261.138 234.341 268.872C243.964 285.538 249.896 302.613 251.496 316.935C252.294 324.084 252.05 330.888 250.38 336.723C248.698 342.602 245.42 347.923 239.924 351.096C233.274 354.936 225.596 354.391 218.568 351.832C211.515 349.265 204.257 344.402 197.337 338.086C194.507 335.502 194.307 331.114 196.89 328.285C199.473 325.455 203.861 325.254 206.691 327.838C212.788 333.403 218.517 337.047 223.315 338.795C228.138 340.55 231.172 340.128 232.987 339.08C234.507 338.203 236.037 336.414 237.041 332.905C238.057 329.353 238.378 324.489 237.707 318.474C236.366 306.467 231.222 291.219 222.325 275.809C218.233 268.722 213.755 262.308 209.144 256.742C206.7 253.792 207.11 249.418 210.06 246.974Z" fill="white"/>
<path d="M262.125 288.902C262.125 286.221 260.146 282.258 253.306 277.982C250.057 275.951 249.07 271.671 251.102 268.422C253.133 265.173 257.413 264.186 260.662 266.217C269.047 271.459 276 279.083 276 288.902C276 298.748 269.009 306.386 260.587 311.633C257.334 313.659 253.055 312.665 251.03 309.413C249.004 306.16 249.998 301.882 253.25 299.856C260.133 295.569 262.125 291.59 262.125 288.902ZM233.104 315.1C233.746 318.877 231.204 322.46 227.426 323.102C219.503 324.448 210.931 325.178 202 325.178C182.756 325.178 165.002 321.78 151.799 316.003C145.208 313.12 139.438 309.507 135.22 305.144C130.969 300.747 128 295.248 128 288.902C128 281.223 132.311 274.845 138.041 270.039C143.791 265.215 151.631 261.36 160.561 258.525C164.213 257.366 168.113 259.387 169.272 263.039C170.432 266.691 168.411 270.591 164.759 271.75C156.891 274.247 150.87 277.387 146.958 280.669C143.026 283.968 141.875 286.806 141.875 288.902C141.875 290.657 142.659 292.877 145.195 295.5C147.764 298.157 151.815 300.866 157.36 303.292C168.43 308.134 184.207 311.303 202 311.303C210.184 311.303 217.978 310.633 225.103 309.422C228.881 308.781 232.463 311.323 233.104 315.1Z" fill="white"/>
<path d="M173.065 339.08C175.386 340.421 179.808 340.688 186.931 336.903C190.315 335.105 194.515 336.39 196.313 339.773C198.111 343.157 196.826 347.357 193.442 349.155C184.71 353.795 174.631 356.006 166.128 351.096C157.6 346.173 154.481 336.299 154.149 326.382C154.02 322.552 157.02 319.345 160.85 319.216C164.679 319.087 167.887 322.087 168.016 325.917C168.287 334.022 170.737 337.736 173.065 339.08ZM164.887 300.848C161.295 299.515 159.463 295.523 160.796 291.931C163.593 284.395 167.245 276.606 171.711 268.872C181.333 252.206 193.153 238.53 204.757 229.984C210.55 225.718 216.563 222.527 222.452 221.056C228.385 219.573 234.632 219.751 240.128 222.924C246.777 226.764 250.145 233.686 251.443 241.051C252.745 248.443 252.165 257.16 250.154 266.312C249.331 270.054 245.631 272.421 241.89 271.599C238.147 270.777 235.78 267.077 236.602 263.334C238.373 255.272 238.664 248.487 237.779 243.459C236.888 238.404 235.005 235.989 233.19 234.941C231.67 234.063 229.356 233.632 225.816 234.517C222.231 235.413 217.858 237.567 212.985 241.156C203.256 248.321 192.623 260.4 183.727 275.809C179.635 282.897 176.319 289.982 173.805 296.758C172.472 300.35 168.479 302.181 164.887 300.848Z" fill="white"/>
<path d="M215.498 287.612C215.498 294.557 209.868 300.187 202.924 300.187C195.979 300.187 190.35 294.557 190.35 287.612C190.35 280.668 195.979 275.038 202.924 275.038C209.868 275.038 215.498 280.668 215.498 287.612Z" fill="white"/>
<path d="M178.265 390.33V450H163.73V414.215L150.385 450H138.655L125.225 414.13V450H110.69V390.33H127.86L144.605 431.64L161.18 390.33H178.265ZM244.733 390.33L223.568 450H205.378L184.213 390.33H199.683L214.473 435.38L229.348 390.33H244.733ZM296.283 409.54C296.283 412.997 295.489 416.17 293.903 419.06C292.316 421.893 289.879 424.188 286.593 425.945C283.306 427.702 279.226 428.58 274.353 428.58H265.343V450H250.808V390.33H274.353C279.113 390.33 283.136 391.152 286.423 392.795C289.709 394.438 292.174 396.705 293.818 399.595C295.461 402.485 296.283 405.8 296.283 409.54ZM273.248 417.02C276.024 417.02 278.093 416.368 279.453 415.065C280.813 413.762 281.493 411.92 281.493 409.54C281.493 407.16 280.813 405.318 279.453 404.015C278.093 402.712 276.024 402.06 273.248 402.06H265.343V417.02H273.248Z" fill="white"/>
</svg>
