<svg width="578" height="446" viewBox="0 0 578 446" fill="none" xmlns="http://www.w3.org/2000/svg">
<path d="M240.352 45.5519L253.589 54.9206C263.87 62.1964 276.156 66.1039 288.75 66.1039C301.347 66.1039 313.632 62.1964 323.913 54.9201L337.151 45.5519C356.043 32.1806 378.62 25 401.764 25H417.919C428.58 25 439.349 25.6723 449.395 29.2356C512.238 51.5243 555.467 133.006 552.342 317.831C551.711 355.07 542.997 396.228 509.398 412.296C498.927 417.304 486.649 420.625 472.671 420.625C455.896 420.625 442.574 415.843 432.293 409.104C408.189 393.306 390.526 366.923 364.942 353.656C349.539 345.67 332.443 341.5 315.096 341.5H262.404C245.057 341.5 227.961 345.67 212.559 353.656C186.975 366.923 169.312 393.306 145.207 409.104C134.926 415.843 121.604 420.625 104.829 420.625C90.8496 420.625 78.5731 417.304 68.1027 412.296C34.5028 396.228 25.7891 355.07 25.1592 317.831C22.0325 133.007 65.26 51.5243 128.104 29.2356C138.151 25.6723 148.92 25 159.58 25H175.734C198.881 25 221.457 32.1806 240.352 45.5519Z" stroke="white" stroke-width="50" stroke-linecap="round"/>
<path d="M326.047 162.547L328.651 165.145C348.883 185.332 359 195.426 359 207.969C359 220.511 348.883 230.606 328.651 250.792L326.047 253.391" stroke="white" stroke-width="34" stroke-linecap="round"/>
<path d="M220.953 245.375L218.349 242.777C198.117 222.59 188 212.495 188 199.953C188 187.411 198.117 177.316 218.349 157.129L220.953 154.531" stroke="white" stroke-width="34" stroke-linecap="round"/>
<path d="M293.094 134.938L273.499 207.968L253.906 281" stroke="white" stroke-width="34" stroke-linecap="round"/>
</svg>
