<svg width="800" height="800" viewBox="0 0 800 800" fill="none" xmlns="http://www.w3.org/2000/svg">
<path d="M166.667 679.613H241.998C275.693 679.613 309.751 683.123 342.543 689.88C400.553 701.83 461.627 703.277 520.23 693.793C549.127 689.113 577.533 681.963 603.25 669.55C626.463 658.347 654.897 642.553 673.997 624.863C693.07 607.2 712.933 578.29 727.03 555.69C739.12 536.313 733.273 512.54 714.15 498.1C692.91 482.063 661.39 482.067 640.153 498.11L579.913 543.613C556.567 561.25 531.067 577.483 500.687 582.33C497.033 582.913 493.207 583.443 489.213 583.907M489.213 583.907C488.01 584.047 486.793 584.18 485.56 584.307M489.213 583.907C494.073 582.867 498.897 579.867 503.427 575.917C524.867 557.203 526.22 525.667 507.617 504.77C503.303 499.923 498.25 495.88 492.637 492.53C399.39 436.913 254.314 479.273 166.667 541.43M489.213 583.907C487.997 584.167 486.777 584.307 485.56 584.307M485.56 584.307C468.113 586.097 447.707 586.56 425.06 584.42" stroke="white" stroke-width="50" stroke-linecap="round"/>
<path d="M166.667 516.667C166.667 489.053 144.281 466.667 116.667 466.667C89.0524 466.667 66.6667 489.053 66.6667 516.667V683.333C66.6667 710.948 89.0524 733.333 116.667 733.333C144.281 733.333 166.667 710.948 166.667 683.333V516.667Z" stroke="white" stroke-width="50"/>
<path d="M689.835 287.828H676.825C675.896 285.313 674.873 282.849 673.747 280.411L683.015 271.238C686.774 267.922 689.127 263.088 689.127 257.708C689.127 253.062 687.371 248.825 684.481 245.628L684.498 245.645L657.404 218.552C654.224 215.671 649.987 213.915 645.341 213.915C639.953 213.915 635.119 216.285 631.811 220.036L631.794 220.053L622.578 229.26C620.148 228.143 617.693 227.12 615.178 226.191L615.246 213.182C615.271 212.824 615.288 212.406 615.288 211.98C615.288 202.363 607.752 194.512 598.263 194H598.221H559.89C550.35 194.503 542.805 202.363 542.805 211.988C542.805 212.406 542.822 212.824 542.848 213.241V213.182V226.174C540.333 227.103 537.869 228.126 535.431 229.251L526.274 220.01C522.958 216.234 518.116 213.855 512.728 213.855C508.081 213.855 503.844 215.611 500.656 218.501L500.673 218.484L473.57 245.586C470.689 248.766 468.932 253.003 468.932 257.649C468.932 263.045 471.303 267.879 475.062 271.178L475.079 271.195L484.27 280.394C483.144 282.841 482.121 285.304 481.183 287.828L468.182 287.768C467.824 287.743 467.406 287.725 466.989 287.725C457.372 287.725 449.512 295.27 449 304.759V304.801V343.122C449.503 352.662 457.372 360.215 466.997 360.215C467.415 360.215 467.833 360.198 468.242 360.172H468.182H481.183C482.113 362.687 483.136 365.151 484.261 367.589L475.02 376.72C471.243 380.044 468.873 384.887 468.873 390.292C468.873 394.938 470.629 399.183 473.519 402.38L473.502 402.363L500.604 429.456C503.495 432.329 507.476 434.102 511.875 434.102C511.935 434.102 511.994 434.102 512.054 434.102H512.046C517.613 433.991 522.617 431.656 526.215 427.947L526.223 427.939L535.422 418.74C537.869 419.865 540.341 420.888 542.865 421.826L542.805 434.818C542.78 435.176 542.763 435.594 542.763 436.012C542.763 445.628 550.308 453.488 559.796 454H559.839H598.169C607.701 453.488 615.246 445.637 615.246 436.02C615.246 435.594 615.229 435.176 615.203 434.767V434.827V421.818C617.727 420.88 620.191 419.857 622.637 418.731L631.751 427.93C635.357 431.639 640.353 433.974 645.903 434.094H645.92H645.937C645.989 434.094 646.057 434.094 646.116 434.094C650.507 434.094 654.488 432.329 657.396 429.482L684.481 402.397C687.337 399.507 689.093 395.535 689.093 391.144C689.093 391.067 689.093 390.991 689.093 390.905C688.982 385.356 686.663 380.377 682.972 376.779L673.756 367.564C674.873 365.134 675.896 362.679 676.825 360.164L689.826 360.223C690.184 360.249 690.594 360.266 691.011 360.266C700.637 360.266 708.497 352.721 709 343.224V343.182V304.861C708.488 295.321 700.637 287.777 691.011 287.777C690.594 287.777 690.176 287.794 689.758 287.819H689.818L689.835 287.828ZM687.703 338.919L669.271 338.825C669.05 338.825 668.862 338.936 668.641 338.953C667.848 339.03 667.115 339.175 666.415 339.405L666.484 339.388C663.841 339.968 661.667 341.63 660.422 343.881L660.397 343.923C659.987 344.529 659.621 345.219 659.339 345.952L659.314 346.02C659.246 346.225 659.084 346.37 659.024 346.583C657.063 353.437 654.531 359.396 651.368 364.955L651.581 364.546C651.462 364.759 651.47 365.006 651.36 365.228C651.112 365.765 650.908 366.404 650.754 367.061L650.746 367.129C650.55 367.743 650.405 368.459 650.337 369.192V369.234C650.319 369.465 650.302 369.729 650.302 369.993C650.302 371.775 650.822 373.437 651.718 374.835L651.692 374.801C652.076 375.552 652.511 376.191 653.005 376.779L652.996 376.762C653.141 376.924 653.184 377.129 653.337 377.282L666.373 390.334L645.324 411.366L632.399 398.331C632.229 398.152 631.99 398.101 631.811 397.939C631.299 397.512 630.72 397.12 630.106 396.788L630.055 396.762C628.392 395.833 626.397 395.287 624.283 395.287C624.266 395.287 624.249 395.287 624.232 395.287C623.584 395.356 622.995 395.475 622.433 395.628L622.51 395.611C621.64 395.782 620.873 396.038 620.157 396.37L620.216 396.344C620.029 396.438 619.815 396.43 619.628 396.532C614.462 399.482 608.485 402.022 602.21 403.855L601.614 404C601.384 404.068 601.23 404.23 601.008 404.315C600.292 404.597 599.67 404.921 599.099 405.304L599.133 405.279C598.493 405.628 597.948 406.003 597.436 406.43L597.453 406.413C597.001 406.856 596.584 407.35 596.217 407.87L596.192 407.905C595.313 408.868 594.691 410.07 594.435 411.408L594.427 411.451C594.222 412.082 594.06 412.815 593.992 413.574V413.616C593.975 413.838 593.864 414.026 593.864 414.256L593.856 432.687H564.093L564.187 414.307C564.187 414.068 564.068 413.864 564.051 413.633C563.982 412.849 563.829 412.124 563.607 411.434L563.624 411.502C563.045 408.834 561.365 406.643 559.097 405.39L559.046 405.364C558.449 404.963 557.767 404.605 557.043 404.324L556.975 404.298C556.77 404.23 556.616 404.068 556.403 404.009C549.532 402.048 543.556 399.507 537.98 396.336L538.389 396.549C538.193 396.438 537.963 396.447 537.767 396.353C537.153 396.072 536.437 395.833 535.687 395.679L535.618 395.671C534.834 395.424 533.93 395.287 532.993 395.287C531.108 395.287 529.361 395.85 527.903 396.822L527.937 396.805C527.289 397.146 526.735 397.521 526.223 397.947L526.24 397.93C526.061 398.092 525.831 398.143 525.661 398.314L512.625 411.349L491.567 390.3L504.628 377.376C504.799 377.205 504.859 376.975 505.012 376.805C505.464 376.268 505.873 375.662 506.223 375.023L506.248 374.972C506.564 374.477 506.854 373.915 507.092 373.318L507.118 373.25C507.442 372.056 507.646 370.684 507.681 369.269V369.243C507.612 368.535 507.484 367.896 507.305 367.274L507.322 367.35C507.152 366.549 506.922 365.841 506.615 365.176L506.64 365.236C506.538 365.023 506.547 364.793 506.427 364.588C503.469 359.431 500.928 353.463 499.112 347.188L498.968 346.609C498.908 346.387 498.737 346.225 498.661 346.012C498.371 345.279 498.047 344.648 497.655 344.068L497.68 344.111C497.339 343.48 496.964 342.934 496.546 342.431L496.563 342.448C496.12 341.997 495.634 341.587 495.123 341.221L495.088 341.195C494.577 340.76 493.997 340.368 493.383 340.036L493.332 340.01C492.846 339.789 492.258 339.593 491.661 339.448L491.593 339.431C490.937 339.209 490.169 339.047 489.385 338.979H489.342C489.121 338.962 488.942 338.851 488.72 338.851L470.288 338.842V309.072L488.72 309.166C490.084 309.149 491.371 308.868 492.556 308.382L492.488 308.408C492.949 308.203 493.332 307.998 493.699 307.768L493.656 307.794C494.423 307.393 495.088 306.941 495.694 306.43L495.677 306.438C496.043 306.106 496.376 305.765 496.683 305.398L496.7 305.381C497.177 304.827 497.603 304.205 497.953 303.548L497.979 303.488C498.209 303.088 498.439 302.619 498.627 302.133L498.652 302.065C498.737 301.826 498.899 301.639 498.968 301.4C500.928 294.537 503.46 288.561 506.632 282.994L506.419 283.403C506.538 283.199 506.53 282.96 506.632 282.755C506.896 282.184 507.118 281.502 507.271 280.803L507.28 280.735C507.45 280.002 507.553 279.158 507.553 278.288C507.553 275.586 506.589 273.113 504.995 271.178L505.012 271.195C504.867 271.025 504.816 270.812 504.654 270.658L491.636 257.623L512.685 236.575L525.627 249.627C526.095 250.01 526.615 250.368 527.161 250.667L527.212 250.692C527.57 250.974 527.971 251.246 528.389 251.494L528.44 251.519C529.804 252.269 531.424 252.73 533.137 252.781H533.155L533.197 252.789C533.299 252.789 533.393 252.713 533.487 252.713C535.073 252.645 536.548 252.235 537.861 251.562L537.801 251.587C537.988 251.494 538.202 251.536 538.398 251.434C543.556 248.484 549.523 245.935 555.798 244.119L556.386 243.974C556.599 243.915 556.744 243.753 556.949 243.685C557.725 243.386 558.398 243.037 559.021 242.619L558.987 242.645C559.575 242.321 560.078 241.971 560.547 241.587L560.53 241.604C561.024 241.127 561.467 240.607 561.86 240.044L561.885 240.01C562.277 239.533 562.644 238.996 562.959 238.433L562.985 238.382C563.224 237.853 563.437 237.231 563.582 236.592L563.599 236.523C563.803 235.901 563.957 235.176 564.025 234.418V234.375C564.042 234.145 564.153 233.957 564.153 233.727L564.161 215.296H593.924L593.83 233.676C593.83 233.915 593.949 234.111 593.958 234.35C594.026 235.142 594.18 235.867 594.401 236.566L594.384 236.498C594.546 237.214 594.759 237.836 595.024 238.433L594.998 238.365C595.339 238.987 595.697 239.524 596.106 240.019L596.089 240.002C596.498 240.598 596.95 241.119 597.436 241.596C597.888 241.971 598.391 242.312 598.92 242.619L598.971 242.645C599.551 243.037 600.224 243.386 600.932 243.659L601 243.685C601.213 243.761 601.366 243.923 601.588 243.983C608.443 245.935 614.402 248.476 619.96 251.647L619.56 251.434C619.747 251.536 619.952 251.494 620.139 251.587C621.393 252.235 622.868 252.645 624.428 252.713H624.453C624.556 252.713 624.658 252.789 624.76 252.789L624.999 252.721C626.644 252.653 628.17 252.218 629.526 251.502L629.466 251.528C629.969 251.246 630.396 250.965 630.796 250.641L630.771 250.658C631.35 250.343 631.853 250.01 632.314 249.635L632.297 249.652L645.349 236.626L666.398 257.683L653.346 270.607C653.175 270.777 653.116 271.008 652.954 271.187C652.502 271.724 652.093 272.329 651.743 272.968L651.718 273.02C651.002 274.068 650.541 275.338 650.456 276.72V276.737C650.345 277.214 650.285 277.768 650.285 278.331C650.285 279.158 650.422 279.951 650.669 280.692L650.652 280.641C650.822 281.442 651.053 282.142 651.36 282.806L651.334 282.747C651.436 282.96 651.428 283.199 651.547 283.412C654.505 288.561 657.046 294.52 658.862 300.786L659.007 301.366C659.075 301.621 659.246 301.809 659.331 302.048C659.535 302.576 659.749 303.011 659.987 303.437L659.962 303.386C661.761 306.771 665.239 309.055 669.254 309.132L687.695 309.141L687.703 338.919ZM579.004 279.251C554.289 279.251 534.246 299.294 534.246 324.009C534.246 348.723 554.289 368.766 579.004 368.766C603.719 368.766 623.763 348.723 623.763 324.009C623.729 299.303 603.711 279.286 579.004 279.251ZM579.004 347.453C566.054 347.453 555.559 336.958 555.559 324.009C555.559 311.059 566.054 300.564 579.004 300.564C591.954 300.564 602.449 311.059 602.449 324.009C602.432 336.95 591.946 347.436 579.004 347.453Z" fill="white"/>
</svg>
