<svg width="404" height="571" viewBox="0 0 404 571" fill="none" xmlns="http://www.w3.org/2000/svg">
<path d="M142 22V62.9889C142 79.3859 142 87.5846 145.27 93.8474C148.147 99.3563 152.734 103.835 158.38 106.642C164.797 109.833 173.197 109.833 190 109.833H214C230.803 109.833 239.203 109.833 245.62 106.642C251.266 103.835 255.853 99.3563 258.73 93.8474C262 87.5846 262 79.3859 262 62.9889V22M118 549H286C319.603 549 336.406 549 349.24 542.617C360.529 537.005 369.709 528.046 375.46 517.029C382 504.504 382 488.105 382 455.311V115.689C382 82.8948 382 66.4975 375.46 53.9719C369.709 42.9538 360.529 33.996 349.24 28.3823C336.406 22 319.603 22 286 22H118C84.397 22 67.5952 22 54.7606 28.3823C43.4707 33.996 34.2919 42.9538 28.5397 53.9719C22 66.4975 22 82.8945 22 115.689V455.311C22 488.105 22 504.504 28.5397 517.029C34.2919 528.046 43.4707 537.005 54.7606 542.617C67.5952 549 84.3967 549 118 549Z" stroke="white" stroke-width="43" stroke-linecap="round" stroke-linejoin="round"/>
<path d="M155.839 248.134C152.122 250.28 148.21 256.199 147.757 269.107C147.541 275.239 142.395 280.035 136.264 279.82C130.132 279.604 125.336 274.458 125.551 268.327C126.108 252.501 131.113 236.754 144.73 228.892C158.385 221.008 174.576 224.589 188.595 232.068C194.009 234.956 196.056 241.685 193.168 247.098C190.28 252.512 183.55 254.559 178.137 251.671C166.68 245.559 159.567 245.982 155.839 248.134ZM215.407 267.404C220.132 263.49 227.135 264.146 231.05 268.871C239.262 278.783 247.139 290.085 254.289 302.47C269.698 329.158 279.199 356.501 281.76 379.436C283.038 390.885 282.647 401.779 279.974 411.123C277.279 420.538 272.031 429.06 263.23 434.14C252.581 440.289 240.285 439.416 229.031 435.319C217.737 431.207 206.113 423.42 195.032 413.306C190.501 409.169 190.181 402.142 194.317 397.611C198.453 393.08 205.48 392.759 210.012 396.896C219.775 405.807 228.95 411.643 236.632 414.441C244.356 417.252 249.214 416.577 252.12 414.899C254.556 413.493 257.006 410.628 258.613 405.01C260.241 399.322 260.755 391.534 259.679 381.901C257.531 362.673 249.294 338.256 235.047 313.58C228.495 302.23 221.324 291.959 213.94 283.046C210.026 278.321 210.683 271.318 215.407 267.404Z" fill="white"/>
<path d="M298.781 334.545C298.781 330.253 295.611 323.906 284.659 317.059C279.457 313.806 277.876 306.952 281.129 301.75C284.382 296.547 291.236 294.967 296.438 298.219C309.865 306.614 321 318.821 321 334.545C321 350.313 309.805 362.544 296.318 370.946C291.11 374.19 284.258 372.599 281.014 367.391C277.77 362.183 279.362 355.331 284.569 352.087C295.591 345.222 298.781 338.85 298.781 334.545ZM252.309 376.497C253.336 382.547 249.266 388.284 243.217 389.312C230.528 391.467 216.801 392.637 202.5 392.637C171.683 392.637 143.253 387.195 122.11 377.945C111.556 373.327 102.317 367.542 95.5616 360.555C88.7545 353.514 84 344.708 84 334.545C84 322.249 90.9038 312.036 100.079 304.339C109.287 296.614 121.842 290.441 136.142 285.902C141.99 284.046 148.235 287.282 150.092 293.129C151.948 298.977 148.712 305.223 142.864 307.079C130.264 311.079 120.622 316.106 114.359 321.361C108.062 326.644 106.219 331.189 106.219 334.545C106.219 337.356 107.474 340.91 111.536 345.111C115.649 349.366 122.137 353.705 131.016 357.589C148.742 365.344 174.007 370.418 202.5 370.418C215.605 370.418 228.086 369.344 239.496 367.405C245.545 366.379 251.282 370.449 252.309 376.497Z" fill="white"/>
<path d="M156.165 414.899C159.882 417.045 166.963 417.473 178.37 411.412C183.788 408.533 190.514 410.591 193.393 416.008C196.272 421.427 194.214 428.153 188.796 431.033C174.812 438.463 158.673 442.003 145.056 434.14C131.4 426.257 126.406 410.445 125.873 394.564C125.667 388.432 130.472 383.295 136.604 383.089C142.736 382.883 147.874 387.687 148.079 393.819C148.515 406.798 152.437 412.747 156.165 414.899ZM143.069 353.676C137.317 351.542 134.384 345.148 136.519 339.396C140.996 327.329 146.846 314.855 153.996 302.47C169.405 275.782 188.334 253.882 206.915 240.197C216.191 233.365 225.821 228.257 235.25 225.9C244.751 223.526 254.756 223.811 263.556 228.893C274.204 235.04 279.598 246.126 281.676 257.92C283.761 269.757 282.831 283.716 279.611 298.37C278.294 304.363 272.369 308.154 266.377 306.837C260.384 305.521 256.594 299.596 257.911 293.603C260.746 280.692 261.212 269.828 259.795 261.776C258.368 253.681 255.353 249.813 252.446 248.135C250.013 246.729 246.307 246.039 240.638 247.456C234.896 248.891 227.895 252.34 220.091 258.088C204.512 269.561 187.485 288.904 173.238 313.58C166.685 324.929 161.376 336.275 157.349 347.126C155.215 352.878 148.821 355.811 143.069 353.676Z" fill="white"/>
<path d="M224.115 332.48C224.115 343.601 215.1 352.616 203.979 352.616C192.859 352.616 183.844 343.601 183.844 332.48C183.844 321.36 192.859 312.345 203.979 312.345C215.1 312.345 224.115 321.36 224.115 332.48Z" fill="white"/>
</svg>
