<svg width="615" height="501" viewBox="0 0 615 501" fill="none" xmlns="http://www.w3.org/2000/svg">
<path d="M564.433 365.133V113.747C564.433 81.7491 564.433 65.75 558.206 53.5286C552.73 42.7781 543.988 34.0379 533.239 28.5605C521.018 22.3332 505.018 22.3333 473.02 22.3333H141.647C109.649 22.3333 93.6501 22.3332 81.4287 28.5605C70.6782 34.0379 61.938 42.7781 56.4606 53.5286C50.2334 65.75 50.2334 81.7491 50.2334 113.747V365.133M97.8446 479.4H516.821C534.533 479.4 543.388 479.4 550.653 477.455C570.369 472.17 585.77 456.769 591.055 437.053C593 429.788 593 420.933 593 403.221C593 394.366 593 389.938 592.026 386.307C589.386 376.449 581.685 368.747 571.826 366.107C568.196 365.133 563.768 365.133 554.912 365.133H59.7555C50.9001 365.133 46.4725 365.133 42.8397 366.107C32.9817 368.747 25.2815 376.449 22.64 386.307C21.6667 389.938 21.6667 394.366 21.6667 403.221C21.6667 420.933 21.6667 429.788 23.6135 437.053C28.8963 456.769 44.2966 472.17 64.0128 477.455C71.2781 479.4 80.1338 479.4 97.8446 479.4Z" stroke="white" stroke-width="43" stroke-linecap="round" stroke-linejoin="round"/>
<path d="M223.108 171.683C223.108 162.421 233.4 144.925 246.779 139.779C260.158 134.633 280.742 134.633 308.529 134.633C338.375 134.633 368.221 139.779 368.221 139.779L344.55 116.108L354.842 96.5542L410.417 153.158L353.812 209.763L343.521 190.208L367.192 166.538C367.192 166.538 337.346 161.392 306.471 161.392C279.712 161.392 259.129 161.392 245.75 166.538C232.371 171.683 223.108 204.617 223.108 204.617V171.683Z" fill="white"/>
<path d="M391.892 229.317C391.892 238.579 381.6 256.075 368.221 261.221C354.842 266.367 334.258 266.367 306.471 266.367C276.625 266.367 246.779 261.221 246.779 261.221L270.45 284.892L260.158 304.446L204.583 247.842L261.187 191.238L271.479 210.792L247.808 234.463C247.808 234.463 277.654 239.608 308.529 239.608C335.287 239.608 355.871 239.608 369.25 234.463C382.629 229.317 391.892 196.383 391.892 196.383V229.317Z" fill="white"/>
</svg>
