<svg width="115" height="115" viewBox="0 0 115 115" fill="none" xmlns="http://www.w3.org/2000/svg">
<g clip-path="url(#clip0_1_52)">
<path d="M66.7822 114.245C55.3883 114.245 41.2358 110.323 30.2168 103.669C29.0623 102.971 28.356 101.72 28.356 100.371V93.52C28.356 91.392 30.0807 89.6672 32.2087 89.6672C34.3367 89.6672 36.0615 91.392 36.0615 93.52V98.1497C49.6836 105.705 66.3186 107.958 74.4518 105.624C76.5092 105.035 77.9553 104.168 78.4228 103.246C78.5139 103.066 78.6192 102.894 78.7374 102.729C79.4964 101.681 79.3256 99.5932 78.2301 96.5226C78.2096 96.4686 78.1929 96.4147 78.1762 96.3607C77.9206 95.5311 77.6638 93.9284 78.7502 92.4322C76.8161 91.3123 74.8294 90.1937 73.5233 89.5388C71.9604 88.7567 71.1205 87.0203 71.4749 85.3097C71.8307 83.5991 73.2934 82.3405 75.0374 82.2468C75.4754 82.2224 76.0469 82.2031 76.7018 82.1813C77.6227 82.1517 79.6646 82.0849 81.4086 81.927C80.624 80.0391 80.1526 77.9727 81.2096 76.0476C81.9737 74.6555 83.3761 73.754 85.0572 73.5742C85.9241 73.4573 86.9027 73.0322 87.5975 72.6187C87.0517 71.9663 86.3338 71.1713 85.743 70.5189C82.0855 66.4761 77.0768 60.9371 76.9459 54.5697C76.7558 40.0833 74.7061 30.5785 70.0956 22.7843C63.7642 13.015 52.2072 7.04447 38.6981 6.40491V21.2445H45.2722C47.4002 21.2445 49.125 22.9693 49.125 25.0973C49.125 27.2253 47.4002 28.9501 45.2722 28.9501H34.8453C32.7173 28.9501 30.9925 27.2253 30.9925 25.0973V2.51361C30.9925 0.424121 32.6582 -1.28523 34.7477 -1.33788C52.5963 -1.79379 68.2399 5.68958 76.6094 18.6696C76.6351 18.7094 76.6595 18.7492 76.6839 18.789C82.0598 27.8366 84.4408 38.4998 84.6501 54.4413C84.722 57.9024 88.7751 62.3857 91.458 65.3511C93.8313 67.9748 95.3981 69.7073 95.818 71.7531C96.1545 73.2518 95.7911 74.9136 94.7829 76.3623C93.5475 78.1358 91.3745 79.5241 89.1835 80.373C89.2182 80.4424 89.2503 80.5066 89.2799 80.5669C89.5945 81.2001 89.8937 81.7985 90.1146 82.3649C90.1416 82.4381 90.1686 82.5113 90.1943 82.5871C90.6425 83.9779 90.419 85.4561 89.5817 86.6466C89.0179 87.4493 88.2627 88.0465 87.2482 88.4934C87.3894 88.5781 87.5281 88.6603 87.6591 88.7387C88.8882 89.4758 89.6073 90.8346 89.5239 92.2653C89.3826 94.7169 87.7503 96.0243 86.3505 96.7383C87.148 99.9284 87.3804 103.717 85.1523 106.996C83.6176 109.806 80.7331 111.835 76.5747 113.027C73.7108 113.852 70.3833 114.245 66.7822 114.245ZM86.0615 81.2129C86.0345 81.2181 86.005 81.2219 85.9768 81.2258C86.0037 81.2232 86.0333 81.2181 86.0615 81.2129Z" fill="white"/>
<path d="M42.2452 43.2092H14.9997C12.8717 43.2092 11.1469 41.4844 11.1469 39.3564V22.9975C11.1469 20.8695 12.8717 19.1447 14.9997 19.1447C17.1277 19.1447 18.8525 20.8695 18.8525 22.9975V35.5023H42.2439C44.3719 35.5023 46.0967 37.2271 46.0967 39.3551C46.0967 41.4831 44.3719 43.2092 42.2452 43.2092Z" fill="white"/>
<path d="M10.6422 82.5498C8.51419 82.5498 6.78943 80.8251 6.78943 78.6971V69.1602C6.78943 67.0322 8.51419 65.3074 10.6422 65.3074H43.1866C45.3146 65.3074 47.0394 67.0322 47.0394 69.1602C47.0394 71.2882 45.3133 73.013 43.1866 73.013H14.495V78.6971C14.495 80.8251 12.7702 82.5498 10.6422 82.5498Z" fill="white"/>
<path d="M49.3189 58.6909H6.36434C4.23632 58.6909 2.51157 56.9661 2.51157 54.8381C2.51157 52.7101 4.23632 50.9854 6.36434 50.9854H49.3189C51.4469 50.9854 53.1717 52.7101 53.1717 54.8381C53.1717 56.9661 51.4469 58.6909 49.3189 58.6909Z" fill="white"/>
<path d="M66.8799 58.6909H62.376C60.248 58.6909 58.5232 56.9661 58.5232 54.8381C58.5232 52.7101 60.248 50.9854 62.376 50.9854H66.8799C69.0079 50.9854 70.7326 52.7101 70.7326 54.8381C70.7326 56.9661 69.0079 58.6909 66.8799 58.6909Z" fill="white"/>
<path d="M14.9997 25.557C10.3969 25.557 6.65201 21.8121 6.65201 17.2094C6.65201 12.6066 10.3969 8.86169 14.9997 8.86169C19.6025 8.86169 23.3474 12.6066 23.3474 17.2094C23.3474 21.8121 19.6037 25.557 14.9997 25.557Z" fill="white"/>
<path d="M51.5676 32.9415C46.9649 32.9415 43.22 29.1966 43.22 24.5939C43.22 19.9911 46.9649 16.2462 51.5676 16.2462C56.1704 16.2462 59.9153 19.9911 59.9153 24.5939C59.9153 29.1966 56.1704 32.9415 51.5676 32.9415Z" fill="white"/>
<path d="M0.576192 63.1858C-4.02659 63.1858 -7.77148 59.4409 -7.77148 54.8381C-7.77148 50.2353 -4.02659 46.4904 0.576192 46.4904C5.17897 46.4904 8.92387 50.2353 8.92387 54.8381C8.92387 59.4409 5.17897 63.1858 0.576192 63.1858Z" fill="white"/>
<path d="M10.6422 92.8329C6.03942 92.8329 2.29453 89.088 2.29453 84.4839C2.29453 79.8812 6.03942 76.1363 10.6422 76.1363C15.245 76.1363 18.9899 79.8799 18.9899 84.4839C18.9912 89.088 15.2463 92.8329 10.6422 92.8329Z" fill="white"/>
<path d="M32.2088 96.0782C27.606 96.0782 23.8611 92.3333 23.8611 87.7306C23.8611 83.1278 27.606 79.3829 32.2088 79.3829C36.8115 79.3829 40.5564 83.1265 40.5564 87.7306C40.5564 92.332 36.8115 96.0782 32.2088 96.0782Z" fill="white"/>
</g>
<defs>
<clipPath id="clip0_1_52">
<rect width="115" height="115" fill="white"/>
</clipPath>
</defs>
</svg>
