<svg width="126" height="126" viewBox="0 0 126 126" fill="none" xmlns="http://www.w3.org/2000/svg">
<path d="M83.0625 31.625C85.425 31.625 87 30.05 87 27.6875V19.8125C87 13.1187 81.8813 8 75.1875 8H35.8125C29.1187 8 24 13.1187 24 19.8125V106.438C24 113.131 29.1187 118.25 35.8125 118.25H75.1875C81.8813 118.25 87 113.131 87 106.438V90.6875C87 88.325 85.425 86.75 83.0625 86.75H31.875V31.625H83.0625ZM51.5625 98.5625H59.4375C61.8 98.5625 63.375 100.137 63.375 102.5C63.375 104.863 61.8 106.438 59.4375 106.438H51.5625C49.2 106.438 47.625 104.863 47.625 102.5C47.625 100.137 49.2 98.5625 51.5625 98.5625Z" fill="white"/>
<path d="M55.125 74.8125C53.9437 74.8125 53.1562 74.4188 52.3687 73.6313L40.5563 61.8187C38.9813 60.2437 38.9813 57.8812 40.5563 56.3062L52.3687 44.4938C53.9437 42.9188 56.3062 42.9188 57.8812 44.4938C59.4562 46.0688 59.4562 48.4312 57.8812 50.0062L48.825 59.0625L57.8812 68.1187C59.4562 69.6937 59.4562 72.0563 57.8812 73.6313C57.0937 74.4188 56.3062 74.8125 55.125 74.8125Z" fill="white"/>
<path d="M94.5 74.8125C93.3188 74.8125 92.5313 74.4188 91.7438 73.6313C90.1688 72.0563 90.1688 69.6937 91.7438 68.1187L100.8 59.0625L91.7438 50.0062C90.1688 48.4312 90.1688 46.0688 91.7438 44.4938C93.3188 42.9188 95.6813 42.9188 97.2563 44.4938L109.069 56.3062C110.644 57.8812 110.644 60.2437 109.069 61.8187L97.2563 73.6313C96.4688 74.4188 95.6813 74.8125 94.5 74.8125Z" fill="white"/>
<path d="M66.9375 78.75C66.5437 78.75 65.7562 78.75 65.3625 78.3563C63.3937 77.5688 62.6062 75.2063 63.7875 73.2375L79.5375 41.7375C80.325 39.7688 82.6875 38.9813 84.6562 40.1625C86.625 40.95 87.4125 43.3125 86.2312 45.2813L70.4812 76.7813C69.6937 77.9625 68.5125 78.75 66.9375 78.75Z" fill="white"/>
</svg>
