<svg width="125" height="125" viewBox="0 0 125 125" fill="none" xmlns="http://www.w3.org/2000/svg">
<path fill-rule="evenodd" clip-rule="evenodd" d="M46.875 10.4167C46.875 7.5402 49.2069 5.20833 52.0833 5.20833C54.9599 5.20833 57.2917 7.5402 57.2917 10.4167V20.8333H67.7083V10.4167C67.7083 7.5402 70.0401 5.20833 72.9167 5.20833C75.7932 5.20833 78.125 7.5402 78.125 10.4167V20.8333C96.8344 20.8333 108.724 31.2959 108.724 44.2708C108.724 51.621 104.908 58.1651 98.199 62.4573C105.029 66.7427 108.924 73.3172 108.924 80.7292C108.924 93.7375 96.9266 104.167 78.125 104.167V114.583C78.125 117.46 75.7932 119.792 72.9167 119.792C70.0401 119.792 67.7083 117.46 67.7083 114.583V104.167H57.2917V114.583C57.2917 117.46 54.9599 119.792 52.0833 119.792C49.2069 119.792 46.875 117.46 46.875 114.583V104.167H20.8333C17.9569 104.167 15.625 101.835 15.625 98.9583C15.625 96.0818 17.9569 93.75 20.8333 93.75H31.25V31.25H20.8333C17.9569 31.25 15.625 28.9181 15.625 26.0417C15.625 23.1652 17.9569 20.8333 20.8333 20.8333H46.875V10.4167ZM78.125 57.2917C93.2698 57.2917 98.3073 49.5251 98.3073 44.2708C98.3073 39.0166 93.2698 31.25 78.125 31.25H41.6667V57.2917H78.125ZM41.6667 67.7083V93.75H78.125C93.4443 93.75 98.5073 85.95 98.5073 80.7292C98.5073 75.5083 93.4443 67.7083 78.125 67.7083H41.6667Z" fill="white"/>
</svg>
