<svg width="123" height="123" viewBox="0 0 123 123" fill="none" xmlns="http://www.w3.org/2000/svg">
<path d="M86.5946 90.1379H20.2882C18.0007 90.1379 16.1441 91.9945 16.1441 94.2821C16.1441 96.5697 18.0007 98.4262 20.2882 98.4262H86.5946C88.8822 98.4262 90.7387 96.5697 90.7387 94.2821C90.7387 91.9945 88.8822 90.1379 86.5946 90.1379ZM93.2252 10.5703H13.6576C7.70991 10.5769 2.88944 15.3974 2.88281 21.3451V74.3902C2.88944 80.3379 7.70991 85.1583 13.6576 85.165H93.2252C99.1729 85.1616 103.997 80.3379 104 74.3902V21.3451C103.993 15.3974 99.1729 10.5769 93.2252 10.5703ZM95.7117 74.3902C95.7117 75.7627 94.5978 76.8767 93.2252 76.8767H13.6576C12.2851 76.8767 11.1711 75.7627 11.1711 74.3902V21.3451C11.1744 19.9726 12.2851 18.8619 13.6576 18.8586H93.2252C94.5978 18.8586 95.7117 19.9726 95.7117 21.3451V74.3902Z" fill="white"/>
<g clip-path="url(#clip0_1_21)">
<path d="M58.2191 32.1004H57.8441L46.4305 38.3664H38.1809C33.67 38.3664 30 42.0363 30 46.5473C30 50.5819 32.938 53.9349 36.7847 54.601L34.1399 63.8996H43.2651L45.8734 54.7297H46.4305L57.8445 60.9948H58.2195C60.636 60.9948 62.6024 59.0287 62.6024 56.6118V36.4831C62.6019 34.0668 60.6354 32.1004 58.2191 32.1004ZM41.0586 60.9773H38.009L39.6127 55.339H42.6623L41.0586 60.9773ZM51.0179 53.914L47.1799 51.8072H38.1809C35.2808 51.8072 32.9219 49.4473 32.9219 46.5473C32.9219 43.6473 35.2808 41.2884 38.1809 41.2884H47.1799L51.0179 39.1812V53.914ZM59.68 56.6118C59.68 57.3102 59.1871 57.8951 58.5321 58.0387L53.9398 55.5181V37.5774L58.5321 35.0563C59.1876 35.1999 59.68 35.7854 59.68 36.4837V56.6118Z" fill="white"/>
<path d="M68.2092 40.2417L66.1194 42.3314C67.1992 43.827 67.843 45.6571 67.843 47.6381C67.843 49.6197 67.1992 51.4499 66.1194 52.9449L68.2092 55.0346C69.8079 52.9937 70.7649 50.4262 70.7649 47.6381C70.7649 44.8501 69.8079 42.2828 68.2092 40.2417Z" fill="white"/>
<path d="M71.9283 36.5227L69.8557 38.5953C71.8684 41.0639 73.0781 44.2122 73.0781 47.6381C73.0781 51.0647 71.8684 54.2124 69.8557 56.681L71.9283 58.7536C74.466 55.7489 76 51.87 76 47.6381C76 43.4063 74.466 39.5274 71.9283 36.5227Z" fill="white"/>
</g>
<defs>
<clipPath id="clip0_1_21">
<rect width="46" height="46" fill="white" transform="translate(30 25)"/>
</clipPath>
</defs>
</svg>
