<svg width="108" height="124" viewBox="0 0 108 124" fill="none" xmlns="http://www.w3.org/2000/svg">
<path d="M102.812 27.8016L58.6713 2.53238C55.927 0.961359 52.5595 0.945834 49.8008 2.49148L4.60087 27.8163C1.75956 29.4082 0 32.411 0 35.6679V88.5357C0 91.8276 1.79725 94.8569 4.68641 96.4346L49.8873 121.119C52.6012 122.601 55.8859 122.586 58.5862 121.079L102.726 96.4503C105.575 94.8606 107.341 91.8535 107.341 88.5909V35.6123C107.341 32.3851 105.613 29.4049 102.812 27.8016Z" fill="white"/>
<path d="M39.7919 19.5269C46.5316 23.081 59.3108 29.6534 65.0795 32.6086C67.3603 33.8169 71.3301 37.1301 71.3157 46.3377L71.3156 46.3415C71.3103 49.7577 71.3057 52.6784 68.2574 51.1355C61.0197 47.4722 45.4798 38.9727 41.3066 36.9645C39.9012 36.3779 37.1117 36.0266 37.1971 39.3145L37.3814 46.4124C37.4008 47.158 37.2767 47.9304 37.509 48.6392C37.9066 49.8523 39.2862 51.5674 42.8604 53.0006C45.6272 54.4242 58.6179 61.1904 64.7674 64.3955C67.1994 65.5786 71.9447 69.219 71.4704 74.3159C71.5889 78.8793 72.0056 96.4627 72.2912 107.928C72.3748 111.284 70.5869 114.406 67.65 116.032L57.3781 121.719C57.2436 121.816 57.0966 121.896 56.9408 121.961L57.3781 121.719C57.5591 121.589 57.7172 121.43 57.8429 121.241C59.1443 119.284 63.2548 111.928 54.5261 108.03C46.8475 104.341 36.4824 99.4013 32.2597 97.3923C29.4805 96.2853 24.4111 91.5111 25.158 81.0856C25.2447 79.8754 25.0284 78.1791 26.2032 77.8758C26.5398 77.7889 26.9225 77.8 27.2644 77.9192C27.8256 78.1146 28.2109 78.604 28.7303 78.8926C32.2376 80.8414 46.8367 88.152 54.4879 91.9549C55.903 92.9151 58.7877 94.0117 59.0054 90.716L58.8133 83.3177C58.7927 82.5245 58.6877 81.7274 58.3253 81.0215C57.3153 79.0539 54.8786 76.1176 50.3397 74.4357C49.7712 74.2251 49.2102 73.9904 48.6786 73.6987C42.6315 70.38 34.9884 66.7198 31.8043 65.2514C30.1272 64.5934 26.5792 62.1412 25.0304 57.4236C24.8228 56.7912 24.7412 56.1374 24.7358 55.4718C24.6863 49.3566 25.229 32.9257 25.2363 21.8447C25.2384 18.515 26.9932 15.4157 29.8925 13.7784L42.8351 6.46939L44.6112 5.46643L41.3121 7.97037C39.3674 9.2185 33.5026 13.6334 38.2354 18.4256C38.6842 18.8801 39.2269 19.2289 39.7919 19.5269Z" fill="#005B58"/>
</svg>
