<svg width="101" height="101" viewBox="0 0 101 101" fill="none" xmlns="http://www.w3.org/2000/svg">
<g clip-path="url(#clip0_5_93)">
<path d="M25.25 48.8447V75.75H52.1553L46.5442 70.1389H30.8611V54.4558L25.25 48.8447Z" fill="white" stroke="white" stroke-width="0.00101"/>
<path d="M97.8297 90.5914L89.7778 82.4272V89.7778H11.2222V78.1347H16.8334V73.6458H11.2222V54.9889H16.8334V50.5H11.2222V32.5445H16.8334V28.0556H11.2222V12.3725L55.9428 56.8406V48.9289L10.4086 3.61917C10.0162 3.22351 9.51486 2.95367 8.96849 2.84406C8.42211 2.73444 7.85547 2.79003 7.34081 3.00372C6.82615 3.21741 6.38678 3.57952 6.07873 4.0439C5.77067 4.50827 5.60789 5.05387 5.61113 5.61112V92.5833C5.61113 93.3274 5.90672 94.041 6.43286 94.5672C6.959 95.0933 7.67261 95.3889 8.41669 95.3889H95.8378C96.395 95.3921 96.9406 95.2294 97.405 94.9213C97.8694 94.6133 98.2315 94.1739 98.4452 93.6592C98.6589 93.1446 98.7145 92.5779 98.6049 92.0315C98.4952 91.4852 98.2254 90.9838 97.8297 90.5914Z" fill="white" stroke="white" stroke-width="0.00101"/>
<path d="M67.3333 84.1667H78.5555C80.0437 84.1667 81.4709 83.5755 82.5232 82.5232C83.5754 81.4709 84.1666 80.0437 84.1666 78.5556V24.4083L77.7138 12.5408C77.2148 11.6762 76.4941 10.9604 75.6261 10.4672C74.7581 9.97406 73.7743 9.72139 72.7761 9.73528C71.7552 9.74339 70.756 10.0298 69.8859 10.5637C69.0158 11.0977 68.3078 11.8588 67.8383 12.7653L61.7222 24.4645V78.5556C61.7222 80.0437 62.3133 81.4709 63.3656 82.5232C64.4179 83.5755 65.8451 84.1667 67.3333 84.1667ZM67.3333 25.8111L72.7761 15.2342L78.5555 25.8392V67.3333H67.3333V25.8111ZM67.3333 71.9064H78.5555V78.752H67.3333V71.9064Z" fill="white" stroke="white" stroke-width="0.00101"/>
<path d="M101 0H0V101H101V0Z" stroke="white" stroke-width="0.00101"/>
</g>
<defs>
<clipPath id="clip0_5_93">
<rect width="101" height="101" fill="white"/>
</clipPath>
</defs>
</svg>
