<svg width="107" height="99" viewBox="0 0 107 99" fill="none" xmlns="http://www.w3.org/2000/svg">
<path d="M72.0827 85.7844C71.5283 85.4471 71.0452 84.9948 70.6612 84.4467C70.4838 84.1939 70.334 83.9267 70.2099 83.6504H7.20636V21.5507H92.7246V62.0997C94.5503 62.2645 96.0822 63.4636 96.7253 65.1056C97.2948 64.7934 97.9295 64.6006 98.5966 64.5417C99.0478 64.5025 99.496 64.5305 99.9307 64.6164V6.0803C99.9307 2.76887 97.2372 0.0748291 93.926 0.0748291H6.00522C2.69404 0.0748291 0 2.76887 0 6.0803V84.8518C0 88.1633 2.69404 90.8571 6.00522 90.8571H71.5354C71.024 89.8215 70.9027 88.6525 71.2036 87.5278C71.3772 86.8809 71.6773 86.2907 72.0827 85.7844ZM86.13 10.1592C86.13 8.93461 87.1228 7.94164 88.3473 7.94164H90.5646C91.7895 7.94164 92.782 8.93435 92.782 10.1592V12.6723C92.782 13.8969 91.7892 14.8896 90.5646 14.8896H88.3473C87.1225 14.8896 86.13 13.8969 86.13 12.6723V10.1592ZM75.8194 10.1592C75.8194 8.93461 76.8121 7.94164 78.0367 7.94164H80.2543C81.4791 7.94164 82.4716 8.93435 82.4716 10.1592V12.6723C82.4716 13.8969 81.4789 14.8896 80.2543 14.8896H78.0367C76.8121 14.8896 75.8194 13.8969 75.8194 12.6723V10.1592ZM65.5085 10.1592C65.5085 8.93461 66.5015 7.94164 67.7258 7.94164H69.9431C71.168 7.94164 72.1607 8.93435 72.1607 10.1592V12.6723C72.1607 13.8969 71.168 14.8896 69.9431 14.8896H67.7258C66.5015 14.8896 65.5085 13.8969 65.5085 12.6723V10.1592Z" fill="white"/>
<path d="M106.986 81.5555L106.319 77.7767C106.229 77.2679 105.745 76.928 105.235 77.0177L101.875 77.6098C101.472 76.6632 100.956 75.7765 100.345 74.965L102.54 72.3486C102.699 72.1591 102.777 71.9132 102.755 71.6658C102.734 71.4183 102.614 71.19 102.424 71.0303L99.4853 68.5638C99.2952 68.4043 99.0488 68.3268 98.8017 68.3485C98.5543 68.3701 98.326 68.4891 98.1665 68.6792L95.9736 71.2935C95.0734 70.8348 94.1105 70.4812 93.1017 70.2478V66.8354C93.1017 66.3187 92.6826 65.8993 92.1658 65.8993H88.3285C87.812 65.8993 87.3926 66.3187 87.3926 66.8354V70.2478C86.3833 70.4809 85.4214 70.8348 84.5207 71.2935L82.3273 68.6795C81.9951 68.2835 81.405 68.232 81.0087 68.564L78.0696 71.0303C77.8795 71.19 77.7605 71.4183 77.7386 71.6658C77.7172 71.9132 77.7946 72.1593 77.9541 72.3494L80.1493 74.9652C79.5388 75.7765 79.0225 76.6637 78.6192 77.6101L75.2588 77.0177C74.7508 76.9282 74.2648 77.2679 74.1746 77.7767L73.5086 81.5555C73.4655 81.7998 73.5213 82.0511 73.6633 82.2546C73.8062 82.4582 74.0225 82.5966 74.2671 82.6396L77.63 83.2323C77.6848 84.2742 77.8662 85.2822 78.1583 86.2421L75.2025 87.948C74.9875 88.0716 74.8308 88.2764 74.7663 88.5159C74.7021 88.7557 74.736 89.011 74.8598 89.2261L76.7782 92.549C76.9018 92.764 77.1067 92.9207 77.3462 92.9849C77.4259 93.0063 77.5072 93.0168 77.5885 93.0168C77.7513 93.0168 77.9126 92.9745 78.0563 92.8914L81.0143 91.1835C81.71 91.9288 82.4953 92.5892 83.3534 93.1478L82.1854 96.3565C82.1008 96.5899 82.1118 96.8472 82.2168 97.0722C82.3217 97.2972 82.5116 97.4713 82.7447 97.5559L86.3497 98.8678C86.4531 98.9056 86.5617 98.9249 86.67 98.9249C86.805 98.9249 86.9408 98.8956 87.0659 98.837C87.2909 98.7323 87.4644 98.5422 87.5493 98.3088L88.7171 95.1001C89.2178 95.1607 89.7274 95.192 90.2444 95.192C90.7613 95.192 91.271 95.1602 91.7716 95.1001L92.9397 98.3088C93.0243 98.5422 93.1985 98.7323 93.423 98.837C93.5479 98.8954 93.6832 98.9249 93.819 98.9249C93.927 98.9249 94.0356 98.9061 94.139 98.8678L97.7445 97.5559C97.9771 97.4713 98.1672 97.2967 98.2719 97.0722C98.3769 96.8472 98.3881 96.5899 98.3033 96.3565L97.1353 93.1483C97.9927 92.5897 98.778 91.9288 99.4744 91.184L102.432 92.8919C102.576 92.9745 102.737 93.0173 102.9 93.0173C102.981 93.0173 103.063 93.0063 103.143 92.9854C103.382 92.9212 103.587 92.764 103.71 92.5495L105.629 89.2261C105.753 89.0115 105.787 88.7557 105.722 88.5159C105.658 88.2769 105.501 88.0721 105.286 87.948L102.331 86.2426C102.623 85.2825 102.804 84.2745 102.859 83.2328L106.222 82.6399C106.466 82.5968 106.683 82.4585 106.825 82.2549C106.973 82.0511 107.029 81.7998 106.986 81.5555ZM90.2474 87.5602C87.4051 87.5602 85.1004 85.2555 85.1004 82.4129C85.1004 79.5703 87.4053 77.2658 90.2474 77.2658C93.09 77.2658 95.3947 79.5703 95.3947 82.4129C95.3947 85.2555 93.09 87.5602 90.2474 87.5602Z" fill="white"/>
<path d="M41.9649 55.9739C41.9649 54.7631 41.2553 53.6509 40.1568 53.1408L30.1036 48.4697L40.1571 43.7981C41.2553 43.2875 41.9649 42.1755 41.9649 40.9652V40.8839C41.9649 39.8112 41.425 38.8264 40.5215 38.2508C40.0215 37.9315 39.4393 37.7626 38.8382 37.7626C38.3852 37.7626 37.9304 37.8622 37.5234 38.0513L21.4509 45.5255C20.353 46.0361 19.6439 47.148 19.6439 48.3581V48.5816C19.6439 49.7901 20.3527 50.9013 21.4512 51.4145L37.5252 58.8894C37.9408 59.0818 38.3834 59.1794 38.8405 59.1794C39.4363 59.1794 40.0167 59.0102 40.5215 58.6891C41.4255 58.1112 41.9652 57.1272 41.9652 56.0557L41.9649 55.9739Z" fill="white"/>
<path d="M57.8231 30.1468C57.2368 29.3441 56.2938 28.8651 55.3003 28.8651H55.2203C53.8561 28.8651 52.66 29.7378 52.2445 31.035L41.6548 63.8466C41.3534 64.794 41.5231 65.8374 42.1086 66.6398C42.6949 67.4419 43.6379 67.9212 44.6314 67.9212H44.7117C46.0754 67.9212 47.2707 67.0482 47.6858 65.7513L58.2741 32.9422C58.5784 31.9956 58.4097 30.9507 57.8231 30.1468Z" fill="white"/>
<path d="M78.4799 45.5252L62.4071 38.051C62.0014 37.8625 61.5474 37.7628 61.0943 37.7628C60.4935 37.7628 59.911 37.9313 59.4114 38.25C58.5063 38.8267 57.9664 39.8112 57.9664 40.8839V40.9652C57.9664 42.1745 58.6755 43.2867 59.7747 43.7994L69.8277 48.47L59.7745 53.1408C58.676 53.6509 57.9664 54.7631 57.9664 55.9739V56.0557C57.9664 57.1272 58.5063 58.111 59.4108 58.6894C59.9138 59.0099 60.4948 59.1794 61.0913 59.1794C61.5479 59.1794 61.99 59.0818 62.4084 58.8886L78.4819 51.4137C79.5793 50.9018 80.2879 49.7904 80.2879 48.5818V48.3584C80.2872 47.148 79.5781 46.0361 78.4799 45.5252Z" fill="white"/>
</svg>
