<?xml version="1.0" encoding="iso-8859-1"?>
<!-- Generator: Adobe Illustrator 16.0.0, SVG Export Plug-In . SVG Version: 6.00 Build 0)  -->
<!DOCTYPE svg PUBLIC "-//W3C//DTD SVG 1.1//EN" "http://www.w3.org/Graphics/SVG/1.1/DTD/svg11.dtd">
<!-- License: CC0. Made by SVG Repo: https://www.svgrepo.com/svg/142416/payphone-outline -->
<svg version="1.1" id="Capa_1" xmlns="http://www.w3.org/2000/svg" xmlns:xlink="http://www.w3.org/1999/xlink" x="0px" y="0px"
	 width="140.411px" height="140.411px" viewBox="0 0 140.411 140.411" style="enable-background:new 0 0 140.411 140.411;" fill="white"
	 xml:space="preserve">
<g>
	<g>
		<path d="M20.442,42.024h71.73c1.934,0,3.504-1.571,3.504-3.504V14.515c0-1.935-1.57-3.504-3.504-3.504h-71.73
			c-1.934,0-3.504,1.569-3.504,3.504V38.52C16.938,40.457,18.504,42.024,20.442,42.024z M23.947,18.02h64.721v16.996H23.947V18.02z"
			/>
		<path d="M20.442,60.887h71.73c1.934,0,3.504-1.571,3.504-3.504c0-1.935-1.57-3.504-3.504-3.504h-71.73
			c-1.934,0-3.504,1.569-3.504,3.504C16.938,59.316,18.504,60.887,20.442,60.887z"/>
		<path d="M20.442,71.4h71.73c1.934,0,3.504-1.571,3.504-3.505c0-1.935-1.57-3.504-3.504-3.504h-71.73
			c-1.934,0-3.504,1.569-3.504,3.504C16.938,69.829,18.504,71.4,20.442,71.4z"/>
		<path d="M20.442,81.913h71.73c1.934,0,3.504-1.571,3.504-3.505c0-1.937-1.57-3.504-3.504-3.504h-71.73
			c-1.934,0-3.504,1.567-3.504,3.504C16.938,80.342,18.504,81.913,20.442,81.913z"/>
		<path d="M20.442,92.426h71.73c1.934,0,3.504-1.571,3.504-3.504c0-1.938-1.57-3.505-3.504-3.505h-71.73
			c-1.934,0-3.504,1.567-3.504,3.505C16.938,90.854,18.504,92.426,20.442,92.426z"/>
		<path d="M133.652,50.271c-1.108-39.153-19.786-44.861-27.802-45.492V3.504c0-1.935-1.566-3.504-3.504-3.504H10.263
			C8.328,0,6.759,1.569,6.759,3.504v133.403c0,1.934,1.569,3.504,3.504,3.504h92.083c1.93,0,3.504-1.57,3.504-3.504v-9.295
			c2.149,0,4.72-0.444,6.924-2.08c1.93-1.428,4.232-4.306,4.232-9.891V92.426c0-0.075-0.041-0.144-0.048-0.219
			C124.779,87.207,132.931,75.849,133.652,50.271z M126.647,50.271c-0.921,32.562-14.507,37.935-20.797,38.657V70.928
			c2.865,0.273,4.911,2.707,4.915,2.71c0.78,0.973,2.019,1.462,3.237,1.28c7.46-1.074,9.198-15.749,9.571-24.698
			c-0.373-8.653-2.118-23.325-9.571-24.396c-1.205-0.176-2.437,0.318-3.217,1.257c-0.021,0.024-2.07,2.459-4.936,2.733V11.817
			C112.141,12.539,125.72,17.893,126.647,50.271z M105.851,36.795c3.275-0.144,5.941-1.514,7.741-2.849
			c1.386,2.919,2.69,9.818,2.984,16.277c-0.298,6.822-1.643,13.894-2.871,16.663c-1.8-1.364-4.514-2.786-7.854-2.933V36.795z
			 M98.843,7.009v1.314v24.53v35.043v24.53v10.222H13.768V7.009H98.843z M13.768,133.402v-23.746h85.075v23.746H13.768z
			 M109.999,115.642c0,2.129-0.466,3.566-1.383,4.25c-0.726,0.545-1.779,0.702-2.766,0.702V95.968
			c1.178-0.093,2.591-0.298,4.148-0.701V115.642z"/>
		<path d="M20.442,49.909h71.73c1.934,0,3.504-1.571,3.504-3.504c0-1.935-1.57-3.504-3.504-3.504h-71.73
			c-1.934,0-3.504,1.569-3.504,3.504C16.938,48.338,18.504,49.909,20.442,49.909z"/>
	</g>
</g>
</svg>
