<?xml version="1.0" encoding="utf-8"?>
<!-- License: PD. Made by Mary Akveo: https://maryakveo.com/ -->
<svg width="800px" height="800px" viewBox="0 0 20 20" xmlns="http://www.w3.org/2000/svg">
  <g id="bring-backward" transform="translate(-2 -2)">
    <path id="secondary" fill="#fff" d="M20,9H13v3a1,1,0,0,1-1,1H9v7a1,1,0,0,0,1,1H20a1,1,0,0,0,1-1V10A1,1,0,0,0,20,9Z"/>
    <path id="primary" d="M13,9h7a1,1,0,0,1,1,1V20a1,1,0,0,1-1,1H10a1,1,0,0,1-1-1V13" fill="none" stroke="#fff" stroke-linecap="round" stroke-linejoin="round" stroke-width="2"/>
    <rect id="primary-2" data-name="primary" width="10" height="10" rx="1" transform="translate(13 3) rotate(90)" fill="none" stroke="#fff" stroke-linecap="round" stroke-linejoin="round" stroke-width="2"/>
  </g>
</svg>