<?xml version="1.0" ?><!DOCTYPE svg  PUBLIC '-//W3C//DTD SVG 1.1//EN'  'http://www.w3.org/Graphics/SVG/1.1/DTD/svg11.dtd'>
<!-- License: CC Attribution. Made by Sivadharshan Thangaraj: https://www.behance.net/sivadhathangar1 -->
<svg width="800px" height="800px" viewBox="0 0 256 256" style="fill-rule:evenodd;clip-rule:evenodd;stroke-linejoin:round;stroke-miterlimit:1.41421;" version="1.1" xml:space="preserve" xmlns="http://www.w3.org/2000/svg" xmlns:serif="http://www.serif.com/" xmlns:xlink="http://www.w3.org/1999/xlink"><circle cx="128" cy="201.657" r="19.61" style="fill:#fff;fill-opacity:0;"/><path d="M128.17,175.297c12.107,0.116 23.503,9.42 25.749,21.54c2.208,11.916 -4.952,24.888 -16.254,29.348c-13.576,5.357 -30.983,-2.757 -35.068,-17.473c-4.252,-15.32 8.01,-33.144 25.064,-33.413c0.17,-0.002 0.339,-0.002 0.509,-0.002Zm-0.254,13.5c-8.761,0.084 -15.762,10.874 -11.152,19.117c4.815,8.609 20.801,8.181 23.692,-3.042c1.9,-7.377 -3.856,-15.835 -12.122,-16.071c-0.139,-0.003 -0.278,-0.005 -0.418,-0.004Z" style="fill:#fff;fill-rule:nonzero;"/><path d="M195.846,127.822c-18.785,-16.428 -42.892,-25.482 -67.846,-25.482c-24.954,0 -49.061,9.054 -67.846,25.482l24.986,28.571c11.867,-10.378 27.096,-16.098 42.86,-16.098c15.764,0 30.993,5.72 42.86,16.098l24.986,-28.571Z" style="fill:#fff;fill-opacity:0.709804;"/><path d="M128.312,95.591c25.906,0.11 51.619,9.644 71.271,26.538c2.354,2.023 4.072,6.728 1.344,10.137l-24.986,28.57c-2.844,2.979 -7.252,2.501 -10.785,-0.433c-20.557,-16.878 -52.798,-17.563 -74.057,-0.21c-0.935,0.764 -1.99,1.659 -1.99,1.659c-2.823,1.871 -6.676,1.471 -9.05,-1.016l-24.986,-28.57c-2.47,-3.087 -1.806,-7.43 1.344,-10.137c19.462,-16.73 44.723,-26.205 70.337,-26.532c0.519,-0.005 1.039,-0.007 1.558,-0.006Zm-0.585,13.5c-20.719,0.088 -41.19,6.943 -57.848,19.513c0,0 16.108,18.503 16.108,18.503c0.914,-0.659 1.842,-1.295 2.785,-1.909c23.373,-15.231 55.903,-15.256 79.465,0.669c0.745,0.504 1.776,1.24 1.776,1.24l16.152,-18.469c-16.575,-12.583 -36.988,-19.4 -57.619,-19.546c-0.273,-0.001 -0.546,-0.002 -0.819,-0.001Z" style="fill:#fff;fill-rule:nonzero;"/><path d="M247.067,72.64c-32.718,-29.343 -75.118,-45.572 -119.067,-45.572c-43.949,0 -86.349,16.229 -119.067,45.572l26.018,29.011c25.569,-22.931 58.704,-35.613 93.049,-35.613c34.345,0 67.48,12.682 93.049,35.613l26.018,-29.011Z" style="fill:#fff;fill-opacity:0.290196;"/><path d="M128.534,20.319c43.894,0.19 87.546,16.349 121.039,45.527c3.243,2.825 5.74,7.276 2.519,11.301l-26.018,29.011c-3.23,3.218 -7.805,1.961 -11.834,-1.499c-30.593,-26.113 -73.577,-37.396 -113.407,-29.059c-22.692,4.75 -43.952,15.496 -61.382,31.083c0,0 -5.643,3.343 -9.525,-0.525l-26.018,-29.011c-2.384,-2.979 -1.967,-7.318 0.916,-9.888c0.532,-0.474 1.066,-0.945 1.603,-1.413c33.312,-29.02 76.555,-45.334 121.039,-45.527c0.356,0 0.712,0 1.068,0Zm-1.029,13.5c-39.404,0.171 -78.464,14.311 -108.819,39.328c0,0 16.888,19.088 16.888,19.088c41.046,-33.434 99.663,-42.059 148.509,-21.755c13.089,5.44 25.345,12.797 36.343,21.755l17.021,-18.978c-30.198,-25.034 -69.199,-39.153 -108.456,-39.436c-0.496,-0.002 -0.991,-0.003 -1.486,-0.002Z" style="fill:#fff;fill-rule:nonzero;"/></svg>