<svg width="342" height="273" viewBox="0 0 342 273" fill="none" xmlns="http://www.w3.org/2000/svg">
<path d="M171 102.429V206.143M171 102.429L136.333 137M171 102.429L205.667 137M172.087 34.3702L169.913 32.2012C163.918 26.2219 160.919 23.2323 157.421 21.0944C154.318 19.1989 150.937 17.802 147.401 16.9552C143.411 16 139.171 16 130.692 16H70.4667C51.0516 16 41.3439 16 33.9283 19.7681C27.4053 23.0825 22.102 28.3712 18.7785 34.8763C15 42.2715 15 51.9524 15 71.3143V202.686C15 222.047 15 231.729 18.7785 239.124C22.102 245.629 27.4053 250.918 33.9283 254.232C41.3439 258 51.0514 258 70.4667 258H271.533C290.948 258 300.657 258 308.072 254.232C314.595 250.918 319.899 245.629 323.221 239.124C327 231.729 327 222.047 327 202.686V105.886C327 86.524 327 76.843 323.221 69.4478C319.899 62.9426 314.595 57.6539 308.072 54.3395C300.657 50.5714 290.948 50.5714 271.533 50.5714H211.309C202.829 50.5714 198.589 50.5714 194.599 49.6162C191.063 48.7694 187.682 47.3725 184.579 45.477C181.081 43.3391 178.082 40.3495 172.087 34.3702Z" stroke="white" stroke-width="30" stroke-linecap="round" stroke-linejoin="round"/>
</svg>
