<svg width="537" height="520" viewBox="0 0 537 520" fill="none" xmlns="http://www.w3.org/2000/svg">
<path d="M27.8968 17.8698L2.89803 117.889C-0.656778 131.904 -0.945291 146.549 2.05473 160.694C5.05476 174.838 11.2632 188.105 20.2013 199.471C22.4295 201.961 24.7937 204.325 27.2831 206.553V495.727C27.2831 501.988 29.7701 507.992 34.1971 512.419C38.6241 516.846 44.6284 519.333 50.8891 519.333H313.979C320.239 519.333 326.244 516.846 330.671 512.419C335.098 507.992 337.585 501.988 337.585 495.727C337.585 489.467 335.098 483.462 330.671 479.035C326.244 474.608 320.239 472.121 313.979 472.121H74.4008V233.7C91.1507 237.54 108.636 236.683 124.929 231.222C141.223 225.762 155.694 215.91 166.748 202.752C167.456 203.579 167.952 204.547 168.683 205.349C177.601 215.018 188.423 222.738 200.468 228.023C212.513 233.309 225.522 236.045 238.675 236.061H240.635C253.783 236.048 266.787 233.315 278.828 228.033C290.869 222.752 301.688 215.037 310.603 205.373C311.335 204.57 311.831 203.579 312.539 202.752C323.591 215.912 338.061 225.765 354.356 231.226C370.65 236.687 388.136 237.543 404.886 233.7V283.273C404.886 289.533 407.373 295.538 411.8 299.965C416.227 304.392 422.231 306.879 428.492 306.879C434.752 306.879 440.757 304.392 445.184 299.965C449.611 295.538 452.098 289.533 452.098 283.273V206.6C454.587 204.372 456.951 202.008 459.18 199.518C468.118 188.152 474.326 174.886 477.326 160.741C480.326 146.596 480.038 131.951 476.483 117.936L451.39 17.8698C450.111 12.7651 447.163 8.234 443.014 4.99635C438.866 1.7587 433.754 0.000138342 428.492 0H50.7947C45.5323 0.000138342 40.4207 1.7587 36.2721 4.99635C32.1235 8.234 29.1756 12.7651 27.8968 17.8698ZM410.055 47.2121L430.593 129.338C432.362 136.398 432.498 143.77 430.991 150.891C429.483 158.012 426.371 164.696 421.892 170.434C417.413 176.172 411.684 180.813 405.142 184.004C398.599 187.194 391.415 188.851 384.136 188.848C372.142 188.784 360.604 184.248 351.776 176.128C342.949 168.008 337.468 156.888 336.404 144.941L328.26 47.2121H410.055ZM198.309 47.2121H280.93L288.413 136.915C288.965 143.525 288.14 150.177 285.989 156.451C283.839 162.725 280.41 168.484 275.919 173.365C271.429 178.246 265.974 182.142 259.901 184.808C253.827 187.473 247.267 188.849 240.635 188.848H238.675C232.059 188.851 225.514 187.482 219.453 184.827C213.392 182.173 207.948 178.291 203.463 173.427C198.977 168.562 195.549 162.821 193.395 156.565C191.24 150.309 190.406 143.675 190.944 137.08L198.309 47.2121ZM151.097 47.2121L150.814 50.3753L143.921 132.997L142.953 144.8C141.922 156.78 136.449 167.941 127.608 176.092C118.767 184.242 107.198 188.793 95.1741 188.848C87.8945 188.85 80.7102 187.193 74.1671 184.002C67.624 180.812 61.8943 176.171 57.4134 170.434C52.9325 164.697 49.8183 158.014 48.3073 150.893C46.7964 143.772 46.9286 136.4 48.6938 129.338L69.2311 47.2121H151.097Z" fill="white"/>
<path d="M483.149 361.014L486.029 363.886C508.401 386.209 519.587 397.371 519.587 411.24C519.587 425.109 508.401 436.27 486.029 458.592L483.149 461.465" stroke="white" stroke-width="34" stroke-linecap="round"/>
<path d="M366.941 452.602L364.062 449.729C341.69 427.407 330.503 416.245 330.503 402.376C330.503 388.507 341.69 377.345 364.062 355.024L366.941 352.151" stroke="white" stroke-width="34" stroke-linecap="round"/>
<path d="M446.711 330.485L425.044 411.239L403.379 491.994" stroke="white" stroke-width="34" stroke-linecap="round"/>
</svg>
