<svg width="732" height="703" viewBox="0 0 732 703" fill="none" xmlns="http://www.w3.org/2000/svg">
<path d="M623.04 590.791C618.748 594.951 613.095 597.2 607.119 597.116L425.262 594.262C412.927 594.039 403.029 583.825 403.193 571.516L404.246 504.904C404.31 500.791 407.034 497.186 410.99 496.012C414.932 494.843 419.182 496.37 421.486 499.777C423.017 502.048 424.367 503.753 425.725 505.154C440.078 519.965 464.055 520.585 478.872 506.226C493.703 491.854 492.611 469.057 478.259 454.246C463.886 439.415 441.371 437.851 426.54 452.223C425.152 453.568 423.759 455.226 422.154 457.445C419.744 460.831 415.449 462.17 411.545 460.878C407.635 459.58 405.019 455.892 405.084 451.779L406.053 389.659C406.268 377.654 416.847 367.429 428.799 367.59L474.287 368.318C464.588 348.663 468.117 324.152 484.674 308.106C505.203 288.212 538.1 288.736 558 309.271C574.045 325.828 576.809 350.432 566.484 369.772L610.646 370.453C622.994 370.664 632.892 380.877 632.715 393.213L629.862 575.05C629.757 581.052 627.333 586.632 623.04 590.791L623.04 590.791ZM422.757 526.837L422.044 571.785C422.021 573.732 423.609 575.371 425.581 575.409L607.385 578.268C609.925 578.294 610.957 577.321 611.008 574.731L613.857 392.931C613.881 390.97 612.307 389.346 610.334 389.308L546.234 388.321C542.221 388.258 538.681 385.662 537.427 381.855C536.173 378.049 537.416 373.864 540.652 371.411L541.812 370.543C542.456 370.07 543.117 369.613 543.713 369.036C556.777 356.376 557.112 335.458 544.459 322.401C531.792 309.33 510.861 308.995 497.798 321.655C484.74 334.308 484.418 355.239 497.085 368.31C497.61 368.851 498.206 369.297 498.795 369.757L500.112 370.824C501.612 372.073 502.687 373.756 503.189 375.642C503.692 377.528 503.597 379.523 502.917 381.353C501.535 385.075 497.923 387.552 493.933 387.492L428.53 386.448C425.99 386.422 424.958 387.395 424.907 389.985L424.272 430.448C446.121 417.736 473.438 422.175 491.803 441.126C513.396 463.409 514.287 498.164 491.991 519.77C473.044 538.125 444.177 540.222 422.757 526.837Z" fill="white"/>
<path d="M108.421 597.791C112.714 601.951 118.366 604.2 124.342 604.116L306.199 601.262C318.534 601.039 328.432 590.825 328.269 578.516L327.215 511.904C327.151 507.791 324.427 504.186 320.471 503.012C316.529 501.843 312.279 503.37 309.976 506.777C308.444 509.048 307.094 510.753 305.736 512.154C291.384 526.965 267.407 527.585 252.589 513.226C237.758 498.854 238.85 476.057 253.203 461.246C267.575 446.415 290.09 444.851 304.921 459.223C306.309 460.568 307.702 462.226 309.307 464.445C311.717 467.831 316.012 469.17 319.916 467.878C323.826 466.58 326.442 462.892 326.377 458.779L325.408 396.659C325.193 384.654 314.614 374.429 302.662 374.59L257.174 375.318C266.873 355.663 263.344 331.152 246.787 315.106C226.258 295.212 193.361 295.736 173.461 316.271C157.416 332.828 154.652 357.432 164.977 376.772L120.815 377.453C108.467 377.664 98.5694 387.877 98.7465 400.213L101.6 582.05C101.704 588.052 104.129 593.632 108.421 597.791L108.421 597.791ZM308.704 533.837L309.417 578.785C309.441 580.732 307.853 582.371 305.88 582.409L124.076 585.268C121.536 585.294 120.504 584.321 120.453 581.731L117.604 399.931C117.58 397.97 119.155 396.346 121.127 396.308L185.227 395.321C189.24 395.258 192.78 392.662 194.034 388.855C195.288 385.049 194.045 380.864 190.809 378.411L189.649 377.543C189.005 377.07 188.344 376.613 187.748 376.036C174.684 363.376 174.349 342.458 187.002 329.401C199.669 316.33 220.6 315.995 233.664 328.655C246.721 341.308 247.043 362.239 234.376 375.31C233.852 375.851 233.255 376.297 232.666 376.757L231.349 377.824C229.849 379.073 228.774 380.756 228.272 382.642C227.769 384.528 227.864 386.523 228.544 388.353C229.926 392.075 233.539 394.552 237.528 394.492L302.931 393.448C305.471 393.422 306.503 394.395 306.554 396.985L307.19 437.448C285.34 424.736 258.023 429.175 239.658 448.126C218.065 470.409 217.174 505.164 239.47 526.77C258.417 545.125 287.285 547.222 308.704 533.837Z" fill="white"/>
<path fill-rule="evenodd" clip-rule="evenodd" d="M383.441 383.983L375.893 391.114C374.264 392.639 371.644 391.496 371.644 389.279V314.05C371.644 311.262 369.315 309 366.496 309H366.537C363.718 309 361.43 311.262 361.43 314.05V389.205C361.43 391.433 358.662 392.568 357.043 391.023L349.587 383.931C347.554 382.012 344.306 382.098 342.386 384.133L342.365 384.143C340.465 386.153 340.557 389.306 342.585 391.2L359.632 407.243C363.58 410.934 369.759 410.915 373.692 407.208L390.433 391.306C392.435 389.418 392.532 386.291 390.647 384.286L390.596 384.229C388.691 382.204 385.484 382.094 383.441 383.983Z" fill="white"/>
<path d="M282.318 286.098C280.507 284.298 279.296 281.654 279.408 278.885L279.215 211.962C275.847 212.694 272.603 214.75 267.918 217.772C261.55 222.004 253.742 227.202 242.909 227.233C221.725 227.294 201.686 207.372 201.625 186.187C201.564 165.003 221.487 144.965 242.671 144.904C253.504 144.872 261.463 150.146 267.734 154.22C272.196 157.216 275.573 159.373 279.065 159.965L278.872 93.042C278.743 90.274 279.819 87.7432 281.739 85.8118C283.66 83.8804 286.184 82.7898 288.953 82.9022L350.941 82.8435C356.478 82.8275 361.065 87.3881 361.202 93.0449L361.224 100.748C361.255 111.581 355.982 119.54 351.908 125.811C348.192 131.238 345.795 134.856 345.928 139.309C345.957 149.179 356.942 160.101 366.812 160.072C376.682 160.044 387.483 149.18 387.575 139.189C387.441 134.736 385.024 131.132 381.276 125.486C377.045 119.118 371.846 111.31 371.815 100.477L371.793 92.7735C371.785 90.1255 372.861 87.354 374.781 85.4226C376.701 83.4912 379.226 82.4006 381.994 82.513L443.982 82.4543C449.519 82.4383 454.106 86.9989 454.243 92.6557L454.436 159.578C457.804 158.846 461.048 156.791 465.734 153.768C472.101 149.537 479.91 144.339 490.743 144.307C511.927 144.246 531.965 164.169 532.026 185.353C532.087 206.537 512.165 226.576 490.98 226.637C480.148 226.668 472.188 221.395 465.917 217.321C461.455 214.324 458.079 212.168 454.587 211.576L454.78 278.498C454.788 281.147 453.712 283.918 451.912 285.729C450.112 287.539 447.467 288.751 444.698 288.638L382.71 288.697C377.174 288.713 372.587 284.152 372.45 278.496L372.428 270.792C372.396 259.959 377.669 252 381.744 245.729C385.459 240.061 387.856 236.444 387.722 231.99C387.694 222.121 376.709 211.199 366.839 211.228C356.969 211.256 346.168 222.12 346.076 232.111C346.089 236.444 348.386 240.169 352.134 245.815C356.365 252.182 361.564 259.991 361.595 270.824L361.617 278.527C361.625 281.175 360.549 283.946 358.749 285.757C356.829 287.689 354.304 288.779 351.416 288.787L289.428 288.846C286.78 289.095 284.249 288.019 282.318 286.098ZM299.243 103.214L299.437 170.378C299.453 175.914 294.892 180.501 289.235 180.638L281.532 180.66C270.699 180.692 262.74 175.419 256.469 171.344C250.801 167.629 247.183 165.233 242.73 165.366C238.156 165.379 232.867 167.802 228.667 172.026C224.466 176.251 221.953 181.434 222.087 186.128C222.116 195.998 233.101 206.92 242.97 206.891C247.304 206.879 251.028 204.581 256.675 200.833C263.042 196.602 270.851 191.404 281.683 191.372L289.387 191.35C294.923 191.334 299.51 195.895 299.647 201.552L299.841 268.715L341.247 268.595C340.515 265.227 338.459 261.983 335.436 257.298C331.205 250.931 326.007 243.122 325.976 232.289C325.946 222.179 330.49 211.814 338.532 203.726C346.573 195.639 356.911 191.035 367.021 191.006C388.206 190.944 408.244 210.867 408.305 232.051C408.336 242.884 403.063 250.843 398.989 257.114C395.993 261.576 393.836 264.953 393.244 268.445L434.649 268.326L434.455 201.162C434.439 195.625 439 191.038 444.657 190.902L452.36 190.879C463.193 190.848 471.152 196.121 477.423 200.195C483.091 203.91 486.709 206.307 491.162 206.174C495.736 206.161 501.145 203.618 505.226 199.513C509.306 195.409 511.939 190.105 511.805 185.412C511.899 176.143 500.31 164.622 490.922 164.649C486.589 164.661 482.864 166.959 477.218 170.707C470.85 174.938 463.042 180.136 452.209 180.167L444.506 180.19C438.969 180.206 434.382 175.645 434.245 169.988L433.81 102.825L392.525 102.824C393.257 106.192 395.312 109.436 398.335 114.122C402.566 120.489 407.764 128.298 407.796 139.131C407.825 149.241 403.281 159.606 395.24 167.694C387.199 175.781 376.861 180.385 366.75 180.414C346.529 180.473 325.404 159.47 325.466 139.368C325.435 128.536 330.708 120.576 334.783 114.306C337.899 109.723 339.936 106.467 340.648 103.095L299.243 103.214Z" fill="white"/>
</svg>
