<svg width="638" height="570" viewBox="0 0 638 570" fill="none" xmlns="http://www.w3.org/2000/svg">
<path d="M434.467 149.867L436.601 151.995C453.177 168.534 461.465 176.804 461.465 187.08C461.465 197.356 453.177 205.626 436.601 222.165L434.467 224.293" stroke="white" stroke-width="34" stroke-linecap="round"/>
<path d="M348.366 217.726L346.233 215.598C329.657 199.059 321.368 190.789 321.368 180.513C321.368 170.237 329.657 161.967 346.233 145.428L348.366 143.3" stroke="white" stroke-width="34" stroke-linecap="round"/>
<path d="M407.47 127.247L391.416 187.079L375.364 246.913" stroke="white" stroke-width="34" stroke-linecap="round"/>
<path d="M148.487 470.294H197.882M321.369 396.202V465.354C321.369 493.018 321.369 506.851 315.984 517.417C311.25 526.71 303.693 534.268 294.399 539.002C283.833 544.386 270 544.386 242.337 544.386H104.032C76.3681 544.386 62.5361 544.386 51.97 539.002C42.6757 534.268 35.1193 526.71 30.3838 517.417C25 506.851 25 493.018 25 465.354V178.865C25 151.201 25 137.369 30.3838 126.803C35.1193 117.509 42.6757 109.953 51.97 105.217C62.5361 99.8332 76.3681 99.8333 104.032 99.8333H173.184" stroke="white" stroke-width="50" stroke-linecap="round" stroke-linejoin="round"/>
<path d="M173.184 379.901H612.551M246.412 325.301H539.323C566.285 325.301 588.141 300.857 588.141 270.701V79.6002C588.141 49.4453 566.285 25 539.323 25H246.412C219.45 25 197.593 49.4453 197.593 79.6002V270.701C197.593 300.857 219.45 325.301 246.412 325.301Z" stroke="white" stroke-width="50" stroke-linecap="round" stroke-linejoin="round"/>
</svg>
