<svg width="579" height="523" viewBox="0 0 579 523" fill="none" xmlns="http://www.w3.org/2000/svg">
<path d="M574.654 90.595C570.716 85.5003 564.639 82.5161 558.199 82.5161H143.594L126.183 15.5642C123.798 6.39817 115.522 0 106.051 0H20.8003C9.31298 0 0 9.31298 0 20.8003C0 32.2876 9.31298 41.6006 20.8003 41.6006H89.9682L107.238 108.012C107.324 108.383 107.421 108.752 107.526 109.116L171.749 356.073C174.134 365.239 182.41 371.637 191.881 371.637H493.829C503.3 371.637 511.576 365.239 513.961 356.073L578.331 108.55C579.951 102.324 578.592 95.6924 574.654 90.595ZM477.747 330.042H207.964L154.413 124.119H531.3L477.747 330.042Z" fill="white"/>
<path d="M351.95 147.379C307.03 147.379 270.484 183.924 270.484 228.845C270.484 273.766 307.03 310.311 351.95 310.311C396.872 310.311 433.417 273.766 433.417 228.845C433.417 183.924 396.871 147.379 351.95 147.379ZM351.95 298.632C313.47 298.632 282.162 267.326 282.162 228.845C282.162 190.363 313.469 159.057 351.95 159.057C390.432 159.057 421.739 190.363 421.739 228.845C421.739 267.326 390.432 298.632 351.95 298.632Z" fill="white"/>
<path d="M401.032 254.16C395.157 252.549 388.762 251.261 381.992 250.302C382.652 243.399 382.999 236.198 382.999 228.845C382.999 221.486 382.652 214.287 381.993 207.388C388.762 206.429 395.157 205.14 401.031 203.529C404.141 202.676 405.97 199.464 405.118 196.354C404.264 193.244 401.049 191.412 397.942 192.267C392.662 193.715 386.789 194.891 380.543 195.78C379.236 187.446 377.429 179.76 375.161 173.065C374.127 170.011 370.813 168.375 367.758 169.409C364.703 170.443 363.066 173.758 364.101 176.812C366.117 182.765 367.74 189.608 368.932 197.06C363.405 197.501 357.706 197.735 351.947 197.735C346.191 197.735 340.496 197.502 334.972 197.061C336.138 189.777 337.712 183.07 339.663 177.215C340.683 174.155 339.03 170.849 335.971 169.829C332.911 168.811 329.605 170.463 328.585 173.522C326.39 180.106 324.635 187.633 323.357 195.781C317.111 194.892 311.237 193.716 305.957 192.267C302.847 191.413 299.634 193.244 298.781 196.354C297.928 199.464 299.757 202.676 302.868 203.529C308.742 205.141 315.138 206.43 321.909 207.389C321.25 214.291 320.902 221.492 320.902 228.845C320.902 236.203 321.249 243.402 321.908 250.302C315.138 251.261 308.742 252.549 302.868 254.16C299.757 255.013 297.928 258.225 298.781 261.336C299.633 264.445 302.844 266.276 305.957 265.422C311.238 263.974 317.112 262.798 323.359 261.909C324.666 270.243 326.471 277.928 328.739 284.623C329.563 287.057 331.834 288.591 334.269 288.591C334.89 288.591 335.522 288.491 336.143 288.281C339.197 287.246 340.834 283.932 339.8 280.878C337.785 274.925 336.162 268.082 334.969 260.63C340.495 260.189 346.193 259.955 351.95 259.955C357.707 259.955 363.403 260.188 368.929 260.63C367.762 267.913 366.188 274.619 364.237 280.474C363.217 283.534 364.871 286.841 367.93 287.86C368.542 288.064 369.165 288.162 369.777 288.162C372.222 288.162 374.5 286.614 375.316 284.168C377.51 277.583 379.266 270.057 380.543 261.91C386.789 262.799 392.663 263.975 397.945 265.423C398.461 265.565 398.981 265.632 399.491 265.632C402.057 265.632 404.408 263.929 405.12 261.336C405.972 258.225 404.142 255.012 401.032 254.16ZM351.95 248.277C345.642 248.277 339.473 248.531 333.511 249.017C332.903 242.551 332.581 235.783 332.581 228.845C332.581 221.911 332.903 215.142 333.512 208.672C339.473 209.159 345.64 209.412 351.948 209.412C358.258 209.412 364.429 209.158 370.391 208.672C370.999 215.138 371.321 221.907 371.321 228.845C371.321 235.778 370.999 242.547 370.39 249.017C364.428 248.53 358.259 248.277 351.95 248.277Z" fill="white"/>
<path d="M449.365 472.116C460.12 472.116 468.838 463.399 468.838 452.644C468.838 441.889 460.12 433.171 449.365 433.171C438.611 433.171 429.893 441.889 429.893 452.644C429.893 463.399 438.611 472.116 449.365 472.116Z" stroke="white" stroke-width="10" stroke-miterlimit="10" stroke-linecap="round" stroke-linejoin="round"/>
<path d="M384.457 458.355V446.931C384.457 440.181 389.974 434.599 396.79 434.599C408.538 434.599 413.341 426.291 407.435 416.1C404.059 410.258 406.072 402.664 411.978 399.289L423.207 392.863C428.335 389.812 434.956 391.63 438.006 396.757L438.72 397.991C444.562 408.181 454.169 408.181 460.075 397.991L460.789 396.757C463.84 391.63 470.461 389.812 475.588 392.863L486.818 399.289C492.724 402.664 494.736 410.258 491.361 416.1C485.454 426.291 490.258 434.599 502.006 434.599C508.757 434.599 514.339 440.116 514.339 446.931V458.355C514.339 465.106 508.821 470.688 502.006 470.688C490.258 470.688 485.454 478.996 491.361 489.187C494.736 495.093 492.724 502.623 486.818 505.998L475.588 512.424C470.461 515.475 463.84 513.657 460.789 508.529L460.075 507.296C454.234 497.106 444.627 497.106 438.72 507.296L438.006 508.529C434.956 513.657 428.335 515.475 423.207 512.424L411.978 505.998C406.072 502.623 404.059 495.028 407.435 489.187C413.341 478.996 408.538 470.688 396.79 470.688C389.974 470.688 384.457 465.106 384.457 458.355Z" stroke="white" stroke-width="10" stroke-miterlimit="10" stroke-linecap="round" stroke-linejoin="round"/>
<path d="M243.091 476.13C253.846 476.13 262.563 467.412 262.563 456.657C262.563 445.902 253.846 437.185 243.091 437.185C232.336 437.185 223.618 445.902 223.618 456.657C223.618 467.412 232.336 476.13 243.091 476.13Z" stroke="white" stroke-width="10" stroke-miterlimit="10" stroke-linecap="round" stroke-linejoin="round"/>
<path d="M178.183 462.368V450.945C178.183 444.194 183.7 438.612 190.515 438.612C202.264 438.612 207.067 430.304 201.16 420.113C197.785 414.272 199.797 406.677 205.704 403.302L216.933 396.876C222.061 393.825 228.681 395.643 231.732 400.771L232.446 402.004C238.288 412.195 247.894 412.195 253.801 402.004L254.515 400.771C257.565 395.643 264.186 393.825 269.314 396.876L280.543 403.302C286.45 406.677 288.462 414.272 285.087 420.113C279.18 430.304 283.983 438.612 295.732 438.612C302.482 438.612 308.064 444.129 308.064 450.945V462.368C308.064 469.119 302.547 474.701 295.732 474.701C283.983 474.701 279.18 483.009 285.087 493.2C288.462 499.107 286.45 506.636 280.543 510.011L269.314 516.437C264.186 519.488 257.565 517.67 254.515 512.543L253.801 511.309C247.959 501.119 238.353 501.119 232.446 511.309L231.732 512.543C228.681 517.67 222.061 519.488 216.933 516.437L205.704 510.011C199.797 506.636 197.785 499.042 201.16 493.2C207.067 483.009 202.264 474.701 190.515 474.701C183.7 474.701 178.183 469.119 178.183 462.368Z" stroke="white" stroke-width="10" stroke-miterlimit="10" stroke-linecap="round" stroke-linejoin="round"/>
</svg>
