<?xml version="1.0" encoding="iso-8859-1"?>
<!-- Generator: Adobe Illustrator 16.0.0, SVG Export Plug-In . SVG Version: 6.00 Build 0)  -->
<!DOCTYPE svg PUBLIC "-//W3C//DTD SVG 1.1//EN" "http://www.w3.org/Graphics/SVG/1.1/DTD/svg11.dtd">
<!-- License: CC0. Made by SVG Repo: https://www.svgrepo.com/svg/58542/webappers -->
<svg version="1.1" id="Capa_1" xmlns="http://www.w3.org/2000/svg" xmlns:xlink="http://www.w3.org/1999/xlink" x="0px" y="0px"
	 width="458.236px" height="458.236px" viewBox="0 0 458.236 458.236" style="enable-background:new 0 0 458.236 458.236;"
	 xml:space="preserve" fill="white">
<g>
	<g>
		<path d="M442.467,79.81h-54.979c0,0-19.98,0-24.914,18.301l-23.631,120.9c0,0,46.559,117.178,52.646,124.08
			c4.531,6.863,20.342,15.754,25.418-2.041l41.229-243.444v-2.023C458.236,95.582,457.551,79.81,442.467,79.81z"/>
		<path d="M66.665,346.742c6.034-6.865,52.609-121.009,52.609-121.009L95.661,101.796c-4.914-18.319-24.949-18.319-24.949-18.319
			H15.754C0.688,83.477,0,99.231,0,99.231v2.06l41.209,243.428C46.305,362.531,62.13,353.625,66.665,346.742z"/>
		<path d="M384.889,346.849c-3.957-8.383-104.117-239.344-104.117-239.344s-9.467-18.103-38.645-18.103c-3.396,0-5.258,0-6.25,0
			c0.018,0-0.219,0-1.031,0c-1.68,0-5.908,0-15.625,0c-32.593,0-39.873,17.705-39.873,17.705S97.921,304.609,82.131,335.142
			c-11.545,36.148-30.515,33.98-30.515,33.98c-2.402,11.526,11.311,9.088,11.311,9.088s58.788,0,78.625,0
			c19.854,0,28.616-19.021,28.616-19.021l57.633-141.045l61.425,141.045c8.42,16.676,21.57,19.021,21.57,19.021s52.664,0,74.416,0
			s22.729-14.887,22.729-14.887C392.654,362.568,388.824,355.251,384.889,346.849z"/>
		<path d="M228.395,302.299c-16.007,0-28.997,12.971-28.997,29.016c0,16.007,12.99,28.996,28.997,28.996
			c16.025,0,29.015-12.989,29.015-28.996C257.412,315.269,244.422,302.299,228.395,302.299z"/>
	</g>
</g>
</svg>
