<svg width="169" height="38" viewBox="0 0 169 38" fill="none" xmlns="http://www.w3.org/2000/svg">
<path d="M54.0939 28.4791C52.3782 28.4791 50.877 28.0833 49.5922 27.2878C48.3054 26.4943 47.3059 25.389 46.5937 23.9699C45.8854 22.5469 45.5312 20.8919 45.5312 19.0051C45.5312 17.1024 45.8972 15.4234 46.633 13.9684C47.3728 12.5133 48.4215 11.378 49.7811 10.5625C51.1446 9.74307 52.7658 9.33134 54.6448 9.33134C56.7796 9.33134 58.5484 9.85101 59.9492 10.8903C61.354 11.9297 62.267 13.3667 62.688 15.1996H58.9655C58.6861 14.3361 58.1824 13.6626 57.4544 13.1769C56.7245 12.6932 55.7879 12.4493 54.6448 12.4493C52.8189 12.4493 51.4102 13.037 50.4186 14.2082C49.4309 15.3815 48.939 16.9904 48.939 19.0371C48.939 21.0798 49.4289 22.6628 50.4107 23.7861C51.3905 24.9053 52.7245 25.465 54.4087 25.465C56.0555 25.465 57.299 25.0133 58.1391 24.1059C58.9832 23.1944 59.4928 21.9992 59.6659 20.5162H55.0619V17.9738H63.0264V28.1593H59.9492L59.6895 25.7288C59.1012 26.6083 58.3634 27.2878 57.478 27.7675C56.5966 28.2412 55.4672 28.4791 54.0939 28.4791Z" fill="black"/>
<path d="M70.2881 28.1593V9.64313H76.9777C78.4356 9.64313 79.6378 9.89697 80.5822 10.4026C81.5305 10.9043 82.2388 11.5839 82.7071 12.4413C83.1734 13.2948 83.4076 14.2402 83.4076 15.2795C83.4076 16.4108 83.1164 17.4421 82.534 18.3735C81.9555 19.3069 81.0505 19.9865 79.8188 20.4122L83.5886 28.1593H79.7637L76.3796 20.8599H73.6172V28.1593H70.2881ZM73.6172 18.3735H76.7731C77.8788 18.3735 78.6934 18.1017 79.2128 17.5581C79.7362 17.0104 79.9998 16.2849 79.9998 15.3834C79.9998 14.504 79.7421 13.8005 79.2285 13.2728C78.7189 12.7411 77.8906 12.4733 76.7416 12.4733H73.6172V18.3735Z" fill="black"/>
<path d="M90.5425 28.1593V9.64313H93.8716V28.1593H90.5425Z" fill="black"/>
<path d="M101.451 28.1593V9.64313H107.676C109.805 9.64313 111.56 10.0269 112.941 10.7944C114.32 11.5619 115.344 12.6392 116.011 14.0243C116.682 15.4114 117.018 17.0364 117.018 18.9012C117.018 20.772 116.682 22.4009 116.011 23.7861C115.344 25.1672 114.32 26.2405 112.941 27.008C111.56 27.7755 109.805 28.1593 107.676 28.1593H101.451ZM104.78 25.2491H107.519C109.046 25.2491 110.25 24.9993 111.131 24.4976C112.017 23.9979 112.652 23.2744 113.036 22.331C113.417 21.3876 113.61 20.2443 113.61 18.9012C113.61 17.58 113.417 16.4448 113.036 15.4954C112.652 14.542 112.017 13.8085 111.131 13.2968C110.25 12.7851 109.046 12.5293 107.519 12.5293H104.78V25.2491Z" fill="black"/>
<path d="M124.144 28.1593V9.64313H130.55C131.829 9.64313 132.89 9.851 133.73 10.2667C134.574 10.6825 135.203 11.2481 135.619 11.9616C136.038 12.6772 136.248 13.4727 136.248 14.3521C136.248 15.5513 135.929 16.4947 135.296 17.1823C134.666 17.8699 133.907 18.3475 133.021 18.6134C133.698 18.7373 134.314 19.0111 134.871 19.4368C135.426 19.8586 135.865 20.3862 136.185 21.0198C136.504 21.6554 136.665 22.351 136.665 23.1065C136.665 24.0399 136.439 24.8893 135.989 25.6569C135.536 26.4244 134.867 27.036 133.982 27.4877C133.1 27.9354 132.024 28.1593 130.755 28.1593H124.144ZM126.332 17.7419H130.393C131.552 17.7419 132.443 17.4661 133.069 16.9105C133.698 16.3508 134.013 15.5793 134.013 14.592C134.013 13.6606 133.702 12.911 133.084 12.3454C132.471 11.7818 131.546 11.4979 130.314 11.4979H126.332V17.7419ZM126.332 26.3044H130.519C131.766 26.3044 132.73 26.0126 133.407 25.425C134.084 24.8334 134.422 24.0079 134.422 22.9466C134.422 21.9073 134.064 21.0758 133.352 20.4522C132.644 19.8246 131.684 19.5088 130.472 19.5088H126.332V26.3044Z" fill="#00C4A0"/>
<path d="M143.851 28.1593V9.64313H146.039V28.1593H143.851Z" fill="#00C4A0"/>
<path d="M153.927 28.1593V9.64313H159.523C162.734 9.64313 165.097 10.4726 166.614 12.1295C168.134 13.7885 168.896 16.063 168.896 18.9572C168.896 21.7933 168.134 24.0379 166.614 25.6888C165.097 27.3358 162.734 28.1593 159.523 28.1593H153.927ZM156.115 26.3044H159.467C161.24 26.3044 162.651 26.0126 163.702 25.425C164.75 24.8334 165.5 23.9859 165.952 22.8826C166.403 21.7793 166.629 20.4722 166.629 18.9572C166.629 17.4061 166.403 16.077 165.952 14.9677C165.5 13.8544 164.75 12.999 163.702 12.4014C162.651 11.7997 161.24 11.4979 159.467 11.4979H156.115V26.3044Z" fill="#00C4A0"/>
<path d="M19.6652 11.2768L17.1847 20.8429L19.1522 20.8585L19.476 26.1605L21.9505 18.3428L19.9504 18.263L19.6652 11.2768Z" fill="black"/>
<rect y="1.78162" width="24.1612" height="24.1612" transform="matrix(0.701524 0.712646 -0.701524 0.712646 20.9491 0.511954)" stroke="black" stroke-width="2.5"/>
<rect y="1.78162" width="11.1724" height="11.1724" transform="matrix(0.701524 0.712646 -0.701524 0.712646 20.9491 9.76836)" stroke="black" stroke-width="2.5"/>
<rect width="2.11844" height="6.37234" transform="matrix(0.701524 0.712646 -0.701524 0.712646 27.4858 10.1951)" fill="black"/>
<rect width="2.11844" height="6.37234" transform="matrix(0.701524 0.712646 -0.701524 0.712646 27.4858 10.1951)" fill="black"/>
<rect width="2.3728" height="6.53582" transform="matrix(0.701524 0.712646 -0.701524 0.712646 14.7557 22.2439)" fill="black"/>
<rect width="2.3728" height="6.53582" transform="matrix(0.701524 0.712646 -0.701524 0.712646 14.7557 22.2439)" fill="black"/>
</svg>
